<?xml version="1.0" encoding="utf-8"?>
<!-- Generator: Adobe Illustrator 22.0.1, SVG Export Plug-In . SVG Version: 6.00 Build 0)  -->
<svg version="1.1" xmlns="http://www.w3.org/2000/svg" xmlns:xlink="http://www.w3.org/1999/xlink" x="0px" y="0px"
	 viewBox="0 0 600 600" style="enable-background:new 0 0 600 600;" xml:space="preserve">
<style type="text/css">
	.st0{display:none;}
	.st1{display:inline;}
	.st2{fill:none;stroke:#000000;stroke-width:32;stroke-linecap:round;stroke-linejoin:round;stroke-miterlimit:10;}
	.st3{fill:none;stroke:#000000;stroke-width:20;stroke-linecap:round;stroke-linejoin:round;stroke-miterlimit:10;}
	.st4{fill:none;stroke:#000000;stroke-width:18.0278;stroke-linecap:round;stroke-linejoin:round;stroke-miterlimit:10;}
	.st5{fill:none;stroke:#000000;stroke-width:30.3079;stroke-linecap:round;stroke-linejoin:round;stroke-miterlimit:10;}
	.st6{fill:none;stroke:#000000;stroke-width:31.8275;stroke-linecap:round;stroke-linejoin:round;stroke-miterlimit:10;}
	.st7{fill:none;stroke:#FFFFFF;stroke-width:50;stroke-linecap:round;stroke-linejoin:round;stroke-miterlimit:10;}
	.st8{fill:none;stroke:#000000;stroke-width:31;stroke-linecap:round;stroke-linejoin:round;stroke-miterlimit:10;}
	.st9{fill:none;stroke:#000000;stroke-width:22.7898;stroke-linecap:round;stroke-linejoin:round;stroke-miterlimit:10;}
	.st10{fill:none;stroke:#000000;stroke-width:32;stroke-linecap:round;stroke-linejoin:round;}
</style>
<g id="Capa_1" class="st0">
	<g class="st1">
		<path class="st5" d="M511.8,486.3H90.2c-0.4,0-0.7-0.3-0.7-0.7v-329c0-0.4,0.3-0.7,0.7-0.7h421.5c0.4,0,0.7,0.3,0.7,0.7v329
			C512.5,485.9,512.2,486.3,511.8,486.3z"/>
		<path d="M512,244.8H88c-0.6,0-1-0.4-1-1v-88c0-0.6,0.4-1,1-1h424c0.5,0,1,0.4,1,1v88C513,244.3,512.5,244.8,512,244.8z"/>
		<g>
			<g>
				<line class="st7" x1="258.7" y1="113.8" x2="258.7" y2="179.8"/>
				<line class="st7" x1="174.1" y1="113.8" x2="174.1" y2="179.8"/>
				<line class="st7" x1="343.3" y1="113.8" x2="343.3" y2="179.8"/>
				<line class="st7" x1="427.9" y1="113.8" x2="427.9" y2="179.8"/>
			</g>
			<g>
				<line class="st8" x1="258.7" y1="113.8" x2="258.7" y2="179.8"/>
				<line class="st8" x1="174.1" y1="113.8" x2="174.1" y2="179.8"/>
				<line class="st8" x1="343.3" y1="113.8" x2="343.3" y2="179.8"/>
				<line class="st8" x1="427.9" y1="113.8" x2="427.9" y2="179.8"/>
			</g>
		</g>
		<g>
			<polyline class="st9" points="267.5,343.7 300.4,290.6 300.4,420.9 			"/>
			<line class="st9" x1="267.5" y1="420.9" x2="334.5" y2="420.9"/>
		</g>
	</g>
</g>
<g id="Capa_1_copia">
	<g>
		<path d="M511.8,140.6h-58.9v39.2c0,13.8-11.2,25-25,25s-25-11.2-25-25v-39.2h-34.6v39.2c0,13.8-11.2,25-25,25s-25-11.2-25-25
			v-39.2h-34.6v39.2c0,13.8-11.2,25-25,25s-25-11.2-25-25v-39.2h-34.6v39.2c0,13.8-11.2,25-25,25s-25-11.2-25-25v-39.2H90.2
			c-8.8,0-15.9,7.1-15.9,15.9v329c0,8.8,7.1,15.9,15.9,15.9h421.5c8.8,0,15.9-7.1,15.9-15.9v-329
			C527.7,147.7,520.5,140.6,511.8,140.6z M497.3,471.1H104.7V244.8h392.7V471.1z"/>
		<path d="M258.7,195.3c-8.6,0-15.5-6.9-15.5-15.5v-66c0-8.6,6.9-15.5,15.5-15.5s15.5,6.9,15.5,15.5v66
			C274.2,188.3,267.3,195.3,258.7,195.3z"/>
		<path d="M174.1,195.3c-8.6,0-15.5-6.9-15.5-15.5v-66c0-8.6,6.9-15.5,15.5-15.5s15.5,6.9,15.5,15.5v66
			C189.6,188.3,182.7,195.3,174.1,195.3z"/>
		<path d="M343.3,195.3c-8.6,0-15.5-6.9-15.5-15.5v-66c0-8.6,6.9-15.5,15.5-15.5s15.5,6.9,15.5,15.5v66
			C358.8,188.3,351.9,195.3,343.3,195.3z"/>
		<path d="M427.9,195.3c-8.6,0-15.5-6.9-15.5-15.5v-66c0-8.6,6.9-15.5,15.5-15.5s15.5,6.9,15.5,15.5v66
			C443.4,188.3,436.5,195.3,427.9,195.3z"/>
		<path d="M334.5,409.5h-22.7V290.6c0-5.1-3.4-9.6-8.3-11c-4.9-1.4-10.1,0.6-12.8,5l-32.9,53.1c-3.3,5.4-1.7,12.4,3.7,15.7
			c5.4,3.3,12.4,1.7,15.7-3.7l11.8-19v78.8h-21.5c-6.3,0-11.4,5.1-11.4,11.4s5.1,11.4,11.4,11.4h67c6.3,0,11.4-5.1,11.4-11.4
			S340.8,409.5,334.5,409.5z"/>
	</g>
</g>
</svg>
