<?xml version="1.0" encoding="utf-8"?>
<!-- Generator: Adobe Illustrator 22.1.0, SVG Export Plug-In . SVG Version: 6.00 Build 0)  -->
<svg version="1.1" id="Capa_1" xmlns="http://www.w3.org/2000/svg" xmlns:xlink="http://www.w3.org/1999/xlink" x="0px" y="0px"
	 viewBox="0 0 50 50" style="enable-background:new 0 0 50 50;" xml:space="preserve">
<style type="text/css">
	.st0{fill:#FFFFFF;}
	.st1{fill:#696767;}
	.st2{fill:#FFB600;}
	.st3{fill:#23B248;}
	.st4{fill:#050505;}
	.st5{fill:none;stroke:#000000;stroke-width:1.0761;stroke-linecap:round;stroke-linejoin:round;stroke-miterlimit:10;}
	.st6{fill:#F80000;}
	.st7{fill:#FFB600;stroke:#FFB600;stroke-miterlimit:10;}
	.st8{fill:none;stroke:#000000;stroke-width:1.75;stroke-linecap:round;stroke-linejoin:round;stroke-miterlimit:10;}
	.st9{fill:none;stroke:#23B248;stroke-width:1.3;stroke-miterlimit:10;}
	.st10{fill:#23B248;stroke:#23B248;stroke-width:0.15;stroke-miterlimit:10;}
</style>
<path class="st6" d="M25,45C14,45,5,36,5,25S14,5,25,5c11,0,20,9,20,20C45,36,36.1,45,25,45z M25,6.8C15,6.8,6.8,15,6.8,25
	c0,10,8.2,18.2,18.2,18.2c10,0,18.2-8.2,18.2-18.2C43.2,15,35.1,6.8,25,6.8z"/>
<path class="st6" d="M26.3,25l3.9-3.9c0.4-0.4,0.4-0.9,0-1.3l0,0c-0.4-0.4-0.9-0.4-1.3,0L25,23.7l-3.9-3.9c-0.4-0.4-0.9-0.4-1.3,0
	l0,0c-0.4,0.4-0.4,0.9,0,1.3l3.9,3.9l-3.9,3.9c-0.4,0.4-0.4,0.9,0,1.3l0,0c0.4,0.4,0.9,0.4,1.3,0l3.9-3.9l3.9,3.9
	c0.4,0.4,0.9,0.4,1.3,0l0,0c0.4-0.4,0.4-0.9,0-1.3L26.3,25z"/>
</svg>
