<?xml version="1.0" encoding="utf-8"?>
<!-- Generator: Adobe Illustrator 22.0.1, SVG Export Plug-In . SVG Version: 6.00 Build 0)  -->
<svg version="1.1" xmlns="http://www.w3.org/2000/svg" xmlns:xlink="http://www.w3.org/1999/xlink" x="0px" y="0px"
	 viewBox="0 0 600 600" style="enable-background:new 0 0 600 600;" xml:space="preserve">
<style type="text/css">
	.st0{display:none;}
	.st1{display:inline;}
	.st2{fill:none;stroke:#000000;stroke-width:32;stroke-linecap:round;stroke-linejoin:round;stroke-miterlimit:10;}
	.st3{fill:none;stroke:#000000;stroke-width:20;stroke-linecap:round;stroke-linejoin:round;stroke-miterlimit:10;}
	.st4{fill:none;stroke:#000000;stroke-width:18.0278;stroke-linecap:round;stroke-linejoin:round;stroke-miterlimit:10;}
	.st5{fill:none;stroke:#000000;stroke-width:30.3079;stroke-linecap:round;stroke-linejoin:round;stroke-miterlimit:10;}
	.st6{fill:none;stroke:#000000;stroke-width:31.8275;stroke-linecap:round;stroke-linejoin:round;stroke-miterlimit:10;}
	.st7{fill:none;stroke:#FFFFFF;stroke-width:50;stroke-linecap:round;stroke-linejoin:round;stroke-miterlimit:10;}
	.st8{fill:none;stroke:#000000;stroke-width:31;stroke-linecap:round;stroke-linejoin:round;stroke-miterlimit:10;}
	.st9{fill:none;stroke:#000000;stroke-width:22.7898;stroke-linecap:round;stroke-linejoin:round;stroke-miterlimit:10;}
	.st10{fill:none;stroke:#000000;stroke-width:32;stroke-linecap:round;stroke-linejoin:round;}
</style>
<g id="Capa_1" class="st0">
	<g class="st1">
		<g>
			<polyline class="st2" points="68.8,168.4 109,168.4 124.6,209.6 530.8,209.6 			"/>
			<polyline class="st2" points="124.6,209.6 198.2,479 451.7,479 			"/>
			<polyline class="st2" points="180.8,407.2 476.4,407.2 531.3,209.6 			"/>
		</g>
		<g>
			<g>
				<line class="st3" x1="161.7" y1="213.7" x2="212" y2="398.5"/>
				<line class="st3" x1="207.4" y1="213.7" x2="257.7" y2="398.5"/>
				<line class="st3" x1="253.2" y1="213.7" x2="303.5" y2="398.5"/>
				<line class="st3" x1="298.9" y1="213.7" x2="349.2" y2="398.5"/>
				<line class="st3" x1="344.7" y1="213.7" x2="395" y2="398.5"/>
				<line class="st3" x1="390.4" y1="213.7" x2="440.7" y2="398.5"/>
				<line class="st3" x1="436.2" y1="213.7" x2="481.3" y2="378.9"/>
				<line class="st3" x1="481.9" y1="213.7" x2="504.3" y2="294.9"/>
			</g>
			<line class="st3" x1="154.4" y1="306.1" x2="490.6" y2="306.1"/>
		</g>
		<circle cx="210.6" cy="531.6" r="22"/>
		<circle cx="441.1" cy="531.6" r="22"/>
	</g>
	<g class="st1">
		<path d="M333,145.2c-8.8,0-16-7.2-16-16V64c0-8.8,7.2-16,16-16s16,7.2,16,16v65.2C349,138,341.8,145.2,333,145.2z"/>
		<path d="M372.7,121.6h-79.3c-6.2,0-9.3,7.5-4.9,11.8l39.6,39.6c2.7,2.7,7.1,2.7,9.8,0l39.7-39.6
			C381.9,129.1,378.8,121.6,372.7,121.6z"/>
	</g>
</g>
<g id="Capa_1_copia">
	<g>
		<path d="M535.5,194.2c-1.5-0.4-3.1-0.6-4.6-0.6c0,0-0.1,0-0.1,0H135.6L124,162.7c-2.4-6.2-8.3-10.3-15-10.3H68.8
			c-8.8,0-16,7.2-16,16s7.2,16,16,16h29.2l11.4,30.1l73.5,268.7c1.9,7,8.2,11.8,15.4,11.8h253.4c8.8,0,16-7.2,16-16s-7.2-16-16-16
			H210.4l-10.9-39.8h276.8c7.2,0,13.5-4.8,15.4-11.7l54.9-197.6C549,205.3,544,196.5,535.5,194.2z M502.8,252.1l-7.3-26.5h14.7
			L502.8,252.1z M479.7,335.3l-5.2-19.2h10.6L479.7,335.3z M490.6,296.1C490.6,296.1,490.6,296.1,490.6,296.1l-21.6,0l-19.2-70.5h25
			l17.6,64L490.6,296.1z M403.4,391.2l-20.4-75.1h25l20.4,75.1H403.4z M357.6,391.2l-20.4-75.1h25l20.4,75.1H357.6z M311.9,391.2
			l-20.4-75.1h25l20.4,75.1H311.9z M266.1,391.2l-20.4-75.1h25l20.4,75.1H266.1z M220.4,391.2l-20.4-75.1h25l20.4,75.1H220.4z
			 M145.5,225.6h9l19.2,70.5h-9L145.5,225.6z M175.3,225.6h25l19.2,70.5h-25L175.3,225.6z M246,225.6l19.2,70.5h-25L221,225.6H246z
			 M291.8,225.6l19.2,70.5h-25l-19.2-70.5H291.8z M337.5,225.6l19.2,70.5h-25l-19.2-70.5H337.5z M377.5,296.1l-19.2-70.5h25
			l19.2,70.5H377.5z M404,225.6h25l19.2,70.5h-25.1L404,225.6z M170.3,316.1h8.9l20.4,75.1h-8.9L170.3,316.1z M449.1,391.2
			l-20.4-75.1h25.1l15.5,56.9l-5.1,18.2H449.1z"/>
		<ellipse transform="matrix(0.9848 -0.1735 0.1735 0.9848 -89.0464 44.5977)" cx="210.6" cy="531.6" rx="22" ry="22"/>
		<ellipse transform="matrix(0.9848 -0.1735 0.1735 0.9848 -85.5497 84.599)" cx="441.1" cy="531.6" rx="22" ry="22"/>
		<path d="M328.1,173.1c2.7,2.7,7.1,2.7,9.8,0l39.7-39.6c4.4-4.4,1.3-11.8-4.9-11.8H349V64c0-8.8-7.2-16-16-16s-16,7.2-16,16v57.6
			h-23.6c-6.2,0-9.3,7.5-4.9,11.8L328.1,173.1z"/>
	</g>
</g>
</svg>
