<?xml version="1.0" encoding="utf-8"?>
<!-- Generator: Adobe Illustrator 22.1.0, SVG Export Plug-In . SVG Version: 6.00 Build 0)  -->
<svg version="1.1" xmlns="http://www.w3.org/2000/svg" xmlns:xlink="http://www.w3.org/1999/xlink" x="0px" y="0px"
	 viewBox="0 0 50 50" style="enable-background:new 0 0 50 50;" xml:space="preserve">
<style type="text/css">
	.st0{fill:url(#SVGID_1_);}
	.st1{fill:url(#SVGID_2_);}
	.st2{fill:#575656;}
	.st3{fill:#AFADAD;}
	.st4{fill:#23B248;}
	.st5{fill:#FFFFFF;}
	.st6{fill:#F80000;}
</style>
<g id="Capa_1">
	<g>
		<g>
			<path class="st3" d="M25.8,37c0-2.2-1.8-4-4-4s-4,1.8-4,4c0,2.2,1.8,4,4,4S25.8,39.1,25.8,37L25.8,37z M19.8,37c0-1.1,0.9-2,2-2
				s2,0.9,2,2l0,0c0,1.1-0.9,2-2,2C20.7,39,19.8,38.1,19.8,37z"/>
		</g>
		<g>
			<path class="st3" d="M39.6,37c0-2.2-1.7-4-3.9-4c0,0,0,0,0,0c-2.2,0-4,1.8-4,4c0,2.2,1.7,4,4,4c0,0,0,0,0,0
				C37.8,40.9,39.6,39.1,39.6,37z M33.6,37c0-1.1,0.9-2,2-2.1c0,0,0,0,0,0c1.1,0,2,1,2,2.1c0,0,0,0,0,0c0,1.1-0.9,2.1-2,2.1
				C34.5,39,33.6,38.1,33.6,37C33.6,37,33.6,37,33.6,37L33.6,37z"/>
		</g>
		<g>
			<path class="st3" d="M43.9,14.1H15l-0.6-2C13.8,10.3,12.1,9,10.2,9H6.1c-0.5,0-1,0.4-1,1c0,0.5,0.4,0.9,0.9,1c0,0,0.1,0,0.1,0
				h4.1c1.1,0,2,0.7,2.3,1.7L17,26.9c0.6,2,2.5,3.4,4.6,3.4h15.2c2.1,0,4-1.4,4.6-3.4l3.5-11.6c0.1-0.3,0-0.6-0.1-0.9
				C44.5,14.2,44.2,14,43.9,14.1z M39.5,26.3c-0.4,1.2-1.5,2.1-2.7,2.1H21.5c-1.3,0-2.4-0.8-2.7-2L15.6,16h27L39.5,26.3z"/>
		</g>
	</g>
</g>
<g id="Capa_2">
</g>
<g id="Capa_3">
</g>
</svg>
