<?xml version="1.0" encoding="utf-8"?>
<!-- Generator: Adobe Illustrator 22.0.1, SVG Export Plug-In . SVG Version: 6.00 Build 0)  -->
<svg version="1.1" xmlns="http://www.w3.org/2000/svg" xmlns:xlink="http://www.w3.org/1999/xlink" x="0px" y="0px"
	 viewBox="0 0 600 600" style="enable-background:new 0 0 600 600;" xml:space="preserve">
<style type="text/css">
	.st0{display:none;}
	.st1{display:inline;}
	.st2{fill:none;stroke:#000000;stroke-width:32;stroke-linecap:round;stroke-linejoin:round;stroke-miterlimit:10;}
	.st3{fill:none;stroke:#000000;stroke-width:20;stroke-linecap:round;stroke-linejoin:round;stroke-miterlimit:10;}
	.st4{fill:none;stroke:#000000;stroke-width:18.0278;stroke-linecap:round;stroke-linejoin:round;stroke-miterlimit:10;}
	.st5{fill:none;stroke:#000000;stroke-width:30.3079;stroke-linecap:round;stroke-linejoin:round;stroke-miterlimit:10;}
	.st6{fill:none;stroke:#000000;stroke-width:31.8275;stroke-linecap:round;stroke-linejoin:round;stroke-miterlimit:10;}
	.st7{fill:none;stroke:#FFFFFF;stroke-width:50;stroke-linecap:round;stroke-linejoin:round;stroke-miterlimit:10;}
	.st8{fill:none;stroke:#000000;stroke-width:31;stroke-linecap:round;stroke-linejoin:round;stroke-miterlimit:10;}
	.st9{fill:none;stroke:#000000;stroke-width:22.7898;stroke-linecap:round;stroke-linejoin:round;stroke-miterlimit:10;}
	.st10{fill:none;stroke:#000000;stroke-width:32;stroke-linecap:round;stroke-linejoin:round;}
</style>
<g id="Capa_1" class="st0">
	<g class="st1">
		<path class="st5" d="M493,511H107c-0.5,0-1-0.4-1-1l30-304.5c0-0.5,0.4-1,1-1h326c0.5,0,1,0.4,1,1L494,510
			C494,510.6,493.6,511,493,511z"/>
		<circle cx="217" cy="277.6" r="22"/>
		<circle cx="383" cy="277.6" r="22"/>
		<path class="st4" d="M383,275V172c0-45.8-37.2-83-83-83s-83,37.2-83,83v103"/>
	</g>
</g>
<g id="Capa_1_copia">
	<path d="M509.1,508.5l-30-304.2c-0.6-8.4-7.6-15-16.1-15h-71V172c0-50.7-41.3-92-92-92s-92,41.3-92,92v17.3h-71
		c-8.5,0-15.5,6.6-16.1,15l-30,304.2c0,0.5-0.1,1-0.1,1.5c0,8.9,7.2,16.1,16.1,16.1h386c8.9,0,16.1-7.2,16.1-16.1
		C509.2,509.5,509.1,509,509.1,508.5z M226,172c0-40.8,33.2-74,74-74s74,33.2,74,74v17.3H226V172z M122.6,495.8l27.2-276.2H208v38
		c-7.6,3.4-13,11.1-13,20c0,12.1,9.8,22,22,22s22-9.8,22-22c0-8.9-5.3-16.6-13-20v-38h148v38c-7.6,3.4-13,11.1-13,20
		c0,12.1,9.8,22,22,22s22-9.8,22-22c0-8.9-5.3-16.6-13-20v-38h58.2l27.2,276.2H122.6z"/>
</g>
</svg>
