<?xml version="1.0" encoding="utf-8"?>
<!-- Generator: Adobe Illustrator 22.1.0, SVG Export Plug-In . SVG Version: 6.00 Build 0)  -->
<svg version="1.1" xmlns="http://www.w3.org/2000/svg" xmlns:xlink="http://www.w3.org/1999/xlink" x="0px" y="0px"
	 viewBox="0 0 150 26.1" style="enable-background:new 0 0 150 26.1;" xml:space="preserve">
<style type="text/css">
	.st0{display:none;}
	.st1{display:inline;fill:none;stroke:#000000;stroke-miterlimit:10;}
	.st2{display:inline;}
	.st3{stroke:#000000;stroke-miterlimit:10;}
	.st4{fill:none;stroke:#000000;stroke-width:0.9882;stroke-miterlimit:10;}
	.st5{stroke:#000000;stroke-width:0.2471;stroke-miterlimit:10;}
	.st6{fill:#4081F2;}
	.st7{fill:#1D1D1B;}
	.st8{fill:#E20D17;}
	.st9{fill:#EA610A;}
	.st10{fill:#F59E00;}
	.st11{fill-rule:evenodd;clip-rule:evenodd;fill:url(#SVGID_1_);}
	.st12{fill-rule:evenodd;clip-rule:evenodd;fill:url(#SVGID_2_);}
	.st13{fill-rule:evenodd;clip-rule:evenodd;fill:url(#SVGID_3_);}
	.st14{fill-rule:evenodd;clip-rule:evenodd;fill:url(#SVGID_4_);}
	.st15{fill-rule:evenodd;clip-rule:evenodd;fill:url(#SVGID_5_);}
	.st16{fill-rule:evenodd;clip-rule:evenodd;fill:#EFA616;}
	.st17{fill-rule:evenodd;clip-rule:evenodd;fill:#FFFFFF;}
	.st18{fill-rule:evenodd;clip-rule:evenodd;fill:#E20613;}
	.st19{fill:#AFADAD;}
	.st20{fill:#EE6130;}
	.st21{fill:#00A4AC;}
</style>
<g id="Capa_2" class="st0">
</g>
<g id="Capa_1">
	<g>
		<g transform="translate(0 -3)">
			<path class="st19" d="M17.2,20.8c0.2,0,0.3,0.1,0.5,0.2l1.3,1.4c-0.7,0.9-1.6,1.6-2.7,2c-1.2,0.5-2.5,0.7-3.8,0.7
				c-1.2,0-2.4-0.2-3.5-0.7c-1-0.4-1.9-1.1-2.7-1.9c-0.8-0.8-1.3-1.8-1.7-2.9C4.2,18.5,4,17.3,4,16.1c0-1.3,0.2-2.5,0.7-3.7
				c0.8-2.2,2.6-3.9,4.7-4.7C10.6,7.2,11.8,7,13.1,7c1.2,0,2.4,0.2,3.5,0.6c0.9,0.4,1.8,1,2.5,1.7L18,10.8c-0.1,0.1-0.2,0.2-0.3,0.3
				c-0.1,0.1-0.3,0.1-0.4,0.1c-0.2,0-0.4-0.1-0.6-0.2c-0.2-0.2-0.5-0.3-0.8-0.5c-0.4-0.2-0.8-0.4-1.1-0.5c-0.6-0.2-1.2-0.2-1.8-0.2
				c-0.8,0-1.6,0.1-2.3,0.4c-0.7,0.3-1.3,0.7-1.8,1.2c-0.5,0.6-0.9,1.2-1.2,2c-0.3,0.8-0.4,1.7-0.4,2.6c0,0.9,0.1,1.8,0.4,2.7
				c0.3,0.7,0.6,1.4,1.1,2c0.5,0.5,1.1,0.9,1.7,1.2c0.7,0.3,1.4,0.4,2.1,0.4c0.4,0,0.8,0,1.2-0.1c0.3,0,0.7-0.1,1-0.2
				c0.3-0.1,0.6-0.3,0.9-0.4c0.3-0.2,0.6-0.4,0.8-0.6c0.1-0.1,0.2-0.1,0.3-0.2C17,20.8,17.1,20.8,17.2,20.8z M38.8,16.1
				c0,1.2-0.2,2.5-0.6,3.6c-0.4,1.1-1,2-1.8,2.9c-0.8,0.8-1.8,1.5-2.8,1.9c-2.4,0.9-5,0.9-7.3,0c-1.1-0.4-2-1.1-2.9-1.9
				c-0.8-0.8-1.4-1.8-1.8-2.9c-0.4-1.2-0.7-2.4-0.6-3.6c0-1.2,0.2-2.5,0.6-3.6c0.4-1.1,1-2,1.8-2.9c0.8-0.8,1.8-1.5,2.9-1.9
				C27.3,7.2,28.5,7,29.8,7c1.3,0,2.5,0.2,3.7,0.7c1.1,0.4,2,1.1,2.8,1.9c0.8,0.8,1.4,1.8,1.8,2.9C38.5,13.6,38.8,14.8,38.8,16.1z
				 M35.4,16.1c0-0.9-0.1-1.8-0.4-2.6c-0.2-0.7-0.6-1.4-1.1-2c-0.5-0.5-1.1-1-1.8-1.2c-0.7-0.3-1.5-0.4-2.3-0.4
				c-0.8,0-1.6,0.1-2.3,0.4c-0.7,0.3-1.3,0.7-1.8,1.2c-0.5,0.6-0.9,1.2-1.1,2c-0.3,0.8-0.4,1.7-0.4,2.6c0,0.9,0.1,1.8,0.4,2.6
				c0.2,0.7,0.6,1.4,1.1,2c0.5,0.5,1.1,1,1.8,1.2c0.7,0.3,1.5,0.4,2.3,0.4c0.8,0,1.6-0.1,2.3-0.4c0.7-0.3,1.3-0.7,1.8-1.2
				c0.5-0.6,0.9-1.2,1.1-2C35.2,17.9,35.4,17,35.4,16.1z M43.2,7c0.1,0,0.2,0,0.3,0.1c0.1,0,0.2,0.1,0.2,0.2
				c0.1,0.1,0.2,0.2,0.3,0.3l9.5,12.1c0-0.3-0.1-0.6-0.1-0.9c0-0.3,0-0.5,0-0.8V7h3v18.1h-1.7c-0.2,0-0.5,0-0.7-0.1
				c-0.2-0.1-0.4-0.3-0.5-0.5l-9.5-12.1c0,0.3,0,0.5,0.1,0.8s0,0.5,0,0.7v11.1h-3V7h1.8C42.9,7,43.1,7,43.2,7z M71.1,7v2.7h-8v5h6.3
				v2.6h-6.3v5.1h8v2.7H59.7V7H71.1z M77.1,14.6h0.8c0.3,0,0.5,0,0.8-0.1c0.2-0.1,0.4-0.2,0.5-0.4l5-6.3c0.2-0.2,0.4-0.4,0.7-0.6
				C85.2,7.1,85.5,7,85.8,7h2.9l-6.1,7.5c-0.2,0.2-0.4,0.4-0.6,0.6c-0.2,0.2-0.4,0.3-0.6,0.4c0.3,0.1,0.5,0.2,0.7,0.4
				c0.2,0.2,0.5,0.4,0.6,0.7l6.3,8.5h-3c-0.3,0-0.6,0-0.9-0.2c-0.2-0.1-0.4-0.3-0.5-0.5l-5.1-6.7c-0.1-0.2-0.3-0.4-0.6-0.5
				c-0.3-0.1-0.6-0.2-0.9-0.1h-1.1v8h-3.4V7h3.4L77.1,14.6z M104.7,7v2.8h-6.7v15.4h-3.4V9.8h-5.8L91.1,7H104.7z M118.9,25.1h-2.6
				c-0.3,0-0.5-0.1-0.7-0.2c-0.2-0.1-0.3-0.3-0.4-0.5l-1.4-3.7h-7.5l-1.4,3.7c-0.1,0.2-0.2,0.4-0.4,0.5c-0.2,0.2-0.5,0.2-0.7,0.2
				h-2.6L108.3,7h3.5L118.9,25.1z M107.2,18.3h5.8l-2.2-6c-0.1-0.3-0.2-0.6-0.3-0.9c-0.1-0.4-0.2-0.8-0.4-1.2
				c-0.1,0.4-0.2,0.8-0.3,1.2c-0.1,0.4-0.2,0.7-0.3,1L107.2,18.3z"/>
		</g>
		<g>
			<polygon class="st20" points="135.5,13.1 137,15.1 133.2,20.1 128,13.1 133.2,6.1 137,11.1 			"/>
			<polygon class="st21" points="138.5,13.1 129.5,1 137,1 146,13.1 137,25.1 129.5,25.1 			"/>
		</g>
	</g>
</g>
</svg>
