<?xml version="1.0" encoding="utf-8"?>
<!-- Generator: Adobe Illustrator 22.1.0, SVG Export Plug-In . SVG Version: 6.00 Build 0)  -->
<svg version="1.1" xmlns="http://www.w3.org/2000/svg" xmlns:xlink="http://www.w3.org/1999/xlink" x="0px" y="0px"
	 viewBox="0 0 50 50" style="enable-background:new 0 0 50 50;" xml:space="preserve">
<style type="text/css">
	.st0{fill:#575656;}
	.st1{fill:#23B248;}
	.st2{fill:#F80000;}
</style>
<g id="Capa_1">
	<g>
		<g>
			<path class="st0" d="M13.8,28.9h-1.4c-1.6,0-2.9,1.3-2.9,2.9v1.4c0,1.6,1.3,2.9,2.9,2.9h1.4c1.6,0,2.9-1.3,2.9-2.9v-1.4
				C16.6,30.2,15.4,28.9,13.8,28.9z M15.2,33.2c0,0.8-0.6,1.4-1.4,1.4h-1.4c-0.8,0-1.4-0.6-1.4-1.4v-1.4c0-0.8,0.6-1.4,1.4-1.4h1.4
				c0.8,0,1.4,0.6,1.4,1.4V33.2z"/>
			<rect x="19.5" y="30.5" class="st0" width="16.1" height="1.4"/>
			<rect x="19.5" y="33.4" class="st0" width="12.5" height="1.4"/>
			<path class="st0" d="M41.4,10.4H13.6c-2,0-3.6,1.6-3.6,3.6v1.4H8.6c-2,0-3.6,1.6-3.6,3.6v17.1c0,2,1.6,3.6,3.6,3.6h27.9
				c2,0,3.6-1.6,3.6-3.6v-1.4h1.4c2,0,3.6-1.6,3.6-3.6V13.9C45,11.9,43.4,10.4,41.4,10.4z M8.6,16.8h27.9c1.2,0,2.1,0.9,2.1,2.1v2.1
				H6.4v-2.1C6.4,17.7,7.4,16.8,8.6,16.8z M36.4,38.2H8.6c-1.2,0-2.1-0.9-2.1-2.1V25.4h32.1v10.7C38.6,37.3,37.6,38.2,36.4,38.2z
				 M43.6,31.1c0,1.2-0.9,2.1-2.1,2.1H40V18.9c0-2-1.6-3.6-3.6-3.6h-25v-1.4c0-1.2,0.9-2.1,2.1-2.1h27.9c1.2,0,2.1,0.9,2.1,2.1V31.1
				z"/>
		</g>
	</g>
</g>
<g id="Capa_2">
</g>
</svg>
