<?xml version="1.0" encoding="utf-8"?>
<!-- Generator: Adobe Illustrator 22.1.0, SVG Export Plug-In . SVG Version: 6.00 Build 0)  -->
<svg version="1.1" xmlns="http://www.w3.org/2000/svg" xmlns:xlink="http://www.w3.org/1999/xlink" x="0px" y="0px"
	 viewBox="0 0 50 50" style="enable-background:new 0 0 50 50;" xml:space="preserve">
<style type="text/css">
	.st0{fill:#575656;}
	.st1{fill:#23B248;}
	.st2{fill:#F80000;}
</style>
<g id="Capa_1">
	<path class="st0" d="M43.2,9.5l-2.7-2.7c-1-1-2.4-1.6-3.8-1.6c-1.4,0-2.8,0.6-3.8,1.6L9.1,30.7c-0.1,0.1-0.2,0.3-0.3,0.4L5.3,43.5
		c-0.1,0.3,0,0.7,0.3,1c0.2,0.2,0.4,0.3,0.7,0.3c0.1,0,0.2,0,0.3,0l12.4-3.5c0.2,0,0.3-0.1,0.4-0.3l23.8-23.9c1-1,1.6-2.4,1.6-3.8
		C44.8,11.8,44.2,10.5,43.2,9.5z M37.5,19.9L18.1,39.3l-10.4,3l3-10.4l19.4-19.4L37.5,19.9z M36.7,7.2c0.9,0,1.8,0.4,2.4,1l2.7,2.7
		c0.6,0.6,1,1.5,1,2.4c0,0.9-0.4,1.7-1,2.4l-2.8,2.8l-7.4-7.4l2.8-2.8C35,7.6,35.8,7.2,36.7,7.2z"/>
</g>
<g id="Capa_2">
</g>
</svg>
