<?xml version="1.0" encoding="utf-8"?>
<!-- Generator: Adobe Illustrator 22.1.0, SVG Export Plug-In . SVG Version: 6.00 Build 0)  -->
<svg version="1.1" xmlns="http://www.w3.org/2000/svg" xmlns:xlink="http://www.w3.org/1999/xlink" x="0px" y="0px"
	 viewBox="0 0 150 117.3" style="enable-background:new 0 0 150 117.3;" xml:space="preserve">
<style type="text/css">
	.st0{display:none;}
	.st1{display:inline;fill:none;stroke:#000000;stroke-miterlimit:10;}
	.st2{display:inline;}
	.st3{stroke:#000000;stroke-miterlimit:10;}
	.st4{fill:url(#SVGID_1_);}
	.st5{fill:#002898;}
	.st6{fill:#11185C;}
	.st7{fill:#D83B31;}
	.st8{fill:#EBA03E;}
	.st9{fill:#ED6D30;}
	.st10{fill:none;stroke:#000000;stroke-width:0.9882;stroke-miterlimit:10;}
	.st11{stroke:#000000;stroke-width:0.2471;stroke-miterlimit:10;}
	.st12{fill:#4081F2;}
	.st13{fill:#1D1D1B;}
	.st14{fill:#E20D17;}
	.st15{fill:#EA610A;}
	.st16{fill:#F59E00;}
	.st17{fill-rule:evenodd;clip-rule:evenodd;fill:url(#SVGID_2_);}
	.st18{fill-rule:evenodd;clip-rule:evenodd;fill:url(#SVGID_3_);}
	.st19{fill-rule:evenodd;clip-rule:evenodd;fill:url(#SVGID_4_);}
	.st20{fill-rule:evenodd;clip-rule:evenodd;fill:url(#SVGID_5_);}
	.st21{fill-rule:evenodd;clip-rule:evenodd;fill:url(#SVGID_6_);}
	.st22{fill-rule:evenodd;clip-rule:evenodd;fill:#EFA616;}
	.st23{fill-rule:evenodd;clip-rule:evenodd;fill:#FFFFFF;}
	.st24{fill-rule:evenodd;clip-rule:evenodd;fill:#E20613;}
	.st25{fill:#B5EEB1;}
	.st26{fill:#4ED944;}
</style>
<g id="Capa_2" class="st0">
</g>
<g id="Capa_1">
	<g>
		<path class="st25" d="M137.1,25.8c-13.6-2.6-27.2-5.2-40.8-7.9c-23-4.4-46-8.8-69-13.3c-5.7-1.1-11.1,2.4-12.2,8.1
			c-1.5,7.7-3,15.3-4.5,23c-0.1,0.5-0.1,0.9-0.5,1.2c-3.3,2.5-4.4,5.9-4.3,9.9C5.9,54.3,6.2,61.7,4.3,69c-0.6,2.3-0.1,4.6,1,6.7
			c0.4,0.7,0.5,1.4,0.5,2.2c0,7.9,0,15.7,0,23.6c0,0.9,0,1.9,0.2,2.8c1.1,5.2,5.2,8.4,10.8,8.4c18.5,0,37,0,55.6,0
			c18.4,0,36.9,0,55.3,0c7.1,0,11.4-4.3,11.4-11.4c0-9,0-18.1,0-27.1c0-0.6,0-1.2,0.1-1.8c2.2-11.3,4.4-22.5,6.6-33.8
			C147,32.3,143.6,27.1,137.1,25.8z"/>
		<g>
			<path class="st26" d="M72.4,112.9c-18.5,0-37,0-55.6,0c-5.6,0-9.7-3.3-10.8-8.4c-0.2-0.9-0.2-1.8-0.2-2.8c0-7.9,0-15.7,0-23.6
				c0-0.8-0.1-1.5-0.5-2.2c-1.2-2.1-1.7-4.4-1-6.7c2-7.3,1.6-14.8,1.5-22.2c0-4,1-7.4,4.3-9.9c0.4-0.3,0.5-0.8,0.5-1.2
				c1.5-7.7,2.9-15.3,4.5-23c1.1-5.7,6.6-9.2,12.2-8.1c23,4.4,46,8.9,69,13.3c13.6,2.6,27.2,5.2,40.8,7.9c6.5,1.3,9.9,6.5,8.7,13
				c-2.2,11.3-4.4,22.5-6.6,33.8c-0.1,0.6-0.1,1.2-0.1,1.8c0,9,0,18.1,0,27.1c0,7.1-4.3,11.4-11.4,11.4
				C109.2,112.9,90.8,112.9,72.4,112.9z M71.5,107.9c14.9,0,29.9,0,44.8,0c1.1,0,1.7-0.3,2.1-1.4c2.6-6.8,7.4-11.5,14.4-13.7
				c1.1-0.3,1.5-0.8,1.5-2c-0.1-11-0.1-22.1,0-33.1c0-1.2-0.3-1.7-1.5-2c-7.2-2.3-12-7-14.6-14.1c-0.4-1.2-0.9-1.6-2.2-1.6
				c-29.7,0-59.4,0-89.1,0c-0.3,0-0.6,0-0.8,0c-0.6-0.1-0.9,0.2-1.1,0.8c-2.3,6.9-6.8,11.7-13.6,14.4c-0.7,0.3-0.9,0.6-0.9,1.3
				c0,11.8,0,23.5,0,35.3c0,0.9,0.4,1.3,1.2,1.6c1.4,0.5,2.7,1.2,4,1.9c4.2,2.7,7.2,6.3,8.9,11c0.5,1.3,1.2,1.6,2.4,1.6
				C41.8,107.9,56.7,107.9,71.5,107.9z M21.6,34c-0.2,1.3,0.8,0.9,1.3,0.9c13,0,26.1,0,39.1,0c0.8,0,1.4-0.2,2.1-0.6
				c6.5-3.7,13-3.9,19.4,0.2c0.6,0.4,1.2,0.4,1.9,0.4c8,0,15.9,0,23.9,0c3.7,0,7.4,0,11,0c0.3,0,0.9,0.2,0.9-0.3
				c0.1-0.5-0.1-0.9-0.7-1.1c-0.3-0.1-0.5-0.2-0.8-0.2c-10.6-2.1-21.2-4.1-31.8-6.2c-16.2-3.1-32.4-6.2-48.7-9.4
				c-0.8-0.2-1.3,0.1-1.7,0.7c-3.6,4.8-8.2,8-13.9,9.8c-0.5,0.2-1,0.4-1.1,1C22.1,30.8,21.9,32.4,21.6,34z M124.9,34.9
				c0.5,0,0.7,0,0.9,0c1.1,0.1,1.5-0.2,1.1-1.4c-0.4-1.3-0.6-2.6-0.8-3.9c-0.1-0.7-0.4-0.9-1-1.1c-8.2-1.6-16.4-3.1-24.6-4.7
				c-13.4-2.6-26.9-5.2-40.3-7.8c-7.8-1.5-15.7-3-23.5-4.5c-1-0.2-1.6-0.1-2,0.9c-0.8,1.7-2,3.2-3.3,4.5c-3.4,3.5-7.5,5.8-12.3,6.6
				c-0.8,0.1-1.3,0.4-1.5,1.4c-0.3,2.4-0.9,4.7-1.3,7.1C15.6,35,15.6,35,18.5,35c0.7,0,1-0.2,1.2-1c0.3-1.8,0.8-3.6,1.1-5.5
				c0.2-1,0.5-1.5,1.5-1.8c5.9-1.7,10.7-5.1,14.2-10.2c0.6-0.8,1.2-1,2.1-0.8c5.9,1.1,11.8,2.3,17.6,3.4c12.4,2.4,24.8,4.8,37.2,7.2
				c9.3,1.8,18.6,3.6,27.9,5.4c0.9,0.2,1.6,0.4,1.7,1.5C123,34.5,123.5,35.4,124.9,34.9z M77.4,34.8c-1.1-0.9-1.4-0.9-2,0.1
				C76,34.9,76.7,35,77.4,34.8z"/>
			<path class="st26" d="M71.5,104c-14.1,0-28.1,0-42.2,0c-1.1,0-1.6-0.3-2.1-1.3c-2.5-5.4-6.6-9.3-11.8-12
				c-0.8-0.4-1.1-0.9-1.1-1.8c0-9.8,0-19.6,0-29.5c0-0.9,0.2-1.4,1.1-1.9c5.6-2.7,9.6-7,12.2-12.7c0.4-0.9,0.9-1.2,1.9-1.2
				c28.1,0,56.2,0,84.3,0c0.9,0,1.4,0.3,1.8,1.2c2.9,6.4,7.6,10.9,14,13.7c0.6,0.3,0.9,0.6,0.9,1.3c0,9.5,0,19.1,0,28.6
				c0,0.8-0.3,1.2-1,1.5c-6.3,2.7-10.9,7.1-13.9,13.3c-0.4,0.9-1,0.8-1.7,0.8C99.8,104,85.6,104,71.5,104z M71.5,102.3
				c13.7,0,27.4,0,41,0c1.1,0,1.6-0.3,2.2-1.3c3-5.6,7.4-9.7,13.1-12.4c0.7-0.3,1-0.7,0.9-1.5c0-8.7,0-17.3,0-26
				c0-0.8-0.3-1.1-1-1.4c-5.9-2.8-10.4-7-13.3-12.8c-0.5-1.1-1.1-1.4-2.3-1.4c-27,0-54.1,0-81.1,0c-1.2,0-1.9,0.3-2.4,1.5
				c-2.5,5-6.2,8.9-11.1,11.6c-1.1,0.6-1.3,1.1-1.3,2.2c0,8.8,0.1,17.6,0,26.4c0,1.5,0.5,2.4,1.8,3c4.6,2.5,8,6.1,10.4,10.7
				c0.6,1.1,1.2,1.4,2.4,1.4C44.3,102.3,57.9,102.3,71.5,102.3z"/>
			<path class="st26" d="M89.7,73.8c-0.1,7.5-2.6,13.8-8.3,18.3c-8.5,6.7-20,4.7-26.3-4.2c-6.7-9.6-5.4-22.8,3.1-30.8
				c6.6-6.2,17-6.4,23.8-0.4C87.2,61.3,89.5,67.3,89.7,73.8z M69,81.8c0,1.3,0,2.5,0,3.8c0,1.5-0.3,1.6-1.6,0.9
				c-1.9-1-2.5-2.9-3.1-4.8c-0.6-1.7-1.9-2.4-3.5-2c-1.5,0.4-2.3,1.9-2,3.5c0.9,4.3,3.7,6.8,7.8,7.8c1.7,0.4,2.7,0.8,2.4,2.8
				c-0.1,0.7,0.5,1.2,1.2,1.2c0.8,0,1.2-0.4,1.3-1.2c0-0.5,0.1-0.9,0-1.4c0-0.7,0.1-1,0.9-1.1c1.1-0.1,2.2-0.4,3.2-0.9
				c3.4-1.4,5.4-4,5.8-7.6c0.5-3.5-0.7-6.5-3.7-8.6c-1.6-1.1-3.4-1.5-5.2-2c-0.5-0.1-1.1-0.2-1.1-1c0-2.6,0-5.1,0-7.7
				c0-0.8,0.4-0.7,0.9-0.5c1.4,0.7,2.3,1.7,2.7,3.2c0.6,2,2,2.8,3.6,2.3c1.5-0.5,2.2-2.2,1.5-4.1c-1-2.7-2.9-4.8-5.8-5.4
				c-2.1-0.5-3.5-1-3-3.5c0.1-0.7-0.4-1.2-1.2-1.2c-0.8,0-1.2,0.4-1.3,1.2c0,0.6,0,1.3,0,2c0,0.7-0.1,1-0.9,1.1
				c-1.3,0.1-2.5,0.5-3.7,1.1c-3.1,1.5-4.6,4-4.7,7.3c-0.1,3,0.7,5.8,3.5,7.6c1.4,0.9,3,1.5,4.7,1.8c0.9,0.2,1.2,0.6,1.2,1.5
				C68.9,79.3,69,80.6,69,81.8z"/>
			<path class="st26" d="M27.4,73.8c0-3.9,3-7,6.8-6.9c4.4,0.1,7,3.6,6.9,7.1c-0.1,3.9-3.1,6.8-7,6.8C30.2,80.8,27.4,77.8,27.4,73.8
				z M34.3,68.8c-2.9,0-5.3,2-5.2,5.2c0,2.9,2.3,5.2,5.2,5.2c2.8,0,5.1-2.3,5.1-5.1C39.4,71,37.2,68.8,34.3,68.8z"/>
			<path class="st26" d="M111.7,74.4c0,0.6,0,1.3-0.3,2c-0.5,1.5-1.6,2.4-2.9,2.3c-1.3,0-2.4-0.9-2.8-2.3c-0.5-1.6-0.4-3.2,0.1-4.8
				c0.4-1.2,1.2-1.9,2.5-2c1.3-0.1,2.3,0.5,2.9,1.7C111.6,72.3,111.7,73.3,111.7,74.4z M109.9,74.4c-0.1-1,0.1-1.8-0.3-2.6
				c-0.2-0.5-0.5-0.8-1-0.8c-0.5,0-0.9,0.2-1,0.7c-0.5,1.5-0.4,3.1-0.1,4.7c0.1,0.6,0.5,1,1.2,1c0.7-0.1,1-0.6,1.1-1.2
				C109.8,75.5,109.8,74.9,109.9,74.4z"/>
			<path class="st26" d="M119,74.2c0,0.7,0,1.5-0.2,2.2c-0.5,1.5-1.7,2.4-3.1,2.3c-1.4-0.1-2.6-1.3-2.8-2.9c-0.1-1-0.1-2,0-3.1
				c0.1-1.8,1.1-3,2.6-3.2c1.6-0.2,2.8,0.7,3.3,2.5C119,72.8,119,73.5,119,74.2z M114.5,74.2c0.1,0.7-0.1,1.5,0.3,2.3
				c0.2,0.5,0.6,1,1.2,0.9c0.6,0,0.9-0.5,1-1c0.4-1.5,0.4-3,0-4.5c-0.1-0.5-0.5-0.9-1.1-0.9c-0.6,0-0.9,0.3-1.1,0.8
				C114.5,72.6,114.5,73.4,114.5,74.2z"/>
			<path class="st26" d="M101.1,72.5c-0.7,0.4-1.1,0.6-1.6,0.8c-0.4,0.2-0.8,0.2-1.1-0.2c-0.3-0.5,0-0.8,0.4-1
				c1-0.5,1.8-1.2,2.6-2.1c0.6-0.6,1.2-0.4,1.3,0.4c0.1,2.5,0,5,0,7.5c0,0.5-0.4,0.9-1,0.8c-0.5-0.1-0.7-0.5-0.7-0.9
				C101.1,76.1,101.1,74.4,101.1,72.5z"/>
			<path class="st26" d="M71.5,82.4c0-1.3,0-2.6,0-3.9c0-0.5,0.1-0.8,0.7-0.6c2.1,0.5,3.9,2.3,4,4.1c0.1,2.4-1.2,4.3-3.5,5.1
				c-1,0.3-1.3,0.1-1.2-0.9C71.6,84.9,71.6,83.6,71.5,82.4C71.6,82.4,71.5,82.4,71.5,82.4z"/>
			<path class="st26" d="M69,67.1c0,1.1,0,2.2,0,3.3c0,0.7-0.2,0.8-0.8,0.6c-2.1-0.8-3.2-2.1-3.3-3.9c0-1.9,1-3.2,3.1-4
				c0.7-0.3,1-0.2,1,0.6C69,64.9,69,66,69,67.1C69,67.1,69,67.1,69,67.1z"/>
			<path class="st26" d="M34.2,71c2,0,2.8,1.1,2.9,3.1c0.1,1.4-1.4,2.7-2.9,2.8c-1.7,0-2.9-1.3-2.9-3.1C31.3,72.1,32.5,71,34.2,71z"
				/>
		</g>
	</g>
</g>
</svg>
