<?xml version="1.0" encoding="utf-8"?>
<!-- Generator: Adobe Illustrator 22.0.1, SVG Export Plug-In . SVG Version: 6.00 Build 0)  -->
<svg version="1.1" xmlns="http://www.w3.org/2000/svg" xmlns:xlink="http://www.w3.org/1999/xlink" x="0px" y="0px"
	 viewBox="0 0 600 600" style="enable-background:new 0 0 600 600;" xml:space="preserve">
<style type="text/css">
	.st0{display:none;}
	.st1{display:inline;}
	.st2{fill:none;stroke:#000000;stroke-width:32;stroke-linecap:round;stroke-linejoin:round;stroke-miterlimit:10;}
	.st3{fill:none;stroke:#000000;stroke-width:20;stroke-linecap:round;stroke-linejoin:round;stroke-miterlimit:10;}
	.st4{fill:none;stroke:#000000;stroke-width:18.0278;stroke-linecap:round;stroke-linejoin:round;stroke-miterlimit:10;}
	.st5{fill:none;stroke:#000000;stroke-width:30.3079;stroke-linecap:round;stroke-linejoin:round;stroke-miterlimit:10;}
	.st6{fill:none;stroke:#000000;stroke-width:31.8275;stroke-linecap:round;stroke-linejoin:round;stroke-miterlimit:10;}
	.st7{fill:none;stroke:#FFFFFF;stroke-width:50;stroke-linecap:round;stroke-linejoin:round;stroke-miterlimit:10;}
	.st8{fill:none;stroke:#000000;stroke-width:31;stroke-linecap:round;stroke-linejoin:round;stroke-miterlimit:10;}
	.st9{fill:none;stroke:#000000;stroke-width:22.7898;stroke-linecap:round;stroke-linejoin:round;stroke-miterlimit:10;}
	.st10{fill:none;stroke:#000000;stroke-width:32;stroke-linecap:round;stroke-linejoin:round;}
</style>
<g id="Capa_1" class="st0">
	<g class="st1">
		<path class="st2" d="M291,403.3H83c-0.6,0-1-0.4-1-1v-208c0-0.5,0.4-1,1-1h208c0.5,0,1,0.5,1,1v208
			C292,402.9,291.5,403.3,291,403.3z"/>
		<rect x="156" y="193.3" class="st4" width="62" height="78"/>
		<polygon class="st5" points="63,418 63,520.7 136.2,520.7 136.2,485.2 263.7,485.2 263.7,520.7 336.3,520.7 336.3,485.2 
			463.8,485.2 463.8,520.7 537,520.7 537,418 		"/>
		<g>
			<rect x="294" y="295.3" class="st6" width="230" height="108"/>
			<g>
				<line class="st4" x1="339.3" y1="349.3" x2="385.3" y2="349.3"/>
				<line class="st4" x1="430.3" y1="349.3" x2="476.3" y2="349.3"/>
			</g>
		</g>
		<g>
			<rect x="294" y="187.3" class="st6" width="230" height="108"/>
			<g>
				<line class="st4" x1="339.3" y1="241.3" x2="385.3" y2="241.3"/>
				<line class="st4" x1="430.3" y1="241.3" x2="476.3" y2="241.3"/>
			</g>
		</g>
		<g>
			<rect x="294" y="79.3" class="st6" width="230" height="108"/>
			<g>
				<line class="st4" x1="339.3" y1="133.3" x2="385.3" y2="133.3"/>
				<line class="st4" x1="430.3" y1="133.3" x2="476.3" y2="133.3"/>
			</g>
		</g>
	</g>
</g>
<g id="Capa_1_copia">
	<g>
		<path d="M539.9,403.2V295.3v-108v-108c0-8.8-7.1-15.9-15.9-15.9H294c-8.8,0-15.9,7.1-15.9,15.9v98H83c-9.4,0-17,7.6-17,17v208
			c0,0.2,0,0.4,0,0.5h-3c-8.4,0-15.2,6.8-15.2,15.2v102.6c0,8.4,6.8,15.2,15.2,15.2h73.2c8.4,0,15.2-6.8,15.2-15.2v-20.3h97.2v20.3
			c0,8.4,6.8,15.2,15.2,15.2h72.5c8.4,0,15.2-6.8,15.2-15.2v-20.3h97.2v20.3c0,8.4,6.8,15.2,15.2,15.2H537c8.4,0,15.2-6.8,15.2-15.2
			V418C552.2,410.6,546.9,404.5,539.9,403.2z M309.9,311.3h198.2v76.2H309.9V311.3z M508.1,279.4H309.9v-76.2h198.2V279.4z
			 M309.9,95.3h198.2v76.2H309.9V95.3z M165,209.3h44v53h-44V209.3z M98,209.3h49v62c0,5,4,9,9,9h62c5,0,9-4,9-9v-62h49v178H98
			V209.3z M521.8,505.5H479v-20.3c0-8.4-6.8-15.2-15.2-15.2H336.3c-8.4,0-15.2,6.8-15.2,15.2v20.3h-42.2v-20.3
			c0-8.4-6.8-15.2-15.2-15.2H136.2c-8.4,0-15.2,6.8-15.2,15.2v20.3H78.2v-72.3h443.7V505.5z"/>
		<path d="M385.3,340.3h-46c-5,0-9,4-9,9s4,9,9,9h46c5,0,9-4,9-9S390.2,340.3,385.3,340.3z"/>
		<path d="M476.3,340.3h-46c-5,0-9,4-9,9s4,9,9,9h46c5,0,9-4,9-9S481.2,340.3,476.3,340.3z"/>
		<path d="M339.3,250.4h46c5,0,9-4,9-9s-4-9-9-9h-46c-5,0-9,4-9,9S334.3,250.4,339.3,250.4z"/>
		<path d="M430.3,250.4h46c5,0,9-4,9-9s-4-9-9-9h-46c-5,0-9,4-9,9S425.3,250.4,430.3,250.4z"/>
		<path d="M385.3,124.3h-46c-5,0-9,4-9,9s4,9,9,9h46c5,0,9-4,9-9S390.2,124.3,385.3,124.3z"/>
		<path d="M476.3,124.3h-46c-5,0-9,4-9,9s4,9,9,9h46c5,0,9-4,9-9S481.2,124.3,476.3,124.3z"/>
	</g>
</g>
</svg>
