<svg width="20" height="20" viewBox="0 0 20 20" fill="none" xmlns="http://www.w3.org/2000/svg">
<path d="M19.9358 8.84811C19.8933 8.74643 19.8325 8.65393 19.755 8.57643L17.2558 6.07725C16.93 5.75225 16.4033 5.75225 16.0775 6.07725C15.7517 6.40307 15.7517 6.93057 16.0775 7.25557L17.155 8.33307H12.5C12.0392 8.33307 11.6667 8.70639 11.6667 9.16639C11.6667 9.62639 12.0392 9.99971 12.5 9.99971H17.155L16.0775 11.0772C15.7516 11.403 15.7516 11.9305 16.0775 12.2555C16.24 12.4188 16.4533 12.4997 16.6666 12.4997C16.88 12.4997 17.0933 12.4189 17.2558 12.2555L19.755 9.75635C19.8325 9.67967 19.8933 9.58717 19.9358 9.48467C20.02 9.28143 20.02 9.05143 19.9358 8.84811Z" fill="#153D86"/>
<path d="M14.1666 11.6667C13.7058 11.6667 13.3333 12.04 13.3333 12.5V16.6667H10V3.33332C10 2.96582 9.75832 2.64082 9.40582 2.535L6.51164 1.66668H13.3333V5.83336C13.3333 6.29336 13.7058 6.66668 14.1666 6.66668C14.6275 6.66668 15 6.29336 15 5.83336V0.833359C15 0.37332 14.6275 0 14.1666 0H0.83332C0.80332 0 0.776641 0.0125 0.7475 0.0158203C0.70832 0.02 0.6725 0.0266406 0.635 0.0358203C0.5475 0.0583203 0.46832 0.0925 0.39418 0.139141C0.375859 0.15082 0.353359 0.151641 0.335859 0.164961C0.329141 0.17 0.326641 0.17918 0.319961 0.18418C0.229141 0.25582 0.15332 0.34332 0.0983203 0.4475C0.0866406 0.47 0.0841406 0.49418 0.075 0.5175C0.0483203 0.58082 0.0191797 0.6425 0.00917969 0.7125C0.005 0.7375 0.0125 0.76082 0.0116797 0.785C0.0108594 0.80168 0 0.81668 0 0.83332V17.5C0 17.8975 0.28082 18.2392 0.67 18.3167L9.00332 19.9834C9.0575 19.995 9.1125 20 9.16664 20C9.35746 20 9.54496 19.9342 9.69496 19.8109C9.88746 19.6525 9.99996 19.4167 9.99996 19.1667V18.3334H14.1666C14.6275 18.3334 15 17.96 15 17.5V12.5C15 12.04 14.6275 11.6667 14.1666 11.6667Z" fill="#153D86"/>
</svg>
