<?xml version="1.0" encoding="utf-8"?>
<!-- Generator: Adobe Illustrator 22.1.0, SVG Export Plug-In . SVG Version: 6.00 Build 0)  -->
<svg version="1.1" xmlns="http://www.w3.org/2000/svg" xmlns:xlink="http://www.w3.org/1999/xlink" x="0px" y="0px"
	 viewBox="0 0 150 150" style="enable-background:new 0 0 150 150;" xml:space="preserve">
<style type="text/css">
	.st0{display:none;}
	.st1{display:inline;fill:#1B8EE2;}
	.st2{fill:#FFFFFF;}
	.st3{fill:#575656;}
	.st4{display:inline;}
	.st5{stroke:#000000;stroke-miterlimit:10;}
	.st6{display:inline;stroke:#000000;stroke-width:1.7521;stroke-miterlimit:10;}
	.st7{display:inline;stroke:#000000;stroke-width:1.5192;stroke-miterlimit:10;}
	.st8{display:inline;fill:none;stroke:#000000;stroke-width:4.7;stroke-linecap:round;stroke-linejoin:round;stroke-miterlimit:10;}
	.st9{display:inline;stroke:#000000;stroke-width:0.741;stroke-miterlimit:10;}
</style>
<g id="svg5038" inkscape:export-filename="/Users/Danee/Documents/Trabajo 2link/Iconos app/Iconos definitivo/Salir.png" inkscape:export-xdpi="600" inkscape:export-ydpi="600" inkscape:version="0.91 r13725" sodipodi:docname="TPV.svg" xmlns:cc="http://creativecommons.org/ns#" xmlns:dc="http://purl.org/dc/elements/1.1/" xmlns:inkscape="http://www.inkscape.org/namespaces/inkscape" xmlns:rdf="http://www.w3.org/1999/02/22-rdf-syntax-ns#" xmlns:sodipodi="http://sodipodi.sourceforge.net/DTD/sodipodi-0.dtd" xmlns:svg="http://www.w3.org/2000/svg">
	<g>
		<path class="st3" d="M105.7,74.4c-0.2-0.3-0.3-0.5-0.5-0.6L98,66.7c-0.8-0.8-2.2-0.8-3.1,0c-0.5,0.3-0.6,0.9-0.6,1.4
			s0.2,1.1,0.6,1.4l3.6,3.5H82.8c-1.3,0-2.2,0.9-2.2,2s0.9,2,2.2,2h15.8L95,80.5c-0.5,0.3-0.6,0.9-0.6,1.4s0.2,1.1,0.6,1.4
			c0.5,0.5,0.9,0.6,1.6,0.6c0.6,0,1.1-0.2,1.6-0.6l7.2-7.1c0.2-0.2,0.3-0.5,0.5-0.6S106,74.8,105.7,74.4z"/>
		<path class="st3" d="M77.3,44.3H46.6c0,0,0,0-0.2,0h-0.2c-0.2,0-0.3,0-0.3,0h-0.2c-0.2,0-0.3,0.2-0.5,0.2c0,0,0,0-0.2,0
			c-0.2,0.5-0.3,0.5-0.5,0.6c0,0,0,0-0.2,0.2c0,0.2-0.2,0.2-0.2,0.3c0,0,0,0.2-0.2,0.2c0,0.2-0.2,0.3-0.2,0.3v0.2c0,0.2,0,0.3,0,0.6
			v46.7c0,0.9,0.6,1.9,1.4,2.2l21.2,9.9c0.3,0.2,0.6,0.2,1.1,0.2s0.9-0.2,1.3-0.3c0.8-0.5,1.1-1.3,1.1-2v-7.5h7.2
			c1.4,0,2.5-1.1,2.5-2.5V46.8C79.8,45.4,78.7,44.3,77.3,44.3z M48.9,50.7l16.2,7.7v41.2l-16.2-7.6V50.7z M74.9,91.2h-0.2h-4.7V56.8
			c0-0.9-0.6-1.9-1.4-2.2l-11-5.3h17.3V91.2z"/>
	</g>
</g>
<g id="Capa_2" class="st0">
</g>
</svg>
