<?xml version="1.0" encoding="utf-8"?>
<!-- Generator: Adobe Illustrator 22.1.0, SVG Export Plug-In . SVG Version: 6.00 Build 0)  -->
<svg version="1.1" xmlns="http://www.w3.org/2000/svg" xmlns:xlink="http://www.w3.org/1999/xlink" x="0px" y="0px"
	 viewBox="0 0 50 50" style="enable-background:new 0 0 50 50;" xml:space="preserve">
<style type="text/css">
	.st0{fill:#575656;}
	.st1{fill:#23B248;}
	.st2{fill:#F80000;}
</style>
<g id="Capa_1">
	<g>
		<path class="st0" d="M33.4,7.5c-3.2,0-6.3,1.3-8.4,3.6c-2.2-2.3-5.2-3.6-8.4-3.6C10.2,7.5,5,12.5,5,18.7
			c0,12.9,18.7,23.2,19.5,23.6c0.1,0.1,0.3,0.1,0.5,0.1c0.2,0,0.3,0,0.5-0.1C26.3,41.9,45,30.9,45,18.7C45,12.5,39.8,7.5,33.4,7.5z
			 M25,40.3C22,38.6,7,29.3,7,18.7c0-5.1,4.3-9.2,9.6-9.2c3,0,5.8,1.4,7.7,3.7c0.4,0.5,1.2,0.5,1.6,0c1.8-2.4,4.6-3.7,7.7-3.7
			c5.3,0,9.6,4.1,9.6,9.2C43,28.8,27.9,38.5,25,40.3z"/>
	</g>
</g>
<g id="Capa_2">
</g>
</svg>
