<svg width="360" height="151" viewBox="0 0 360 151" fill="none" xmlns="http://www.w3.org/2000/svg">
<rect width="360" height="151" fill="#EAF2FF"/>
<path d="M149 30.3672L158.975 32.4928L179.45 45.5121L162.65 43.1208L149 30.3672Z" fill="#CFD9E5"/>
<path d="M152.149 21.8652L161.074 25.8507L180.499 43.6527H173.674L162.387 37.8073L152.149 21.8652Z" fill="#B7C6D8"/>
<path d="M157.663 14.1592L165.538 20.0046L179.451 42.3234L172.626 40.7292L162.651 30.8983L157.663 14.1592Z" fill="#93ABC7"/>
<path d="M165.538 7.78223L171.576 16.0189L178.401 40.4634L171.576 37.275L165.538 25.5842V7.78223Z" fill="#6687AF"/>
<path d="M175.251 3.79688L178.663 13.6278V40.1978L171.838 34.0867L169.476 21.0674L175.251 3.79688Z" fill="#4973A3"/>
<path d="M168.951 58L178.138 39.9324L173.413 30.6329L175.251 16.8164L185.226 3V31.6957L189.951 30.6329L194.676 33.2899V35.1498L212.001 36.4783L194.676 37.5411L168.951 58Z" fill="#25558F"/>
<path d="M151.049 76.9746H145.326V83H142.855V68.7812H151.889V70.7734H145.326V75.002H151.049V76.9746ZM156.146 83H153.773V68H156.146V83ZM161.264 83H158.891V72.4336H161.264V83ZM158.744 69.6895C158.744 69.3249 158.858 69.0221 159.086 68.7812C159.32 68.5404 159.652 68.4199 160.082 68.4199C160.512 68.4199 160.844 68.5404 161.078 68.7812C161.312 69.0221 161.43 69.3249 161.43 69.6895C161.43 70.0475 161.312 70.347 161.078 70.5879C160.844 70.8223 160.512 70.9395 160.082 70.9395C159.652 70.9395 159.32 70.8223 159.086 70.5879C158.858 70.347 158.744 70.0475 158.744 69.6895ZM166.059 72.4336L166.127 73.6543C166.908 72.7103 167.934 72.2383 169.203 72.2383C171.404 72.2383 172.523 73.498 172.562 76.0176V83H170.189V76.1543C170.189 75.4837 170.043 74.9889 169.75 74.6699C169.464 74.3444 168.992 74.1816 168.334 74.1816C167.377 74.1816 166.664 74.6146 166.195 75.4805V83H163.822V72.4336H166.059ZM178.422 78.4688L177.367 79.5527V83H174.994V68H177.367V76.6523L178.109 75.7246L181.029 72.4336H183.881L179.955 76.8379L184.301 83H181.557L178.422 78.4688ZM194.848 83H185.287V81.3691L190.023 76.2031C190.707 75.4414 191.192 74.8066 191.479 74.2988C191.771 73.7845 191.918 73.2702 191.918 72.7559C191.918 72.0788 191.726 71.5319 191.342 71.1152C190.964 70.6986 190.453 70.4902 189.809 70.4902C189.04 70.4902 188.445 70.7246 188.021 71.1934C187.598 71.6621 187.387 72.3034 187.387 73.1172H185.014C185.014 72.2513 185.209 71.4733 185.6 70.7832C185.997 70.0866 186.56 69.5462 187.289 69.1621C188.025 68.778 188.871 68.5859 189.828 68.5859C191.208 68.5859 192.296 68.9342 193.09 69.6309C193.891 70.321 194.291 71.278 194.291 72.502C194.291 73.2116 194.089 73.957 193.686 74.7383C193.288 75.513 192.634 76.3952 191.723 77.3848L188.246 81.1055H194.848V83ZM207.934 81.1543C207.419 81.8249 206.706 82.3327 205.795 82.6777C204.883 83.0228 203.848 83.1953 202.689 83.1953C201.498 83.1953 200.443 82.9251 199.525 82.3848C198.607 81.8444 197.898 81.0729 197.396 80.0703C196.902 79.0612 196.645 77.8861 196.625 76.5449V75.4316C196.625 73.2832 197.139 71.6068 198.168 70.4023C199.197 69.1914 200.632 68.5859 202.475 68.5859C204.057 68.5859 205.313 68.9766 206.244 69.7578C207.175 70.5391 207.735 71.6654 207.924 73.1367H205.502C205.229 71.4245 204.236 70.5684 202.523 70.5684C201.417 70.5684 200.574 70.9688 199.994 71.7695C199.421 72.5638 199.125 73.7324 199.105 75.2754V76.3691C199.105 77.9056 199.428 79.1003 200.072 79.9531C200.723 80.7995 201.625 81.2227 202.777 81.2227C204.04 81.2227 204.939 80.9362 205.473 80.3633V77.5801H202.543V75.7051H207.934V81.1543ZM209.975 77.6191C209.975 76.584 210.18 75.653 210.59 74.8262C211 73.9928 211.576 73.3548 212.318 72.9121C213.061 72.4629 213.913 72.2383 214.877 72.2383C216.303 72.2383 217.458 72.6973 218.344 73.6152C219.236 74.5332 219.717 75.7507 219.789 77.2676L219.799 77.8242C219.799 78.8659 219.597 79.7969 219.193 80.6172C218.796 81.4375 218.223 82.0723 217.475 82.5215C216.732 82.9707 215.873 83.1953 214.896 83.1953C213.406 83.1953 212.211 82.7005 211.312 81.7109C210.421 80.7148 209.975 79.39 209.975 77.7363V77.6191ZM212.348 77.8242C212.348 78.9115 212.572 79.7643 213.021 80.3828C213.471 80.9948 214.096 81.3008 214.896 81.3008C215.697 81.3008 216.319 80.9883 216.762 80.3633C217.211 79.7383 217.436 78.8236 217.436 77.6191C217.436 76.5514 217.204 75.7051 216.742 75.0801C216.286 74.4551 215.665 74.1426 214.877 74.1426C214.102 74.1426 213.487 74.4518 213.031 75.0703C212.576 75.6823 212.348 76.6003 212.348 77.8242Z" fill="#25558F"/>
<mask id="path-9-inside-1" fill="white">
<path fill-rule="evenodd" clip-rule="evenodd" d="M28.875 92.7143C28.875 92.7902 28.8729 92.8658 28.8688 92.9408C29.5829 92.2642 30.4999 91.8574 31.5 91.8574C33.2494 91.8574 34.7445 93.102 35.3442 94.8587C37.3718 94.913 39 96.7145 39 98.9289C39 101.04 37.52 102.776 35.625 102.98V103H16.125V102.982C13.8152 102.764 12 100.553 12 97.8567C12 95.0164 14.0147 92.7139 16.5 92.7139C17.0299 92.7139 17.5384 92.8185 18.0106 93.0108C18.0036 92.9127 18 92.8139 18 92.7143C18 90.1107 20.4345 88 23.4375 88C26.4405 88 28.875 90.1107 28.875 92.7143Z"/>
</mask>
<path fill-rule="evenodd" clip-rule="evenodd" d="M28.875 92.7143C28.875 92.7902 28.8729 92.8658 28.8688 92.9408C29.5829 92.2642 30.4999 91.8574 31.5 91.8574C33.2494 91.8574 34.7445 93.102 35.3442 94.8587C37.3718 94.913 39 96.7145 39 98.9289C39 101.04 37.52 102.776 35.625 102.98V103H16.125V102.982C13.8152 102.764 12 100.553 12 97.8567C12 95.0164 14.0147 92.7139 16.5 92.7139C17.0299 92.7139 17.5384 92.8185 18.0106 93.0108C18.0036 92.9127 18 92.8139 18 92.7143C18 90.1107 20.4345 88 23.4375 88C26.4405 88 28.875 90.1107 28.875 92.7143Z" fill="white"/>
<path d="M28.8688 92.9408L28.3696 92.9136L28.3011 94.1676L29.2127 93.3038L28.8688 92.9408ZM35.3442 94.8587L34.871 95.0202L34.9834 95.3492L35.3308 95.3585L35.3442 94.8587ZM35.625 102.98L35.5714 102.483L35.125 102.531V102.98H35.625ZM35.625 103V103.5H36.125V103H35.625ZM16.125 103H15.625V103.5H16.125V103ZM16.125 102.982H16.625V102.527L16.1719 102.484L16.125 102.982ZM18.0106 93.0108L17.822 93.4739L18.5667 93.7771L18.5093 92.9751L18.0106 93.0108ZM29.3681 92.9681C29.3727 92.8839 29.375 92.7993 29.375 92.7143H28.375C28.375 92.7811 28.3732 92.8476 28.3696 92.9136L29.3681 92.9681ZM31.5 91.3574C30.3591 91.3574 29.3221 91.8225 28.5249 92.5779L29.2127 93.3038C29.8438 92.7058 30.6407 92.3574 31.5 92.3574V91.3574ZM35.8174 94.6971C35.1625 92.7789 33.5035 91.3574 31.5 91.3574V92.3574C32.9953 92.3574 34.3264 93.4251 34.871 95.0202L35.8174 94.6971ZM39.5 98.9289C39.5 96.4808 37.6917 94.4214 35.3576 94.3589L35.3308 95.3585C37.0518 95.4046 38.5 96.9482 38.5 98.9289H39.5ZM35.6786 103.477C37.8569 103.242 39.5 101.265 39.5 98.9289H38.5C38.5 100.815 37.183 102.309 35.5714 102.483L35.6786 103.477ZM35.125 102.98V103H36.125V102.98H35.125ZM35.625 102.5H16.125V103.5H35.625V102.5ZM16.625 103V102.982H15.625V103H16.625ZM11.5 97.8567C11.5 100.757 13.4612 103.233 16.0781 103.48L16.1719 102.484C14.1691 102.295 12.5 100.348 12.5 97.8567H11.5ZM16.5 92.2139C13.6779 92.2139 11.5 94.8051 11.5 97.8567H12.5C12.5 95.2277 14.3515 93.2139 16.5 93.2139V92.2139ZM18.1991 92.5477C17.669 92.3319 17.0966 92.2139 16.5 92.2139V93.2139C16.9632 93.2139 17.4078 93.3052 17.822 93.4739L18.1991 92.5477ZM17.5 92.7143C17.5 92.8258 17.504 92.9366 17.5119 93.0465L18.5093 92.9751C18.5031 92.8889 18.5 92.8019 18.5 92.7143H17.5ZM23.4375 87.5C20.2277 87.5 17.5 89.7699 17.5 92.7143H18.5C18.5 90.4514 20.6412 88.5 23.4375 88.5V87.5ZM29.375 92.7143C29.375 89.7699 26.6473 87.5 23.4375 87.5V88.5C26.2338 88.5 28.375 90.4514 28.375 92.7143H29.375Z" fill="#FFFFDC" mask="url(#path-9-inside-1)"/>
<mask id="path-11-inside-2" fill="white">
<path fill-rule="evenodd" clip-rule="evenodd" d="M112.875 56.7143C112.875 56.7902 112.873 56.8658 112.869 56.9408C113.583 56.2642 114.5 55.8574 115.5 55.8574C117.249 55.8574 118.744 57.102 119.344 58.8587C121.372 58.913 123 60.7145 123 62.9289C123 65.04 121.52 66.7759 119.625 66.9802V67.0004H100.125V66.982C97.8152 66.7642 96 64.5527 96 61.8567C96 59.0164 98.0147 56.7139 100.5 56.7139C101.03 56.7139 101.538 56.8185 102.011 57.0108C102.004 56.9127 102 56.8139 102 56.7143C102 54.1107 104.434 52 107.438 52C110.441 52 112.875 54.1107 112.875 56.7143Z"/>
</mask>
<path fill-rule="evenodd" clip-rule="evenodd" d="M112.875 56.7143C112.875 56.7902 112.873 56.8658 112.869 56.9408C113.583 56.2642 114.5 55.8574 115.5 55.8574C117.249 55.8574 118.744 57.102 119.344 58.8587C121.372 58.913 123 60.7145 123 62.9289C123 65.04 121.52 66.7759 119.625 66.9802V67.0004H100.125V66.982C97.8152 66.7642 96 64.5527 96 61.8567C96 59.0164 98.0147 56.7139 100.5 56.7139C101.03 56.7139 101.538 56.8185 102.011 57.0108C102.004 56.9127 102 56.8139 102 56.7143C102 54.1107 104.434 52 107.438 52C110.441 52 112.875 54.1107 112.875 56.7143Z" fill="white"/>
<path d="M112.869 56.9408L112.37 56.9136L112.301 58.1676L113.213 57.3038L112.869 56.9408ZM119.344 58.8587L118.871 59.0202L118.983 59.3492L119.331 59.3585L119.344 58.8587ZM119.625 66.9802L119.571 66.4831L119.125 66.5312V66.9802H119.625ZM119.625 67.0004V67.5004H120.125V67.0004H119.625ZM100.125 67.0004H99.625V67.5004H100.125V67.0004ZM100.125 66.982H100.625V66.5269L100.172 66.4842L100.125 66.982ZM102.011 57.0108L101.822 57.4739L102.567 57.7771L102.509 56.9751L102.011 57.0108ZM113.368 56.9681C113.373 56.8839 113.375 56.7993 113.375 56.7143H112.375C112.375 56.7811 112.373 56.8476 112.37 56.9136L113.368 56.9681ZM115.5 55.3574C114.359 55.3574 113.322 55.8225 112.525 56.5779L113.213 57.3038C113.844 56.7058 114.641 56.3574 115.5 56.3574V55.3574ZM119.817 58.6971C119.162 56.7789 117.504 55.3574 115.5 55.3574V56.3574C116.995 56.3574 118.326 57.4251 118.871 59.0202L119.817 58.6971ZM123.5 62.9289C123.5 60.4808 121.692 58.4214 119.358 58.3589L119.331 59.3585C121.052 59.4046 122.5 60.9482 122.5 62.9289H123.5ZM119.679 67.4773C121.857 67.2425 123.5 65.2647 123.5 62.9289H122.5C122.5 64.8154 121.183 66.3093 119.571 66.4831L119.679 67.4773ZM119.125 66.9802V67.0004H120.125V66.9802H119.125ZM119.625 66.5004H100.125V67.5004H119.625V66.5004ZM100.625 67.0004V66.982H99.625V67.0004H100.625ZM95.5 61.8567C95.5 64.757 97.4612 67.233 100.078 67.4798L100.172 66.4842C98.1691 66.2954 96.5 64.3485 96.5 61.8567H95.5ZM100.5 56.2139C97.6779 56.2139 95.5 58.8051 95.5 61.8567H96.5C96.5 59.2277 98.3515 57.2139 100.5 57.2139V56.2139ZM102.199 56.5477C101.669 56.3319 101.097 56.2139 100.5 56.2139V57.2139C100.963 57.2139 101.408 57.3052 101.822 57.4739L102.199 56.5477ZM101.5 56.7143C101.5 56.8258 101.504 56.9366 101.512 57.0465L102.509 56.9751C102.503 56.8889 102.5 56.8019 102.5 56.7143H101.5ZM107.438 51.5C104.228 51.5 101.5 53.7699 101.5 56.7143H102.5C102.5 54.4514 104.641 52.5 107.438 52.5V51.5ZM113.375 56.7143C113.375 53.7699 110.647 51.5 107.438 51.5V52.5C110.234 52.5 112.375 54.4514 112.375 56.7143H113.375Z" fill="#FFFFDC" mask="url(#path-11-inside-2)"/>
<mask id="path-13-inside-3" fill="white">
<path fill-rule="evenodd" clip-rule="evenodd" d="M55.875 15.7143C55.875 15.7902 55.8729 15.8658 55.8688 15.9408C56.5829 15.2642 57.4999 14.8574 58.5 14.8574C60.2494 14.8574 61.7445 16.102 62.3442 17.8587C64.3718 17.913 66 19.7145 66 21.9289C66 24.04 64.52 25.7759 62.625 25.9802V26.0004H43.125V25.982C40.8152 25.7642 39 23.5527 39 20.8567C39 18.0164 41.0147 15.7139 43.5 15.7139C44.0299 15.7139 44.5384 15.8185 45.0106 16.0108C45.0036 15.9127 45 15.8139 45 15.7143C45 13.1107 47.4345 11 50.4375 11C53.4405 11 55.875 13.1107 55.875 15.7143Z"/>
</mask>
<path fill-rule="evenodd" clip-rule="evenodd" d="M55.875 15.7143C55.875 15.7902 55.8729 15.8658 55.8688 15.9408C56.5829 15.2642 57.4999 14.8574 58.5 14.8574C60.2494 14.8574 61.7445 16.102 62.3442 17.8587C64.3718 17.913 66 19.7145 66 21.9289C66 24.04 64.52 25.7759 62.625 25.9802V26.0004H43.125V25.982C40.8152 25.7642 39 23.5527 39 20.8567C39 18.0164 41.0147 15.7139 43.5 15.7139C44.0299 15.7139 44.5384 15.8185 45.0106 16.0108C45.0036 15.9127 45 15.8139 45 15.7143C45 13.1107 47.4345 11 50.4375 11C53.4405 11 55.875 13.1107 55.875 15.7143Z" fill="white"/>
<path d="M55.8688 15.9408L55.3696 15.9136L55.3011 17.1676L56.2127 16.3038L55.8688 15.9408ZM62.3442 17.8587L61.871 18.0202L61.9834 18.3492L62.3308 18.3585L62.3442 17.8587ZM62.625 25.9802L62.5714 25.4831L62.125 25.5312V25.9802H62.625ZM62.625 26.0004V26.5004H63.125V26.0004H62.625ZM43.125 26.0004H42.625V26.5004H43.125V26.0004ZM43.125 25.982H43.625V25.5269L43.1719 25.4842L43.125 25.982ZM45.0106 16.0108L44.822 16.4739L45.5667 16.7771L45.5093 15.9751L45.0106 16.0108ZM56.3681 15.9681C56.3727 15.8839 56.375 15.7993 56.375 15.7143H55.375C55.375 15.7811 55.3732 15.8476 55.3696 15.9136L56.3681 15.9681ZM58.5 14.3574C57.3591 14.3574 56.3221 14.8225 55.5249 15.5779L56.2127 16.3038C56.8438 15.7058 57.6407 15.3574 58.5 15.3574V14.3574ZM62.8174 17.6971C62.1625 15.7789 60.5035 14.3574 58.5 14.3574V15.3574C59.9953 15.3574 61.3264 16.4251 61.871 18.0202L62.8174 17.6971ZM66.5 21.9289C66.5 19.4808 64.6917 17.4214 62.3576 17.3589L62.3308 18.3585C64.0518 18.4046 65.5 19.9482 65.5 21.9289H66.5ZM62.6786 26.4773C64.8569 26.2425 66.5 24.2647 66.5 21.9289H65.5C65.5 23.8154 64.183 25.3093 62.5714 25.4831L62.6786 26.4773ZM62.125 25.9802V26.0004H63.125V25.9802H62.125ZM62.625 25.5004H43.125V26.5004H62.625V25.5004ZM43.625 26.0004V25.982H42.625V26.0004H43.625ZM38.5 20.8567C38.5 23.757 40.4612 26.233 43.0781 26.4798L43.1719 25.4842C41.1691 25.2954 39.5 23.3485 39.5 20.8567H38.5ZM43.5 15.2139C40.6779 15.2139 38.5 17.8051 38.5 20.8567H39.5C39.5 18.2277 41.3515 16.2139 43.5 16.2139V15.2139ZM45.1991 15.5477C44.669 15.3319 44.0966 15.2139 43.5 15.2139V16.2139C43.9632 16.2139 44.4078 16.3052 44.822 16.4739L45.1991 15.5477ZM44.5 15.7143C44.5 15.8258 44.504 15.9366 44.5119 16.0465L45.5093 15.9751C45.5031 15.8889 45.5 15.8019 45.5 15.7143H44.5ZM50.4375 10.5C47.2277 10.5 44.5 12.7699 44.5 15.7143H45.5C45.5 13.4514 47.6412 11.5 50.4375 11.5V10.5ZM56.375 15.7143C56.375 12.7699 53.6473 10.5 50.4375 10.5V11.5C53.2338 11.5 55.375 13.4514 55.375 15.7143H56.375Z" fill="#FFFFDC" mask="url(#path-13-inside-3)"/>
<mask id="path-15-inside-4" fill="white">
<path fill-rule="evenodd" clip-rule="evenodd" d="M266.875 42.7143C266.875 42.7902 266.873 42.8658 266.869 42.9408C267.583 42.2642 268.5 41.8574 269.5 41.8574C271.249 41.8574 272.744 43.102 273.344 44.8587C275.372 44.913 277 46.7145 277 48.9289C277 51.04 275.52 52.7759 273.625 52.9802V53.0004H254.125V52.982C251.815 52.7642 250 50.5527 250 47.8567C250 45.0164 252.015 42.7139 254.5 42.7139C255.03 42.7139 255.538 42.8185 256.011 43.0108C256.004 42.9127 256 42.8139 256 42.7143C256 40.1107 258.434 38 261.438 38C264.441 38 266.875 40.1107 266.875 42.7143Z"/>
</mask>
<path fill-rule="evenodd" clip-rule="evenodd" d="M266.875 42.7143C266.875 42.7902 266.873 42.8658 266.869 42.9408C267.583 42.2642 268.5 41.8574 269.5 41.8574C271.249 41.8574 272.744 43.102 273.344 44.8587C275.372 44.913 277 46.7145 277 48.9289C277 51.04 275.52 52.7759 273.625 52.9802V53.0004H254.125V52.982C251.815 52.7642 250 50.5527 250 47.8567C250 45.0164 252.015 42.7139 254.5 42.7139C255.03 42.7139 255.538 42.8185 256.011 43.0108C256.004 42.9127 256 42.8139 256 42.7143C256 40.1107 258.434 38 261.438 38C264.441 38 266.875 40.1107 266.875 42.7143Z" fill="white"/>
<path d="M266.869 42.9408L266.37 42.9136L266.301 44.1676L267.213 43.3038L266.869 42.9408ZM273.344 44.8587L272.871 45.0202L272.983 45.3492L273.331 45.3585L273.344 44.8587ZM273.625 52.9802L273.571 52.4831L273.125 52.5312V52.9802H273.625ZM273.625 53.0004V53.5004H274.125V53.0004H273.625ZM254.125 53.0004H253.625V53.5004H254.125V53.0004ZM254.125 52.982H254.625V52.5269L254.172 52.4842L254.125 52.982ZM256.011 43.0108L255.822 43.4739L256.567 43.7771L256.509 42.9751L256.011 43.0108ZM267.368 42.9681C267.373 42.8839 267.375 42.7993 267.375 42.7143H266.375C266.375 42.7811 266.373 42.8476 266.37 42.9136L267.368 42.9681ZM269.5 41.3574C268.359 41.3574 267.322 41.8225 266.525 42.5779L267.213 43.3038C267.844 42.7058 268.641 42.3574 269.5 42.3574V41.3574ZM273.817 44.6971C273.162 42.7789 271.504 41.3574 269.5 41.3574V42.3574C270.995 42.3574 272.326 43.4251 272.871 45.0202L273.817 44.6971ZM277.5 48.9289C277.5 46.4808 275.692 44.4214 273.358 44.3589L273.331 45.3585C275.052 45.4046 276.5 46.9482 276.5 48.9289H277.5ZM273.679 53.4773C275.857 53.2425 277.5 51.2647 277.5 48.9289H276.5C276.5 50.8154 275.183 52.3093 273.571 52.4831L273.679 53.4773ZM273.125 52.9802V53.0004H274.125V52.9802H273.125ZM273.625 52.5004H254.125V53.5004H273.625V52.5004ZM254.625 53.0004V52.982H253.625V53.0004H254.625ZM249.5 47.8567C249.5 50.757 251.461 53.233 254.078 53.4798L254.172 52.4842C252.169 52.2954 250.5 50.3485 250.5 47.8567H249.5ZM254.5 42.2139C251.678 42.2139 249.5 44.8051 249.5 47.8567H250.5C250.5 45.2277 252.351 43.2139 254.5 43.2139V42.2139ZM256.199 42.5477C255.669 42.3319 255.097 42.2139 254.5 42.2139V43.2139C254.963 43.2139 255.408 43.3052 255.822 43.4739L256.199 42.5477ZM255.5 42.7143C255.5 42.8258 255.504 42.9366 255.512 43.0465L256.509 42.9751C256.503 42.8889 256.5 42.8019 256.5 42.7143H255.5ZM261.438 37.5C258.228 37.5 255.5 39.7699 255.5 42.7143H256.5C256.5 40.4514 258.641 38.5 261.438 38.5V37.5ZM267.375 42.7143C267.375 39.7699 264.647 37.5 261.438 37.5V38.5C264.234 38.5 266.375 40.4514 266.375 42.7143H267.375Z" fill="#FFFFDC" mask="url(#path-15-inside-4)"/>
<mask id="path-17-inside-5" fill="white">
<path fill-rule="evenodd" clip-rule="evenodd" d="M333.875 99.7143C333.875 99.7902 333.873 99.8658 333.869 99.9408C334.583 99.2642 335.5 98.8574 336.5 98.8574C338.249 98.8574 339.744 100.102 340.344 101.859C342.372 101.913 344 103.714 344 105.929C344 108.04 342.52 109.776 340.625 109.98V110H321.125V109.982C318.815 109.764 317 107.553 317 104.857C317 102.016 319.015 99.7139 321.5 99.7139C322.03 99.7139 322.538 99.8185 323.011 100.011C323.004 99.9127 323 99.8139 323 99.7143C323 97.1107 325.434 95 328.438 95C331.441 95 333.875 97.1107 333.875 99.7143Z"/>
</mask>
<path fill-rule="evenodd" clip-rule="evenodd" d="M333.875 99.7143C333.875 99.7902 333.873 99.8658 333.869 99.9408C334.583 99.2642 335.5 98.8574 336.5 98.8574C338.249 98.8574 339.744 100.102 340.344 101.859C342.372 101.913 344 103.714 344 105.929C344 108.04 342.52 109.776 340.625 109.98V110H321.125V109.982C318.815 109.764 317 107.553 317 104.857C317 102.016 319.015 99.7139 321.5 99.7139C322.03 99.7139 322.538 99.8185 323.011 100.011C323.004 99.9127 323 99.8139 323 99.7143C323 97.1107 325.434 95 328.438 95C331.441 95 333.875 97.1107 333.875 99.7143Z" fill="white"/>
<path d="M333.869 99.9408L333.37 99.9136L333.301 101.168L334.213 100.304L333.869 99.9408ZM340.344 101.859L339.871 102.02L339.983 102.349L340.331 102.359L340.344 101.859ZM340.625 109.98L340.571 109.483L340.125 109.531V109.98H340.625ZM340.625 110V110.5H341.125V110H340.625ZM321.125 110H320.625V110.5H321.125V110ZM321.125 109.982H321.625V109.527L321.172 109.484L321.125 109.982ZM323.011 100.011L322.822 100.474L323.567 100.777L323.509 99.9751L323.011 100.011ZM334.368 99.9681C334.373 99.8839 334.375 99.7993 334.375 99.7143H333.375C333.375 99.7811 333.373 99.8476 333.37 99.9136L334.368 99.9681ZM336.5 98.3574C335.359 98.3574 334.322 98.8225 333.525 99.5779L334.213 100.304C334.844 99.7058 335.641 99.3574 336.5 99.3574V98.3574ZM340.817 101.697C340.162 99.7789 338.504 98.3574 336.5 98.3574V99.3574C337.995 99.3574 339.326 100.425 339.871 102.02L340.817 101.697ZM344.5 105.929C344.5 103.481 342.692 101.421 340.358 101.359L340.331 102.359C342.052 102.405 343.5 103.948 343.5 105.929H344.5ZM340.679 110.477C342.857 110.242 344.5 108.265 344.5 105.929H343.5C343.5 107.815 342.183 109.309 340.571 109.483L340.679 110.477ZM340.125 109.98V110H341.125V109.98H340.125ZM340.625 109.5H321.125V110.5H340.625V109.5ZM321.625 110V109.982H320.625V110H321.625ZM316.5 104.857C316.5 107.757 318.461 110.233 321.078 110.48L321.172 109.484C319.169 109.295 317.5 107.348 317.5 104.857H316.5ZM321.5 99.2139C318.678 99.2139 316.5 101.805 316.5 104.857H317.5C317.5 102.228 319.351 100.214 321.5 100.214V99.2139ZM323.199 99.5477C322.669 99.3319 322.097 99.2139 321.5 99.2139V100.214C321.963 100.214 322.408 100.305 322.822 100.474L323.199 99.5477ZM322.5 99.7143C322.5 99.8258 322.504 99.9366 322.512 100.046L323.509 99.9751C323.503 99.8889 323.5 99.8019 323.5 99.7143H322.5ZM328.438 94.5C325.228 94.5 322.5 96.7699 322.5 99.7143H323.5C323.5 97.4514 325.641 95.5 328.438 95.5V94.5ZM334.375 99.7143C334.375 96.7699 331.647 94.5 328.438 94.5V95.5C331.234 95.5 333.375 97.4514 333.375 99.7143H334.375Z" fill="#FFFFDC" mask="url(#path-17-inside-5)"/>
<path d="M88.1785 130.647C88.1785 130.647 104.231 144.034 143.132 118.303C182.032 92.5716 202.341 116.99 247.732 115.983C293.124 114.977 323.001 68.5034 323.001 68.5034" stroke="#25558F" stroke-linecap="round"/>
<path d="M88.8333 93H40.1667V98.5H88.8333V93ZM91.875 120.5V115L88.8333 101.25H40.1667L37.125 115V120.5H40.1667V137H70.5833V120.5H82.75V137H88.8333V120.5H91.875ZM64.5 131.5H46.25V120.5H64.5V131.5Z" fill="#FBCA43"/>
<g clip-path="url(#clip0)">
<path d="M321.5 28.5C312.954 28.5 306.042 35.5425 306.042 44.25C306.042 56.0625 321.5 73.5 321.5 73.5C321.5 73.5 336.958 56.0625 336.958 44.25C336.958 35.5425 330.046 28.5 321.5 28.5ZM321.5 49.875C318.452 49.875 315.979 47.355 315.979 44.25C315.979 41.145 318.452 38.625 321.5 38.625C324.547 38.625 327.021 41.145 327.021 44.25C327.021 47.355 324.547 49.875 321.5 49.875Z" fill="#FBCA43"/>
<path d="M320.396 78L179.063 280.5H-147.771L260.771 407.625" stroke="black"/>
</g>
<defs>
<clipPath id="clip0">
<rect x="295" y="24" width="53" height="54" fill="white"/>
</clipPath>
</defs>
</svg>
