<?xml version="1.0" encoding="utf-8"?>
<!-- Generator: Adobe Illustrator 22.1.0, SVG Export Plug-In . SVG Version: 6.00 Build 0)  -->
<svg version="1.1" xmlns="http://www.w3.org/2000/svg" xmlns:xlink="http://www.w3.org/1999/xlink" x="0px" y="0px"
	 viewBox="0 0 50 50" style="enable-background:new 0 0 50 50;" xml:space="preserve">
<style type="text/css">
	.st0{fill:#575656;}
	.st1{fill:#23B248;}
	.st2{fill:#F80000;}
</style>
<g id="Capa_1">
	<g id="noun_1704428_cc-copy" transform="translate(50.000000, 522.000000)">
		<path id="Shape_13_" class="st0" d="M-8.3-504.2l-14.8-12.2c-0.5-0.4-1.2-0.7-1.8-0.7c-0.6,0-1.3,0.2-1.8,0.6l-14.9,12
			c-0.7,0.6-1.1,1.4-1.1,2.3l-0.1,22.1c0,0.8,0.3,1.5,0.8,2.1c0.5,0.6,1.3,0.9,2.1,0.9h29.8c1.6,0,2.9-1.3,2.9-3v-21.9
			C-7.2-502.8-7.6-503.6-8.3-504.2z M-29.1-489.3l8.6,0l0,9l-8.6,0L-29.1-489.3z M-10.1-480h-7.5l0-10.8c0-0.4-0.2-0.8-0.4-1
			c-0.3-0.3-0.7-0.4-1-0.4l-11.5,0c-0.8,0-1.5,0.7-1.5,1.5l0,10.8h-7.9l0.1-22.1l14.9-12l14.8,12.2V-480z"/>
	</g>
</g>
<g id="Capa_2">
</g>
</svg>
