<?xml version="1.0" encoding="utf-8"?>
<!-- Generator: Adobe Illustrator 22.1.0, SVG Export Plug-In . SVG Version: 6.00 Build 0)  -->
<svg version="1.1" id="Capa_1" xmlns="http://www.w3.org/2000/svg" xmlns:xlink="http://www.w3.org/1999/xlink" x="0px" y="0px"
	 viewBox="0 0 600 600" style="enable-background:new 0 0 600 600;" xml:space="preserve">
<style type="text/css">
	.st0{fill:none;}
</style>
<g>
	<path d="M464.9,248.3c-8.8,0-16,7.2-16,16v188.5c0,6.7-5.5,12.2-12.2,12.2H131c-6.7,0-12.2-5.5-12.2-12.2V147.1
		c0-6.7,5.5-12.2,12.2-12.2h232.1c8.8,0,16-7.2,16-16s-7.2-16-16-16H131c-24.4,0-44.2,19.8-44.2,44.2v305.7
		c0,24.4,19.8,44.2,44.2,44.2h305.7c24.4,0,44.2-19.8,44.2-44.2V264.3C480.9,255.5,473.7,248.3,464.9,248.3z"/>
	<path d="M499,119.5l-12.9-12.9c-9.2-9.2-21.3-14.2-34.3-14.2c-12.9,0-25.1,5-34.3,14.2l-35.9,35.9c0,0,0,0,0,0L234.1,290.1
		c0,0,0,0,0,0l0,0c0,0,0,0,0,0c-0.3,0.3-0.6,0.7-0.9,1c-0.1,0.1-0.1,0.2-0.2,0.3c-0.3,0.4-0.6,0.7-0.8,1.1c-0.1,0.1-0.1,0.2-0.2,0.3
		c-0.2,0.3-0.4,0.6-0.5,0.9c-0.1,0.1-0.1,0.3-0.2,0.4c-0.2,0.4-0.4,0.8-0.5,1.1c-0.1,0.1-0.1,0.3-0.2,0.4c-0.1,0.3-0.2,0.6-0.3,0.9
		c0,0.1-0.1,0.3-0.1,0.4c0,0.1,0,0.1,0,0.2l-22.2,81c-1.5,5.5,0.1,11.5,4.1,15.5c3,3,7.1,4.7,11.3,4.7c1.4,0,2.8-0.2,4.2-0.6
		l81-22.2c0.1,0,0.2-0.1,0.3-0.1c0.1,0,0.2-0.1,0.3-0.1c0.4-0.1,0.8-0.3,1.2-0.4c0.1,0,0.1,0,0.2-0.1c0.4-0.2,0.8-0.4,1.3-0.6
		c0.1,0,0.2-0.1,0.3-0.2c0.4-0.2,0.7-0.4,1.1-0.6c0.1,0,0.1-0.1,0.2-0.1c0.4-0.3,0.8-0.5,1.1-0.8c0.1-0.1,0.2-0.1,0.3-0.2
		c0.3-0.3,0.7-0.6,1-0.9c0,0,0,0,0.1-0.1l0,0l0,0l147.6-147.6l35.9-35.9c9.2-9.2,14.2-21.3,14.2-34.3
		C513.2,140.9,508.2,128.7,499,119.5z M246,359.7l7.5-27.4l19.9,19.9L246,359.7z M304.2,337.7l-36.2-36.2L393,176.4l36.2,36.2
		L304.2,337.7z M476.4,165.4L451.8,190l-36.2-36.2l24.6-24.6c6.4-6.4,16.9-6.4,23.3,0l12.9,12.9c3.1,3.1,4.8,7.2,4.8,11.6
		S479.5,162.3,476.4,165.4z"/>
</g>
</svg>
