<?xml version="1.0" encoding="utf-8"?>
<!-- Generator: Adobe Illustrator 22.1.0, SVG Export Plug-In . SVG Version: 6.00 Build 0)  -->
<svg version="1.1" id="Capa_1" xmlns="http://www.w3.org/2000/svg" xmlns:xlink="http://www.w3.org/1999/xlink" x="0px" y="0px"
	 viewBox="0 0 600 600" style="enable-background:new 0 0 600 600;" xml:space="preserve">
<style type="text/css">
	.st0{fill:none;}
</style>
<g>
	<g>
		<g>
			<path d="M405.3,509.4H194.7c-13.8,0-25.6-10.3-27.4-24l-36.4-276.2c-1.2-8.8,5-16.8,13.8-18c8.8-1.2,16.8,5,18,13.8l35.9,272.4
				h202.9L437.3,205c1.2-8.8,9.2-14.9,18-13.8c8.8,1.2,14.9,9.2,13.8,18l-36.4,276.2C430.9,499.1,419.1,509.4,405.3,509.4z"/>
			<g>
				<path d="M481,180.7H119c-8.8,0-16-7.2-16-16s7.2-16,16-16H481c8.8,0,16,7.2,16,16S489.9,180.7,481,180.7z"/>
				<path d="M358,180.7H242c-8.8,0-16-7.2-16-16v-46.4c0-15.2,12.4-27.6,27.6-27.6h92.9c15.2,0,27.6,12.4,27.6,27.6v46.4
					C374,173.5,366.9,180.7,358,180.7z M258,148.7H342v-26H258V148.7z"/>
			</g>
			<g>
				<path d="M354.1,449.5c-0.6,0-1.3,0-1.9-0.1c-8.8-1-15.1-9-14-17.8L359,255.3c1-8.8,9-15.1,17.8-14c8.8,1,15.1,9,14,17.8
					L370,435.4C369.1,443.5,362.1,449.5,354.1,449.5z"/>
				<path d="M245.9,449.5c-8,0-14.9-6-15.9-14.1L209.3,259c-1-8.8,5.2-16.7,14-17.8c8.8-1,16.7,5.2,17.8,14l20.7,176.4
					c1,8.8-5.2,16.7-14,17.8C247.1,449.5,246.5,449.5,245.9,449.5z"/>
				<path d="M300,448.1c-8.8,0-16-7.2-16-16V258.5c0-8.8,7.2-16,16-16s16,7.2,16,16v173.5C316,440.9,308.8,448.1,300,448.1z"/>
			</g>
		</g>
	</g>
</g>
</svg>
