<?xml version="1.0" encoding="utf-8"?>
<!-- Generator: Adobe Illustrator 22.1.0, SVG Export Plug-In . SVG Version: 6.00 Build 0)  -->
<svg version="1.1" id="Capa_1" xmlns="http://www.w3.org/2000/svg" xmlns:xlink="http://www.w3.org/1999/xlink" x="0px" y="0px"
	 viewBox="0 0 348.1 172.1" style="enable-background:new 0 0 348.1 172.1;" xml:space="preserve">
<style type="text/css">
	.st0{fill:#0C0A1A;fill-opacity:0.65;}
	.st1{fill:#FFFFFF;}
	.st2{fill:none;stroke:#807E7E;stroke-width:2;stroke-linecap:square;}
	.st3{fill:#D8D8D8;fill-opacity:0.5;}
	.st4{fill:none;stroke:#C8C7C7;stroke-width:3;}
	.st5{fill:#C1BCC0;}
</style>
<g id="Logo" transform="translate(152.000000, 71.000000)">
	<path id="Fill-1" class="st5" d="M-82.6,92.7c0.4,0,0.8,0,1.2,0c0.4,0,0.8-0.1,1.1-0.2c0.3-0.1,0.6-0.2,0.7-0.4
		c0.2-0.2,0.3-0.4,0.4-0.6c0.1-0.3,0.2-0.6,0.2-1c0-0.7-0.2-1.2-0.6-1.6s-1.2-0.6-2.4-0.6c-0.2,0-0.4,0-0.7,0v4.4H-82.6z
		 M-74.7,97.6h-2.8c-0.5-0.3-1.3-1.1-2.3-2.5c-0.3-0.4-0.7-0.8-1-1.2c-0.4-0.4-0.6-0.6-0.7-0.7s-0.3-0.1-0.6-0.1h-0.4v2.1
		c0,0.7,0,1.2,0.1,1.5c0,0.2,0.1,0.4,0.3,0.5c0.2,0.1,0.5,0.2,1,0.2h0.5v0.3h-5v-0.3h0.3c0.5,0,0.8-0.1,0.9-0.2
		c0.2-0.1,0.3-0.3,0.3-0.5S-84,96-84,95.2v-4.7c0-0.8,0-1.2-0.1-1.5c0-0.2-0.2-0.4-0.3-0.5c-0.2-0.1-0.5-0.1-1-0.1h-0.2v-0.3
		l1.5-0.1c1,0,1.8-0.1,2.4-0.1c1,0,1.8,0.1,2.5,0.3c0.6,0.2,1.1,0.4,1.5,0.8s0.6,0.8,0.6,1.4s-0.3,1.2-0.8,1.6s-1.3,0.7-2.2,0.8
		c0.4,0.2,1.2,0.9,2.1,2.1c0.8,1,1.4,1.6,1.9,1.9s1,0.5,1.6,0.5v0.3H-74.7z"/>
	<path id="Fill-3" class="st5" d="M-52.8,94.6h0.4l-0.2,3h-8.7v-0.3h0.2c0.5,0,0.9-0.1,1-0.2c0.2-0.1,0.3-0.3,0.3-0.5
		s0.1-0.7,0.1-1.5v-4.7c0-0.7,0-1.2-0.1-1.4c0-0.2-0.1-0.4-0.3-0.5s-0.5-0.1-1-0.1v-0.3h7.5l0.2,2.4h-0.4c-0.2-0.7-0.4-1.1-0.6-1.4
		c-0.2-0.3-0.5-0.5-0.9-0.5c-0.3-0.1-0.9-0.1-1.6-0.1h-1.5v4h1.1c0.5,0,0.9,0,1.1-0.1c0.2-0.1,0.3-0.2,0.4-0.4
		c0.1-0.2,0.1-0.5,0.1-0.9h0.4v3.3h-0.4c0-0.5,0-0.9-0.1-1.1s-0.2-0.3-0.4-0.4s-0.5-0.1-1-0.1h-1.2V95c0,1.1,0.1,1.8,0.2,2
		c0.2,0.2,0.6,0.3,1.3,0.3h0.8c0.6,0,1-0.1,1.4-0.2s0.7-0.4,1-0.8C-53.2,95.9-53,95.3-52.8,94.6"/>
	<path id="Fill-5" class="st5" d="M-35.5,92.8h0.8c0.6,0,1.1-0.1,1.5-0.2s0.7-0.3,0.9-0.7c0.2-0.4,0.4-0.8,0.4-1.3
		c0-0.8-0.2-1.4-0.6-1.7c-0.4-0.4-1.1-0.5-2.1-0.5c-0.4,0-0.6,0-0.8,0v4.4H-35.5z M-35.5,93.1v2c0,0.7,0,1.2,0.1,1.5
		c0,0.2,0.1,0.4,0.3,0.5s0.5,0.2,1,0.2h0.4v0.3h-4.8v-0.3h0.3c0.5,0,0.8-0.1,0.9-0.2c0.2-0.1,0.3-0.3,0.3-0.5s0.1-0.7,0.1-1.5v-4.7
		c0-0.8,0-1.2-0.1-1.5c0-0.2-0.2-0.4-0.3-0.5c-0.2-0.1-0.5-0.1-1-0.1h-0.2V88h1.3c1.1,0,1.9,0,2.5,0c1.1,0,1.9,0.1,2.5,0.2
		c0.6,0.2,1.1,0.4,1.4,0.8c0.4,0.4,0.6,0.9,0.6,1.5c0,0.5-0.1,1-0.4,1.4s-0.6,0.7-1.1,0.9c-0.5,0.2-1.3,0.3-2.5,0.3
		C-34.2,93.1-35.5,93.1-35.5,93.1z"/>
	<path id="Fill-7" class="st5" d="M-14.9,92.8c0,1.5,0.3,2.7,1,3.4c0.7,0.8,1.7,1.1,3,1.1c1.2,0,2.1-0.4,2.8-1.1
		c0.7-0.8,1-1.9,1-3.4s-0.3-2.6-1-3.4s-1.7-1.2-3-1.2s-2.2,0.4-2.9,1.2C-14.5,90.2-14.9,91.3-14.9,92.8 M-16.7,92.8
		c0-1.5,0.5-2.6,1.6-3.5S-12.7,88-11,88c1.6,0,3,0.4,4.1,1.3s1.7,2.1,1.7,3.6s-0.5,2.7-1.6,3.6s-2.4,1.4-4.2,1.4
		c-1.7,0-3-0.5-4.1-1.4C-16.1,95.5-16.7,94.3-16.7,92.8"/>
	<path id="Fill-9" class="st5" d="M9.3,97.5v-3.1h0.4c0.4,2,1.5,3,3.1,3c0.7,0,1.3-0.2,1.7-0.6s0.6-0.8,0.6-1.3s-0.2-0.9-0.5-1.2
		c-0.4-0.3-1-0.7-2-1c-0.8-0.3-1.5-0.6-1.9-0.9c-0.4-0.2-0.8-0.6-1-1s-0.4-0.8-0.4-1.3c0-0.7,0.3-1.2,0.8-1.7c0.5-0.4,1.2-0.7,2-0.7
		c0.4,0,0.9,0.1,1.3,0.2c0.4,0.1,0.8,0.4,1.2,0.8c0.2-0.3,0.4-0.5,0.4-0.8h0.3v2.5H15c-0.2-0.7-0.5-1.3-1-1.7
		c-0.5-0.4-1.1-0.6-1.7-0.6c-0.6,0-1.1,0.2-1.4,0.5c-0.3,0.3-0.4,0.6-0.4,1s0.2,0.8,0.6,1.1c0.4,0.3,1,0.7,2,1
		c0.9,0.4,1.6,0.7,2,0.9c0.4,0.2,0.7,0.5,1,0.9c0.2,0.4,0.4,0.8,0.4,1.4c0,0.8-0.3,1.5-0.9,2s-1.4,0.8-2.4,0.8
		c-1.2,0-2.1-0.4-2.9-1.2c-0.2,0.2-0.3,0.5-0.4,0.9L9.3,97.5L9.3,97.5z"/>
	<path id="Fill-11" class="st5" d="M30.5,90.4h-0.4l0.1-2.3h10.2l0.1,2.3h-0.3c-0.1-0.6-0.3-1.1-0.5-1.4s-0.4-0.4-0.7-0.5
		c-0.2-0.1-0.6-0.1-1.2-0.1h-1.7v6.7c0,0.7,0,1.2,0.1,1.5c0,0.2,0.1,0.4,0.3,0.5s0.5,0.2,1,0.2H38v0.3h-5.3v-0.3h0.5
		c0.4,0,0.8-0.1,0.9-0.2c0.2-0.1,0.3-0.3,0.3-0.5s0.1-0.7,0.1-1.5v-6.7H33c-0.7,0-1.1,0-1.4,0.1c-0.2,0.1-0.5,0.2-0.7,0.5
		C30.8,89.3,30.6,89.8,30.5,90.4"/>
	<path id="Fill-13" class="st5" d="M62.7,94.6h0.4l-0.2,3h-8.7v-0.3h0.2c0.5,0,0.9-0.1,1-0.2c0.2-0.1,0.3-0.3,0.3-0.5
		s0.1-0.7,0.1-1.5v-4.7c0-0.7,0-1.2-0.1-1.4c0-0.2-0.1-0.4-0.3-0.5s-0.5-0.1-1-0.1v-0.3h7.5l0.2,2.4h-0.4c-0.2-0.7-0.4-1.1-0.6-1.4
		c-0.2-0.3-0.5-0.5-0.9-0.5c-0.3-0.1-0.9-0.1-1.6-0.1h-1.5v4h1.1c0.5,0,0.9,0,1.1-0.1c0.2-0.1,0.3-0.2,0.4-0.4
		c0.1-0.2,0.1-0.5,0.1-0.9h0.4v3.3h-0.4c0-0.5,0-0.9-0.1-1.1s-0.2-0.3-0.4-0.4s-0.5-0.1-1-0.1h-1.2V95c0,1.1,0.1,1.8,0.2,2
		c0.2,0.2,0.6,0.3,1.3,0.3h0.8c0.6,0,1-0.1,1.4-0.2s0.7-0.4,1-0.8C62.2,95.9,62.5,95.3,62.7,94.6"/>
	<path id="Fill-15" class="st5" d="M79.9,92.7c0.4,0,0.8,0,1.2,0c0.4,0,0.8-0.1,1.1-0.2c0.3-0.1,0.6-0.2,0.7-0.4
		c0.2-0.2,0.3-0.4,0.4-0.6c0.1-0.3,0.2-0.6,0.2-1c0-0.7-0.2-1.2-0.6-1.6s-1.2-0.6-2.4-0.6c-0.2,0-0.4,0-0.7,0v4.4H79.9z M87.9,97.6
		H85c-0.5-0.3-1.3-1.1-2.3-2.5c-0.3-0.4-0.7-0.8-1-1.2c-0.4-0.4-0.6-0.6-0.7-0.7C80.8,93,80.6,93,80.3,93h-0.4v2.1
		c0,0.7,0,1.2,0.1,1.5c0,0.2,0.1,0.4,0.3,0.5c0.2,0.1,0.5,0.2,1,0.2h0.5v0.3h-5v-0.3H77c0.5,0,0.8-0.1,0.9-0.2
		c0.2-0.1,0.3-0.3,0.3-0.5s0.1-0.7,0.1-1.5v-4.7c0-0.8,0-1.2-0.1-1.5c0-0.2-0.2-0.4-0.3-0.5c-0.2-0.1-0.5-0.1-1-0.1h-0.2V88l1.5-0.1
		c1,0,1.8-0.1,2.4-0.1c1,0,1.8,0.1,2.5,0.3c0.6,0.2,1.1,0.4,1.5,0.8s0.6,0.8,0.6,1.4s-0.3,1.2-0.8,1.6s-1.3,0.7-2.2,0.8
		c0.4,0.2,1.1,0.9,2.1,2.1c0.8,1,1.4,1.6,1.9,1.9s1,0.5,1.6,0.5L87.9,97.6L87.9,97.6z"/>
	<path id="Fill-17" class="st5" d="M102.8,87.3h-0.3l1.2-1.6c0.2-0.3,0.4-0.6,0.6-0.7c0.1-0.1,0.3-0.2,0.5-0.2s0.3,0,0.4,0.1
		s0.1,0.2,0.1,0.3c0,0.1-0.1,0.2-0.2,0.4c-0.1,0.1-0.5,0.4-1.1,0.8L102.8,87.3z M101.1,88.4v-0.3h4.8v0.3h-0.2c-0.5,0-0.9,0-1,0.1
		c-0.2,0.1-0.3,0.2-0.3,0.4c-0.1,0.2-0.1,0.7-0.1,1.5v4.7c0,0.7,0,1.2,0.1,1.5c0,0.2,0.1,0.4,0.3,0.5c0.2,0.1,0.5,0.2,1,0.2h0.3v0.3
		h-4.8v-0.3h0.3c0.5,0,0.8-0.1,0.9-0.2c0.2-0.1,0.3-0.3,0.3-0.5s0.1-0.7,0.1-1.5v-4.7c0-0.8,0-1.2-0.1-1.5c0-0.2-0.1-0.4-0.3-0.5
		c-0.2-0.1-0.5-0.1-1-0.1L101.1,88.4L101.1,88.4z"/>
	<path id="Fill-19" class="st5" d="M125.8,93.8l-1.9-4l-1.9,4H125.8z M125.9,94.1h-4l-0.3,0.6c-0.4,0.9-0.6,1.4-0.6,1.7
		c0,0.3,0.1,0.5,0.3,0.6c0.2,0.1,0.5,0.2,0.8,0.2v0.3H119v-0.3c0.5-0.1,0.8-0.2,1-0.4c0.2-0.2,0.5-0.7,0.8-1.5
		c0-0.1,0.2-0.3,0.4-0.8l3.1-6.6h0.3l3.5,7.5l0.5,1c0.1,0.2,0.3,0.4,0.4,0.5c0.2,0.1,0.5,0.2,0.8,0.2v0.3h-4.1v-0.3
		c0.5,0,0.9,0,1-0.1c0.2-0.1,0.3-0.2,0.3-0.4c0-0.1-0.1-0.4-0.4-0.9L125.9,94.1z"/>
	<path id="Fill-21" class="st5" d="M-139.1,18.6h0.4c0.7,1.6,1.1,3.7,1.1,6.2c1.7-2.1,3.4-3.6,5.4-4.6c1.9-1,4-1.5,6.2-1.5
		c2.5,0,4.5,0.6,6.1,1.7s2.6,2.8,3.3,5c1.9-2.2,3.8-3.9,5.8-5s4-1.7,6-1.7c2.3,0,4.3,0.5,6,1.6c1.6,1.1,2.6,2.3,3,3.6
		c0.3,1.3,0.5,3.5,0.5,6.5v8.9c0,3.4,0.1,5.5,0.2,6.3c0.1,0.7,0.5,1.3,1.2,1.7s1.9,0.5,3.6,0.5v1.7h-15.2v-1.7
		c1.6,0,2.7-0.2,3.4-0.5c0.7-0.3,1.1-0.9,1.2-1.6c0.1-0.7,0.2-2.8,0.2-6.4v-9.8c0-2-0.1-3.5-0.4-4.5c-0.2-1-0.8-1.9-1.8-2.6
		s-2.3-1.1-3.9-1.1s-3.2,0.5-4.8,1.6s-3.2,2.7-4.9,4.8v11.6c0,3.1,0,5.1,0.1,5.9c0.1,0.8,0.4,1.4,1,1.9c0.6,0.4,1.7,0.7,3.2,0.7v1.7
		h-14.7v-1.7c1.7,0,2.8-0.2,3.5-0.5s1.1-0.9,1.2-1.5c0.2-0.7,0.2-2.8,0.2-6.4v-8.2c0-2.6-0.1-4.5-0.3-5.6c-0.2-1.2-0.8-2.2-1.9-3
		s-2.4-1.2-4-1.2c-1.5,0-3.1,0.5-4.7,1.4c-1.6,1-3.2,2.4-4.9,4.3v12.3c0,3.2,0,5.3,0.1,6c0.1,0.8,0.5,1.4,1.1,1.8
		c0.6,0.4,1.8,0.6,3.4,0.6v1.7h-14.9v-1.7c1.6,0,2.8-0.2,3.4-0.5c0.7-0.3,1.1-0.9,1.2-1.6c0.1-0.7,0.2-2.8,0.2-6.4v-8.8
		c0-3.4-0.1-5.4-0.2-6.2c-0.1-0.8-0.5-1.3-1.1-1.7c-0.7-0.4-1.8-0.6-3.5-0.6v-1.7C-144.3,19.8-141.4,19.3-139.1,18.6"/>
	<path id="Fill-23" class="st5" d="M-61.3,6.7c0-0.8,0.3-1.5,0.9-2.1c0.6-0.6,1.3-0.9,2.1-0.9s1.6,0.3,2.1,0.9
		c0.6,0.6,0.9,1.3,0.9,2.1s-0.3,1.5-0.9,2.1c-0.6,0.6-1.3,0.9-2.1,0.9s-1.6-0.3-2.1-0.9C-61,8.2-61.3,7.5-61.3,6.7L-61.3,6.7z
		 M-58.6,31.2l-4,1.6c-6.4,2.5-9.6,5.7-9.6,9.5c0,1.5,0.4,2.7,1.2,3.7c0.8,0.9,1.9,1.4,3.2,1.4c1.2,0,2.5-0.4,4-1.1
		c1.5-0.7,3.2-1.9,5.2-3.3C-58.6,43-58.6,31.2-58.6,31.2z M-74.9,6.7c0-0.8,0.3-1.5,0.9-2.1s1.3-0.9,2.2-0.9c0.8,0,1.6,0.3,2.1,0.9
		c0.6,0.6,0.9,1.3,0.9,2.1s-0.3,1.5-0.9,2.1c-0.6,0.6-1.3,0.9-2.1,0.9s-1.6-0.3-2.1-0.9C-74.6,8.2-74.9,7.5-74.9,6.7L-74.9,6.7z
		 M-47.9,43.8h1.4c-0.2,4.1-2.3,6.2-6.2,6.2c-1.7,0-3-0.4-4-1.3c-1-0.9-1.6-2.1-1.9-3.9c-2.5,1.7-4.7,3-6.8,3.9
		c-2,0.9-3.9,1.3-5.5,1.3c-2.1,0-3.8-0.6-5.3-1.7c-1.5-1.2-2.2-2.7-2.2-4.6c0-2.5,1.2-4.6,3.7-6.5c2.5-1.8,5.9-3.6,10.3-5.4l5.7-2.3
		v-1.4c0-2-0.1-3.5-0.4-4.4c-0.3-0.9-1-1.7-2.1-2.4c-1.1-0.7-2.6-1.1-4.5-1.1c-3.7,0-5.8,1.2-6.2,3.6c-0.4,2.4-1.4,3.7-3.1,3.7
		c-1.5,0-2.3-0.7-2.3-2.1s1-2.8,3-4.4s5.1-2.4,9.3-2.4c3.1,0,5.6,0.5,7.3,1.4c1.7,1,2.9,2.1,3.4,3.3c0.6,1.2,0.8,3.1,0.8,5.6v11.9
		c0,2.8,0.1,4.6,0.4,5.4c0.3,0.8,0.9,1.2,1.9,1.2C-49.3,47.4-48.3,46.2-47.9,43.8L-47.9,43.8z"/>
	<path id="Fill-25" class="st5" d="M-9.1,42h1.6c-1.7,5.6-5.9,8.4-12.6,8.4c-4.3,0-8-1.4-10.9-4.3c-3-2.9-4.4-6.6-4.4-11.3
		c0-4.8,1.6-8.7,4.8-11.7s7-4.5,11.3-4.5c2.6,0,5,0.6,7.2,1.7s3.3,2.5,3.3,4.1c0,0.6-0.2,1.2-0.6,1.7c-0.4,0.5-1,0.8-1.8,0.8
		c-1.6,0-2.6-0.9-3-2.8c-0.3-1.4-0.8-2.4-1.4-2.9c-0.6-0.6-1.9-0.8-3.7-0.8c-3.3,0-5.8,1.1-7.5,3.3s-2.5,5.6-2.5,10.1
		c0,4.6,0.9,8.3,2.7,10.9c1.8,2.6,4.5,3.9,8.1,3.9C-13.6,48.5-10.5,46.3-9.1,42"/>
	<path id="Fill-27" class="st5" d="M10.8,34.6c0,5.2,0.9,8.9,2.6,11c1.8,2.1,4.2,3.2,7.4,3.2s5.7-1.1,7.4-3.2
		c1.7-2.1,2.6-5.8,2.6-11s-0.9-8.9-2.6-11.1s-4.2-3.3-7.4-3.3s-5.7,1.1-7.4,3.3C11.7,25.7,10.8,29.4,10.8,34.6 M4.7,34.4
		c0-4.5,1.6-8.3,4.7-11.3s6.9-4.6,11.5-4.6s8.4,1.5,11.5,4.6c3.1,3,4.7,6.8,4.7,11.3c0,5-1.6,8.9-4.7,11.7c-3.2,2.8-7,4.3-11.4,4.3
		c-4.5,0-8.3-1.4-11.4-4.3C6.3,43.2,4.7,39.3,4.7,34.4"/>
	<path id="Fill-29" class="st5" d="M60,26.1c0.8-2.1,2.2-3.9,4.1-5.4c1.9-1.4,3.7-2.2,5.5-2.2c1.6,0,2.9,0.5,3.9,1.5
		c0.9,1,1.4,2,1.4,3c0,0.7-0.2,1.3-0.7,1.8s-1.1,0.8-1.8,0.8c-1.2,0-2.2-0.9-2.8-2.7c-0.4-1.2-1.1-1.8-2-1.8c-1.1,0-2.3,0.7-3.8,2.1
		c-1.5,1.4-2.4,2.9-2.9,4.4c-0.4,1.5-0.6,3.6-0.6,6.2v5.3c0,3.1,0,5.1,0.1,5.9c0.1,0.8,0.4,1.4,1.1,1.9c0.6,0.4,1.7,0.6,3.3,0.6h1
		v1.7H49.7v-1.7h0.8c1.5,0,2.5-0.2,3.2-0.6c0.6-0.4,1-1,1.1-1.7S55,42.4,55,39v-8.3c0-3.2,0-5.2-0.1-6s-0.4-1.4-1.1-1.9
		c-0.6-0.4-1.7-0.7-3.3-0.7h-0.8v-1.6c2.3-0.3,5.4-1,9.1-2.1C59.6,20.5,60,23,60,26.1"/>
	<path id="Fill-31" class="st5" d="M87.7,3.5c0-1,0.4-1.9,1.1-2.7c0.8-0.7,1.7-1.1,2.7-1.1c1.1,0,2,0.4,2.7,1.1s1.1,1.6,1.1,2.7
		s-0.4,2-1.1,2.7s-1.6,1.1-2.7,1.1s-2-0.4-2.7-1.1S87.7,4.6,87.7,3.5L87.7,3.5z M94.9,18.6v20.6c0,3.1,0,5.1,0.1,5.9
		c0.1,0.8,0.5,1.4,1.1,1.9c0.6,0.4,1.7,0.6,3.3,0.6h0.8v1.7H83.9v-1.7h1.3c1.8,0,2.9-0.2,3.4-0.7s0.8-1.1,0.9-1.8s0.1-2.7,0.1-6
		v-8.9c0-3.5-0.2-5.6-0.5-6.3c-0.3-0.8-0.8-1.2-1.3-1.4c-0.6-0.2-1.5-0.3-2.9-0.3h-1v-1.7c4.4-0.4,7.8-1.1,10.2-1.9
		C94.1,18.6,94.9,18.6,94.9,18.6z"/>
	<path id="Fill-33" class="st5" d="M119.7,18.6h1c0.6,1.5,0.9,3.5,1,6.1c1.8-2,3.6-3.6,5.6-4.6c2-1,4-1.5,6.1-1.5
		c2.4,0,4.4,0.5,5.9,1.5s2.5,2.2,3,3.6c0.4,1.4,0.7,3.5,0.7,6.2v9.2c0,3.4,0.1,5.5,0.2,6.2c0.1,0.7,0.5,1.3,1.2,1.7s1.9,0.6,3.6,0.6
		v1.7h-15.5v-1.7h0.7c1.8,0,2.9-0.3,3.5-0.8c0.5-0.5,0.9-1.1,0.9-1.8c0.1-0.7,0.1-2.7,0.1-5.9v-9.5c0-2.3-0.1-4-0.4-5
		c-0.2-1-0.9-1.9-1.9-2.6c-1-0.8-2.3-1.2-3.9-1.2c-1.8,0-3.5,0.5-5.2,1.6c-1.6,1-3.2,2.6-4.7,4.7v12c0,3.4,0.1,5.5,0.2,6.2
		s0.5,1.3,1.2,1.7s1.9,0.6,3.7,0.6v1.7h-15.3v-1.7c1.7,0,2.9-0.2,3.6-0.5s1.1-0.8,1.2-1.5c0.2-0.7,0.2-2.8,0.2-6.4v-8.8
		c0-3.4-0.1-5.5-0.2-6.2s-0.5-1.3-1.2-1.7c-0.7-0.4-1.9-0.6-3.6-0.6v-1.7C114.1,19.9,116.8,19.4,119.7,18.6"/>
	<path id="Fill-35" class="st5" d="M179.8,31.2l-4,1.6c-6.4,2.5-9.6,5.7-9.6,9.5c0,1.5,0.4,2.7,1.2,3.7c0.8,0.9,1.9,1.4,3.2,1.4
		c1.2,0,2.5-0.4,4-1.1c1.5-0.7,3.2-1.9,5.2-3.3L179.8,31.2L179.8,31.2z M190.5,43.8h1.4c-0.2,4.1-2.3,6.2-6.2,6.2
		c-1.7,0-3-0.4-4-1.3c-1-0.9-1.6-2.1-1.9-3.9c-2.5,1.7-4.7,3-6.8,3.9c-2,0.9-3.9,1.3-5.5,1.3c-2,0-3.8-0.6-5.3-1.7
		c-1.5-1.2-2.2-2.7-2.2-4.6c0-2.5,1.2-4.6,3.7-6.5c2.5-1.8,5.9-3.6,10.3-5.4l5.7-2.3v-1.4c0-2-0.1-3.5-0.4-4.4
		c-0.3-0.9-1-1.7-2.1-2.4c-1.1-0.7-2.6-1.1-4.5-1.1c-3.7,0-5.8,1.2-6.2,3.6s-1.4,3.7-3.1,3.7c-1.5,0-2.3-0.7-2.3-2.1s1-2.8,3-4.4
		s5.1-2.4,9.3-2.4c3.1,0,5.6,0.5,7.3,1.4c1.7,1,2.9,2.1,3.4,3.3c0.6,1.2,0.8,3.1,0.8,5.6v11.9c0,2.8,0.1,4.6,0.4,5.4
		c0.3,0.8,0.9,1.2,1.9,1.2C189.1,47.4,190.2,46.2,190.5,43.8L190.5,43.8z"/>
	<g id="Group-39" transform="translate(134.016297, 0.121391)">
		<path id="Fill-37" class="st5" d="M-146.4-52.8c0,0,7.8,8.5,14,9c0,0,4.1-8.5,13.6-11.6c0,0,0.5-4.8,6.2-5c0,0,6.2-0.4,6.1,3.2
			c0,0-0.5,7-7.7,5.9c0,0-3.3-0.3-4.7-2.2c0,0-2.9-1.3-9.5,6.4c0,0-2,2.7-2.5,3.8l5.7,1.7c0,0,1.8,0.7,4.2-1.5c0,0,2.3-2.1,1.9-2.3
			c0,0-2-1.3-1.4-3c0,0,1.2-3.1,3.6-0.9c0,0,2.7,3-0.9,4.5c0,0-1.5,3.4-3.7,3.7c0,0,6.7,1.7,14.3,1.1c0,0-0.4-4.7,1.8-8.1
			c0,0-1.2-1.1-3.6,0.2c0,0-0.6,3.5-4.3,2.7c0,0-1.1-0.9-0.4-2.1c0,0,0.9-2.4,4.3-1.8c0,0,1.4-1.2,4.9-0.8c0,0,1.3-2.5,2-2.7
			c0,0-0.8-3.5,0.9-6.5c0,0-3.7-3.1,0.9-7.4c0,0,4.1-3.5,5.8,0.7c0,0,1.7,5.6-5.6,7.4c0,0-1.2,1.7-0.5,4.4c0,0,0.7-1,1.5-1.2
			c0,0-0.3-3.7,4.6-4.2c0,0,3.7-0.6,4.1,0.9c0,0,1.2,2.4-3.9,4.4c0,0-3.4,1.2-4-0.7c0,0-4.5,2.8-5.5,7.9c0,0,2.7-1.5,3.8-1.4
			c0,0,3.1-5.1,10.6-6.5c0,0,1.4-2.9,4.3-1.5c0,0,2.7,1.7-2,2.8c0,0-1.9,0.3-2.1-0.3c0,0-5.8,1.1-8.5,5.1l1.3-0.1
			c0,0,2.5-3.1,6.6-1.1c0,0,3.3,1.8,1.5,3.3c-1.6,1.3-2.4,1.5-4.4,1.8c-0.6,0.1-3.6,0-4.2-3.2c0,0-5.6,0.9-7.3,2.4c0,0-1,3-0.6,5.3
			c0,0,8.3-0.3,17.6-3.7c0,0,1.9-6.4,7.9-4.5c0,0,3.9,1.5,0,5.1c-0.4,0.3-2,2.3-7.1,0.6c0,0-7.2,2.6-9,2.7c0,0,5.1,2.8,10.9,2.5
			c0,0,1.7-3.9,6.5-1.8c0.5,0.4,3.6,1.5,1.2,4.7c0,0-2.1,3.1-5.7,1.8c-1-0.4-2.5-0.8-2.5-3.5c0,0-8.2-0.2-12.3-3.2
			c0,0-1.6,0.5-2.4,0.6l2.1,4c0,0,0.9,1.4,4.2,1.5l2.4,0.1c0,0-0.3-2.2,2.6-1.8c0,0,3.1,0.7,0.8,2.5c0,0-1.1,0.9-3.5,0
			c0,0-3,0.6-5.2-0.5c0,0,1.7,3.5,9.2,6.3l0.4,0.1c0,0,1.1-2.5,5.2-1.3c0,0,4.5,1,2.4,5.5c0,0-1.5,3-5.8,0.2c0,0-2-1-1.9-2.9
			c0,0-6.5-2.1-8.3-4.5c0,0-0.4,2.9,2.8,6.2c0,0,4.3,0.9,3,3.8c0,0-0.7,1.3-3.1-0.4c0,0-1.4-0.6-0.8-2.7c0,0-3.9-3.9-3.6-9.2
			c0,0-4.1-5.1-4.5-6.9c0,0-10.1,2.4-24.4-1.6c0,0,4.9,5.5,7.8,6.3c0,0,1.4-2,7-1.1c0,0,2.9-1.8,4.7-1.4c0,0,4.4,0.5,3.7,3.7
			c0,0-1,2.4-4.7,2.2c0,0-3.2-0.3-4.1-3.2c0,0-4.3-0.9-5,0.8l3,1.5c0,0,5.4-1,7.3,3.6c0,0,1.3,5.1-4.3,3.4c0,0-5.6-1.9-3.6-6.2
			l-5.3-2.5c0,0-0.6,3.1,3.9,7.5c0,0,5.1,4.3,7.7,4.5c0,0,2.3-3.9,7.3-1c0,0,4.7,2.9-0.4,5.1c0,0-3.9,2-7.5-3c0,0-10-4.2-11.3-8
			c0,0-2.2-3.5-1.1-6.3c0,0-5.8-3.2-6.7-6.1l-6.2-2c0,0,1.2,5.3,3.8,7.8c0,0,4,0.5,4.1,5c0,0,0,3.6-3.1,2.3c0,0-4.3-2.1-2.2-6.8
			c0,0-4.6-7.1-4.6-9c0,0-10.7-5.3-11.4-6.5c0,0-1.3-0.5-0.5-1.5L-146.4-52.8z"/>
	</g>
</g>
</svg>
