<?xml version="1.0" encoding="utf-8"?>
<!-- Generator: Adobe Illustrator 22.1.0, SVG Export Plug-In . SVG Version: 6.00 Build 0)  -->
<svg version="1.1" xmlns="http://www.w3.org/2000/svg" xmlns:xlink="http://www.w3.org/1999/xlink" x="0px" y="0px"
	 viewBox="0 0 50 50" style="enable-background:new 0 0 50 50;" xml:space="preserve">
<style type="text/css">
	.st0{fill:url(#SVGID_1_);}
	.st1{fill:url(#SVGID_2_);}
	.st2{fill:#EACA44;}
	.st3{fill:#23B248;}
	.st4{fill:#575656;}
	.st5{fill:#FFFFFF;}
	.st6{fill:#F80000;}
	.st7{fill:none;stroke:#575656;stroke-miterlimit:10;}
	.st8{fill:#AFADAD;}
	.st9{fill:#B5EEB1;}
	.st10{fill:#4ED944;}
	.st11{fill:none;stroke:#575656;stroke-width:2;stroke-miterlimit:10;}
	.st12{fill:none;stroke:#575656;stroke-width:1.5;stroke-miterlimit:10;}
	.st13{fill:#575656;stroke:#575656;stroke-miterlimit:10;}
	.st14{fill:none;stroke:#575656;stroke-width:2;stroke-linecap:round;stroke-linejoin:round;stroke-miterlimit:10;}
</style>
<g id="Capa_1">
</g>
<g id="Capa_2">
</g>
<g id="Capa_3">
	<g>
		<g>
			<path class="st13" d="M38.8,26.3c-0.1,0-0.2,0-0.3-0.1c-0.1-0.1-0.1-0.1-0.1-0.2c0-0.1,0-0.1,0.1-0.2l4.1-4H30
				c-0.2,0-0.4-0.1-0.4-0.3s0.2-0.3,0.4-0.3h12.6l-4.1-4c-0.1-0.1-0.1-0.1-0.1-0.2s0-0.1,0.1-0.2c0.1-0.1,0.2-0.1,0.3-0.1
				s0.2,0,0.3,0.1l4.6,4.5c0,0,0,0.1,0.1,0.1c0,0.1,0,0.1,0,0.2c0,0,0,0.1-0.1,0.1L39,26.2C39,26.3,38.9,26.3,38.8,26.3z"/>
		</g>
		<polyline class="st14" points="6.3,36.8 6.3,6.3 26.4,6.3 26.4,36.8 20.4,36.8 		"/>
		<polygon class="st14" points="20.4,43.8 6.3,36.8 6.3,6.3 20.4,13.3 		"/>
	</g>
</g>
</svg>
