<?xml version="1.0" encoding="utf-8"?>
<!-- Generator: Adobe Illustrator 22.1.0, SVG Export Plug-In . SVG Version: 6.00 Build 0)  -->
<svg version="1.1" id="Capa_1" xmlns="http://www.w3.org/2000/svg" xmlns:xlink="http://www.w3.org/1999/xlink" x="0px" y="0px"
	 viewBox="0 0 348.1 172.1" style="enable-background:new 0 0 348.1 172.1;" xml:space="preserve">
<style type="text/css">
	.st0{fill:#0C0A1A;fill-opacity:0.65;}
	.st1{fill:#FFFFFF;}
	.st2{fill:none;stroke:#807E7E;stroke-width:2;stroke-linecap:square;}
	.st3{fill:#D8D8D8;fill-opacity:0.5;}
	.st4{fill:none;stroke:#C8C7C7;stroke-width:3;}
	.st5{fill:#F0F0F1;}
</style>
<title>HU2.Registro</title>
<desc>Created with Sketch.</desc>
<g id="HU2.Registro">
	<g id="Back" transform="translate(-138.000000, -16.000000)">
		
			<image style="overflow:visible;enable-background:new    ;" width="640" height="640" id="_x33_0076573_x5F_580853062271037_x5F_3336802698337976320_x5F_n" xlink:href="14034DBCA68C6AF5.png"  transform="matrix(1.7969 0 0 1.7969 -1289.2922 370.2043)">
		</image>
		<rect id="Rectangle-3" x="-1151.3" y="386.2" class="st0" width="640" height="1136"/>
	</g>
	<g id="Atras" transform="translate(14.000000, 42.000000)">
		<path id="Atrás" class="st1" d="M-1253.7,389.7h-8l-1.9,5.5h-2.9l7.7-21.3h2.5l7.5,21.3h-2.9L-1253.7,389.7z M-1260.9,387.3h6.4
			l-3.1-9.2h-0.1L-1260.9,387.3z M-1242.1,375.5v3.8h3v2.1h-3v9.6c0,0.7,0.2,1.3,0.5,1.6s0.7,0.5,1.2,0.5c0.2,0,0.4,0,0.6-0.1
			s0.4-0.1,0.5-0.1l0.4,2c-0.2,0.2-0.5,0.3-1,0.4s-0.8,0.2-1.2,0.2c-1.2,0-2.1-0.4-2.8-1.1s-1-1.8-1-3.3v-9.6h-2.5v-2.1h2.5v-3.8
			H-1242.1z M-1228.5,381.9l-1.5-0.1c-0.8,0-1.4,0.2-1.9,0.5s-0.9,0.9-1.2,1.5v11.3h-2.9v-15.8h2.6l0.3,2.3c0.4-0.8,1-1.5,1.7-1.9
			s1.4-0.7,2.3-0.7c0.2,0,0.4,0,0.6,0.1s0.4,0.1,0.5,0.1L-1228.5,381.9z M-1215.8,395.2c-0.1-0.5-0.2-0.9-0.2-1.3s-0.1-0.7-0.1-1.1
			c-0.5,0.8-1.2,1.4-2.1,1.9s-1.8,0.8-2.8,0.8c-1.7,0-2.9-0.4-3.8-1.3s-1.3-2-1.3-3.5c0-1.5,0.6-2.7,1.8-3.6s2.9-1.3,5-1.3h3.1v-1.6
			c0-0.9-0.3-1.7-0.8-2.2s-1.4-0.8-2.4-0.8c-0.9,0-1.7,0.2-2.3,0.7s-0.9,1-0.9,1.7l-2.7,0l0-0.1c-0.1-1.2,0.5-2.2,1.6-3.2
			s2.6-1.4,4.4-1.4c1.8,0,3.2,0.5,4.3,1.4s1.6,2.2,1.6,3.9v7.6c0,0.6,0,1.1,0.1,1.6s0.2,1,0.3,1.6H-1215.8z M-1220.5,393.1
			c1,0,2-0.3,2.8-0.8s1.4-1.2,1.6-1.8v-2.6h-3.2c-1.2,0-2.1,0.3-2.8,0.9s-1,1.3-1,2.1c0,0.7,0.2,1.3,0.7,1.7
			S-1221.4,393.1-1220.5,393.1z M-1218.1,372.6h3.4l0,0.1l-3.9,3.8h-2.2L-1218.1,372.6z M-1199.8,390.9c0-0.6-0.2-1.2-0.7-1.6
			s-1.4-0.8-2.7-1.1c-1.9-0.4-3.3-1-4.3-1.7s-1.5-1.7-1.5-2.9c0-1.3,0.5-2.4,1.6-3.3s2.5-1.4,4.3-1.4c1.8,0,3.3,0.5,4.4,1.5
			s1.6,2.1,1.6,3.4l0,0.1h-2.8c0-0.7-0.3-1.3-0.9-1.9s-1.4-0.8-2.3-0.8c-1,0-1.8,0.2-2.3,0.7s-0.8,1-0.8,1.6c0,0.6,0.2,1.1,0.7,1.5
			s1.3,0.7,2.7,0.9c1.9,0.4,3.4,1,4.4,1.7s1.5,1.7,1.5,2.9c0,1.4-0.6,2.6-1.7,3.4s-2.6,1.3-4.5,1.3c-2,0-3.6-0.5-4.8-1.5
			c-1.2-1-1.7-2.2-1.7-3.6l0-0.1h2.8c0,1,0.4,1.8,1.1,2.2s1.5,0.7,2.5,0.7c1,0,1.8-0.2,2.4-0.7S-1199.8,391.6-1199.8,390.9z"/>
		<path id="Shape" class="st1" d="M-1278.1,370.9c0.3,0.2,0.5,0.7,0.2,1l-9.4,14.8l9.4,14.8c0.2,0.4,0.1,0.8-0.2,1s-0.8,0.1-1-0.2
			l-9.6-15.2c-0.1-0.1-0.1-0.3-0.1-0.4c0,0,0,0,0,0c0,0,0,0,0,0c0-0.1,0-0.3,0.1-0.4l9.6-15.2
			C-1278.9,370.7-1278.4,370.6-1278.1,370.9z"/>
	</g>
	<g id="Boton_crear_cuenta" transform="translate(102.000000, 802.000000)">
		<path id="Al-registrar-tu-cuen" class="st1" d="M-1278.2,384.8h-6.4l-1.5,4.4h-2.4l6.2-17.1h2l6,17.1h-2.4L-1278.2,384.8z
			 M-1284,382.9h5.1l-2.5-7.3h-0.1L-1284,382.9z M-1269.7,389.2h-2.3v-18.3h2.3V389.2z M-1254.2,378.6l-1.2-0.1
			c-0.6,0-1.1,0.1-1.5,0.4s-0.7,0.7-1,1.2v9.1h-2.3v-12.7h2.1l0.2,1.9c0.4-0.7,0.8-1.2,1.3-1.5s1.1-0.6,1.8-0.6c0.2,0,0.3,0,0.5,0
			s0.3,0.1,0.4,0.1L-1254.2,378.6z M-1246.5,389.5c-1.8,0-3.2-0.6-4.3-1.7c-1-1.2-1.5-2.7-1.5-4.6v-0.5c0-1.8,0.5-3.3,1.6-4.5
			c1.1-1.2,2.3-1.8,3.8-1.8c1.7,0,3,0.5,3.8,1.6c0.8,1.1,1.3,2.5,1.3,4.2v1.2h-8.1l0,0.1c0,1.3,0.3,2.3,0.8,3.1s1.4,1.2,2.6,1.2
			c0.8,0,1.5-0.1,2.1-0.3s1.1-0.5,1.5-0.9l0.9,1.5c-0.5,0.4-1.1,0.8-1.8,1.1S-1245.5,389.5-1246.5,389.5z M-1246.9,378.1
			c-0.8,0-1.5,0.3-2,0.9s-0.8,1.4-1,2.4l0,0.1h5.7v-0.2c0-0.9-0.2-1.7-0.7-2.3S-1246,378.1-1246.9,378.1z M-1239.6,383.1
			c0-2,0.4-3.7,1.3-4.9c0.9-1.2,2.1-1.9,3.7-1.9c0.8,0,1.5,0.2,2.1,0.5s1.1,0.8,1.5,1.4l0.3-1.7h1.8v12.8c0,1.6-0.5,2.9-1.4,3.7
			s-2.3,1.3-4.1,1.3c-0.6,0-1.3-0.1-2-0.3s-1.3-0.4-1.9-0.7l0.4-1.8c0.4,0.2,1,0.4,1.6,0.6s1.2,0.2,1.9,0.2c1.1,0,1.9-0.3,2.5-0.8
			s0.8-1.3,0.8-2.3v-1.4c-0.4,0.5-0.9,0.9-1.5,1.2s-1.2,0.4-2,0.4c-1.5,0-2.8-0.6-3.6-1.7c-0.9-1.1-1.3-2.6-1.3-4.4V383.1z
			 M-1237.3,383.3c0,1.3,0.3,2.3,0.8,3.1s1.3,1.2,2.4,1.2c0.7,0,1.3-0.2,1.7-0.5s0.9-0.8,1.2-1.3v-5.8c-0.3-0.5-0.7-1-1.2-1.3
			s-1.1-0.5-1.7-0.5c-1.1,0-1.9,0.5-2.4,1.4s-0.8,2.1-0.8,3.6V383.3z M-1223.1,389.2h-2.3v-12.7h2.3V389.2z M-1223.1,373.3h-2.3
			v-2.4h2.3V373.3z M-1212.2,385.8c0-0.5-0.2-0.9-0.6-1.2s-1.1-0.6-2.2-0.8c-1.5-0.3-2.6-0.8-3.4-1.3s-1.2-1.4-1.2-2.3
			c0-1,0.4-1.9,1.3-2.6s2-1.1,3.4-1.1c1.4,0,2.6,0.4,3.5,1.2s1.3,1.7,1.3,2.7l0,0.1h-2.2c0-0.5-0.2-1-0.7-1.5s-1.1-0.7-1.8-0.7
			c-0.8,0-1.4,0.2-1.8,0.6s-0.6,0.8-0.6,1.3c0,0.5,0.2,0.9,0.5,1.2s1.1,0.5,2.2,0.8c1.6,0.3,2.7,0.8,3.5,1.4s1.2,1.4,1.2,2.4
			c0,1.1-0.5,2-1.4,2.8s-2.1,1.1-3.6,1.1c-1.6,0-2.9-0.4-3.8-1.2s-1.4-1.8-1.3-2.9l0-0.1h2.2c0,0.8,0.3,1.4,0.9,1.8s1.2,0.6,2,0.6
			c0.8,0,1.5-0.2,1.9-0.5S-1212.2,386.3-1212.2,385.8z M-1203.8,373.5v3.1h2.4v1.7h-2.4v7.7c0,0.6,0.1,1,0.4,1.3s0.6,0.4,1,0.4
			c0.1,0,0.3,0,0.4-0.1s0.3-0.1,0.4-0.1l0.3,1.6c-0.2,0.1-0.4,0.3-0.8,0.3s-0.7,0.1-1,0.1c-0.9,0-1.7-0.3-2.2-0.8s-0.8-1.5-0.8-2.7
			v-7.7h-2v-1.7h2v-3.1H-1203.8z M-1192.9,378.6l-1.2-0.1c-0.6,0-1.1,0.1-1.5,0.4s-0.7,0.7-1,1.2v9.1h-2.3v-12.7h2.1l0.2,1.9
			c0.4-0.7,0.8-1.2,1.3-1.5s1.1-0.6,1.8-0.6c0.2,0,0.3,0,0.5,0s0.3,0.1,0.4,0.1L-1192.9,378.6z M-1182.7,389.2
			c-0.1-0.4-0.1-0.7-0.2-1s-0.1-0.6-0.1-0.9c-0.4,0.6-1,1.1-1.7,1.5s-1.4,0.6-2.2,0.6c-1.3,0-2.3-0.3-3-1s-1-1.6-1-2.8
			c0-1.2,0.5-2.2,1.5-2.8s2.3-1,4-1h2.5v-1.3c0-0.7-0.2-1.3-0.7-1.8s-1.1-0.7-1.9-0.7c-0.8,0-1.4,0.2-1.8,0.6s-0.7,0.8-0.7,1.3
			l-2.2,0l0-0.1c-0.1-0.9,0.4-1.8,1.3-2.5s2.1-1.1,3.6-1.1c1.4,0,2.6,0.4,3.5,1.1s1.3,1.8,1.3,3.2v6.1c0,0.5,0,0.9,0.1,1.3
			s0.1,0.8,0.3,1.2H-1182.7z M-1186.5,387.5c0.8,0,1.6-0.2,2.3-0.6s1.1-0.9,1.3-1.5v-2.1h-2.6c-0.9,0-1.7,0.2-2.2,0.7
			s-0.8,1-0.8,1.7c0,0.6,0.2,1,0.5,1.3S-1187.2,387.5-1186.5,387.5z M-1171.3,378.6l-1.2-0.1c-0.6,0-1.1,0.1-1.5,0.4s-0.7,0.7-1,1.2
			v9.1h-2.3v-12.7h2.1l0.2,1.9c0.4-0.7,0.8-1.2,1.3-1.5s1.1-0.6,1.8-0.6c0.2,0,0.3,0,0.5,0s0.3,0.1,0.4,0.1L-1171.3,378.6z
			 M-1159.7,373.5v3.1h2.4v1.7h-2.4v7.7c0,0.6,0.1,1,0.4,1.3s0.6,0.4,1,0.4c0.1,0,0.3,0,0.4-0.1s0.3-0.1,0.4-0.1l0.3,1.6
			c-0.2,0.1-0.4,0.3-0.8,0.3s-0.7,0.1-1,0.1c-0.9,0-1.7-0.3-2.2-0.8s-0.8-1.5-0.8-2.7v-7.7h-2v-1.7h2v-3.1H-1159.7z M-1146.8,387.3
			c-0.4,0.7-0.9,1.2-1.5,1.6s-1.3,0.6-2.2,0.6c-1.4,0-2.5-0.4-3.2-1.3s-1.2-2.3-1.2-4.1v-7.5h2.3v7.5c0,1.4,0.2,2.3,0.6,2.8
			s1,0.8,1.9,0.8c0.8,0,1.5-0.2,2-0.5s0.9-0.8,1.2-1.4v-9.1h2.3v12.7h-2.1L-1146.8,387.3z M-1130.2,387.6c0.7,0,1.3-0.2,1.9-0.7
			s0.8-1.1,0.8-1.7h2.1l0,0.1c0,1.1-0.4,2.1-1.4,2.9s-2.1,1.3-3.4,1.3c-1.8,0-3.2-0.6-4.1-1.8c-1-1.2-1.5-2.7-1.5-4.5v-0.5
			c0-1.8,0.5-3.3,1.5-4.5c1-1.2,2.3-1.8,4.1-1.8c1.4,0,2.6,0.4,3.5,1.3s1.3,1.9,1.3,3.2l0,0.1h-2.1c0-0.8-0.3-1.4-0.8-2
			s-1.1-0.8-1.9-0.8c-1.1,0-2,0.4-2.5,1.3s-0.8,1.9-0.8,3.2v0.5c0,1.3,0.3,2.3,0.8,3.2S-1131.4,387.6-1130.2,387.6z M-1114.6,387.3
			c-0.4,0.7-0.9,1.2-1.5,1.6s-1.3,0.6-2.2,0.6c-1.4,0-2.5-0.4-3.2-1.3s-1.2-2.3-1.2-4.1v-7.5h2.3v7.5c0,1.4,0.2,2.3,0.6,2.8
			s1,0.8,1.9,0.8c0.8,0,1.5-0.2,2-0.5s0.9-0.8,1.2-1.4v-9.1h2.3v12.7h-2.1L-1114.6,387.3z M-1103.8,389.5c-1.8,0-3.2-0.6-4.3-1.7
			c-1-1.2-1.5-2.7-1.5-4.6v-0.5c0-1.8,0.5-3.3,1.6-4.5c1.1-1.2,2.3-1.8,3.8-1.8c1.7,0,3,0.5,3.8,1.6c0.8,1.1,1.3,2.5,1.3,4.2v1.2
			h-8.1l0,0.1c0,1.3,0.3,2.3,0.8,3.1s1.4,1.2,2.6,1.2c0.8,0,1.5-0.1,2.1-0.3s1.1-0.5,1.5-0.9l0.9,1.5c-0.5,0.4-1.1,0.8-1.8,1.1
			S-1102.7,389.5-1103.8,389.5z M-1104.2,378.1c-0.8,0-1.5,0.3-2,0.9s-0.8,1.4-1,2.4l0,0.1h5.7v-0.2c0-0.9-0.2-1.7-0.7-2.3
			S-1103.2,378.1-1104.2,378.1z M-1094.4,376.5l0.2,1.9c0.4-0.7,1-1.2,1.6-1.6s1.4-0.6,2.2-0.6c1.4,0,2.4,0.4,3.2,1.2s1.1,2,1.1,3.7
			v8h-2.3v-8c0-1.1-0.2-1.9-0.7-2.4s-1.1-0.7-2-0.7c-0.7,0-1.3,0.1-1.8,0.4s-0.9,0.7-1.2,1.2v9.4h-2.3v-12.7H-1094.4z
			 M-1079.6,373.5v3.1h2.4v1.7h-2.4v7.7c0,0.6,0.1,1,0.4,1.3s0.6,0.4,1,0.4c0.1,0,0.3,0,0.4-0.1s0.3-0.1,0.4-0.1l0.3,1.6
			c-0.2,0.1-0.4,0.3-0.8,0.3s-0.7,0.1-1,0.1c-0.9,0-1.7-0.3-2.2-0.8s-0.8-1.5-0.8-2.7v-7.7h-2v-1.7h2v-3.1H-1079.6z M-1067,389.2
			c-0.1-0.4-0.1-0.7-0.2-1s-0.1-0.6-0.1-0.9c-0.4,0.6-1,1.1-1.7,1.5s-1.4,0.6-2.2,0.6c-1.3,0-2.3-0.3-3-1s-1-1.6-1-2.8
			c0-1.2,0.5-2.2,1.5-2.8s2.3-1,4-1h2.5v-1.3c0-0.7-0.2-1.3-0.7-1.8s-1.1-0.7-1.9-0.7c-0.8,0-1.4,0.2-1.8,0.6s-0.7,0.8-0.7,1.3
			l-2.2,0l0-0.1c-0.1-0.9,0.4-1.8,1.3-2.5s2.1-1.1,3.6-1.1c1.4,0,2.6,0.4,3.5,1.1s1.3,1.8,1.3,3.2v6.1c0,0.5,0,0.9,0.1,1.3
			s0.1,0.8,0.3,1.2H-1067z M-1070.8,387.5c0.8,0,1.6-0.2,2.3-0.6s1.1-0.9,1.3-1.5v-2.1h-2.6c-0.9,0-1.7,0.2-2.2,0.7s-0.8,1-0.8,1.7
			c0,0.6,0.2,1,0.5,1.3S-1071.5,387.5-1070.8,387.5z M-1059.5,388.6l-1.8,3.6h-1.4l0.8-3.7v-1.9h2.3V388.6z M-1043.1,389.2
			c-0.1-0.4-0.1-0.7-0.2-1s-0.1-0.6-0.1-0.9c-0.4,0.6-1,1.1-1.7,1.5s-1.4,0.6-2.2,0.6c-1.3,0-2.3-0.3-3-1s-1-1.6-1-2.8
			c0-1.2,0.5-2.2,1.5-2.8s2.3-1,4-1h2.5v-1.3c0-0.7-0.2-1.3-0.7-1.8s-1.1-0.7-1.9-0.7c-0.8,0-1.4,0.2-1.8,0.6s-0.7,0.8-0.7,1.3
			l-2.2,0l0-0.1c-0.1-0.9,0.4-1.8,1.3-2.5s2.1-1.1,3.6-1.1c1.4,0,2.6,0.4,3.5,1.1s1.3,1.8,1.3,3.2v6.1c0,0.5,0,0.9,0.1,1.3
			s0.1,0.8,0.3,1.2H-1043.1z M-1046.9,387.5c0.8,0,1.6-0.2,2.3-0.6s1.1-0.9,1.3-1.5v-2.1h-2.6c-0.9,0-1.7,0.2-2.2,0.7
			s-0.8,1-0.8,1.7c0,0.6,0.2,1,0.5,1.3S-1047.6,387.5-1046.9,387.5z M-1032.6,387.6c0.7,0,1.3-0.2,1.9-0.7s0.8-1.1,0.8-1.7h2.1
			l0,0.1c0,1.1-0.4,2.1-1.4,2.9s-2.1,1.3-3.4,1.3c-1.8,0-3.2-0.6-4.1-1.8c-1-1.2-1.5-2.7-1.5-4.5v-0.5c0-1.8,0.5-3.3,1.5-4.5
			c1-1.2,2.3-1.8,4.1-1.8c1.4,0,2.6,0.4,3.5,1.3s1.3,1.9,1.3,3.2l0,0.1h-2.1c0-0.8-0.3-1.4-0.8-2s-1.1-0.8-1.9-0.8
			c-1.1,0-2,0.4-2.5,1.3s-0.8,1.9-0.8,3.2v0.5c0,1.3,0.3,2.3,0.8,3.2S-1033.8,387.6-1032.6,387.6z M-1019.9,389.5
			c-1.8,0-3.2-0.6-4.3-1.7c-1-1.2-1.5-2.7-1.5-4.6v-0.5c0-1.8,0.5-3.3,1.6-4.5c1.1-1.2,2.3-1.8,3.8-1.8c1.7,0,3,0.5,3.8,1.6
			c0.8,1.1,1.3,2.5,1.3,4.2v1.2h-8.1l0,0.1c0,1.3,0.3,2.3,0.8,3.1s1.4,1.2,2.6,1.2c0.8,0,1.5-0.1,2.1-0.3s1.1-0.5,1.5-0.9l0.9,1.5
			c-0.5,0.4-1.1,0.8-1.8,1.1S-1018.8,389.5-1019.9,389.5z M-1020.2,378.1c-0.8,0-1.5,0.3-2,0.9s-0.8,1.4-1,2.4l0,0.1h5.7v-0.2
			c0-0.9-0.2-1.7-0.7-2.3S-1019.3,378.1-1020.2,378.1z M-1001.7,383.3c0,1.8-0.4,3.3-1.3,4.4c-0.9,1.1-2.1,1.7-3.6,1.7
			c-0.8,0-1.5-0.1-2.1-0.4s-1.1-0.7-1.5-1.2v6.2h-2.3v-17.6h1.8l0.4,1.6c0.4-0.6,0.9-1.1,1.5-1.4s1.3-0.5,2.2-0.5
			c1.6,0,2.8,0.6,3.7,1.9c0.9,1.2,1.3,2.9,1.3,4.9V383.3z M-1004,383.1c0-1.4-0.3-2.6-0.8-3.5s-1.4-1.4-2.5-1.4
			c-0.7,0-1.2,0.2-1.7,0.5s-0.8,0.7-1.1,1.2v6.1c0.3,0.5,0.7,0.9,1.1,1.2s1,0.4,1.7,0.4c1.1,0,1.9-0.4,2.5-1.2s0.8-1.8,0.8-3.1
			V383.1z M-995.7,373.5v3.1h2.4v1.7h-2.4v7.7c0,0.6,0.1,1,0.4,1.3s0.6,0.4,1,0.4c0.1,0,0.3,0,0.4-0.1s0.3-0.1,0.4-0.1l0.3,1.6
			c-0.2,0.1-0.4,0.3-0.8,0.3s-0.7,0.1-1,0.1c-0.9,0-1.7-0.3-2.2-0.8s-0.8-1.5-0.8-2.7v-7.7h-2v-1.7h2v-3.1H-995.7z M-983,389.2
			c-0.1-0.4-0.1-0.7-0.2-1s-0.1-0.6-0.1-0.9c-0.4,0.6-1,1.1-1.7,1.5s-1.4,0.6-2.2,0.6c-1.3,0-2.3-0.3-3-1s-1-1.6-1-2.8
			c0-1.2,0.5-2.2,1.5-2.8s2.3-1,4-1h2.5v-1.3c0-0.7-0.2-1.3-0.7-1.8s-1.1-0.7-1.9-0.7c-0.8,0-1.4,0.2-1.8,0.6s-0.7,0.8-0.7,1.3
			l-2.2,0l0-0.1c-0.1-0.9,0.4-1.8,1.3-2.5s2.1-1.1,3.6-1.1c1.4,0,2.6,0.4,3.5,1.1s1.3,1.8,1.3,3.2v6.1c0,0.5,0,0.9,0.1,1.3
			s0.1,0.8,0.3,1.2H-983z M-986.9,387.5c0.8,0,1.6-0.2,2.3-0.6s1.1-0.9,1.3-1.5v-2.1h-2.6c-0.9,0-1.7,0.2-2.2,0.7s-0.8,1-0.8,1.7
			c0,0.6,0.2,1,0.5,1.3S-987.5,387.5-986.9,387.5z M-970.2,385.8c0-0.5-0.2-0.9-0.6-1.2s-1.1-0.6-2.2-0.8c-1.5-0.3-2.6-0.8-3.4-1.3
			s-1.2-1.4-1.2-2.3c0-1,0.4-1.9,1.3-2.6s2-1.1,3.4-1.1c1.4,0,2.6,0.4,3.5,1.2s1.3,1.7,1.3,2.7l0,0.1h-2.2c0-0.5-0.2-1-0.7-1.5
			s-1.1-0.7-1.8-0.7c-0.8,0-1.4,0.2-1.8,0.6s-0.6,0.8-0.6,1.3c0,0.5,0.2,0.9,0.5,1.2s1.1,0.5,2.2,0.8c1.6,0.3,2.7,0.8,3.5,1.4
			s1.2,1.4,1.2,2.4c0,1.1-0.5,2-1.4,2.8s-2.1,1.1-3.6,1.1c-1.6,0-2.9-0.4-3.8-1.2s-1.4-1.8-1.3-2.9l0-0.1h2.2c0,0.8,0.3,1.4,0.9,1.8
			s1.2,0.6,2,0.6c0.8,0,1.5-0.2,1.9-0.5S-970.2,386.3-970.2,385.8z M-953.9,389.5c-1.8,0-3.2-0.6-4.3-1.7c-1-1.2-1.5-2.7-1.5-4.6
			v-0.5c0-1.8,0.5-3.3,1.6-4.5c1.1-1.2,2.3-1.8,3.8-1.8c1.7,0,3,0.5,3.8,1.6c0.8,1.1,1.3,2.5,1.3,4.2v1.2h-8.1l0,0.1
			c0,1.3,0.3,2.3,0.8,3.1s1.4,1.2,2.6,1.2c0.8,0,1.5-0.1,2.1-0.3s1.1-0.5,1.5-0.9l0.9,1.5c-0.5,0.4-1.1,0.8-1.8,1.1
			S-952.8,389.5-953.9,389.5z M-954.2,378.1c-0.8,0-1.5,0.3-2,0.9s-0.8,1.4-1,2.4l0,0.1h5.7v-0.2c0-0.9-0.2-1.7-0.7-2.3
			S-953.3,378.1-954.2,378.1z M-944,389.2h-2.3v-18.3h2.3V389.2z M-926.7,389.2c-0.1-0.4-0.1-0.7-0.2-1s-0.1-0.6-0.1-0.9
			c-0.4,0.6-1,1.1-1.7,1.5s-1.4,0.6-2.2,0.6c-1.3,0-2.3-0.3-3-1s-1-1.6-1-2.8c0-1.2,0.5-2.2,1.5-2.8s2.3-1,4-1h2.5v-1.3
			c0-0.7-0.2-1.3-0.7-1.8s-1.1-0.7-1.9-0.7c-0.8,0-1.4,0.2-1.8,0.6s-0.7,0.8-0.7,1.3l-2.2,0l0-0.1c-0.1-0.9,0.4-1.8,1.3-2.5
			s2.1-1.1,3.6-1.1c1.4,0,2.6,0.4,3.5,1.1s1.3,1.8,1.3,3.2v6.1c0,0.5,0,0.9,0.1,1.3s0.1,0.8,0.3,1.2H-926.7z M-930.6,387.5
			c0.8,0,1.6-0.2,2.3-0.6s1.1-0.9,1.3-1.5v-2.1h-2.6c-0.9,0-1.7,0.2-2.2,0.7s-0.8,1-0.8,1.7c0,0.6,0.2,1,0.5,1.3
			S-931.3,387.5-930.6,387.5z M-917.1,385.5l0.2,0.9h0.1l0.2-0.9l2.9-8.9h2.4l-4.7,12.7h-1.7l-4.7-12.7h2.4L-917.1,385.5z
			 M-906.8,389.2h-2.3v-12.7h2.3V389.2z M-906.8,373.3h-2.3v-2.4h2.3V373.3z M-895.8,385.8c0-0.5-0.2-0.9-0.6-1.2s-1.1-0.6-2.2-0.8
			c-1.5-0.3-2.6-0.8-3.4-1.3s-1.2-1.4-1.2-2.3c0-1,0.4-1.9,1.3-2.6s2-1.1,3.4-1.1c1.4,0,2.6,0.4,3.5,1.2s1.3,1.7,1.3,2.7l0,0.1h-2.2
			c0-0.5-0.2-1-0.7-1.5s-1.1-0.7-1.8-0.7c-0.8,0-1.4,0.2-1.8,0.6s-0.6,0.8-0.6,1.3c0,0.5,0.2,0.9,0.5,1.2s1.1,0.5,2.2,0.8
			c1.6,0.3,2.7,0.8,3.5,1.4s1.2,1.4,1.2,2.4c0,1.1-0.5,2-1.4,2.8s-2.1,1.1-3.6,1.1c-1.6,0-2.9-0.4-3.8-1.2s-1.4-1.8-1.3-2.9l0-0.1
			h2.2c0,0.8,0.3,1.4,0.9,1.8s1.2,0.6,2,0.6c0.8,0,1.5-0.2,1.9-0.5S-895.8,386.3-895.8,385.8z M-891.2,382.7c0-1.9,0.5-3.4,1.5-4.6
			c1-1.2,2.4-1.8,4.1-1.8c1.8,0,3.1,0.6,4.2,1.8c1,1.2,1.5,2.8,1.5,4.6v0.3c0,1.9-0.5,3.4-1.5,4.6c-1,1.2-2.4,1.8-4.1,1.8
			s-3.1-0.6-4.2-1.8c-1-1.2-1.5-2.8-1.5-4.6V382.7z M-888.9,383c0,1.3,0.3,2.5,0.8,3.3s1.4,1.3,2.5,1.3c1.1,0,1.9-0.4,2.5-1.3
			s0.9-2,0.9-3.3v-0.3c0-1.3-0.3-2.4-0.9-3.3s-1.4-1.3-2.5-1.3c-1.1,0-1.9,0.4-2.5,1.3s-0.8,2-0.8,3.3V383z M-871.6,383.1
			c0-2,0.4-3.7,1.3-4.9c0.9-1.2,2.1-1.9,3.7-1.9c0.7,0,1.4,0.1,2,0.4s1.1,0.7,1.5,1.2v-7h2.3v18.3h-1.8l-0.4-1.6
			c-0.4,0.6-0.9,1.1-1.5,1.4s-1.3,0.5-2.1,0.5c-1.5,0-2.8-0.6-3.6-1.7c-0.9-1.1-1.3-2.6-1.3-4.4V383.1z M-869.3,383.3
			c0,1.3,0.3,2.3,0.8,3.1s1.3,1.2,2.4,1.2c0.7,0,1.3-0.2,1.7-0.5s0.9-0.8,1.1-1.3v-5.9c-0.3-0.5-0.7-0.9-1.2-1.2s-1-0.5-1.7-0.5
			c-1.1,0-1.9,0.5-2.5,1.4s-0.8,2.1-0.8,3.6V383.3z M-852.2,389.5c-1.8,0-3.2-0.6-4.3-1.7c-1-1.2-1.5-2.7-1.5-4.6v-0.5
			c0-1.8,0.5-3.3,1.6-4.5c1.1-1.2,2.3-1.8,3.8-1.8c1.7,0,3,0.5,3.8,1.6c0.8,1.1,1.3,2.5,1.3,4.2v1.2h-8.1l0,0.1
			c0,1.3,0.3,2.3,0.8,3.1s1.4,1.2,2.6,1.2c0.8,0,1.5-0.1,2.1-0.3s1.1-0.5,1.5-0.9l0.9,1.5c-0.5,0.4-1.1,0.8-1.8,1.1
			S-851.1,389.5-852.2,389.5z M-852.5,378.1c-0.8,0-1.5,0.3-2,0.9s-0.8,1.4-1,2.4l0,0.1h5.7v-0.2c0-0.9-0.2-1.7-0.7-2.3
			S-851.6,378.1-852.5,378.1z M-1181.4,411.3c0,1.8-0.4,3.3-1.3,4.4s-2.1,1.7-3.6,1.7c-0.8,0-1.5-0.1-2.1-0.4s-1.1-0.7-1.5-1.2v6.2
			h-2.3v-17.6h1.8l0.4,1.6c0.4-0.6,0.9-1.1,1.5-1.4s1.3-0.5,2.2-0.5c1.6,0,2.8,0.6,3.7,1.9c0.9,1.2,1.3,2.9,1.3,4.9V411.3z
			 M-1183.7,411.1c0-1.4-0.3-2.6-0.8-3.5s-1.4-1.4-2.5-1.4c-0.7,0-1.2,0.2-1.7,0.5s-0.8,0.7-1.1,1.2v6.1c0.3,0.5,0.7,0.9,1.1,1.2
			s1,0.4,1.7,0.4c1.1,0,1.9-0.4,2.5-1.2s0.8-1.8,0.8-3.1V411.1z M-1172.5,406.6l-1.2-0.1c-0.6,0-1.1,0.1-1.5,0.4s-0.7,0.7-1,1.2v9.1
			h-2.3v-12.7h2.1l0.2,1.9c0.4-0.7,0.8-1.2,1.3-1.5s1.1-0.6,1.8-0.6c0.2,0,0.3,0,0.5,0s0.3,0.1,0.4,0.1L-1172.5,406.6z
			 M-1167.6,417.2h-2.3v-12.7h2.3V417.2z M-1167.6,401.3h-2.3v-2.4h2.3V401.3z M-1159.8,413.5l0.2,0.9h0.1l0.2-0.9l2.9-8.9h2.4
			l-4.7,12.7h-1.7l-4.7-12.7h2.4L-1159.8,413.5z M-1144.2,417.2c-0.1-0.4-0.1-0.7-0.2-1s-0.1-0.6-0.1-0.9c-0.4,0.6-1,1.1-1.7,1.5
			s-1.4,0.6-2.2,0.6c-1.3,0-2.3-0.3-3-1s-1-1.6-1-2.8c0-1.2,0.5-2.2,1.5-2.8s2.3-1,4-1h2.5v-1.3c0-0.7-0.2-1.3-0.7-1.8
			s-1.1-0.7-1.9-0.7c-0.8,0-1.4,0.2-1.8,0.6s-0.7,0.8-0.7,1.3l-2.2,0l0-0.1c-0.1-0.9,0.4-1.8,1.3-2.5s2.1-1.1,3.6-1.1
			c1.4,0,2.6,0.4,3.5,1.1s1.3,1.8,1.3,3.2v6.1c0,0.5,0,0.9,0.1,1.3s0.1,0.8,0.3,1.2H-1144.2z M-1148,415.5c0.8,0,1.6-0.2,2.3-0.6
			s1.1-0.9,1.3-1.5v-2.1h-2.6c-0.9,0-1.7,0.2-2.2,0.7s-0.8,1-0.8,1.7c0,0.6,0.2,1,0.5,1.3S-1148.7,415.5-1148,415.5z M-1133.8,415.6
			c0.7,0,1.3-0.2,1.9-0.7s0.8-1.1,0.8-1.7h2.1l0,0.1c0,1.1-0.4,2.1-1.4,2.9s-2.1,1.3-3.4,1.3c-1.8,0-3.2-0.6-4.1-1.8
			c-1-1.2-1.5-2.7-1.5-4.5v-0.5c0-1.8,0.5-3.3,1.5-4.5c1-1.2,2.3-1.8,4.1-1.8c1.4,0,2.6,0.4,3.5,1.3s1.3,1.9,1.3,3.2l0,0.1h-2.1
			c0-0.8-0.3-1.4-0.8-2s-1.1-0.8-1.9-0.8c-1.1,0-2,0.4-2.5,1.3s-0.8,1.9-0.8,3.2v0.5c0,1.3,0.3,2.3,0.8,3.2
			S-1134.9,415.6-1133.8,415.6z M-1123.8,417.2h-2.3v-12.7h2.3V417.2z M-1123.8,401.3h-2.3v-2.4h2.3V401.3z M-1120.7,411.1
			c0-2,0.4-3.7,1.3-4.9c0.9-1.2,2.1-1.9,3.7-1.9c0.7,0,1.4,0.1,2,0.4s1.1,0.7,1.5,1.2v-7h2.3v18.3h-1.8l-0.4-1.6
			c-0.4,0.6-0.9,1.1-1.5,1.4s-1.3,0.5-2.1,0.5c-1.5,0-2.8-0.6-3.6-1.7s-1.3-2.6-1.3-4.4V411.1z M-1118.4,411.3
			c0,1.3,0.3,2.3,0.8,3.1s1.3,1.2,2.4,1.2c0.7,0,1.3-0.2,1.7-0.5s0.9-0.8,1.1-1.3v-5.9c-0.3-0.5-0.7-0.9-1.2-1.2s-1-0.5-1.7-0.5
			c-1.1,0-1.9,0.5-2.5,1.4s-0.8,2.1-0.8,3.6V411.3z M-1098.8,417.2c-0.1-0.4-0.1-0.7-0.2-1s-0.1-0.6-0.1-0.9c-0.4,0.6-1,1.1-1.7,1.5
			s-1.4,0.6-2.2,0.6c-1.3,0-2.3-0.3-3-1s-1-1.6-1-2.8c0-1.2,0.5-2.2,1.5-2.8s2.3-1,4-1h2.5v-1.3c0-0.7-0.2-1.3-0.7-1.8
			s-1.1-0.7-1.9-0.7c-0.8,0-1.4,0.2-1.8,0.6s-0.7,0.8-0.7,1.3l-2.2,0l0-0.1c-0.1-0.9,0.4-1.8,1.3-2.5s2.1-1.1,3.6-1.1
			c1.4,0,2.6,0.4,3.5,1.1s1.3,1.8,1.3,3.2v6.1c0,0.5,0,0.9,0.1,1.3s0.1,0.8,0.3,1.2H-1098.8z M-1102.6,415.5c0.8,0,1.6-0.2,2.3-0.6
			s1.1-0.9,1.3-1.5v-2.1h-2.6c-0.9,0-1.7,0.2-2.2,0.7s-0.8,1-0.8,1.7c0,0.6,0.2,1,0.5,1.3S-1103.3,415.5-1102.6,415.5z
			 M-1093.9,411.1c0-2,0.4-3.7,1.3-4.9c0.9-1.2,2.1-1.9,3.7-1.9c0.7,0,1.4,0.1,2,0.4s1.1,0.7,1.5,1.2v-7h2.3v18.3h-1.8l-0.4-1.6
			c-0.4,0.6-0.9,1.1-1.5,1.4s-1.3,0.5-2.1,0.5c-1.5,0-2.8-0.6-3.6-1.7s-1.3-2.6-1.3-4.4V411.1z M-1091.6,411.3
			c0,1.3,0.3,2.3,0.8,3.1s1.3,1.2,2.4,1.2c0.7,0,1.3-0.2,1.7-0.5s0.9-0.8,1.1-1.3v-5.9c-0.3-0.5-0.7-0.9-1.2-1.2s-1-0.5-1.7-0.5
			c-1.1,0-1.9,0.5-2.5,1.4s-0.8,2.1-0.8,3.6V411.3z M-1074.3,411.1c0-2,0.4-3.7,1.3-4.9c0.9-1.2,2.1-1.9,3.7-1.9
			c0.7,0,1.4,0.1,2,0.4s1.1,0.7,1.5,1.2v-7h2.3v18.3h-1.8l-0.4-1.6c-0.4,0.6-0.9,1.1-1.5,1.4s-1.3,0.5-2.1,0.5
			c-1.5,0-2.8-0.6-3.6-1.7s-1.3-2.6-1.3-4.4V411.1z M-1072,411.3c0,1.3,0.3,2.3,0.8,3.1s1.3,1.2,2.4,1.2c0.7,0,1.3-0.2,1.7-0.5
			s0.9-0.8,1.1-1.3v-5.9c-0.3-0.5-0.7-0.9-1.2-1.2s-1-0.5-1.7-0.5c-1.1,0-1.9,0.5-2.5,1.4s-0.8,2.1-0.8,3.6V411.3z M-1054.9,417.5
			c-1.8,0-3.2-0.6-4.3-1.7c-1-1.2-1.5-2.7-1.5-4.6v-0.5c0-1.8,0.5-3.3,1.6-4.5c1.1-1.2,2.3-1.8,3.8-1.8c1.7,0,3,0.5,3.8,1.6
			s1.3,2.5,1.3,4.2v1.2h-8.1l0,0.1c0,1.3,0.3,2.3,0.8,3.1s1.4,1.2,2.6,1.2c0.8,0,1.5-0.1,2.1-0.3s1.1-0.5,1.5-0.9l0.9,1.5
			c-0.5,0.4-1.1,0.8-1.8,1.1S-1053.8,417.5-1054.9,417.5z M-1055.2,406.1c-0.8,0-1.5,0.3-2,0.9s-0.8,1.4-1,2.4l0,0.1h5.7v-0.2
			c0-0.9-0.2-1.7-0.7-2.3S-1054.3,406.1-1055.2,406.1z M-1032.8,414L-1032.8,414l5.5-13.9h2.9v17.1h-2.3v-12.8l-0.1,0l-5.2,12.8
			h-1.6l-5.3-13.2l-0.1,0v13.2h-2.3v-17.1h3L-1032.8,414z M-1013,417.2c-0.1-0.4-0.1-0.7-0.2-1s-0.1-0.6-0.1-0.9
			c-0.4,0.6-1,1.1-1.7,1.5s-1.4,0.6-2.2,0.6c-1.3,0-2.3-0.3-3-1s-1-1.6-1-2.8c0-1.2,0.5-2.2,1.5-2.8s2.3-1,4-1h2.5v-1.3
			c0-0.7-0.2-1.3-0.7-1.8s-1.1-0.7-1.9-0.7c-0.8,0-1.4,0.2-1.8,0.6s-0.7,0.8-0.7,1.3l-2.2,0l0-0.1c-0.1-0.9,0.4-1.8,1.3-2.5
			s2.1-1.1,3.6-1.1c1.4,0,2.6,0.4,3.5,1.1s1.3,1.8,1.3,3.2v6.1c0,0.5,0,0.9,0.1,1.3s0.1,0.8,0.3,1.2H-1013z M-1016.8,415.5
			c0.8,0,1.6-0.2,2.3-0.6s1.1-0.9,1.3-1.5v-2.1h-2.6c-0.9,0-1.7,0.2-2.2,0.7s-0.8,1-0.8,1.7c0,0.6,0.2,1,0.5,1.3
			S-1017.5,415.5-1016.8,415.5z M-1011.9,402.2h-2.6v-2.3h2.6V402.2z M-1017.4,402.2h-2.6v-2.3h2.6V402.2z M-1002.5,415.6
			c0.7,0,1.3-0.2,1.9-0.7s0.8-1.1,0.8-1.7h2.1l0,0.1c0,1.1-0.4,2.1-1.4,2.9s-2.1,1.3-3.4,1.3c-1.8,0-3.2-0.6-4.1-1.8
			c-1-1.2-1.5-2.7-1.5-4.5v-0.5c0-1.8,0.5-3.3,1.5-4.5c1-1.2,2.3-1.8,4.1-1.8c1.4,0,2.6,0.4,3.5,1.3s1.3,1.9,1.3,3.2l0,0.1h-2.1
			c0-0.8-0.3-1.4-0.8-2s-1.1-0.8-1.9-0.8c-1.1,0-2,0.4-2.5,1.3s-0.8,1.9-0.8,3.2v0.5c0,1.3,0.3,2.3,0.8,3.2
			S-1003.7,415.6-1002.5,415.6z M-995.5,410.7c0-1.9,0.5-3.4,1.5-4.6c1-1.2,2.4-1.8,4.1-1.8c1.8,0,3.1,0.6,4.2,1.8
			c1,1.2,1.5,2.8,1.5,4.6v0.3c0,1.9-0.5,3.4-1.5,4.6c-1,1.2-2.4,1.8-4.1,1.8s-3.1-0.6-4.2-1.8c-1-1.2-1.5-2.8-1.5-4.6V410.7z
			 M-993.2,411c0,1.3,0.3,2.5,0.8,3.3s1.4,1.3,2.5,1.3c1.1,0,1.9-0.4,2.5-1.3s0.9-2,0.9-3.3v-0.3c0-1.3-0.3-2.4-0.9-3.3
			s-1.4-1.3-2.5-1.3c-1.1,0-1.9,0.4-2.5,1.3s-0.8,2-0.8,3.3V411z M-975.3,406.6l-1.2-0.1c-0.6,0-1.1,0.1-1.5,0.4s-0.7,0.7-1,1.2v9.1
			h-2.3v-12.7h2.1l0.2,1.9c0.4-0.7,0.8-1.2,1.3-1.5s1.1-0.6,1.8-0.6c0.2,0,0.3,0,0.5,0s0.3,0.1,0.4,0.1L-975.3,406.6z M-970.5,417.2
			h-2.3v-12.7h2.3V417.2z M-970.5,401.3h-2.3v-2.4h2.3V401.3z M-964.8,404.5l0.2,1.9c0.4-0.7,1-1.2,1.6-1.6s1.4-0.6,2.2-0.6
			c1.4,0,2.4,0.4,3.2,1.2s1.1,2,1.1,3.7v8h-2.3v-8c0-1.1-0.2-1.9-0.7-2.4s-1.1-0.7-2-0.7c-0.7,0-1.3,0.1-1.8,0.4s-0.9,0.7-1.2,1.2
			v9.4h-2.3v-12.7H-964.8z M-945.5,417.2c-0.1-0.4-0.1-0.7-0.2-1s-0.1-0.6-0.1-0.9c-0.4,0.6-1,1.1-1.7,1.5s-1.4,0.6-2.2,0.6
			c-1.3,0-2.3-0.3-3-1s-1-1.6-1-2.8c0-1.2,0.5-2.2,1.5-2.8s2.3-1,4-1h2.5v-1.3c0-0.7-0.2-1.3-0.7-1.8s-1.1-0.7-1.9-0.7
			c-0.8,0-1.4,0.2-1.8,0.6s-0.7,0.8-0.7,1.3l-2.2,0l0-0.1c-0.1-0.9,0.4-1.8,1.3-2.5s2.1-1.1,3.6-1.1c1.4,0,2.6,0.4,3.5,1.1
			s1.3,1.8,1.3,3.2v6.1c0,0.5,0,0.9,0.1,1.3s0.1,0.8,0.3,1.2H-945.5z M-949.3,415.5c0.8,0,1.6-0.2,2.3-0.6s1.1-0.9,1.3-1.5v-2.1
			h-2.6c-0.9,0-1.7,0.2-2.2,0.7s-0.8,1-0.8,1.7c0,0.6,0.2,1,0.5,1.3S-950,415.5-949.3,415.5z"/>
	</g>
	<g id="Lines" transform="translate(35.000000, 348.000000)">
		<path id="Line-Copy-4" class="st2" d="M-1286.8,371.2h549"/>
		<path id="Line-Copy-5" class="st2" d="M-1288.8,465.2h549"/>
		<path id="Line-Copy-7" class="st2" d="M-1288.8,559.2h549"/>
		<path id="Line-Copy-8" class="st2" d="M-1288.8,658.2h549"/>
		<path id="Line-Copy-8_1_" class="st2" d="M-1288.8,753.2h549"/>
	</g>
	<g id="Texts" transform="translate(34.000000, 295.000000)">
		<path id="Nombre" class="st1" d="M-1265.8,398.2h-2.1l-14.5-21.9l-0.1,0v21.9h-2.1v-25.6h2.1l14.5,21.8l0.1,0v-21.8h2.1V398.2z
			 M-1260.9,388.4c0-2.8,0.8-5.1,2.3-6.9c1.5-1.8,3.6-2.7,6.1-2.7c2.5,0,4.6,0.9,6.1,2.7c1.5,1.8,2.3,4.1,2.3,6.9v0.6
			c0,2.8-0.8,5.1-2.3,6.9c-1.5,1.8-3.6,2.7-6.1,2.7c-2.6,0-4.6-0.9-6.1-2.7c-1.5-1.8-2.3-4.1-2.3-6.9V388.4z M-1258.8,389
			c0,2.2,0.6,4.1,1.7,5.6c1.1,1.5,2.7,2.2,4.7,2.2c2,0,3.5-0.7,4.6-2.2c1.1-1.5,1.7-3.4,1.7-5.6v-0.6c0-2.2-0.6-4-1.7-5.5
			c-1.1-1.5-2.7-2.3-4.6-2.3s-3.5,0.8-4.6,2.3c-1.1,1.5-1.7,3.4-1.7,5.5V389z M-1237.9,379.2l0.2,3.1c0.6-1.1,1.4-2,2.4-2.6
			s2.2-0.9,3.6-0.9c1.5,0,2.7,0.3,3.6,1s1.7,1.8,2.1,3.2c0.6-1.3,1.4-2.4,2.5-3.1s2.3-1.1,3.8-1.1c2,0,3.6,0.7,4.7,2
			c1.1,1.3,1.7,3.4,1.7,6.3v11.1h-2.1v-11.1c0-2.3-0.4-4-1.2-5s-2-1.5-3.4-1.5c-1.6,0-2.8,0.5-3.7,1.5s-1.4,2.2-1.7,3.8
			c0,0.1,0,0.3,0,0.4s0,0.3,0,0.5v11.4h-2.1v-11.1c0-2.3-0.4-3.9-1.3-4.9s-2-1.5-3.5-1.5c-1.5,0-2.7,0.4-3.5,1.1s-1.5,1.7-1.8,3
			v13.4h-2.1v-19H-1237.9z M-1192.4,389.2c0,2.8-0.6,5.1-1.9,6.8c-1.3,1.7-3.1,2.5-5.3,2.5c-1.4,0-2.6-0.3-3.6-0.8s-1.8-1.4-2.5-2.4
			l-0.4,2.8h-1.7v-27.4h2.1v11.3c0.6-1,1.4-1.8,2.4-2.4s2.2-0.9,3.5-0.9c2.3,0,4.1,0.9,5.4,2.7c1.3,1.8,1.9,4.3,1.9,7.3V389.2z
			 M-1194.6,388.9c0-2.4-0.5-4.4-1.4-5.9c-0.9-1.5-2.3-2.3-4.2-2.3c-1.5,0-2.6,0.4-3.5,1.1s-1.6,1.6-2,2.8v8.7
			c0.5,1.1,1.2,2,2.1,2.6s2.1,1,3.5,1c1.8,0,3.2-0.7,4.1-2c0.9-1.4,1.4-3.2,1.4-5.5V388.9z M-1179,381l-1.5-0.1
			c-1.3,0-2.4,0.4-3.3,1.1s-1.5,1.8-1.8,3.1v13.1h-2.1v-19h1.8l0.3,3.2v0.2c0.6-1.2,1.3-2.1,2.2-2.7s2-1,3.3-1c0.3,0,0.5,0,0.7,0.1
			s0.4,0.1,0.6,0.1L-1179,381z M-1168.2,398.6c-2.5,0-4.5-0.9-6-2.6c-1.5-1.7-2.3-4-2.3-6.7v-1c0-2.7,0.8-5,2.3-6.8
			c1.6-1.8,3.5-2.7,5.8-2.7c2.3,0,4.1,0.7,5.4,2.2c1.3,1.5,1.9,3.5,1.9,6v1.6h-13.2v0.6c0,2.2,0.5,4,1.6,5.4
			c1.1,1.4,2.6,2.1,4.5,2.1c1.2,0,2.2-0.2,3.2-0.6s1.8-0.9,2.4-1.5l0.9,1.4c-0.7,0.7-1.5,1.3-2.6,1.7S-1166.7,398.6-1168.2,398.6z
			 M-1168.4,380.6c-1.6,0-2.9,0.6-4,1.7c-1,1.2-1.7,2.6-1.8,4.4l0.1,0.1h10.9v-0.4c0-1.7-0.4-3.1-1.3-4.2
			C-1165.5,381.2-1166.8,380.6-1168.4,380.6z"/>
		<path id="Apellidos" class="st1" d="M-1271.4,476.1h-11.2l-2.6,7.1h-2.2l9.4-25.6h2l9.3,25.6h-2.2L-1271.4,476.1z M-1282,474.2
			h9.9l-4.9-13.6h-0.1L-1282,474.2z M-1247.9,474.2c0,2.8-0.6,5.1-1.9,6.8c-1.3,1.7-3.1,2.5-5.3,2.5c-1.3,0-2.5-0.3-3.5-0.8
			s-1.8-1.2-2.5-2.1v9.8h-2.1v-26.3h1.6l0.4,3c0.6-1.1,1.5-1.9,2.5-2.5s2.2-0.9,3.6-0.9c2.3,0,4.1,0.9,5.4,2.7
			c1.3,1.8,1.9,4.3,1.9,7.3V474.2z M-1250,473.9c0-2.4-0.5-4.4-1.4-5.9c-1-1.5-2.4-2.3-4.2-2.3c-1.4,0-2.5,0.3-3.4,1s-1.6,1.5-2,2.6
			v9.2c0.5,1,1.2,1.8,2.1,2.4s2,0.9,3.4,0.9c1.8,0,3.2-0.7,4.2-2.1c1-1.4,1.4-3.2,1.4-5.5V473.9z M-1236,483.6c-2.5,0-4.5-0.9-6-2.6
			c-1.5-1.7-2.3-4-2.3-6.7v-1c0-2.7,0.8-5,2.3-6.8c1.6-1.8,3.5-2.7,5.8-2.7c2.3,0,4.1,0.7,5.4,2.2c1.3,1.5,1.9,3.5,1.9,6v1.6h-13.2
			v0.6c0,2.2,0.5,4,1.6,5.4c1.1,1.4,2.6,2.1,4.5,2.1c1.2,0,2.2-0.2,3.2-0.6s1.8-0.9,2.4-1.5l0.9,1.4c-0.7,0.7-1.5,1.3-2.6,1.7
			S-1234.5,483.6-1236,483.6z M-1236.2,465.6c-1.6,0-2.9,0.6-4,1.7c-1,1.2-1.7,2.6-1.8,4.4l0.1,0.1h10.9v-0.4c0-1.7-0.4-3.1-1.3-4.2
			C-1233.2,466.2-1234.5,465.6-1236.2,465.6z M-1222.3,483.2h-2.1v-27.4h2.1V483.2z M-1214.1,483.2h-2.1v-27.4h2.1V483.2z
			 M-1206,483.2h-2.1v-19h2.1V483.2z M-1206,458.7h-2.1v-3h2.1V458.7z M-1201,473.9c0-3,0.6-5.5,1.9-7.3c1.3-1.8,3.1-2.7,5.4-2.7
			c1.3,0,2.4,0.3,3.4,0.8s1.8,1.3,2.4,2.3v-11.2h2.1v27.4h-1.7l-0.3-2.8c-0.6,1-1.5,1.8-2.5,2.3s-2.2,0.8-3.5,0.8
			c-2.3,0-4.1-0.8-5.3-2.5c-1.3-1.7-1.9-4-1.9-6.8V473.9z M-1198.9,474.2c0,2.3,0.5,4.1,1.4,5.5c0.9,1.4,2.3,2,4.2,2
			c1.4,0,2.5-0.3,3.4-0.9s1.6-1.4,2.1-2.5v-9c-0.5-1.1-1.2-2-2-2.6s-2-1-3.4-1c-1.9,0-3.2,0.8-4.2,2.3c-0.9,1.5-1.4,3.5-1.4,5.9
			V474.2z M-1181.3,473.4c0-2.8,0.8-5.1,2.3-6.9c1.5-1.8,3.6-2.7,6.1-2.7c2.5,0,4.6,0.9,6.1,2.7c1.5,1.8,2.3,4.1,2.3,6.9v0.6
			c0,2.8-0.8,5.1-2.3,6.9c-1.5,1.8-3.6,2.7-6.1,2.7c-2.6,0-4.6-0.9-6.1-2.7c-1.5-1.8-2.3-4.1-2.3-6.9V473.4z M-1179.2,474
			c0,2.2,0.6,4.1,1.7,5.6c1.1,1.5,2.7,2.2,4.7,2.2c2,0,3.5-0.7,4.6-2.2c1.1-1.5,1.7-3.4,1.7-5.6v-0.6c0-2.2-0.6-4-1.7-5.5
			c-1.1-1.5-2.7-2.3-4.6-2.3s-3.5,0.8-4.6,2.3c-1.1,1.5-1.7,3.4-1.7,5.5V474z M-1148.7,478.3c0-0.9-0.4-1.7-1.1-2.3s-2.1-1.2-4-1.6
			c-2.2-0.5-3.9-1.1-5-1.9c-1.1-0.8-1.6-2-1.6-3.4c0-1.5,0.6-2.7,1.8-3.7c1.2-1,2.8-1.5,4.9-1.5c2.1,0,3.8,0.5,5.1,1.6
			c1.3,1.1,1.9,2.4,1.8,4l0,0.1h-2c0-1-0.4-2-1.3-2.7c-0.9-0.8-2.1-1.2-3.6-1.2c-1.5,0-2.7,0.3-3.4,1s-1.2,1.4-1.2,2.3
			c0,0.9,0.3,1.6,1,2.2s2,1.1,4,1.5c2.2,0.5,3.9,1.2,5.1,2.1c1.1,0.9,1.7,2.1,1.7,3.6c0,1.6-0.6,2.9-1.9,3.9c-1.3,1-3,1.5-5.1,1.5
			c-2.3,0-4.1-0.6-5.4-1.7c-1.3-1.1-1.9-2.4-1.9-3.9l0-0.1h1.9c0.1,1.4,0.6,2.4,1.7,3s2.3,0.9,3.7,0.9c1.5,0,2.7-0.3,3.6-1
			S-1148.7,479.3-1148.7,478.3z"/>
		<path id="Teléfono" class="st1" d="M-1267.3,553.4h-8.7v23.8h-2.1v-23.8h-9v-1.8h19.8V553.4z M-1256.5,577.6
			c-2.5,0-4.5-0.9-6-2.6s-2.3-4-2.3-6.7v-1c0-2.7,0.8-5,2.3-6.8s3.5-2.7,5.8-2.7c2.3,0,4.1,0.7,5.4,2.2s1.9,3.5,1.9,6v1.6h-13.2v0.6
			c0,2.2,0.5,4,1.6,5.4s2.6,2.1,4.5,2.1c1.2,0,2.2-0.2,3.2-0.6s1.8-0.9,2.4-1.5l0.9,1.4c-0.7,0.7-1.5,1.3-2.6,1.7
			S-1255,577.6-1256.5,577.6z M-1256.7,559.6c-1.6,0-2.9,0.6-4,1.7s-1.7,2.6-1.8,4.4l0.1,0.1h10.9v-0.4c0-1.7-0.4-3.1-1.3-4.2
			S-1255,559.6-1256.7,559.6z M-1242.8,577.2h-2.1v-27.4h2.1V577.2z M-1229.8,577.6c-2.5,0-4.5-0.9-6-2.6s-2.3-4-2.3-6.7v-1
			c0-2.7,0.8-5,2.3-6.8s3.5-2.7,5.8-2.7c2.3,0,4.1,0.7,5.4,2.2s1.9,3.5,1.9,6v1.6h-13.2v0.6c0,2.2,0.5,4,1.6,5.4s2.6,2.1,4.5,2.1
			c1.2,0,2.2-0.2,3.2-0.6s1.8-0.9,2.4-1.5l0.9,1.4c-0.7,0.7-1.5,1.3-2.6,1.7S-1228.3,577.6-1229.8,577.6z M-1230,559.6
			c-1.6,0-2.9,0.6-4,1.7s-1.7,2.6-1.8,4.4l0.1,0.1h10.9v-0.4c0-1.7-0.4-3.1-1.3-4.2S-1228.3,559.6-1230,559.6z M-1227.7,550.1h2.6
			l0.1,0.1l-4.4,4.6h-1.9L-1227.7,550.1z M-1217,577.2v-17.3h-3.1v-1.7h3.1v-2.8c0-1.9,0.5-3.4,1.4-4.4s2.3-1.6,4-1.6
			c0.4,0,0.8,0,1.2,0.1s0.8,0.1,1.2,0.2l-0.3,1.7c-0.3-0.1-0.6-0.1-0.9-0.2s-0.6-0.1-1-0.1c-1.1,0-2,0.4-2.6,1.1s-0.9,1.7-0.9,3.1
			v2.8h4.3v1.7h-4.3v17.3H-1217z M-1208.1,567.4c0-2.8,0.8-5.1,2.3-6.9s3.6-2.7,6.1-2.7c2.5,0,4.6,0.9,6.1,2.7s2.3,4.1,2.3,6.9v0.6
			c0,2.8-0.8,5.1-2.3,6.9s-3.6,2.7-6.1,2.7c-2.6,0-4.6-0.9-6.1-2.7s-2.3-4.1-2.3-6.9V567.4z M-1206,568c0,2.2,0.6,4.1,1.7,5.6
			s2.7,2.2,4.7,2.2c2,0,3.5-0.8,4.6-2.2s1.7-3.4,1.7-5.6v-0.6c0-2.2-0.6-4-1.7-5.5s-2.7-2.3-4.6-2.3s-3.5,0.8-4.6,2.3
			s-1.7,3.4-1.7,5.5V568z M-1185,558.2l0.2,3.3c0.6-1.2,1.4-2.1,2.5-2.7s2.3-1,3.7-1c2.1,0,3.6,0.6,4.7,1.9s1.6,3.2,1.6,5.9v11.6
			h-2.1v-11.6c0-2.2-0.4-3.7-1.2-4.6s-2-1.4-3.5-1.4s-2.7,0.4-3.6,1.1s-1.6,1.7-2,3v13.5h-2.1v-19H-1185z M-1168,567.4
			c0-2.8,0.8-5.1,2.3-6.9s3.6-2.7,6.1-2.7c2.5,0,4.6,0.9,6.1,2.7s2.3,4.1,2.3,6.9v0.6c0,2.8-0.8,5.1-2.3,6.9s-3.6,2.7-6.1,2.7
			c-2.6,0-4.6-0.9-6.1-2.7s-2.3-4.1-2.3-6.9V567.4z M-1165.9,568c0,2.2,0.6,4.1,1.7,5.6s2.7,2.2,4.7,2.2c2,0,3.5-0.8,4.6-2.2
			s1.7-3.4,1.7-5.6v-0.6c0-2.2-0.6-4-1.7-5.5s-2.7-2.3-4.6-2.3s-3.5,0.8-4.6,2.3s-1.7,3.4-1.7,5.5V568z"/>
		<path id="Correo-electrónico" class="st1" d="M-1270.1,668.2l0,0.1c0,2.5-0.8,4.5-2.5,6s-3.9,2.2-6.6,2.2c-2.8,0-5.1-1-6.9-3.1
			s-2.6-4.7-2.6-8v-4.2c0-3.3,0.9-5.9,2.6-8s4-3.1,6.9-3.1c2.8,0,5,0.7,6.7,2.2s2.5,3.5,2.4,6l0,0.1h-2c0-2.1-0.6-3.7-1.9-4.8
			s-3-1.7-5.2-1.7c-2.2,0-4,0.9-5.4,2.6s-2,4-2,6.7v4.2c0,2.7,0.7,5,2,6.7s3.1,2.6,5.4,2.6c2.2,0,4-0.6,5.2-1.7s1.9-2.8,1.9-4.9
			H-1270.1z M-1266.3,666.4c0-2.8,0.8-5.1,2.3-6.9s3.6-2.7,6.1-2.7c2.5,0,4.6,0.9,6.1,2.7s2.3,4.1,2.3,6.9v0.6
			c0,2.8-0.8,5.1-2.3,6.9s-3.6,2.7-6.1,2.7c-2.6,0-4.6-0.9-6.1-2.7s-2.3-4.1-2.3-6.9V666.4z M-1264.2,667c0,2.2,0.6,4.1,1.7,5.6
			s2.7,2.2,4.7,2.2c2,0,3.5-0.8,4.6-2.2s1.7-3.4,1.7-5.6v-0.6c0-2.2-0.6-4-1.7-5.5s-2.7-2.3-4.6-2.3s-3.5,0.8-4.6,2.3
			s-1.7,3.4-1.7,5.5V667z M-1236.4,659l-1.5-0.1c-1.3,0-2.4,0.4-3.3,1.1s-1.5,1.8-1.8,3.1v13.1h-2.1v-19h1.8l0.3,3.2v0.2
			c0.6-1.2,1.3-2.1,2.2-2.7s2-1,3.3-1c0.3,0,0.5,0,0.7,0.1s0.4,0.1,0.6,0.1L-1236.4,659z M-1224.2,659l-1.5-0.1
			c-1.3,0-2.4,0.4-3.3,1.1s-1.5,1.8-1.8,3.1v13.1h-2.1v-19h1.8l0.3,3.2v0.2c0.6-1.2,1.3-2.1,2.2-2.7s2-1,3.3-1c0.3,0,0.5,0,0.7,0.1
			s0.4,0.1,0.6,0.1L-1224.2,659z M-1213.3,676.6c-2.5,0-4.5-0.9-6-2.6s-2.3-4-2.3-6.7v-1c0-2.7,0.8-5,2.3-6.8s3.5-2.7,5.8-2.7
			c2.3,0,4.1,0.7,5.4,2.2s1.9,3.5,1.9,6v1.6h-13.2v0.6c0,2.2,0.5,4,1.6,5.4s2.6,2.1,4.5,2.1c1.2,0,2.2-0.2,3.2-0.6s1.8-0.9,2.4-1.5
			l0.9,1.4c-0.7,0.7-1.5,1.3-2.6,1.7S-1211.8,676.6-1213.3,676.6z M-1213.5,658.6c-1.6,0-2.9,0.6-4,1.7s-1.7,2.6-1.8,4.4l0.1,0.1
			h10.9v-0.4c0-1.7-0.4-3.1-1.3-4.2S-1211.9,658.6-1213.5,658.6z M-1203.2,666.4c0-2.8,0.8-5.1,2.3-6.9s3.6-2.7,6.1-2.7
			c2.5,0,4.6,0.9,6.1,2.7s2.3,4.1,2.3,6.9v0.6c0,2.8-0.8,5.1-2.3,6.9s-3.6,2.7-6.1,2.7c-2.6,0-4.6-0.9-6.1-2.7s-2.3-4.1-2.3-6.9
			V666.4z M-1201.1,667c0,2.2,0.6,4.1,1.7,5.6s2.7,2.2,4.7,2.2c2,0,3.5-0.8,4.6-2.2s1.7-3.4,1.7-5.6v-0.6c0-2.2-0.6-4-1.7-5.5
			s-2.7-2.3-4.6-2.3s-3.5,0.8-4.6,2.3s-1.7,3.4-1.7,5.5V667z M-1166,676.6c-2.5,0-4.5-0.9-6-2.6s-2.3-4-2.3-6.7v-1
			c0-2.7,0.8-5,2.3-6.8s3.5-2.7,5.8-2.7c2.3,0,4.1,0.7,5.4,2.2s1.9,3.5,1.9,6v1.6h-13.2v0.6c0,2.2,0.5,4,1.6,5.4s2.6,2.1,4.5,2.1
			c1.2,0,2.2-0.2,3.2-0.6s1.8-0.9,2.4-1.5l0.9,1.4c-0.7,0.7-1.5,1.3-2.6,1.7S-1164.5,676.6-1166,676.6z M-1166.2,658.6
			c-1.6,0-2.9,0.6-4,1.7s-1.7,2.6-1.8,4.4l0.1,0.1h10.9v-0.4c0-1.7-0.4-3.1-1.3-4.2S-1164.5,658.6-1166.2,658.6z M-1152.3,676.2
			h-2.1v-27.4h2.1V676.2z M-1139.3,676.6c-2.5,0-4.5-0.9-6-2.6s-2.3-4-2.3-6.7v-1c0-2.7,0.8-5,2.3-6.8s3.5-2.7,5.8-2.7
			c2.3,0,4.1,0.7,5.4,2.2s1.9,3.5,1.9,6v1.6h-13.2v0.6c0,2.2,0.5,4,1.6,5.4s2.6,2.1,4.5,2.1c1.2,0,2.2-0.2,3.2-0.6s1.8-0.9,2.4-1.5
			l0.9,1.4c-0.7,0.7-1.5,1.3-2.6,1.7S-1137.8,676.6-1139.3,676.6z M-1139.5,658.6c-1.6,0-2.9,0.6-4,1.7s-1.7,2.6-1.8,4.4l0.1,0.1
			h10.9v-0.4c0-1.7-0.4-3.1-1.3-4.2S-1137.8,658.6-1139.5,658.6z M-1121,674.8c1.3,0,2.5-0.4,3.6-1.2s1.6-1.9,1.6-3.3h1.9l0,0.1
			c0,1.8-0.6,3.2-2.1,4.4s-3.1,1.8-5,1.8c-2.5,0-4.5-0.9-5.9-2.7s-2.1-4.1-2.1-6.8v-0.7c0-2.8,0.7-5,2.1-6.8s3.4-2.7,5.9-2.7
			c2,0,3.7,0.6,5.1,1.8s2,2.8,2,4.9l0,0.1h-1.9c0-1.5-0.5-2.7-1.5-3.6s-2.2-1.4-3.7-1.4c-2,0-3.5,0.7-4.4,2.2s-1.5,3.3-1.5,5.5v0.7
			c0,2.2,0.5,4.1,1.5,5.5S-1123,674.8-1121,674.8z M-1106.2,652.3v4.9h4.2v1.7h-4.2v12.4c0,1.2,0.2,2.1,0.7,2.6s1.1,0.8,1.8,0.8
			c0.3,0,0.5,0,0.7,0s0.5-0.1,0.9-0.1l0.3,1.6c-0.3,0.1-0.6,0.3-1,0.3s-0.8,0.1-1.2,0.1c-1.3,0-2.4-0.4-3.1-1.3s-1.1-2.2-1.1-4
			v-12.4h-3.3v-1.7h3.3v-4.9H-1106.2z M-1089.2,659l-1.5-0.1c-1.3,0-2.4,0.4-3.3,1.1s-1.5,1.8-1.8,3.1v13.1h-2.1v-19h1.8l0.3,3.2
			v0.2c0.6-1.2,1.3-2.1,2.2-2.7s2-1,3.3-1c0.3,0,0.5,0,0.7,0.1s0.4,0.1,0.6,0.1L-1089.2,659z M-1086.8,666.4c0-2.8,0.8-5.1,2.3-6.9
			s3.6-2.7,6.1-2.7c2.5,0,4.6,0.9,6.1,2.7s2.3,4.1,2.3,6.9v0.6c0,2.8-0.8,5.1-2.3,6.9s-3.6,2.7-6.1,2.7c-2.6,0-4.6-0.9-6.1-2.7
			s-2.3-4.1-2.3-6.9V666.4z M-1084.7,667c0,2.2,0.6,4.1,1.7,5.6s2.7,2.2,4.7,2.2c2,0,3.5-0.8,4.6-2.2s1.7-3.4,1.7-5.6v-0.6
			c0-2.2-0.6-4-1.7-5.5s-2.7-2.3-4.6-2.3s-3.5,0.8-4.6,2.3s-1.7,3.4-1.7,5.5V667z M-1075.7,649.1h2.6l0.1,0.1l-4.4,4.6h-1.9
			L-1075.7,649.1z M-1063.7,657.2l0.2,3.3c0.6-1.2,1.4-2.1,2.5-2.7s2.3-1,3.7-1c2.1,0,3.6,0.6,4.7,1.9s1.6,3.2,1.6,5.9v11.6h-2.1
			v-11.6c0-2.2-0.4-3.7-1.2-4.6s-2-1.4-3.5-1.4s-2.7,0.4-3.6,1.1s-1.6,1.7-2,3v13.5h-2.1v-19H-1063.7z M-1043.2,676.2h-2.1v-19h2.1
			V676.2z M-1043.2,651.7h-2.1v-3h2.1V651.7z M-1030.4,674.8c1.3,0,2.5-0.4,3.6-1.2s1.6-1.9,1.6-3.3h1.9l0,0.1
			c0,1.8-0.6,3.2-2.1,4.4s-3.1,1.8-5,1.8c-2.5,0-4.5-0.9-5.9-2.7s-2.1-4.1-2.1-6.8v-0.7c0-2.8,0.7-5,2.1-6.8s3.4-2.7,5.9-2.7
			c2,0,3.7,0.6,5.1,1.8s2,2.8,2,4.9l0,0.1h-1.9c0-1.5-0.5-2.7-1.5-3.6s-2.2-1.4-3.7-1.4c-2,0-3.5,0.7-4.4,2.2s-1.5,3.3-1.5,5.5v0.7
			c0,2.2,0.5,4.1,1.5,5.5S-1032.4,674.8-1030.4,674.8z M-1020,666.4c0-2.8,0.8-5.1,2.3-6.9s3.6-2.7,6.1-2.7c2.5,0,4.6,0.9,6.1,2.7
			s2.3,4.1,2.3,6.9v0.6c0,2.8-0.8,5.1-2.3,6.9s-3.6,2.7-6.1,2.7c-2.6,0-4.6-0.9-6.1-2.7s-2.3-4.1-2.3-6.9V666.4z M-1017.9,667
			c0,2.2,0.6,4.1,1.7,5.6s2.7,2.2,4.7,2.2c2,0,3.5-0.8,4.6-2.2s1.7-3.4,1.7-5.6v-0.6c0-2.2-0.6-4-1.7-5.5s-2.7-2.3-4.6-2.3
			s-3.5,0.8-4.6,2.3s-1.7,3.4-1.7,5.5V667z"/>
		<path id="Contraseña" class="st1" d="M-1267.2,762.2l0,0.1c0,2.5-0.8,4.5-2.5,6s-3.9,2.2-6.6,2.2c-2.8,0-5.1-1-6.9-3.1
			s-2.6-4.7-2.6-8v-4.2c0-3.3,0.9-5.9,2.6-8s4-3.1,6.9-3.1c2.8,0,5,0.7,6.7,2.2s2.5,3.5,2.4,6l0,0.1h-2c0-2.1-0.6-3.7-1.9-4.8
			s-3-1.7-5.2-1.7c-2.2,0-4,0.9-5.4,2.6s-2,4-2,6.7v4.2c0,2.7,0.7,5,2,6.7s3.1,2.6,5.4,2.6c2.2,0,4-0.6,5.2-1.7s1.9-2.8,1.9-4.9
			H-1267.2z M-1263.4,760.4c0-2.8,0.8-5.1,2.3-6.9s3.6-2.7,6.1-2.7c2.5,0,4.6,0.9,6.1,2.7s2.3,4.1,2.3,6.9v0.6
			c0,2.8-0.8,5.1-2.3,6.9s-3.6,2.7-6.1,2.7c-2.6,0-4.6-0.9-6.1-2.7s-2.3-4.1-2.3-6.9V760.4z M-1261.3,761c0,2.2,0.6,4.1,1.7,5.6
			s2.7,2.2,4.7,2.2c2,0,3.5-0.8,4.6-2.2s1.7-3.4,1.7-5.6v-0.6c0-2.2-0.6-4-1.7-5.5s-2.7-2.3-4.6-2.3s-3.5,0.8-4.6,2.3
			s-1.7,3.4-1.7,5.5V761z M-1240.4,751.2l0.2,3.3c0.6-1.2,1.4-2.1,2.5-2.7s2.3-1,3.7-1c2.1,0,3.6,0.6,4.7,1.9s1.6,3.2,1.6,5.9v11.6
			h-2.1v-11.6c0-2.2-0.4-3.7-1.2-4.6s-2-1.4-3.5-1.4s-2.7,0.4-3.6,1.1s-1.6,1.7-2,3v13.5h-2.1v-19H-1240.4z M-1218.9,746.3v4.9h4.2
			v1.7h-4.2v12.4c0,1.2,0.2,2.1,0.7,2.6s1.1,0.8,1.8,0.8c0.3,0,0.5,0,0.7,0s0.5-0.1,0.9-0.1l0.3,1.6c-0.3,0.1-0.6,0.3-1,0.3
			s-0.8,0.1-1.2,0.1c-1.3,0-2.4-0.4-3.1-1.3s-1.1-2.2-1.1-4v-12.4h-3.3v-1.7h3.3v-4.9H-1218.9z M-1201.9,753l-1.5-0.1
			c-1.3,0-2.4,0.4-3.3,1.1s-1.5,1.8-1.8,3.1v13.1h-2.1v-19h1.8l0.3,3.2v0.2c0.6-1.2,1.3-2.1,2.2-2.7s2-1,3.3-1c0.3,0,0.5,0,0.7,0.1
			s0.4,0.1,0.6,0.1L-1201.9,753z M-1186.3,770.2c-0.1-0.7-0.2-1.2-0.3-1.7s-0.1-1-0.1-1.5c-0.7,1-1.6,1.9-2.8,2.6s-2.5,1-4.1,1
			c-1.9,0-3.3-0.5-4.3-1.5s-1.5-2.3-1.5-4s0.7-3.1,2.2-4.1s3.4-1.6,5.8-1.6h4.7V757c0-1.4-0.4-2.4-1.3-3.2s-2.1-1.2-3.6-1.2
			c-1.4,0-2.6,0.4-3.5,1.1s-1.3,1.6-1.3,2.7h-2l0-0.1c-0.1-1.4,0.5-2.7,1.8-3.8s3-1.6,5.1-1.6s3.8,0.5,5,1.6s1.9,2.6,1.9,4.6v9.4
			c0,0.7,0,1.3,0.1,2s0.2,1.3,0.4,1.9H-1186.3z M-1193.3,768.7c1.6,0,3-0.4,4.2-1.2s2-1.8,2.4-3V761h-4.7c-1.7,0-3.1,0.4-4.2,1.2
			s-1.7,1.8-1.7,2.9c0,1.1,0.4,1.9,1.1,2.6S-1194.5,768.7-1193.3,768.7z M-1167.6,765.3c0-0.9-0.4-1.7-1.1-2.3s-2.1-1.2-4-1.6
			c-2.2-0.5-3.9-1.1-5-1.9s-1.6-2-1.6-3.4c0-1.5,0.6-2.7,1.8-3.7s2.8-1.5,4.9-1.5c2.1,0,3.8,0.5,5.1,1.6s1.9,2.4,1.8,4l0,0.1h-2
			c0-1-0.4-2-1.3-2.7s-2.1-1.2-3.6-1.2c-1.5,0-2.7,0.3-3.4,1s-1.2,1.4-1.2,2.3c0,0.9,0.3,1.6,1,2.2s2,1.1,4,1.5
			c2.2,0.5,3.9,1.2,5.1,2.1s1.7,2.1,1.7,3.6c0,1.6-0.6,2.9-1.9,3.9s-3,1.5-5.1,1.5c-2.3,0-4.1-0.6-5.4-1.7s-1.9-2.4-1.9-3.9l0-0.1
			h1.9c0.1,1.4,0.6,2.4,1.7,3s2.3,0.9,3.7,0.9c1.5,0,2.7-0.3,3.6-1S-1167.6,766.3-1167.6,765.3z M-1153.4,770.6
			c-2.5,0-4.5-0.9-6-2.6s-2.3-4-2.3-6.7v-1c0-2.7,0.8-5,2.3-6.8s3.5-2.7,5.8-2.7c2.3,0,4.1,0.7,5.4,2.2s1.9,3.5,1.9,6v1.6h-13.2v0.6
			c0,2.2,0.5,4,1.6,5.4s2.6,2.1,4.5,2.1c1.2,0,2.2-0.2,3.2-0.6s1.8-0.9,2.4-1.5l0.9,1.4c-0.7,0.7-1.5,1.3-2.6,1.7
			S-1151.9,770.6-1153.4,770.6z M-1153.6,752.6c-1.6,0-2.9,0.6-4,1.7s-1.7,2.6-1.8,4.4l0.1,0.1h10.9v-0.4c0-1.7-0.4-3.1-1.3-4.2
			S-1151.9,752.6-1153.6,752.6z M-1140.2,751.2l0.2,3.3c0.6-1.2,1.4-2.1,2.5-2.7s2.3-1,3.7-1c2.1,0,3.6,0.6,4.7,1.9s1.6,3.2,1.6,5.9
			v11.6h-2.1v-11.6c0-2.2-0.4-3.7-1.2-4.6s-2-1.4-3.5-1.4s-2.7,0.4-3.6,1.1s-1.6,1.7-2,3v13.5h-2.1v-19H-1140.2z M-1129.1,743.8
			c0,1-0.3,1.9-1,2.6s-1.4,1-2.4,1c-0.9,0-1.8-0.3-2.7-1s-1.7-1-2.3-1c-0.6,0-1,0.2-1.4,0.6s-0.6,0.9-0.6,1.6l-1.4-0.3
			c0-1,0.3-1.9,0.9-2.5s1.4-1,2.4-1c0.8,0,1.6,0.3,2.6,1s1.8,1,2.4,1c0.5,0,1-0.2,1.4-0.6s0.6-1,0.6-1.6L-1129.1,743.8z
			 M-1110,770.2c-0.1-0.7-0.2-1.2-0.3-1.7s-0.1-1-0.1-1.5c-0.7,1-1.6,1.9-2.8,2.6s-2.5,1-4.1,1c-1.9,0-3.3-0.5-4.3-1.5
			s-1.5-2.3-1.5-4s0.7-3.1,2.2-4.1s3.4-1.6,5.8-1.6h4.7V757c0-1.4-0.4-2.4-1.3-3.2s-2.1-1.2-3.6-1.2c-1.4,0-2.6,0.4-3.5,1.1
			s-1.3,1.6-1.3,2.7h-2l0-0.1c-0.1-1.4,0.5-2.7,1.8-3.8s3-1.6,5.1-1.6s3.8,0.5,5,1.6s1.9,2.6,1.9,4.6v9.4c0,0.7,0,1.3,0.1,2
			s0.2,1.3,0.4,1.9H-1110z M-1117,768.7c1.6,0,3-0.4,4.2-1.2s2-1.8,2.4-3V761h-4.7c-1.7,0-3.1,0.4-4.2,1.2s-1.7,1.8-1.7,2.9
			c0,1.1,0.4,1.9,1.1,2.6S-1118.2,768.7-1117,768.7z"/>
	</g>
</g>
<g id="Rectangle-4">
	<g>
		<path id="path-1" class="st3" d="M-1178.4,1710.5h396c4.4,0,8,3.6,8,8v89c0,4.4-3.6,8-8,8h-396c-4.4,0-8-3.6-8-8v-89
			C-1186.4,1714.1-1182.8,1710.5-1178.4,1710.5z"/>
	</g>
	<path class="st4" d="M-1176.9,1712h393c4.4,0,8,3.6,8,8v86c0,4.4-3.6,8-8,8h-393c-4.4,0-8-3.6-8-8v-86
		C-1184.9,1715.6-1181.3,1712-1176.9,1712z"/>
</g>
<g id="Logo" transform="translate(152.000000, 71.000000)">
	<path id="Fill-1" class="st5" d="M-82.6,92.7c0.4,0,0.8,0,1.2,0c0.4,0,0.8-0.1,1.1-0.2c0.3-0.1,0.6-0.2,0.7-0.4
		c0.2-0.2,0.3-0.4,0.4-0.6c0.1-0.3,0.2-0.6,0.2-1c0-0.7-0.2-1.2-0.6-1.6c-0.4-0.4-1.2-0.6-2.4-0.6c-0.2,0-0.4,0-0.7,0V92.7z
		 M-74.7,97.6h-2.8c-0.5-0.3-1.3-1.1-2.3-2.5c-0.3-0.4-0.7-0.8-1-1.2c-0.4-0.4-0.6-0.6-0.7-0.7c-0.1-0.1-0.3-0.1-0.6-0.1h-0.4v2.1
		c0,0.7,0,1.2,0.1,1.5c0,0.2,0.1,0.4,0.3,0.5c0.2,0.1,0.5,0.2,1,0.2h0.5v0.3h-5v-0.3h0.3c0.5,0,0.8-0.1,0.9-0.2
		c0.2-0.1,0.3-0.3,0.3-0.5c0-0.2,0.1-0.7,0.1-1.5v-4.7c0-0.8,0-1.2-0.1-1.5c0-0.2-0.2-0.4-0.3-0.5c-0.2-0.1-0.5-0.1-1-0.1h-0.2v-0.3
		l1.5-0.1c1,0,1.8-0.1,2.4-0.1c1,0,1.8,0.1,2.5,0.3c0.6,0.2,1.1,0.4,1.5,0.8c0.4,0.4,0.6,0.8,0.6,1.4c0,0.6-0.3,1.2-0.8,1.6
		c-0.5,0.4-1.3,0.7-2.2,0.8c0.4,0.2,1.2,0.9,2.1,2.1c0.8,1,1.4,1.6,1.9,1.9c0.5,0.3,1,0.5,1.6,0.5V97.6z"/>
	<path id="Fill-3" class="st5" d="M-52.8,94.6h0.4l-0.2,3h-8.7v-0.3h0.2c0.5,0,0.9-0.1,1-0.2c0.2-0.1,0.3-0.3,0.3-0.5
		c0-0.2,0.1-0.7,0.1-1.5v-4.7c0-0.7,0-1.2-0.1-1.4c0-0.2-0.1-0.4-0.3-0.5c-0.2-0.1-0.5-0.1-1-0.1v-0.3h7.5l0.2,2.4h-0.4
		c-0.2-0.7-0.4-1.1-0.6-1.4c-0.2-0.3-0.5-0.5-0.9-0.5c-0.3-0.1-0.9-0.1-1.6-0.1h-1.5v4h1.1c0.5,0,0.9,0,1.1-0.1
		c0.2-0.1,0.3-0.2,0.4-0.4c0.1-0.2,0.1-0.5,0.1-0.9h0.4v3.3h-0.4c0-0.5,0-0.9-0.1-1.1c-0.1-0.2-0.2-0.3-0.4-0.4
		c-0.2-0.1-0.5-0.1-1-0.1h-1.2V95c0,1.1,0.1,1.8,0.2,2c0.2,0.2,0.6,0.3,1.3,0.3h0.8c0.6,0,1-0.1,1.4-0.2c0.4-0.1,0.7-0.4,1-0.8
		C-53.2,95.9-53,95.3-52.8,94.6"/>
	<path id="Fill-5" class="st5" d="M-35.5,92.8h0.8c0.6,0,1.1-0.1,1.5-0.2c0.4-0.1,0.7-0.3,0.9-0.7c0.2-0.4,0.4-0.8,0.4-1.3
		c0-0.8-0.2-1.4-0.6-1.7c-0.4-0.4-1.1-0.5-2.1-0.5c-0.4,0-0.6,0-0.8,0V92.8z M-35.5,93.1v2c0,0.7,0,1.2,0.1,1.5
		c0,0.2,0.1,0.4,0.3,0.5c0.2,0.1,0.5,0.2,1,0.2h0.4v0.3h-4.8v-0.3h0.3c0.5,0,0.8-0.1,0.9-0.2c0.2-0.1,0.3-0.3,0.3-0.5
		c0-0.2,0.1-0.7,0.1-1.5v-4.7c0-0.8,0-1.2-0.1-1.5c0-0.2-0.2-0.4-0.3-0.5c-0.2-0.1-0.5-0.1-1-0.1h-0.2v-0.3l1.3,0c1.1,0,1.9,0,2.5,0
		c1.1,0,1.9,0.1,2.5,0.2c0.6,0.2,1.1,0.4,1.4,0.8c0.4,0.4,0.6,0.9,0.6,1.5c0,0.5-0.1,1-0.4,1.4c-0.3,0.4-0.6,0.7-1.1,0.9
		c-0.5,0.2-1.3,0.3-2.5,0.3H-35.5z"/>
	<path id="Fill-7" class="st5" d="M-14.9,92.8c0,1.5,0.3,2.7,1,3.4c0.7,0.8,1.7,1.1,3,1.1c1.2,0,2.1-0.4,2.8-1.1
		c0.7-0.8,1-1.9,1-3.4c0-1.5-0.3-2.6-1-3.4c-0.7-0.8-1.7-1.2-3-1.2c-1.3,0-2.2,0.4-2.9,1.2C-14.5,90.2-14.9,91.3-14.9,92.8
		 M-16.7,92.8c0-1.5,0.5-2.6,1.6-3.5c1.1-0.9,2.4-1.3,4.1-1.3c1.6,0,3,0.4,4.1,1.3c1.1,0.9,1.7,2.1,1.7,3.6c0,1.5-0.5,2.7-1.6,3.6
		c-1.1,0.9-2.4,1.4-4.2,1.4c-1.7,0-3-0.5-4.1-1.4C-16.1,95.5-16.7,94.3-16.7,92.8"/>
	<path id="Fill-9" class="st5" d="M9.3,97.5v-3.1h0.4c0.4,2,1.5,3,3.1,3c0.7,0,1.3-0.2,1.7-0.6c0.4-0.4,0.6-0.8,0.6-1.3
		c0-0.5-0.2-0.9-0.5-1.2c-0.4-0.3-1-0.7-2-1c-0.8-0.3-1.5-0.6-1.9-0.9c-0.4-0.2-0.8-0.6-1-1c-0.2-0.4-0.4-0.8-0.4-1.3
		c0-0.7,0.3-1.2,0.8-1.7c0.5-0.4,1.2-0.7,2-0.7c0.4,0,0.9,0.1,1.3,0.2c0.4,0.1,0.8,0.4,1.2,0.8c0.2-0.3,0.4-0.5,0.4-0.8h0.3v2.5H15
		c-0.2-0.7-0.5-1.3-1-1.7c-0.5-0.4-1.1-0.6-1.7-0.6c-0.6,0-1.1,0.2-1.4,0.5c-0.3,0.3-0.4,0.6-0.4,1c0,0.4,0.2,0.8,0.6,1.1
		c0.4,0.3,1,0.7,2,1c0.9,0.4,1.6,0.7,2,0.9c0.4,0.2,0.7,0.5,1,0.9c0.2,0.4,0.4,0.8,0.4,1.4c0,0.8-0.3,1.5-0.9,2
		c-0.6,0.5-1.4,0.8-2.4,0.8c-1.2,0-2.1-0.4-2.9-1.2c-0.2,0.2-0.3,0.5-0.4,0.9H9.3z"/>
	<path id="Fill-11" class="st5" d="M30.5,90.4h-0.4l0.1-2.3h10.2l0.1,2.3h-0.3c-0.1-0.6-0.3-1.1-0.5-1.4c-0.2-0.3-0.4-0.4-0.7-0.5
		c-0.2-0.1-0.6-0.1-1.2-0.1h-1.7v6.7c0,0.7,0,1.2,0.1,1.5c0,0.2,0.1,0.4,0.3,0.5c0.2,0.1,0.5,0.2,1,0.2h0.5v0.3h-5.3v-0.3h0.5
		c0.4,0,0.8-0.1,0.9-0.2c0.2-0.1,0.3-0.3,0.3-0.5c0-0.2,0.1-0.7,0.1-1.5v-6.7H33c-0.7,0-1.1,0-1.4,0.1c-0.2,0.1-0.5,0.2-0.7,0.5
		C30.8,89.3,30.6,89.8,30.5,90.4"/>
	<path id="Fill-13" class="st5" d="M62.7,94.6h0.4l-0.2,3h-8.7v-0.3h0.2c0.5,0,0.9-0.1,1-0.2c0.2-0.1,0.3-0.3,0.3-0.5
		c0-0.2,0.1-0.7,0.1-1.5v-4.7c0-0.7,0-1.2-0.1-1.4c0-0.2-0.1-0.4-0.3-0.5c-0.2-0.1-0.5-0.1-1-0.1v-0.3h7.5l0.2,2.4h-0.4
		c-0.2-0.7-0.4-1.1-0.6-1.4c-0.2-0.3-0.5-0.5-0.9-0.5c-0.3-0.1-0.9-0.1-1.6-0.1h-1.5v4h1.1c0.5,0,0.9,0,1.1-0.1
		c0.2-0.1,0.3-0.2,0.4-0.4c0.1-0.2,0.1-0.5,0.1-0.9h0.4v3.3h-0.4c0-0.5,0-0.9-0.1-1.1c-0.1-0.2-0.2-0.3-0.4-0.4
		c-0.2-0.1-0.5-0.1-1-0.1h-1.2V95c0,1.1,0.1,1.8,0.2,2c0.2,0.2,0.6,0.3,1.3,0.3h0.8c0.6,0,1-0.1,1.4-0.2c0.4-0.1,0.7-0.4,1-0.8
		C62.2,95.9,62.5,95.3,62.7,94.6"/>
	<path id="Fill-15" class="st5" d="M79.9,92.7c0.4,0,0.8,0,1.2,0c0.4,0,0.8-0.1,1.1-0.2c0.3-0.1,0.6-0.2,0.7-0.4
		c0.2-0.2,0.3-0.4,0.4-0.6c0.1-0.3,0.2-0.6,0.2-1c0-0.7-0.2-1.2-0.6-1.6c-0.4-0.4-1.2-0.6-2.4-0.6c-0.2,0-0.4,0-0.7,0V92.7z
		 M87.9,97.6H85c-0.5-0.3-1.3-1.1-2.3-2.5c-0.3-0.4-0.7-0.8-1-1.2c-0.4-0.4-0.6-0.6-0.7-0.7C80.8,93,80.6,93,80.3,93h-0.4v2.1
		c0,0.7,0,1.2,0.1,1.5c0,0.2,0.1,0.4,0.3,0.5c0.2,0.1,0.5,0.2,1,0.2h0.5v0.3h-5v-0.3H77c0.5,0,0.8-0.1,0.9-0.2
		c0.2-0.1,0.3-0.3,0.3-0.5c0-0.2,0.1-0.7,0.1-1.5v-4.7c0-0.8,0-1.2-0.1-1.5c0-0.2-0.2-0.4-0.3-0.5c-0.2-0.1-0.5-0.1-1-0.1h-0.2v-0.3
		l1.5-0.1c1,0,1.8-0.1,2.4-0.1c1,0,1.8,0.1,2.5,0.3c0.6,0.2,1.1,0.4,1.5,0.8c0.4,0.4,0.6,0.8,0.6,1.4c0,0.6-0.3,1.2-0.8,1.6
		c-0.5,0.4-1.3,0.7-2.2,0.8c0.4,0.2,1.1,0.9,2.1,2.1c0.8,1,1.4,1.6,1.9,1.9c0.5,0.3,1,0.5,1.6,0.5V97.6z"/>
	<path id="Fill-17" class="st5" d="M102.8,87.3h-0.3l1.2-1.6c0.2-0.3,0.4-0.6,0.6-0.7c0.1-0.1,0.3-0.2,0.5-0.2c0.2,0,0.3,0,0.4,0.1
		c0.1,0.1,0.1,0.2,0.1,0.3c0,0.1-0.1,0.2-0.2,0.4c-0.1,0.1-0.5,0.4-1.1,0.8L102.8,87.3z M101.1,88.4v-0.3h4.8v0.3h-0.2
		c-0.5,0-0.9,0-1,0.1c-0.2,0.1-0.3,0.2-0.3,0.4c-0.1,0.2-0.1,0.7-0.1,1.5v4.7c0,0.7,0,1.2,0.1,1.5c0,0.2,0.1,0.4,0.3,0.5
		c0.2,0.1,0.5,0.2,1,0.2h0.3v0.3h-4.8v-0.3h0.3c0.5,0,0.8-0.1,0.9-0.2c0.2-0.1,0.3-0.3,0.3-0.5c0-0.2,0.1-0.7,0.1-1.5v-4.7
		c0-0.8,0-1.2-0.1-1.5c0-0.2-0.1-0.4-0.3-0.5c-0.2-0.1-0.5-0.1-1-0.1H101.1z"/>
	<path id="Fill-19" class="st5" d="M125.8,93.8l-1.9-4l-1.9,4H125.8z M125.9,94.1h-4l-0.3,0.6c-0.4,0.9-0.6,1.4-0.6,1.7
		c0,0.3,0.1,0.5,0.3,0.6c0.2,0.1,0.5,0.2,0.8,0.2v0.3H119v-0.3c0.5-0.1,0.8-0.2,1-0.4c0.2-0.2,0.5-0.7,0.8-1.5
		c0-0.1,0.2-0.3,0.4-0.8l3.1-6.6h0.3l3.5,7.5l0.5,1c0.1,0.2,0.3,0.4,0.4,0.5c0.2,0.1,0.5,0.2,0.8,0.2v0.3h-4.1v-0.3
		c0.5,0,0.9,0,1-0.1c0.2-0.1,0.3-0.2,0.3-0.4c0-0.1-0.1-0.4-0.4-0.9L125.9,94.1z"/>
	<path id="Fill-21" class="st5" d="M-139.1,18.6h0.4c0.7,1.6,1.1,3.7,1.1,6.2c1.7-2.1,3.4-3.6,5.4-4.6c1.9-1,4-1.5,6.2-1.5
		c2.5,0,4.5,0.6,6.1,1.7c1.6,1.1,2.6,2.8,3.3,5c1.9-2.2,3.8-3.9,5.8-5c2-1.1,4-1.7,6-1.7c2.3,0,4.3,0.5,6,1.6c1.6,1.1,2.6,2.3,3,3.6
		c0.3,1.3,0.5,3.5,0.5,6.5v8.9c0,3.4,0.1,5.5,0.2,6.3c0.1,0.7,0.5,1.3,1.2,1.7c0.7,0.4,1.9,0.5,3.6,0.5v1.7h-15.2v-1.7
		c1.6,0,2.7-0.2,3.4-0.5c0.7-0.3,1.1-0.9,1.2-1.6c0.1-0.7,0.2-2.8,0.2-6.4v-9.8c0-2-0.1-3.5-0.4-4.5c-0.2-1-0.8-1.9-1.8-2.6
		c-1-0.7-2.3-1.1-3.9-1.1c-1.6,0-3.2,0.5-4.8,1.6s-3.2,2.7-4.9,4.8v11.6c0,3.1,0,5.1,0.1,5.9c0.1,0.8,0.4,1.4,1,1.9
		c0.6,0.4,1.7,0.7,3.2,0.7v1.7h-14.7v-1.7c1.7,0,2.8-0.2,3.5-0.5c0.7-0.3,1.1-0.9,1.2-1.5c0.2-0.7,0.2-2.8,0.2-6.4v-8.2
		c0-2.6-0.1-4.5-0.3-5.6c-0.2-1.2-0.8-2.2-1.9-3c-1.1-0.8-2.4-1.2-4-1.2c-1.5,0-3.1,0.5-4.7,1.4c-1.6,1-3.2,2.4-4.9,4.3v12.3
		c0,3.2,0,5.3,0.1,6c0.1,0.8,0.5,1.4,1.1,1.8c0.6,0.4,1.8,0.6,3.4,0.6v1.7h-14.9v-1.7c1.6,0,2.8-0.2,3.4-0.5
		c0.7-0.3,1.1-0.9,1.2-1.6c0.1-0.7,0.2-2.8,0.2-6.4v-8.8c0-3.4-0.1-5.4-0.2-6.2c-0.1-0.8-0.5-1.3-1.1-1.7c-0.7-0.4-1.8-0.6-3.5-0.6
		v-1.7C-144.3,19.8-141.4,19.3-139.1,18.6"/>
	<path id="Fill-23" class="st5" d="M-61.3,6.7c0-0.8,0.3-1.5,0.9-2.1c0.6-0.6,1.3-0.9,2.1-0.9s1.6,0.3,2.1,0.9
		c0.6,0.6,0.9,1.3,0.9,2.1c0,0.8-0.3,1.5-0.9,2.1c-0.6,0.6-1.3,0.9-2.1,0.9c-0.8,0-1.6-0.3-2.1-0.9C-61,8.2-61.3,7.5-61.3,6.7
		L-61.3,6.7z M-58.6,31.2l-4,1.6c-6.4,2.5-9.6,5.7-9.6,9.5c0,1.5,0.4,2.7,1.2,3.7c0.8,0.9,1.9,1.4,3.2,1.4c1.2,0,2.5-0.4,4-1.1
		c1.5-0.7,3.2-1.9,5.2-3.3V31.2z M-74.9,6.7c0-0.8,0.3-1.5,0.9-2.1c0.6-0.6,1.3-0.9,2.2-0.9c0.8,0,1.6,0.3,2.1,0.9
		c0.6,0.6,0.9,1.3,0.9,2.1c0,0.8-0.3,1.5-0.9,2.1c-0.6,0.6-1.3,0.9-2.1,0.9s-1.6-0.3-2.1-0.9C-74.6,8.2-74.9,7.5-74.9,6.7L-74.9,6.7
		z M-47.9,43.8h1.4c-0.2,4.1-2.3,6.2-6.2,6.2c-1.7,0-3-0.4-4-1.3c-1-0.9-1.6-2.1-1.9-3.9c-2.5,1.7-4.7,3-6.8,3.9
		c-2,0.9-3.9,1.3-5.5,1.3c-2.1,0-3.8-0.6-5.3-1.7c-1.5-1.2-2.2-2.7-2.2-4.6c0-2.5,1.2-4.6,3.7-6.5c2.5-1.8,5.9-3.6,10.3-5.4l5.7-2.3
		v-1.4c0-2-0.1-3.5-0.4-4.4c-0.3-0.9-1-1.7-2.1-2.4c-1.1-0.7-2.6-1.1-4.5-1.1c-3.7,0-5.8,1.2-6.2,3.6c-0.4,2.4-1.4,3.7-3.1,3.7
		c-1.5,0-2.3-0.7-2.3-2.1c0-1.4,1-2.8,3-4.4c2-1.6,5.1-2.4,9.3-2.4c3.1,0,5.6,0.5,7.3,1.4c1.7,1,2.9,2.1,3.4,3.3
		c0.6,1.2,0.8,3.1,0.8,5.6v11.9c0,2.8,0.1,4.6,0.4,5.4c0.3,0.8,0.9,1.2,1.9,1.2C-49.3,47.4-48.3,46.2-47.9,43.8L-47.9,43.8z"/>
	<path id="Fill-25" class="st5" d="M-9.1,42h1.6c-1.7,5.6-5.9,8.4-12.6,8.4c-4.3,0-8-1.4-10.9-4.3c-3-2.9-4.4-6.6-4.4-11.3
		c0-4.8,1.6-8.7,4.8-11.7c3.2-3,7-4.5,11.3-4.5c2.6,0,5,0.6,7.2,1.7c2.2,1.1,3.3,2.5,3.3,4.1c0,0.6-0.2,1.2-0.6,1.7
		c-0.4,0.5-1,0.8-1.8,0.8c-1.6,0-2.6-0.9-3-2.8c-0.3-1.4-0.8-2.4-1.4-2.9c-0.6-0.6-1.9-0.8-3.7-0.8c-3.3,0-5.8,1.1-7.5,3.3
		c-1.7,2.2-2.5,5.6-2.5,10.1c0,4.6,0.9,8.3,2.7,10.9c1.8,2.6,4.5,3.9,8.1,3.9C-13.6,48.5-10.5,46.3-9.1,42"/>
	<path id="Fill-27" class="st5" d="M10.8,34.6c0,5.2,0.9,8.9,2.6,11c1.8,2.1,4.2,3.2,7.4,3.2c3.2,0,5.7-1.1,7.4-3.2
		c1.7-2.1,2.6-5.8,2.6-11c0-5.2-0.9-8.9-2.6-11.1c-1.7-2.2-4.2-3.3-7.4-3.3c-3.2,0-5.7,1.1-7.4,3.3C11.7,25.7,10.8,29.4,10.8,34.6
		 M4.7,34.4c0-4.5,1.6-8.3,4.7-11.3s6.9-4.6,11.5-4.6c4.6,0,8.4,1.5,11.5,4.6c3.1,3,4.7,6.8,4.7,11.3c0,5-1.6,8.9-4.7,11.7
		c-3.2,2.8-7,4.3-11.4,4.3c-4.5,0-8.3-1.4-11.4-4.3C6.3,43.2,4.7,39.3,4.7,34.4"/>
	<path id="Fill-29" class="st5" d="M60,26.1c0.8-2.1,2.2-3.9,4.1-5.4c1.9-1.4,3.7-2.2,5.5-2.2c1.6,0,2.9,0.5,3.9,1.5
		c0.9,1,1.4,2,1.4,3c0,0.7-0.2,1.3-0.7,1.8c-0.5,0.5-1.1,0.8-1.8,0.8c-1.2,0-2.2-0.9-2.8-2.7c-0.4-1.2-1.1-1.8-2-1.8
		c-1.1,0-2.3,0.7-3.8,2.1c-1.5,1.4-2.4,2.9-2.9,4.4c-0.4,1.5-0.6,3.6-0.6,6.2v5.3c0,3.1,0,5.1,0.1,5.9c0.1,0.8,0.4,1.4,1.1,1.9
		c0.6,0.4,1.7,0.6,3.3,0.6h1v1.7H49.7v-1.7h0.8c1.5,0,2.5-0.2,3.2-0.6c0.6-0.4,1-1,1.1-1.7c0.1-0.7,0.2-2.8,0.2-6.2v-8.3
		c0-3.2,0-5.2-0.1-6c-0.1-0.8-0.4-1.4-1.1-1.9c-0.6-0.4-1.7-0.7-3.3-0.7h-0.8v-1.6c2.3-0.3,5.4-1,9.1-2.1C59.6,20.5,60,23,60,26.1"
		/>
	<path id="Fill-31" class="st5" d="M87.7,3.5c0-1,0.4-1.9,1.1-2.7c0.8-0.7,1.7-1.1,2.7-1.1c1.1,0,2,0.4,2.7,1.1
		c0.7,0.7,1.1,1.6,1.1,2.7c0,1.1-0.4,2-1.1,2.7c-0.7,0.7-1.6,1.1-2.7,1.1c-1.1,0-2-0.4-2.7-1.1C88.1,5.5,87.7,4.6,87.7,3.5L87.7,3.5
		z M94.9,18.6v20.6c0,3.1,0,5.1,0.1,5.9c0.1,0.8,0.5,1.4,1.1,1.9c0.6,0.4,1.7,0.6,3.3,0.6h0.8v1.7H83.9v-1.7h1.3
		c1.8,0,2.9-0.2,3.4-0.7c0.5-0.5,0.8-1.1,0.9-1.8c0.1-0.7,0.1-2.7,0.1-6v-8.9c0-3.5-0.2-5.6-0.5-6.3c-0.3-0.8-0.8-1.2-1.3-1.4
		c-0.6-0.2-1.5-0.3-2.9-0.3h-1v-1.7c4.4-0.4,7.8-1.1,10.2-1.9H94.9z"/>
	<path id="Fill-33" class="st5" d="M119.7,18.6h1c0.6,1.5,0.9,3.5,1,6.1c1.8-2,3.6-3.6,5.6-4.6c2-1,4-1.5,6.1-1.5
		c2.4,0,4.4,0.5,5.9,1.5c1.5,1,2.5,2.2,3,3.6c0.4,1.4,0.7,3.5,0.7,6.2v9.2c0,3.4,0.1,5.5,0.2,6.2c0.1,0.7,0.5,1.3,1.2,1.7
		c0.7,0.4,1.9,0.6,3.6,0.6v1.7h-15.5v-1.7h0.7c1.8,0,2.9-0.3,3.5-0.8c0.5-0.5,0.9-1.1,0.9-1.8c0.1-0.7,0.1-2.7,0.1-5.9v-9.5
		c0-2.3-0.1-4-0.4-5c-0.2-1-0.9-1.9-1.9-2.6c-1-0.8-2.3-1.2-3.9-1.2c-1.8,0-3.5,0.5-5.2,1.6c-1.6,1-3.2,2.6-4.7,4.7v12
		c0,3.4,0.1,5.5,0.2,6.2c0.1,0.7,0.5,1.3,1.2,1.7c0.7,0.4,1.9,0.6,3.7,0.6v1.7h-15.3v-1.7c1.7,0,2.9-0.2,3.6-0.5
		c0.7-0.3,1.1-0.8,1.2-1.5c0.2-0.7,0.2-2.8,0.2-6.4v-8.8c0-3.4-0.1-5.5-0.2-6.2c-0.1-0.7-0.5-1.3-1.2-1.7c-0.7-0.4-1.9-0.6-3.6-0.6
		v-1.7C114.1,19.9,116.8,19.4,119.7,18.6"/>
	<path id="Fill-35" class="st5" d="M179.8,31.2l-4,1.6c-6.4,2.5-9.6,5.7-9.6,9.5c0,1.5,0.4,2.7,1.2,3.7c0.8,0.9,1.9,1.4,3.2,1.4
		c1.2,0,2.5-0.4,4-1.1c1.5-0.7,3.2-1.9,5.2-3.3V31.2z M190.5,43.8h1.4c-0.2,4.1-2.3,6.2-6.2,6.2c-1.7,0-3-0.4-4-1.3
		c-1-0.9-1.6-2.1-1.9-3.9c-2.5,1.7-4.7,3-6.8,3.9c-2,0.9-3.9,1.3-5.5,1.3c-2,0-3.8-0.6-5.3-1.7c-1.5-1.2-2.2-2.7-2.2-4.6
		c0-2.5,1.2-4.6,3.7-6.5c2.5-1.8,5.9-3.6,10.3-5.4l5.7-2.3v-1.4c0-2-0.1-3.5-0.4-4.4c-0.3-0.9-1-1.7-2.1-2.4
		c-1.1-0.7-2.6-1.1-4.5-1.1c-3.7,0-5.8,1.2-6.2,3.6c-0.4,2.4-1.4,3.7-3.1,3.7c-1.5,0-2.3-0.7-2.3-2.1c0-1.4,1-2.8,3-4.4
		c2-1.6,5.1-2.4,9.3-2.4c3.1,0,5.6,0.5,7.3,1.4c1.7,1,2.9,2.1,3.4,3.3c0.6,1.2,0.8,3.1,0.8,5.6v11.9c0,2.8,0.1,4.6,0.4,5.4
		c0.3,0.8,0.9,1.2,1.9,1.2C189.1,47.4,190.2,46.2,190.5,43.8L190.5,43.8z"/>
	<g id="Group-39" transform="translate(134.016297, 0.121391)">
		<path id="Fill-37" class="st5" d="M-146.4-52.8c0,0,7.8,8.5,14,9c0,0,4.1-8.5,13.6-11.6c0,0,0.5-4.8,6.2-5c0,0,6.2-0.4,6.1,3.2
			c0,0-0.5,7-7.7,5.9c0,0-3.3-0.3-4.7-2.2c0,0-2.9-1.3-9.5,6.4c0,0-2,2.7-2.5,3.8l5.7,1.7c0,0,1.8,0.7,4.2-1.5c0,0,2.3-2.1,1.9-2.3
			c0,0-2-1.3-1.4-3c0,0,1.2-3.1,3.6-0.9c0,0,2.7,3-0.9,4.5c0,0-1.5,3.4-3.7,3.7c0,0,6.7,1.7,14.3,1.1c0,0-0.4-4.7,1.8-8.1
			c0,0-1.2-1.1-3.6,0.2c0,0-0.6,3.5-4.3,2.7c0,0-1.1-0.9-0.4-2.1c0,0,0.9-2.4,4.3-1.8c0,0,1.4-1.2,4.9-0.8c0,0,1.3-2.5,2-2.7
			c0,0-0.8-3.5,0.9-6.5c0,0-3.7-3.1,0.9-7.4c0,0,4.1-3.5,5.8,0.7c0,0,1.7,5.6-5.6,7.4c0,0-1.2,1.7-0.5,4.4c0,0,0.7-1,1.5-1.2
			c0,0-0.3-3.7,4.6-4.2c0,0,3.7-0.6,4.1,0.9c0,0,1.2,2.4-3.9,4.4c0,0-3.4,1.2-4-0.7c0,0-4.5,2.8-5.5,7.9c0,0,2.7-1.5,3.8-1.4
			c0,0,3.1-5.1,10.6-6.5c0,0,1.4-2.9,4.3-1.5c0,0,2.7,1.7-2,2.8c0,0-1.9,0.3-2.1-0.3c0,0-5.8,1.1-8.5,5.1l1.3-0.1
			c0,0,2.5-3.1,6.6-1.1c0,0,3.3,1.8,1.5,3.3c-1.6,1.3-2.4,1.5-4.4,1.8c-0.6,0.1-3.6,0-4.2-3.2c0,0-5.6,0.9-7.3,2.4c0,0-1,3-0.6,5.3
			c0,0,8.3-0.3,17.6-3.7c0,0,1.9-6.4,7.9-4.5c0,0,3.9,1.5,0,5.1c-0.4,0.3-2,2.3-7.1,0.6c0,0-7.2,2.6-9,2.7c0,0,5.1,2.8,10.9,2.5
			c0,0,1.7-3.9,6.5-1.8c0.5,0.4,3.6,1.5,1.2,4.7c0,0-2.1,3.1-5.7,1.8c-1-0.4-2.5-0.8-2.5-3.5c0,0-8.2-0.2-12.3-3.2
			c0,0-1.6,0.5-2.4,0.6l2.1,4c0,0,0.9,1.4,4.2,1.5l2.4,0.1c0,0-0.3-2.2,2.6-1.8c0,0,3.1,0.7,0.8,2.5c0,0-1.1,0.9-3.5,0
			c0,0-3,0.6-5.2-0.5c0,0,1.7,3.5,9.2,6.3l0.4,0.1c0,0,1.1-2.5,5.2-1.3c0,0,4.5,1,2.4,5.5c0,0-1.5,3-5.8,0.2c0,0-2-1-1.9-2.9
			c0,0-6.5-2.1-8.3-4.5c0,0-0.4,2.9,2.8,6.2c0,0,4.3,0.9,3,3.8c0,0-0.7,1.3-3.1-0.4c0,0-1.4-0.6-0.8-2.7c0,0-3.9-3.9-3.6-9.2
			c0,0-4.1-5.1-4.5-6.9c0,0-10.1,2.4-24.4-1.6c0,0,4.9,5.5,7.8,6.3c0,0,1.4-2,7-1.1c0,0,2.9-1.8,4.7-1.4c0,0,4.4,0.5,3.7,3.7
			c0,0-1,2.4-4.7,2.2c0,0-3.2-0.3-4.1-3.2c0,0-4.3-0.9-5,0.8l3,1.5c0,0,5.4-1,7.3,3.6c0,0,1.3,5.1-4.3,3.4c0,0-5.6-1.9-3.6-6.2
			l-5.3-2.5c0,0-0.6,3.1,3.9,7.5c0,0,5.1,4.3,7.7,4.5c0,0,2.3-3.9,7.3-1c0,0,4.7,2.9-0.4,5.1c0,0-3.9,2-7.5-3c0,0-10-4.2-11.3-8
			c0,0-2.2-3.5-1.1-6.3c0,0-5.8-3.2-6.7-6.1l-6.2-2c0,0,1.2,5.3,3.8,7.8c0,0,4,0.5,4.1,5c0,0,0,3.6-3.1,2.3c0,0-4.3-2.1-2.2-6.8
			c0,0-4.6-7.1-4.6-9c0,0-10.7-5.3-11.4-6.5c0,0-1.3-0.5-0.5-1.5L-146.4-52.8z"/>
	</g>
</g>
</svg>
