<?xml version="1.0" encoding="utf-8"?>
<!-- Generator: Adobe Illustrator 22.1.0, SVG Export Plug-In . SVG Version: 6.00 Build 0)  -->
<svg version="1.1" xmlns="http://www.w3.org/2000/svg" xmlns:xlink="http://www.w3.org/1999/xlink" x="0px" y="0px"
	 viewBox="0 0 150 118.3" style="enable-background:new 0 0 150 118.3;" xml:space="preserve">
<style type="text/css">
	.st0{display:none;}
	.st1{display:inline;fill:none;stroke:#000000;stroke-miterlimit:10;}
	.st2{display:inline;}
	.st3{stroke:#000000;stroke-miterlimit:10;}
	.st4{fill:none;stroke:#000000;stroke-width:0.9882;stroke-miterlimit:10;}
	.st5{stroke:#000000;stroke-width:0.2471;stroke-miterlimit:10;}
	.st6{fill:#4081F2;}
	.st7{fill:#1D1D1B;}
	.st8{fill:#E20D17;}
	.st9{fill:#EA610A;}
	.st10{fill:#F59E00;}
	.st11{fill-rule:evenodd;clip-rule:evenodd;fill:url(#SVGID_1_);}
	.st12{fill-rule:evenodd;clip-rule:evenodd;fill:url(#SVGID_2_);}
	.st13{fill-rule:evenodd;clip-rule:evenodd;fill:url(#SVGID_3_);}
	.st14{fill-rule:evenodd;clip-rule:evenodd;fill:url(#SVGID_4_);}
	.st15{fill-rule:evenodd;clip-rule:evenodd;fill:url(#SVGID_5_);}
	.st16{fill-rule:evenodd;clip-rule:evenodd;fill:#EFA616;}
	.st17{fill-rule:evenodd;clip-rule:evenodd;fill:#FFFFFF;}
	.st18{fill-rule:evenodd;clip-rule:evenodd;fill:#E20613;}
</style>
<g id="Capa_2" class="st0">
</g>
<g id="Capa_1">
	<g>
		<g>
			<path class="st7" d="M28.3,103c-0.4-0.4-0.9-0.7-1.4-1c-0.6-0.2-1.2-0.3-1.8-0.3c-0.4,0-0.7,0-1.1,0.1c-0.4,0.1-0.8,0.2-1.1,0.3
				c-0.4,0.2-0.7,0.4-1,0.6c-0.3,0.3-0.6,0.6-0.9,1c-0.4-0.6-0.9-1.2-1.6-1.5c-0.7-0.4-1.4-0.6-2.3-0.6c-0.3,0-0.6,0-0.9,0.1
				c-0.3,0.1-0.6,0.1-0.9,0.3c-0.3,0.1-0.6,0.3-0.9,0.5c-0.3,0.2-0.5,0.5-0.8,0.8v-1.4h-2.4v11.6h2.5v-6.4c0-0.5,0.1-0.9,0.2-1.3
				c0.2-0.4,0.4-0.7,0.6-1c0.3-0.3,0.6-0.5,0.9-0.6c0.4-0.1,0.7-0.2,1.1-0.2c0.8,0,1.5,0.3,1.9,0.8c0.5,0.5,0.7,1.3,0.7,2.3v6.5h2.5
				v-6.4c0-0.5,0.1-0.9,0.2-1.3c0.2-0.4,0.4-0.7,0.6-1c0.3-0.3,0.6-0.5,0.9-0.6c0.4-0.1,0.7-0.2,1.1-0.2c0.8,0,1.5,0.3,1.9,0.8
				c0.5,0.5,0.7,1.3,0.7,2.3v6.5h2.5v-7.3c0-0.7-0.1-1.3-0.3-1.9C29.1,103.9,28.7,103.5,28.3,103z"/>
			<path class="st7" d="M41.3,103.5c-0.4-0.5-0.9-0.9-1.5-1.2c-0.6-0.3-1.3-0.5-2.1-0.5c-0.8,0-1.6,0.2-2.3,0.5
				c-0.7,0.3-1.3,0.7-1.8,1.3c-0.5,0.5-0.9,1.2-1.2,1.9c-0.3,0.7-0.4,1.6-0.4,2.5c0,0.9,0.1,1.7,0.4,2.5c0.3,0.7,0.7,1.4,1.2,1.9
				c0.5,0.5,1.1,1,1.8,1.3c0.7,0.3,1.5,0.5,2.3,0.5c0.8,0,1.5-0.2,2.1-0.5c0.6-0.3,1.1-0.7,1.5-1.2v1.4h2.5v-11.6h-2.5V103.5z
				 M41.2,109.3c-0.2,0.5-0.4,0.8-0.7,1.2c-0.3,0.3-0.7,0.6-1.1,0.8c-0.4,0.2-0.9,0.3-1.4,0.3c-0.5,0-1-0.1-1.5-0.3
				c-0.4-0.2-0.8-0.5-1.1-0.8c-0.3-0.3-0.5-0.7-0.7-1.2c-0.2-0.5-0.2-0.9-0.2-1.4c0-0.5,0.1-1,0.2-1.4c0.2-0.5,0.4-0.8,0.7-1.2
				c0.3-0.3,0.7-0.6,1.1-0.8c0.4-0.2,0.9-0.3,1.5-0.3c0.5,0,1,0.1,1.4,0.3c0.4,0.2,0.8,0.5,1.1,0.8c0.3,0.3,0.5,0.7,0.7,1.2
				c0.2,0.5,0.3,0.9,0.3,1.5S41.4,108.9,41.2,109.3z"/>
			<path class="st7" d="M55.5,107.8c-0.7-0.6-1.7-0.9-3-1.1l-1.2-0.2c-0.3,0-0.5-0.1-0.8-0.1c-0.2-0.1-0.4-0.1-0.6-0.2
				c-0.2-0.1-0.3-0.2-0.4-0.3c-0.1-0.1-0.2-0.3-0.2-0.5c0-0.4,0.2-0.7,0.6-1c0.4-0.3,0.9-0.4,1.6-0.4c0.4,0,0.7,0,1.1,0.1
				c0.4,0.1,0.7,0.1,1,0.2c0.3,0.1,0.6,0.2,0.9,0.3c0.3,0.1,0.5,0.2,0.7,0.3l1.1-2c-0.6-0.4-1.3-0.7-2.1-0.9
				c-0.8-0.2-1.7-0.3-2.6-0.3c-0.7,0-1.4,0.1-2,0.3c-0.6,0.2-1.1,0.4-1.5,0.7c-0.4,0.3-0.7,0.7-1,1.2c-0.2,0.5-0.3,1-0.3,1.6
				c0,0.9,0.3,1.7,1,2.3c0.7,0.6,1.6,1,2.9,1.1l1.2,0.2c0.7,0.1,1.2,0.3,1.5,0.5c0.3,0.2,0.5,0.5,0.5,0.8c0,0.4-0.2,0.8-0.7,1
				c-0.4,0.3-1.1,0.4-2,0.4c-0.5,0-0.9,0-1.3-0.1c-0.4-0.1-0.7-0.2-1-0.3c-0.3-0.1-0.6-0.2-0.8-0.4c-0.2-0.1-0.5-0.3-0.7-0.5
				l-1.2,1.9c0.4,0.3,0.9,0.6,1.3,0.8c0.5,0.2,0.9,0.3,1.4,0.5c0.4,0.1,0.9,0.2,1.3,0.2c0.4,0,0.7,0.1,1,0.1c0.8,0,1.6-0.1,2.2-0.3
				c0.7-0.2,1.2-0.4,1.7-0.8c0.4-0.3,0.8-0.7,1-1.2c0.2-0.5,0.4-1,0.4-1.5C56.6,109.2,56.2,108.4,55.5,107.8z"/>
			<path class="st7" d="M79.2,103.4c-0.5-0.5-1.1-1-1.7-1.2c-0.7-0.3-1.4-0.4-2.2-0.4c-0.9,0-1.6,0.1-2.3,0.4
				c-0.7,0.3-1.3,0.7-1.8,1.2c-0.5,0.5-0.9,1.2-1.2,1.9c-0.3,0.8-0.4,1.6-0.4,2.5c0,0.9,0.1,1.8,0.4,2.5c0.3,0.8,0.7,1.4,1.2,1.9
				c0.5,0.5,1.2,0.9,1.9,1.2c0.7,0.3,1.5,0.4,2.4,0.4c0.9,0,1.7-0.1,2.5-0.4c0.8-0.2,1.5-0.7,2.3-1.3l-1.3-1.8
				c-0.5,0.4-1,0.7-1.6,0.9c-0.6,0.2-1.2,0.3-1.8,0.3c-0.4,0-0.8-0.1-1.2-0.2c-0.4-0.1-0.7-0.3-1-0.5c-0.3-0.2-0.6-0.5-0.8-0.9
				c-0.2-0.4-0.4-0.8-0.4-1.3h8.6c0-0.1,0-0.3,0-0.5c0-0.2,0-0.3,0-0.5c0-0.9-0.1-1.7-0.4-2.5C80.1,104.6,79.7,104,79.2,103.4z
				 M72.1,106.9c0.1-0.4,0.2-0.8,0.3-1.2c0.2-0.4,0.4-0.7,0.6-0.9c0.3-0.3,0.6-0.5,0.9-0.6c0.4-0.1,0.8-0.2,1.2-0.2
				c0.8,0,1.5,0.3,2,0.8c0.5,0.5,0.8,1.2,1,2.1H72.1z"/>
			<path class="st7" d="M112.9,103.5c-0.4-0.5-0.9-0.9-1.5-1.2c-0.6-0.3-1.3-0.5-2.1-0.5c-0.8,0-1.6,0.2-2.3,0.5
				c-0.7,0.3-1.3,0.7-1.8,1.3c-0.5,0.5-0.9,1.2-1.2,1.9c-0.3,0.7-0.4,1.6-0.4,2.5c0,0.9,0.1,1.7,0.4,2.5c0.3,0.7,0.7,1.4,1.2,1.9
				c0.5,0.5,1.1,1,1.8,1.3c0.7,0.3,1.5,0.5,2.3,0.5c0.8,0,1.5-0.2,2.1-0.5c0.6-0.3,1.1-0.7,1.5-1.2v1.4h2.5v-11.6h-2.5V103.5z
				 M112.8,109.3c-0.2,0.5-0.4,0.8-0.7,1.2c-0.3,0.3-0.7,0.6-1.1,0.8c-0.4,0.2-0.9,0.3-1.4,0.3c-0.5,0-1-0.1-1.5-0.3
				c-0.4-0.2-0.8-0.5-1.1-0.8s-0.5-0.7-0.7-1.2c-0.2-0.5-0.2-0.9-0.2-1.4c0-0.5,0.1-1,0.2-1.4c0.2-0.5,0.4-0.8,0.7-1.2
				c0.3-0.3,0.7-0.6,1.1-0.8c0.4-0.2,0.9-0.3,1.5-0.3c0.5,0,1,0.1,1.4,0.3c0.4,0.2,0.8,0.5,1.1,0.8c0.3,0.3,0.5,0.7,0.7,1.2
				c0.2,0.5,0.3,0.9,0.3,1.5S113,108.9,112.8,109.3z"/>
			<path class="st7" d="M66.4,111.4c-0.4,0.2-0.8,0.2-1.2,0.2c-0.3,0-0.5,0-0.7-0.1c-0.2-0.1-0.4-0.2-0.6-0.4
				c-0.2-0.2-0.3-0.4-0.4-0.7s-0.1-0.6-0.1-1v-5.1h4.1v-2.3h-4.1v-3.5h-2.5v3.5h-2.3v2.3h2.3v5.1c0,1.5,0.4,2.7,1.1,3.4
				c0.7,0.7,1.8,1.1,3.1,1.1c0.7,0,1.4-0.1,2-0.3c0.4-0.1,0.7-0.3,1.1-0.5l-0.9-2.1C66.9,111.1,66.6,111.3,66.4,111.4z"/>
			<path class="st7" d="M89.2,101.8c-0.7,0-1.4,0.1-1.9,0.4c-0.6,0.3-1.1,0.9-1.4,1.4v-1.5h-2.3v11.6h2.3v-6.4
				c0-0.5,0.1-0.9,0.2-1.3c0.1-0.4,0.3-0.7,0.6-1c0.2-0.3,0.5-0.5,0.9-0.6c0.3-0.1,0.7-0.2,1.1-0.2c0.3,0,0.6,0,1,0.1
				c0.2,0,0.4,0.1,0.5,0.1l0.7-2.4c-0.2-0.1-0.4-0.1-0.6-0.2C90,101.8,89.6,101.8,89.2,101.8z"/>
			<path class="st7" d="M124.5,101.8c-0.7,0-1.4,0.1-1.9,0.4c-0.6,0.3-1.1,0.9-1.4,1.4v-1.5h-2.3v11.6h2.3v-6.4
				c0-0.5,0.1-0.9,0.2-1.3c0.1-0.4,0.3-0.7,0.6-1c0.2-0.3,0.5-0.5,0.9-0.6c0.3-0.1,0.7-0.2,1.1-0.2c0.3,0,0.6,0,1,0.1
				c0.2,0,0.4,0.1,0.5,0.1l0.7-2.4c-0.2-0.1-0.4-0.1-0.6-0.2C125.2,101.8,124.9,101.8,124.5,101.8z"/>
			<path class="st7" d="M136.3,97.3v6.1c-0.4-0.5-0.9-0.9-1.5-1.2c-0.6-0.3-1.3-0.5-2.1-0.5c-0.8,0-1.6,0.2-2.3,0.5
				c-0.7,0.3-1.3,0.7-1.8,1.3c-0.5,0.5-0.9,1.2-1.2,1.9c-0.3,0.7-0.4,1.6-0.4,2.5c0,0.9,0.1,1.7,0.4,2.5c0.3,0.7,0.7,1.4,1.2,1.9
				c0.5,0.5,1.1,1,1.8,1.3c0.7,0.3,1.5,0.5,2.3,0.5c0.8,0,1.5-0.2,2.1-0.5c0.6-0.3,1.1-0.7,1.5-1.2v1.4h2.5V97.3H136.3z
				 M136.2,109.3c-0.2,0.5-0.4,0.8-0.7,1.2c-0.3,0.3-0.7,0.6-1.1,0.8c-0.4,0.2-0.9,0.3-1.4,0.3c-0.5,0-1-0.1-1.5-0.3
				c-0.4-0.2-0.8-0.5-1.1-0.8c-0.3-0.3-0.5-0.7-0.7-1.2c-0.2-0.5-0.2-0.9-0.2-1.4c0-0.5,0.1-1,0.2-1.4c0.2-0.5,0.4-0.8,0.7-1.2
				c0.3-0.3,0.7-0.6,1.1-0.8c0.4-0.2,0.9-0.3,1.5-0.3c0.5,0,1,0.1,1.4,0.3c0.4,0.2,0.8,0.5,1.1,0.8c0.3,0.3,0.5,0.7,0.7,1.2
				c0.2,0.5,0.3,0.9,0.3,1.5S136.4,108.9,136.2,109.3z"/>
			<path class="st7" d="M95.3,105.2c0.3-0.3,0.7-0.6,1.2-0.8c0.4-0.2,0.9-0.3,1.4-0.3v0c0.6,0,1.1,0.1,1.6,0.3
				c0.5,0.2,0.9,0.4,1.2,0.7l1.2-2c-0.5-0.4-1-0.7-1.5-0.9c-0.8-0.3-1.6-0.5-2.5-0.5c-0.9,0-1.7,0.2-2.5,0.5c-0.8,0.3-1.4,0.7-2,1.3
				c-0.6,0.5-1,1.2-1.3,1.9c-0.3,0.7-0.5,1.6-0.5,2.4c0,0.9,0.2,1.7,0.5,2.4c0.3,0.7,0.7,1.4,1.3,1.9c0.6,0.5,1.2,1,2,1.3
				c0.8,0.3,1.6,0.5,2.5,0.5c0.9,0,1.7-0.2,2.5-0.5c0.6-0.2,1.1-0.5,1.5-0.9l-1.2-2c-0.3,0.3-0.8,0.6-1.2,0.7
				c-0.5,0.2-1,0.3-1.6,0.3v0c-0.5,0-1-0.1-1.4-0.3c-0.4-0.2-0.8-0.4-1.2-0.8c-0.3-0.3-0.6-0.7-0.8-1.2c-0.2-0.5-0.3-1-0.3-1.5
				c0-0.5,0.1-1.1,0.3-1.5C94.7,105.9,95,105.5,95.3,105.2z"/>
		</g>
		<g>
			<path class="st7" d="M144.2,112c0.2,0,0.3,0,0.5,0.1c0.1,0.1,0.3,0.1,0.4,0.3c0.1,0.1,0.2,0.2,0.3,0.4c0.1,0.1,0.1,0.3,0.1,0.5
				c0,0.2,0,0.3-0.1,0.5c-0.1,0.1-0.1,0.3-0.3,0.4c-0.1,0.1-0.2,0.2-0.4,0.3c-0.1,0.1-0.3,0.1-0.5,0.1c-0.2,0-0.3,0-0.5-0.1
				c-0.1-0.1-0.3-0.1-0.4-0.3c-0.1-0.1-0.2-0.2-0.3-0.4c-0.1-0.1-0.1-0.3-0.1-0.5c0-0.2,0-0.3,0.1-0.5c0.1-0.1,0.1-0.3,0.3-0.4
				c0.1-0.1,0.2-0.2,0.4-0.3C143.8,112,144,112,144.2,112z M144.2,114c0.1,0,0.2,0,0.3-0.1c0.1,0,0.2-0.1,0.3-0.2
				c0.1-0.1,0.1-0.2,0.2-0.3c0-0.1,0.1-0.2,0.1-0.3c0-0.1,0-0.2-0.1-0.3c0-0.1-0.1-0.2-0.2-0.3c-0.1-0.1-0.2-0.1-0.3-0.2
				c-0.1,0-0.2-0.1-0.3-0.1c-0.1,0-0.2,0-0.3,0.1c-0.1,0-0.2,0.1-0.3,0.2c-0.1,0.1-0.1,0.2-0.2,0.3c0,0.1-0.1,0.2-0.1,0.3
				c0,0.1,0,0.2,0.1,0.3c0,0.1,0.1,0.2,0.2,0.3c0.1,0.1,0.2,0.1,0.3,0.2C143.9,114,144.1,114,144.2,114z M144.2,112.6
				c0.1,0,0.3,0,0.3,0.1c0.1,0.1,0.1,0.1,0.1,0.3c0,0.1,0,0.2-0.1,0.2c-0.1,0.1-0.1,0.1-0.2,0.1l0.3,0.4h-0.4l-0.3-0.4h0v0.4h-0.3
				v-1H144.2z M144,112.9v0.2h0.2c0,0,0.1,0,0.1,0c0,0,0,0,0-0.1c0,0,0-0.1,0-0.1c0,0-0.1,0-0.1,0H144z"/>
		</g>
		<g>
			<path class="st8" d="M58.3,47.8c0-13.9,6.5-26.3,16.6-34.3C67.5,7.5,58,4,47.8,4C23.6,4,4,23.6,4,47.8s19.6,43.8,43.8,43.8
				c10.3,0,19.7-3.5,27.2-9.5C64.8,74.1,58.3,61.7,58.3,47.8z"/>
			<ellipse class="st9" cx="74.9" cy="47.8" rx="16.6" ry="34.3"/>
			<path class="st10" d="M142.9,71.4v-1.3h-0.5v-0.4h1.4v0.4h-0.5v1.3H142.9z M145.6,71.4v-1.1l-0.4,1h-0.4l-0.4-1v1.1h-0.4v-1.6
				h0.5l0.4,1l0.4-1h0.5v1.6H145.6z"/>
			<path class="st10" d="M102.1,4c-10.3,0-19.7,3.5-27.2,9.5c10.1,8,16.6,20.4,16.6,34.3S85,74.1,74.9,82.1
				c7.5,5.9,16.9,9.5,27.2,9.5c24.2,0,43.8-19.6,43.8-43.8S126.2,4,102.1,4z"/>
		</g>
	</g>
</g>
</svg>
