<?xml version="1.0" encoding="utf-8"?>
<!-- Generator: Adobe Illustrator 22.1.0, SVG Export Plug-In . SVG Version: 6.00 Build 0)  -->
<svg version="1.1" id="Capa_1" xmlns="http://www.w3.org/2000/svg" xmlns:xlink="http://www.w3.org/1999/xlink" x="0px" y="0px"
	 viewBox="0 0 640 315" style="enable-background:new 0 0 640 315;" xml:space="preserve">
<style type="text/css">
	.st0{fill:#EEE6E5;}
	.st1{fill:#C0BCC0;}
</style>
<rect x="-19.5" y="-23.2" class="st0" width="678.9" height="361.5"/>
<g>
	<g>
		<path class="st1" d="M251.1,292.3h-2c-0.4-0.2-0.9-0.8-1.6-1.8c-0.2-0.3-0.5-0.6-0.7-0.9c-0.3-0.3-0.4-0.5-0.5-0.5
			c-0.1-0.1-0.2-0.1-0.4-0.1h-0.3v1.5c0,0.5,0,0.9,0,1c0,0.2,0.1,0.3,0.2,0.4c0.1,0.1,0.4,0.1,0.7,0.1h0.4v0.2h-3.6V292h0.2
			c0.3,0,0.5,0,0.7-0.1c0.1-0.1,0.2-0.2,0.2-0.3c0-0.2,0-0.5,0-1.1v-3.3c0-0.5,0-0.9,0-1c0-0.2-0.1-0.3-0.2-0.3
			c-0.1-0.1-0.4-0.1-0.7-0.1h-0.1v-0.2l1.1,0c0.7,0,1.3,0,1.7,0c0.7,0,1.3,0.1,1.7,0.2c0.4,0.1,0.8,0.3,1.1,0.6
			c0.3,0.3,0.4,0.6,0.4,1c0,0.4-0.2,0.8-0.5,1.1c-0.4,0.3-0.9,0.5-1.6,0.6c0.3,0.1,0.8,0.6,1.5,1.5c0.6,0.7,1,1.1,1.3,1.4
			c0.3,0.2,0.7,0.3,1.2,0.3V292.3z M245.4,288.8c0.3,0,0.6,0,0.9,0c0.3,0,0.6-0.1,0.8-0.1c0.2-0.1,0.4-0.1,0.5-0.3
			c0.1-0.1,0.2-0.3,0.3-0.5c0.1-0.2,0.1-0.4,0.1-0.7c0-0.5-0.1-0.9-0.4-1.1c-0.3-0.3-0.8-0.4-1.7-0.4c-0.1,0-0.3,0-0.5,0V288.8z"/>
		<path class="st1" d="M266.7,290.2h0.3l-0.2,2.1h-6.2V292h0.2c0.4,0,0.6,0,0.7-0.1c0.1-0.1,0.2-0.2,0.2-0.3c0-0.1,0-0.5,0-1.1v-3.3
			c0-0.5,0-0.9,0-1c0-0.2-0.1-0.3-0.2-0.3s-0.4-0.1-0.7-0.1v-0.2h5.4l0.2,1.7H266c-0.1-0.5-0.3-0.8-0.4-1c-0.2-0.2-0.4-0.3-0.6-0.4
			c-0.2-0.1-0.6-0.1-1.1-0.1h-1v2.8h0.8c0.4,0,0.6,0,0.8-0.1c0.1-0.1,0.2-0.1,0.3-0.3c0-0.1,0.1-0.3,0.1-0.7h0.3v2.3h-0.3
			c0-0.4,0-0.6-0.1-0.8c-0.1-0.1-0.2-0.2-0.3-0.2c-0.1,0-0.4-0.1-0.7-0.1h-0.8v1.6c0,0.8,0.1,1.3,0.2,1.4c0.1,0.1,0.4,0.2,0.9,0.2
			h0.6c0.4,0,0.7,0,1-0.1c0.3-0.1,0.5-0.3,0.7-0.6S266.6,290.7,266.7,290.2z"/>
		<path class="st1" d="M279,289.1v1.4c0,0.5,0,0.9,0,1c0,0.2,0.1,0.3,0.2,0.4c0.1,0.1,0.4,0.1,0.7,0.1h0.2v0.2h-3.4V292h0.2
			c0.3,0,0.5,0,0.7-0.1c0.1-0.1,0.2-0.2,0.2-0.3c0-0.2,0-0.5,0-1.1v-3.3c0-0.5,0-0.9,0-1c0-0.2-0.1-0.3-0.2-0.3
			c-0.1-0.1-0.4-0.1-0.7-0.1h-0.1v-0.2l0.9,0c0.8,0,1.3,0,1.8,0c0.8,0,1.4,0.1,1.8,0.2c0.4,0.1,0.8,0.3,1,0.6s0.4,0.6,0.4,1.1
			c0,0.4-0.1,0.7-0.3,1c-0.2,0.3-0.4,0.5-0.8,0.6c-0.3,0.1-0.9,0.2-1.8,0.2H279z M279,288.8h0.5c0.4,0,0.8,0,1-0.1
			c0.3-0.1,0.5-0.2,0.7-0.5c0.2-0.2,0.3-0.6,0.3-0.9c0-0.6-0.2-1-0.5-1.2c-0.3-0.3-0.8-0.4-1.5-0.4c-0.3,0-0.4,0-0.6,0V288.8z"/>
		<path class="st1" d="M292.4,288.8c0-1,0.4-1.9,1.2-2.5c0.8-0.6,1.7-0.9,2.9-0.9c1.2,0,2.1,0.3,2.9,0.9c0.8,0.6,1.2,1.5,1.2,2.6
			c0,1-0.4,1.9-1.1,2.5c-0.8,0.6-1.7,1-3,1c-1.2,0-2.2-0.3-2.9-1C292.8,290.8,292.4,289.9,292.4,288.8z M293.7,288.9
			c0,1.1,0.2,1.9,0.7,2.4c0.5,0.5,1.2,0.8,2.2,0.8c0.8,0,1.5-0.3,2-0.8c0.5-0.5,0.7-1.4,0.7-2.4c0-1.1-0.2-1.9-0.7-2.4
			c-0.5-0.6-1.2-0.8-2.1-0.8c-0.9,0-1.6,0.3-2.1,0.8C293.9,287,293.7,287.8,293.7,288.9z"/>
		<path class="st1" d="M310.9,292.2V290h0.3c0.3,1.4,1.1,2.1,2.2,2.1c0.5,0,0.9-0.1,1.2-0.4c0.3-0.3,0.4-0.6,0.4-0.9
			c0-0.3-0.1-0.6-0.4-0.9c-0.3-0.2-0.7-0.5-1.4-0.7c-0.6-0.2-1.1-0.4-1.4-0.6c-0.3-0.2-0.5-0.4-0.7-0.7c-0.2-0.3-0.3-0.6-0.3-0.9
			c0-0.5,0.2-0.9,0.6-1.2c0.4-0.3,0.8-0.5,1.4-0.5c0.3,0,0.6,0,0.9,0.1c0.3,0.1,0.6,0.3,0.9,0.6c0.2-0.2,0.3-0.4,0.3-0.6h0.2v1.8
			H315c-0.1-0.5-0.4-0.9-0.7-1.2c-0.4-0.3-0.8-0.4-1.2-0.4c-0.4,0-0.8,0.1-1,0.3c-0.2,0.2-0.3,0.5-0.3,0.7c0,0.3,0.1,0.6,0.4,0.8
			c0.3,0.2,0.7,0.5,1.4,0.7c0.6,0.3,1.1,0.5,1.4,0.6c0.3,0.2,0.5,0.4,0.7,0.7c0.2,0.3,0.3,0.6,0.3,1c0,0.6-0.2,1-0.6,1.4
			c-0.4,0.4-1,0.5-1.7,0.5c-0.8,0-1.5-0.3-2.1-0.9c-0.1,0.2-0.2,0.4-0.3,0.7H310.9z"/>
		<path class="st1" d="M326,287.1h-0.3l0-1.6h7.3l0,1.6h-0.2c-0.1-0.4-0.2-0.8-0.3-1c-0.1-0.2-0.3-0.3-0.5-0.4
			c-0.2,0-0.5-0.1-0.9-0.1H330v4.8c0,0.5,0,0.9,0,1c0,0.2,0.1,0.3,0.2,0.4c0.1,0.1,0.4,0.1,0.7,0.1h0.4v0.2h-3.7V292h0.4
			c0.3,0,0.5,0,0.7-0.1c0.1-0.1,0.2-0.2,0.2-0.3c0-0.2,0.1-0.5,0.1-1.1v-4.8h-1.1c-0.5,0-0.8,0-1,0.1c-0.2,0-0.3,0.2-0.5,0.4
			S326.1,286.7,326,287.1z"/>
		<path class="st1" d="M349,290.2h0.3l-0.2,2.1h-6.2V292h0.2c0.4,0,0.6,0,0.7-0.1c0.1-0.1,0.2-0.2,0.2-0.3c0-0.1,0-0.5,0-1.1v-3.3
			c0-0.5,0-0.9,0-1c0-0.2-0.1-0.3-0.2-0.3c-0.1-0.1-0.4-0.1-0.7-0.1v-0.2h5.4l0.2,1.7h-0.3c-0.1-0.5-0.3-0.8-0.4-1
			c-0.2-0.2-0.4-0.3-0.6-0.4c-0.2-0.1-0.6-0.1-1.1-0.1h-1v2.8h0.8c0.4,0,0.6,0,0.8-0.1c0.1-0.1,0.2-0.1,0.3-0.3
			c0-0.1,0.1-0.3,0.1-0.7h0.3v2.3H347c0-0.4,0-0.6-0.1-0.8c-0.1-0.1-0.2-0.2-0.3-0.2c-0.1,0-0.4-0.1-0.7-0.1H345v1.6
			c0,0.8,0.1,1.3,0.2,1.4c0.1,0.1,0.4,0.2,0.9,0.2h0.6c0.4,0,0.7,0,1-0.1c0.3-0.1,0.5-0.3,0.7-0.6C348.6,291,348.8,290.7,349,290.2z
			"/>
		<path class="st1" d="M366.9,292.3h-2c-0.4-0.2-0.9-0.8-1.6-1.8c-0.2-0.3-0.5-0.6-0.7-0.9c-0.3-0.3-0.4-0.5-0.5-0.5
			c-0.1-0.1-0.2-0.1-0.4-0.1h-0.3v1.5c0,0.5,0,0.9,0,1c0,0.2,0.1,0.3,0.2,0.4c0.1,0.1,0.4,0.1,0.7,0.1h0.4v0.2h-3.6V292h0.2
			c0.3,0,0.5,0,0.7-0.1c0.1-0.1,0.2-0.2,0.2-0.3c0-0.2,0-0.5,0-1.1v-3.3c0-0.5,0-0.9,0-1c0-0.2-0.1-0.3-0.2-0.3
			c-0.1-0.1-0.4-0.1-0.7-0.1H359v-0.2l1.1,0c0.7,0,1.3,0,1.7,0c0.7,0,1.3,0.1,1.7,0.2c0.4,0.1,0.8,0.3,1.1,0.6
			c0.3,0.3,0.4,0.6,0.4,1c0,0.4-0.2,0.8-0.5,1.1c-0.4,0.3-0.9,0.5-1.6,0.6c0.3,0.1,0.8,0.6,1.5,1.5c0.6,0.7,1,1.1,1.3,1.4
			c0.3,0.2,0.7,0.3,1.2,0.3V292.3z M361.2,288.8c0.3,0,0.6,0,0.9,0c0.3,0,0.6-0.1,0.8-0.1c0.2-0.1,0.4-0.1,0.5-0.3
			c0.1-0.1,0.2-0.3,0.3-0.5c0.1-0.2,0.1-0.4,0.1-0.7c0-0.5-0.1-0.9-0.4-1.1s-0.8-0.4-1.7-0.4c-0.1,0-0.3,0-0.5,0V288.8z"/>
		<path class="st1" d="M376.3,285.7v-0.2h3.4v0.2h-0.2c-0.4,0-0.6,0-0.7,0.1c-0.1,0.1-0.2,0.2-0.2,0.3c0,0.1-0.1,0.5-0.1,1.1v3.3
			c0,0.5,0,0.9,0,1c0,0.2,0.1,0.3,0.2,0.4s0.4,0.1,0.7,0.1h0.2v0.2h-3.4V292h0.2c0.3,0,0.5,0,0.7-0.1c0.1-0.1,0.2-0.2,0.2-0.3
			c0-0.2,0.1-0.5,0.1-1.1v-3.3c0-0.5,0-0.9-0.1-1c0-0.2-0.1-0.3-0.2-0.3c-0.1-0.1-0.4-0.1-0.7-0.1H376.3z M377.5,284.9h-0.2l0.8-1.2
			c0.2-0.2,0.3-0.4,0.4-0.5c0.1-0.1,0.2-0.1,0.3-0.1c0.1,0,0.2,0,0.2,0.1c0.1,0.1,0.1,0.1,0.1,0.2c0,0.1,0,0.2-0.1,0.3
			c-0.1,0.1-0.3,0.3-0.8,0.6L377.5,284.9z"/>
		<path class="st1" d="M394,289.8h-2.9l-0.2,0.4c-0.3,0.6-0.4,1-0.4,1.2c0,0.2,0.1,0.4,0.2,0.5c0.2,0.1,0.3,0.2,0.6,0.2v0.2h-2.2
			V292c0.3,0,0.6-0.2,0.7-0.3c0.2-0.2,0.4-0.5,0.6-1c0,0,0.1-0.2,0.3-0.6l2.2-4.7h0.2l2.5,5.4l0.3,0.7c0.1,0.2,0.2,0.3,0.3,0.4
			c0.1,0.1,0.3,0.1,0.6,0.2v0.2h-3V292c0.4,0,0.6,0,0.7-0.1c0.1,0,0.2-0.1,0.2-0.3c0-0.1-0.1-0.3-0.3-0.7L394,289.8z M393.9,289.5
			l-1.3-2.9l-1.3,2.9H393.9z"/>
	</g>
	<g>
		<path class="st1" d="M205.2,236h0.3c0.5,1.1,0.8,2.6,0.8,4.4c1.2-1.5,2.4-2.6,3.8-3.3c1.4-0.7,2.8-1.1,4.4-1.1
			c1.8,0,3.2,0.4,4.3,1.2c1.1,0.8,1.9,2,2.3,3.5c1.3-1.6,2.7-2.7,4.1-3.5c1.4-0.8,2.8-1.2,4.3-1.2c1.7,0,3.1,0.4,4.2,1.1
			c1.2,0.8,1.9,1.6,2.1,2.6c0.2,1,0.4,2.5,0.4,4.6v6.3c0,2.4,0,3.9,0.1,4.5c0.1,0.5,0.4,0.9,0.8,1.2c0.5,0.3,1.3,0.4,2.6,0.4v1.2
			H229v-1.2c1.1,0,1.9-0.1,2.4-0.4c0.5-0.2,0.8-0.6,0.9-1.1c0.1-0.5,0.2-2,0.2-4.5v-7c0-1.4-0.1-2.5-0.3-3.2
			c-0.2-0.7-0.6-1.3-1.3-1.8c-0.7-0.5-1.6-0.8-2.7-0.8c-1.1,0-2.3,0.4-3.4,1.1c-1.2,0.8-2.3,1.9-3.5,3.4v8.3c0,2.2,0,3.6,0.1,4.2
			c0.1,0.6,0.3,1,0.7,1.3c0.4,0.3,1.2,0.5,2.3,0.5v1.2h-10.5v-1.2c1.2,0,2-0.1,2.5-0.4c0.5-0.2,0.8-0.6,0.9-1.1
			c0.1-0.5,0.2-2,0.2-4.6v-5.8c0-1.8-0.1-3.2-0.2-4c-0.1-0.8-0.6-1.5-1.4-2.1c-0.8-0.6-1.7-0.9-2.8-0.9c-1.1,0-2.2,0.3-3.3,1
			s-2.3,1.7-3.5,3.1v8.7c0,2.3,0,3.7,0.1,4.3c0.1,0.6,0.3,1,0.8,1.3c0.5,0.3,1.3,0.4,2.5,0.4v1.2H199v-1.2c1.2,0,2-0.1,2.4-0.4
			c0.5-0.2,0.8-0.6,0.9-1.1c0.1-0.5,0.2-2,0.2-4.5v-6.3c0-2.4,0-3.9-0.1-4.4s-0.4-0.9-0.8-1.2c-0.5-0.3-1.3-0.4-2.5-0.4v-1.2
			C201.5,236.9,203.6,236.5,205.2,236z"/>
		<path class="st1" d="M270.2,254h1c-0.2,2.9-1.6,4.4-4.4,4.4c-1.2,0-2.1-0.3-2.8-0.9c-0.7-0.6-1.1-1.5-1.4-2.7
			c-1.8,1.2-3.4,2.1-4.8,2.7c-1.5,0.6-2.7,0.9-3.9,0.9c-1.5,0-2.7-0.4-3.8-1.2s-1.6-1.9-1.6-3.3c0-1.8,0.9-3.3,2.7-4.6
			c1.8-1.3,4.2-2.6,7.3-3.8l4.1-1.6v-1c0-1.5-0.1-2.5-0.3-3.2s-0.7-1.2-1.5-1.7c-0.8-0.5-1.9-0.8-3.2-0.8c-2.6,0-4.1,0.9-4.4,2.6
			c-0.3,1.7-1,2.6-2.2,2.6c-1.1,0-1.6-0.5-1.6-1.5c0-1,0.7-2,2.1-3.1c1.4-1.1,3.6-1.7,6.7-1.7c2.2,0,4,0.3,5.2,1
			c1.2,0.7,2,1.5,2.4,2.3s0.6,2.2,0.6,4v8.5c0,2,0.1,3.3,0.3,3.8c0.2,0.6,0.7,0.8,1.4,0.8C269.2,256.5,269.9,255.7,270.2,254z
			 M250.9,227.6c0-0.5,0.2-1,0.6-1.5c0.4-0.4,0.9-0.6,1.6-0.6c0.6,0,1.1,0.2,1.5,0.6c0.4,0.4,0.6,0.9,0.6,1.5c0,0.6-0.2,1.1-0.6,1.5
			c-0.4,0.4-0.9,0.6-1.5,0.6c-0.6,0-1.1-0.2-1.5-0.6C251.1,228.6,250.9,228.1,250.9,227.6z M262.5,245l-2.9,1.1
			c-4.5,1.8-6.8,4-6.8,6.8c0,1.1,0.3,1.9,0.9,2.6c0.6,0.7,1.3,1,2.3,1c0.8,0,1.8-0.3,2.9-0.8c1.1-0.5,2.3-1.3,3.7-2.4V245z
			 M260.6,227.6c0-0.6,0.2-1.1,0.6-1.5c0.4-0.4,0.9-0.6,1.5-0.6s1.1,0.2,1.5,0.6c0.4,0.4,0.6,0.9,0.6,1.5c0,0.6-0.2,1.1-0.6,1.5
			c-0.4,0.4-0.9,0.6-1.5,0.6c-0.6,0-1.1-0.2-1.5-0.6C260.8,228.6,260.6,228.1,260.6,227.6z"/>
		<path class="st1" d="M297.8,252.7h1.2c-1.2,4-4.2,6-9,6c-3.1,0-5.7-1-7.8-3c-2.1-2-3.2-4.7-3.2-8.1c0-3.4,1.1-6.2,3.4-8.4
			c2.3-2.1,5-3.2,8-3.2c1.9,0,3.6,0.4,5.1,1.2c1.6,0.8,2.3,1.8,2.3,2.9c0,0.4-0.1,0.8-0.4,1.2c-0.3,0.4-0.7,0.6-1.3,0.6
			c-1.2,0-1.9-0.7-2.1-2c-0.2-1-0.5-1.7-1-2.1c-0.5-0.4-1.3-0.6-2.7-0.6c-2.4,0-4.1,0.8-5.3,2.4c-1.2,1.6-1.8,4-1.8,7.2
			c0,3.3,0.6,5.9,1.9,7.7c1.3,1.9,3.2,2.8,5.8,2.8C294.6,257.3,296.8,255.8,297.8,252.7z"/>
		<path class="st1" d="M307.6,247.3c0-3.2,1.1-5.9,3.3-8.1c2.2-2.2,4.9-3.2,8.2-3.2c3.3,0,6,1.1,8.2,3.3c2.2,2.2,3.3,4.9,3.3,8
			c0,3.5-1.1,6.3-3.4,8.3c-2.3,2-5,3-8.2,3c-3.2,0-5.9-1-8.1-3.1C308.8,253.5,307.6,250.8,307.6,247.3z M312,247.4
			c0,3.7,0.6,6.3,1.9,7.8c1.2,1.5,3,2.2,5.3,2.2c2.3,0,4.1-0.7,5.3-2.2s1.8-4.1,1.8-7.8c0-3.7-0.6-6.3-1.8-7.9
			c-1.2-1.6-3-2.4-5.3-2.4c-2.3,0-4.1,0.8-5.3,2.3C312.6,241.1,312,243.7,312,247.4z"/>
		<path class="st1" d="M347.1,241.4c0.6-1.5,1.6-2.8,2.9-3.8c1.3-1,2.7-1.5,3.9-1.5c1.2,0,2.1,0.4,2.7,1.1c0.7,0.7,1,1.4,1,2.2
			c0,0.5-0.2,0.9-0.5,1.3c-0.3,0.4-0.8,0.5-1.3,0.5c-0.9,0-1.5-0.6-2-1.9c-0.3-0.9-0.8-1.3-1.4-1.3c-0.8,0-1.7,0.5-2.7,1.5
			c-1.1,1-1.7,2-2,3.1c-0.3,1.1-0.4,2.6-0.4,4.4v3.7c0,2.2,0,3.6,0.1,4.2c0.1,0.6,0.3,1,0.8,1.3c0.4,0.3,1.2,0.5,2.3,0.5h0.7v1.2
			h-11.5v-1.2h0.6c1.1,0,1.8-0.1,2.3-0.4c0.4-0.3,0.7-0.7,0.8-1.2c0.1-0.5,0.1-2,0.1-4.4v-5.9c0-2.3,0-3.7-0.1-4.2
			c-0.1-0.6-0.3-1-0.8-1.3c-0.4-0.3-1.2-0.5-2.3-0.5h-0.6v-1.2c1.7-0.2,3.8-0.7,6.5-1.5C346.7,237.4,347,239.1,347.1,241.4z"/>
		<path class="st1" d="M371.9,236v14.6c0,2.2,0,3.6,0.1,4.2c0.1,0.6,0.3,1,0.8,1.3c0.4,0.3,1.2,0.5,2.3,0.5h0.6v1.2H364v-1.2h0.9
			c1.2,0,2.1-0.2,2.4-0.5c0.4-0.4,0.6-0.8,0.7-1.3c0.1-0.5,0.1-1.9,0.1-4.2v-6.4c0-2.5-0.1-4-0.4-4.5c-0.2-0.5-0.6-0.9-1-1
			c-0.4-0.1-1.1-0.2-2.1-0.2H364v-1.2c3.1-0.3,5.6-0.8,7.3-1.4H371.9z M366.8,225.3c0-0.7,0.3-1.4,0.8-1.9s1.2-0.8,1.9-0.8
			c0.8,0,1.4,0.3,1.9,0.8c0.5,0.5,0.8,1.2,0.8,1.9c0,0.8-0.3,1.4-0.8,1.9c-0.5,0.5-1.2,0.8-1.9,0.8c-0.8,0-1.4-0.3-1.9-0.8
			C367.1,226.7,366.8,226,366.8,225.3z"/>
		<path class="st1" d="M389.5,236h0.7c0.4,1.1,0.6,2.5,0.7,4.3c1.3-1.5,2.6-2.5,4-3.3c1.4-0.7,2.8-1.1,4.4-1.1
			c1.7,0,3.1,0.4,4.2,1.1c1.1,0.7,1.8,1.6,2.1,2.6c0.3,1,0.5,2.5,0.5,4.4v6.6c0,2.4,0,3.9,0.1,4.4c0.1,0.5,0.4,0.9,0.8,1.2
			c0.5,0.3,1.3,0.4,2.6,0.4v1.2h-11.1v-1.2h0.5c1.3,0,2.1-0.2,2.5-0.5c0.4-0.4,0.6-0.8,0.7-1.3c0.1-0.5,0.1-1.9,0.1-4.2v-6.8
			c0-1.7-0.1-2.8-0.3-3.5c-0.2-0.7-0.6-1.3-1.3-1.9c-0.7-0.5-1.7-0.8-2.8-0.8c-1.3,0-2.5,0.4-3.7,1.1c-1.2,0.7-2.3,1.9-3.3,3.3v8.6
			c0,2.4,0,3.9,0.1,4.4c0.1,0.5,0.4,0.9,0.8,1.2c0.5,0.3,1.3,0.4,2.6,0.4v1.2h-10.9v-1.2c1.2,0,2.1-0.1,2.5-0.4
			c0.5-0.2,0.8-0.6,0.9-1.1c0.1-0.5,0.2-2,0.2-4.6v-6.3c0-2.4,0-3.9-0.1-4.4c-0.1-0.5-0.4-0.9-0.8-1.2c-0.5-0.3-1.3-0.4-2.6-0.4
			v-1.2C385.5,237,387.5,236.6,389.5,236z"/>
		<path class="st1" d="M440,254h1c-0.2,2.9-1.6,4.4-4.4,4.4c-1.2,0-2.1-0.3-2.8-0.9c-0.7-0.6-1.1-1.5-1.4-2.7
			c-1.8,1.2-3.4,2.1-4.8,2.7c-1.5,0.6-2.7,0.9-3.9,0.9c-1.5,0-2.7-0.4-3.8-1.2s-1.6-1.9-1.6-3.3c0-1.8,0.9-3.3,2.7-4.6
			c1.8-1.3,4.2-2.6,7.3-3.8l4.1-1.6v-1c0-1.5-0.1-2.5-0.3-3.2s-0.7-1.2-1.5-1.7c-0.8-0.5-1.9-0.8-3.2-0.8c-2.6,0-4.1,0.9-4.4,2.6
			c-0.3,1.7-1,2.6-2.2,2.6c-1.1,0-1.6-0.5-1.6-1.5c0-1,0.7-2,2.1-3.1c1.4-1.1,3.6-1.7,6.7-1.7c2.2,0,4,0.3,5.2,1
			c1.2,0.7,2,1.5,2.4,2.3s0.6,2.2,0.6,4v8.5c0,2,0.1,3.3,0.3,3.8c0.2,0.6,0.7,0.8,1.4,0.8C439,256.5,439.7,255.7,440,254z
			 M432.4,245l-2.9,1.1c-4.5,1.8-6.8,4-6.8,6.8c0,1.1,0.3,1.9,0.9,2.6c0.6,0.7,1.3,1,2.3,1c0.8,0,1.8-0.3,2.9-0.8
			c1.1-0.5,2.3-1.3,3.7-2.4V245z"/>
	</g>
	<path class="st1" d="M295.5,185.3c0,0,5.6,6,9.9,6.4c0,0,2.9-6,9.7-8.3c0,0,0.4-3.4,4.4-3.6c0,0,4.4-0.3,4.4,2.3c0,0-0.4,5-5.5,4.2
		c0,0-2.3-0.2-3.4-1.6c0,0-2.1-0.9-6.8,4.6c0,0-1.4,2-1.8,2.7l4,1.2c0,0,1.3,0.5,3-1.1c0,0,1.6-1.5,1.4-1.7c0,0-1.4-1-1-2.1
		c0,0,0.9-2.2,2.6-0.6c0,0,1.9,2.1-0.7,3.2c0,0-1.1,2.4-2.6,2.7c0,0,4.8,1.2,10.2,0.8c0,0-0.3-3.3,1.3-5.8c0,0-0.8-0.8-2.6,0.1
		c0,0-0.4,2.5-3,1.9c0,0-0.8-0.6-0.3-1.5c0,0,0.6-1.7,3-1.3c0,0,1-0.9,3.5-0.6c0,0,0.9-1.8,1.5-1.9c0,0-0.5-2.5,0.6-4.6
		c0,0-2.6-2.2,0.6-5.3c0,0,2.9-2.5,4.1,0.5c0,0,1.2,4-4,5.2c0,0-0.8,1.2-0.3,3.1c0,0,0.5-0.7,1.1-0.9c0,0-0.2-2.7,3.3-3
		c0,0,2.6-0.4,2.9,0.6c0,0,0.9,1.7-2.8,3.1c0,0-2.4,0.9-2.8-0.5c0,0-3.2,2-3.9,5.6c0,0,2-1.1,2.7-1c0,0,2.2-3.6,7.6-4.6
		c0,0,1-2.1,3.1-1c0,0,1.9,1.2-1.4,2c0,0-1.3,0.2-1.5-0.2c0,0-4.1,0.8-6.1,3.6l0.9,0c0,0,1.8-2.2,4.7-0.8c0,0,2.3,1.3,1.1,2.4
		c-1.1,1-1.7,1.1-3.1,1.3c-0.4,0.1-2.5,0-3-2.3c0,0-4,0.6-5.2,1.7c0,0-0.7,2.2-0.4,3.8c0,0,5.9-0.2,12.5-2.6c0,0,1.4-4.5,5.6-3.2
		c0,0,2.8,1,0,3.6c-0.3,0.2-1.4,1.7-5.1,0.4c0,0-5.1,1.9-6.4,1.9c0,0,3.7,2,7.8,1.8c0,0,1.2-2.8,4.6-1.3c0.3,0.3,2.6,1.1,0.9,3.3
		c0,0-1.5,2.2-4.1,1.3c-0.7-0.3-1.8-0.6-1.8-2.5c0,0-5.8-0.2-8.8-2.3c0,0-1.2,0.3-1.7,0.4l1.5,2.8c0,0,0.6,1,3,1.1l1.7,0.1
		c0,0-0.2-1.6,1.9-1.3c0,0,2.2,0.5,0.6,1.8c0,0-0.8,0.6-2.5,0c0,0-2.1,0.4-3.7-0.4c0,0,1.2,2.5,6.6,4.5l0.3,0.1c0,0,0.8-1.8,3.7-0.9
		c0,0,3.2,0.7,1.7,3.9c0,0-1.1,2.1-4.1,0.1c0,0-1.4-0.7-1.4-2.1c0,0-4.6-1.5-5.9-3.2c0,0-0.3,2.1,2,4.4c0,0,3.1,0.6,2.1,2.7
		c0,0-0.5,0.9-2.2-0.3c0,0-1-0.4-0.6-1.9c0,0-2.8-2.7-2.6-6.5c0,0-2.9-3.6-3.2-4.9c0,0-7.2,1.7-17.4-1.1c0,0,3.5,3.9,5.6,4.5
		c0,0,1-1.4,5-0.8c0,0,2.1-1.3,3.4-1c0,0,3.1,0.4,2.6,2.6c0,0-0.7,1.7-3.4,1.6c0,0-2.2-0.2-2.9-2.3c0,0-3.1-0.6-3.6,0.6l2.2,1.1
		c0,0,3.9-0.7,5.2,2.6c0,0,0.9,3.6-3.1,2.4c0,0-4-1.3-2.5-4.4l-3.8-1.8c0,0-0.5,2.2,2.8,5.3c0,0,3.7,3,5.5,3.2c0,0,1.6-2.8,5.2-0.7
		c0,0,3.4,2.1-0.3,3.6c0,0-2.8,1.4-5.3-2.2c0,0-7.1-3-8.1-5.7c0,0-1.6-2.5-0.8-4.5c0,0-4.1-2.3-4.8-4.3l-4.4-1.4
		c0,0,0.8,3.8,2.7,5.6c0,0,2.8,0.4,2.9,3.6c0,0,0,2.6-2.2,1.7c0,0-3-1.5-1.5-4.9c0,0-3.2-5.1-3.3-6.4c0,0-7.6-3.8-8.1-4.6
		c0,0-0.9-0.3-0.3-1.1L295.5,185.3z"/>
</g>
<g>
	<g>
		<path class="st1" d="M380.7,109.4l-4.6,30.7l5.8-1.1c1.1-0.2,2.1-0.8,2.7-1.7c0.6-0.9,0.9-2,0.7-3.1L380.7,109.4z"/>
		<path class="st1" d="M334.1,67.5l29.4-5.4l1.8,10.1l8.8,1.3l-3.1-17c-0.4-2.3-2.6-3.8-4.9-3.4l-57.6,10.6L334.1,67.5z"/>
		<path class="st1" d="M315.4,142.7l-43.6,8l-2.7-14.9l-0.4-0.1l0.2-1.1l-9.8-53.3l18.3-3.4l1.3-8.8l-25.2,4.6
			c-1.1,0.2-2.1,0.8-2.7,1.7c-0.6,0.9-0.9,2-0.7,3.1l14.3,77.7c0.4,2,2.1,3.4,4.1,3.4c0.3,0,0.5,0,0.8-0.1l71.9-13.2L315.4,142.7z"
			/>
	</g>
	<path class="st1" d="M374.4,155.7c-0.2,0-0.4,0-0.6,0l-105.7-15.8c-1.1-0.2-2.1-0.8-2.8-1.7c-0.7-0.9-0.9-2-0.8-3.1l11.4-76.3
		c0.2-1.1,0.8-2.1,1.7-2.8c0.9-0.7,2-0.9,3.1-0.8L386.4,71c2.3,0.3,3.9,2.5,3.5,4.8l-11.4,76.3C378.3,154.2,376.5,155.7,374.4,155.7
		z M273.5,132.2l97.4,14.6l10.2-68l-97.4-14.6L273.5,132.2z"/>
	<circle class="st1" cx="306" cy="89.2" r="8.3"/>
	<path class="st1" d="M283.7,126.4l81.1,11.5l-5.1-29.7l-8.3,6.6l-13.2-21.5l-19.8,23.1c0,0-16.5-5-26.4,0S283.7,126.4,283.7,126.4z
		"/>
</g>
</svg>
