<?xml version="1.0" encoding="utf-8"?>
<!-- Generator: Adobe Illustrator 22.1.0, SVG Export Plug-In . SVG Version: 6.00 Build 0)  -->
<svg version="1.1" xmlns="http://www.w3.org/2000/svg" xmlns:xlink="http://www.w3.org/1999/xlink" x="0px" y="0px"
	 viewBox="0 0 50 50" style="enable-background:new 0 0 50 50;" xml:space="preserve">
<style type="text/css">
	.st0{fill:#575656;}
	.st1{fill:#23B248;}
	.st2{fill:#F80000;}
</style>
<g id="Capa_1">
	<path class="st0" d="M37.4,10.2h-0.6l-0.1-0.6C36.2,7.5,34.4,6,32.3,6s-3.9,1.5-4.3,3.5l-0.1,0.6h-5.6l-0.1-0.6
		C21.6,7.5,19.9,6,17.7,6s-3.9,1.5-4.3,3.5l-0.2,0.7h-0.7c-4.2,0-7.5,3.4-7.5,7.5v18.7c0,4.2,3.4,7.5,7.5,7.5h24.9
		c4.2,0,7.5-3.4,7.5-7.5V17.7C45,13.6,41.6,10.2,37.4,10.2z M37.5,41.4H12.5c-2.7,0-4.9-2.2-4.9-4.9V25.3h34.8v11.2
		C42.4,39.1,40.2,41.4,37.5,41.4z M19.5,14.6c0,1.1-0.8,1.8-1.8,1.8s-1.8-0.8-1.8-1.8v-4.2c0-1.1,0.8-1.8,1.8-1.8s1.8,0.8,1.8,1.8
		V14.6z M34.1,14.6c0,1.1-0.8,1.8-1.8,1.8s-1.8-0.8-1.8-1.8v-4.2c0-1.1,0.8-1.8,1.8-1.8s1.8,0.8,1.8,1.8V14.6z M12.5,12.8h0.8v1.8
		c0,2.5,1.9,4.4,4.4,4.4s4.4-1.9,4.4-4.4v-1.8h5.7v1.8c0,2.5,1.9,4.4,4.4,4.4s4.4-1.9,4.4-4.4v-1.8h0.8c2.7,0,4.9,2.2,4.9,4.9v4.9
		H7.6v-4.9C7.6,15,9.8,12.8,12.5,12.8z"/>
</g>
<g id="Capa_2">
</g>
</svg>
