<?xml version="1.0" encoding="utf-8"?>
<!-- Generator: Adobe Illustrator 22.1.0, SVG Export Plug-In . SVG Version: 6.00 Build 0)  -->
<svg version="1.1" xmlns="http://www.w3.org/2000/svg" xmlns:xlink="http://www.w3.org/1999/xlink" x="0px" y="0px"
	 viewBox="0 0 150 73.4" style="enable-background:new 0 0 150 73.4;" xml:space="preserve">
<style type="text/css">
	.st0{display:none;}
	.st1{display:inline;fill:none;stroke:#000000;stroke-miterlimit:10;}
	.st2{display:inline;}
	.st3{stroke:#000000;stroke-miterlimit:10;}
	.st4{fill:none;stroke:#000000;stroke-width:0.9882;stroke-miterlimit:10;}
	.st5{stroke:#000000;stroke-width:0.2471;stroke-miterlimit:10;}
	.st6{fill:#4081F2;}
	.st7{fill:#1D1D1B;}
	.st8{fill:#E20D17;}
	.st9{fill:#EA610A;}
	.st10{fill:#F59E00;}
	.st11{fill-rule:evenodd;clip-rule:evenodd;fill:url(#SVGID_1_);}
	.st12{fill-rule:evenodd;clip-rule:evenodd;fill:url(#SVGID_2_);}
	.st13{fill-rule:evenodd;clip-rule:evenodd;fill:url(#SVGID_3_);}
	.st14{fill-rule:evenodd;clip-rule:evenodd;fill:url(#SVGID_4_);}
	.st15{fill-rule:evenodd;clip-rule:evenodd;fill:url(#SVGID_5_);}
	.st16{fill-rule:evenodd;clip-rule:evenodd;fill:#EFA616;}
	.st17{fill-rule:evenodd;clip-rule:evenodd;fill:#FFFFFF;}
	.st18{fill-rule:evenodd;clip-rule:evenodd;fill:#E20613;}
</style>
<g id="Capa_2" class="st0">
</g>
<g id="Capa_1">
	<g>
		<path class="st16" d="M4,8.4C4,6,6,4,8.4,4h133.2c2.4,0,4.4,2,4.4,4.4V65c0,2.4-2,4.4-4.4,4.4H8.4C6,69.4,4,67.5,4,65V8.4L4,8.4z"
			/>
		<polygon class="st17" points="4,10.4 146,10.4 146,63 4,63 4,10.4 		"/>
		<path class="st18" d="M124.3,24.1c-6.5,0-11.8,5.3-11.8,11.8c0,6.5,5.3,11.8,11.8,11.8c6.5,0,11.8-5.3,11.8-11.8
			C136.1,29.4,130.8,24.1,124.3,24.1L124.3,24.1z"/>
		<path class="st18" d="M27.1,24.1c-6.5,0-11.8,5.3-11.8,11.8c0,6.5,5.3,11.8,11.8,11.8c6.5,0,11.8-5.3,11.8-11.8
			C38.9,29.4,33.6,24.1,27.1,24.1L27.1,24.1z"/>
		<path class="st18" d="M123.4,13.7c-10.9-0.3-16,6.7-23.5,15.4l-7,8.1L104,50.6c2.7,4.1-2.4,8.2-5.5,4.4L88.2,42.7l-10,11.6
			C75,58,70,53.9,72.7,49.8l10.9-12.7l-7.1-8.5L81,23l7.3,8.7l6.3-7.3c3.1-3.6,6.2-8.3,10.2-10.7H4v46h23.6
			c10.9,0,15.9-6.5,23.1-15.3l6.8-8.3L46.1,23c-2.7-4,2.2-8.2,5.4-4.5l10.6,12l9.8-11.8c3.1-3.8,8.2,0.2,5.6,4.4L66.9,36l7.3,8.3
			l-4.6,5.5l-7.3-8.2l-6.1,7.4c-3,3.6-6,8.3-10,10.8H146v-46H123.4L123.4,13.7z M45.8,35.9c0,10.3-8.4,18.6-18.6,18.6
			c-10.3,0-18.6-8.4-18.6-18.6c0-10.3,8.4-18.6,18.6-18.6C37.4,17.2,45.8,25.6,45.8,35.9L45.8,35.9z M124.3,54.5
			c-10.3,0-18.6-8.4-18.6-18.6c0-10.3,8.4-18.6,18.6-18.6c10.3,0,18.6,8.4,18.6,18.6C143,46.1,134.6,54.5,124.3,54.5L124.3,54.5z"/>
	</g>
</g>
</svg>
