<?xml version="1.0" encoding="utf-8"?>
<!-- Generator: Adobe Illustrator 22.1.0, SVG Export Plug-In . SVG Version: 6.00 Build 0)  -->
<svg version="1.1" xmlns="http://www.w3.org/2000/svg" xmlns:xlink="http://www.w3.org/1999/xlink" x="0px" y="0px"
	 viewBox="0 0 150 150" style="enable-background:new 0 0 150 150;" xml:space="preserve">
<style type="text/css">
	.st0{display:none;}
	.st1{display:inline;fill:#1B8EE2;}
	.st2{fill:#FFFFFF;}
	.st3{fill:#575656;}
	.st4{display:inline;}
	.st5{stroke:#000000;stroke-miterlimit:10;}
	.st6{display:inline;stroke:#000000;stroke-width:1.7521;stroke-miterlimit:10;}
	.st7{display:inline;stroke:#000000;stroke-width:1.5192;stroke-miterlimit:10;}
	.st8{display:inline;fill:none;stroke:#000000;stroke-width:4.7;stroke-linecap:round;stroke-linejoin:round;stroke-miterlimit:10;}
	.st9{display:inline;stroke:#000000;stroke-width:0.741;stroke-miterlimit:10;}
</style>
<g id="svg5038" inkscape:export-filename="/Users/Danee/Documents/Trabajo 2link/Iconos app/Iconos definitivo/Salir.png" inkscape:export-xdpi="600" inkscape:export-ydpi="600" inkscape:version="0.91 r13725" sodipodi:docname="TPV.svg" xmlns:cc="http://creativecommons.org/ns#" xmlns:dc="http://purl.org/dc/elements/1.1/" xmlns:inkscape="http://www.inkscape.org/namespaces/inkscape" xmlns:rdf="http://www.w3.org/1999/02/22-rdf-syntax-ns#" xmlns:sodipodi="http://sodipodi.sourceforge.net/DTD/sodipodi-0.dtd" xmlns:svg="http://www.w3.org/2000/svg">
	<path class="st2" d="M105.7,67.8l-5.5-10.4c-0.3-0.6-0.8-1-1.4-1.1L75.7,50c-0.4-0.1-0.8-0.1-1.2,0l-23.2,6.2
		c-0.6,0.2-1.1,0.6-1.4,1.1l-5.5,10.4C44,68.3,44,69,44.2,69.6c0.2,0.6,0.6,1.1,1.2,1.3l4.3,2v13.7c0,0.9,0.5,1.7,1.3,2.1l23.1,11.1
		c0.3,0.1,0.7,0.2,1,0.2c0.3,0,0.5,0,0.8-0.1l0.1,0l23.2-11.2c0.8-0.4,1.3-1.2,1.3-2.1V72.9l4.2-2c0.6-0.3,1-0.8,1.2-1.3
		C106,69,106,68.3,105.7,67.8z M71.9,68.3l-3.8,8.4l-18.7-8.8l3.5-6.6L71.9,68.3z M54.2,75.1l14.1,6.6c0.5,0.3,1.2,0.3,1.8,0.1
		c0.6-0.2,1-0.6,1.3-1.2l1.4-3.1v16.7l-18.5-8.9V75.1z M90.6,58.8L75,64.6l-15.6-5.8l15.7-4.2L90.6,58.8z M77.3,77.7l1.3,2.9
		c0.2,0.6,0.7,1,1.3,1.2c0.6,0.2,1.2,0.2,1.8-0.1l14.2-6.7v10.2l-18.5,8.9V77.7z M100.5,67.8l-18.7,8.8l-3.8-8.4l19-7L100.5,67.8z"
		/>
</g>
<g id="Capa_2" class="st0">
	<path class="st7" d="M92.1,85.5l2.9-2.9c0.2-0.2,0.3-0.5,0.3-0.8v-7.5h6.1c0.7,0,1.2-0.5,1.2-1.2v-4.5h1.4c0.7,0,1.2-0.5,1.2-1.2
		V58c0-0.7-0.5-1.2-1.2-1.2H67.1h-5.3H46c-0.7,0-1.2,0.5-1.2,1.2v9.4c0,0.7,0.5,1.2,1.2,1.2h1.4v4.5c0,0.7,0.5,1.2,1.2,1.2h8.5v7.5
		c0,0.3,0.1,0.6,0.3,0.8l2.9,2.9c0.2,0.2,0.5,0.3,0.8,0.3h0.7v1.5l-0.4,0.9c-0.3,0.7-1,1.2-1.7,1.2c-2.3,0-4.3,1.9-4.3,4.3V95
		c-1.7,0.9-2.8,2.7-2.8,4.8v0.2h-1.4c-0.7,0-1.2,0.5-1.2,1.2v5.4c-2.9,0.1-5.2,2.4-5.2,5.3c0,2.9,2.4,5.3,5.3,5.3h49.8
		c2.9,0,5.3-2.4,5.3-5.3c0-2.9-2.3-5.2-5.2-5.3v-5.4c0-0.7-0.5-1.2-1.2-1.2h-1.4v-0.2c0-2.3-1.5-4.3-3.5-5.1
		c0.4-0.7,0.7-1.5,0.7-2.4V92c0-1.1-0.4-2.2-1.2-3l-1.8-1.9v-1.3C91.7,85.8,91.9,85.7,92.1,85.5z M47.2,66.2v-7.1h14.6h5.3h35.7v7.1
		H47.2z M49.8,71.9v-3.3h50.5v3.3H84h-2.3H49.8z M71.5,100H70v-0.2c0-2.3-1.5-4.3-3.5-5.1c0.4-0.7,0.7-1.5,0.7-2.4V92
		c0-1.1-0.4-2.2-1.2-3l-1.8-1.9v-1.3c0.2,0,0.4-0.2,0.6-0.3l2.9-2.9c0.2-0.2,0.3-0.5,0.3-0.8v-7.5h13.7H84h0.5v7.5
		c0,0.3,0.1,0.6,0.3,0.8l2.9,2.9c0.2,0.2,0.5,0.3,0.8,0.3h0.7v1.5l-0.4,0.9c-0.3,0.7-1,1.2-1.7,1.2c-2.3,0-4.3,1.9-4.3,4.3V95
		c-1.7,0.9-2.8,2.7-2.8,4.8v0.2h-1.4c-0.7,0-1.2,0.5-1.2,1.2v5.4h-4.7v-5.4C72.6,100.5,72.1,100,71.5,100z M61.6,83.5l-2.2-2.2v-7
		h6.1v7l-2.2,2.2H61.6z M57.8,93.6c0-1,0.8-1.9,1.9-1.9c1.5,0,2.9-0.8,3.7-2.1l1,1c0.4,0.4,0.5,0.8,0.5,1.3v0.3c0,1.1-0.9,2-2,2
		h-4.8c-0.1,0-0.2,0-0.3,0V93.6z M54.9,99.8c0-1.7,1.4-3.1,3.1-3.1h6.5c1.7,0,3.1,1.4,3.1,3.1v0.2H54.9V99.8z M52.4,102.3h17.9v4.2
		H52.4V102.3z M99.9,108.9c1.6,0,2.9,1.3,2.9,2.9c0,1.6-1.3,2.9-2.9,2.9H50.1c-1.6,0-2.9-1.3-2.9-2.9c0-1.6,1.3-2.9,2.9-2.9H99.9z
		 M97.6,102.3v4.2H79.7v-4.2H97.6z M95.1,99.8v0.2H82.3v-0.2c0-1.7,1.4-3.1,3.1-3.1h6.5C93.7,96.7,95.1,98.1,95.1,99.8z M91.7,90.6
		c0.4,0.4,0.5,0.8,0.5,1.3v0.3c0,1.1-0.9,2-2,2h-4.8c-0.1,0-0.2,0-0.3,0v-0.7c0-1,0.8-1.9,1.9-1.9c1.5,0,2.9-0.8,3.7-2.1L91.7,90.6z
		 M90.8,83.5H89l-2.2-2.2v-7h6.1v7L90.8,83.5z"/>
</g>
</svg>
