<?xml version="1.0" encoding="utf-8"?>
<!-- Generator: Adobe Illustrator 22.1.0, SVG Export Plug-In . SVG Version: 6.00 Build 0)  -->
<svg version="1.1" id="Capa_1" xmlns="http://www.w3.org/2000/svg" xmlns:xlink="http://www.w3.org/1999/xlink" x="0px" y="0px"
	 viewBox="0 0 50 50" style="enable-background:new 0 0 50 50;" xml:space="preserve">
<style type="text/css">
	.st0{fill:#FFFFFF;}
	.st1{fill:#696767;}
	.st2{fill:#FFB600;}
	.st3{fill:#23B248;}
	.st4{fill:#050505;}
	.st5{fill:none;stroke:#000000;stroke-width:1.0761;stroke-linecap:round;stroke-linejoin:round;stroke-miterlimit:10;}
	.st6{fill:#F80000;}
	.st7{fill:#FFB600;stroke:#FFB600;stroke-miterlimit:10;}
	.st8{fill:none;stroke:#000000;stroke-width:1.75;stroke-linecap:round;stroke-linejoin:round;stroke-miterlimit:10;}
	.st9{fill:none;stroke:#23B248;stroke-width:1.3;stroke-miterlimit:10;}
	.st10{fill:#23B248;stroke:#23B248;stroke-width:0.15;stroke-miterlimit:10;}
</style>
<g>
	<path class="st2" d="M25,45C14,45,5,36,5,25S14,5,25,5s20,9,20,20S36,45,25,45z M25,6.8C15,6.8,6.8,15,6.8,25S15,43.2,25,43.2
		S43.2,35,43.2,25S35,6.8,25,6.8z"/>
	<path class="st2" d="M30.6,31.5c-0.2,0-0.4-0.1-0.6-0.3l-5.6-5.6c-0.2-0.2-0.3-0.4-0.3-0.6V13.4c0-0.5,0.4-0.9,0.9-0.9
		s0.9,0.4,0.9,0.9v11.2l5.3,5.3c0.3,0.3,0.3,0.9,0,1.2C31,31.4,30.8,31.5,30.6,31.5z"/>
</g>
</svg>
