<?xml version="1.0" encoding="utf-8"?>
<!-- Generator: Adobe Illustrator 22.0.1, SVG Export Plug-In . SVG Version: 6.00 Build 0)  -->
<svg version="1.1" xmlns="http://www.w3.org/2000/svg" xmlns:xlink="http://www.w3.org/1999/xlink" x="0px" y="0px"
	 viewBox="0 0 600 600" style="enable-background:new 0 0 600 600;" xml:space="preserve">
<style type="text/css">
	.st0{display:none;}
	.st1{display:inline;}
	.st2{fill:none;stroke:#000000;stroke-width:32;stroke-linecap:round;stroke-linejoin:round;stroke-miterlimit:10;}
	.st3{fill:none;stroke:#000000;stroke-width:20;stroke-linecap:round;stroke-linejoin:round;stroke-miterlimit:10;}
	.st4{fill:none;stroke:#000000;stroke-width:18.0278;stroke-linecap:round;stroke-linejoin:round;stroke-miterlimit:10;}
	.st5{fill:none;stroke:#000000;stroke-width:30.3079;stroke-linecap:round;stroke-linejoin:round;stroke-miterlimit:10;}
	.st6{fill:none;stroke:#000000;stroke-width:31.8275;stroke-linecap:round;stroke-linejoin:round;stroke-miterlimit:10;}
	.st7{fill:none;stroke:#FFFFFF;stroke-width:50;stroke-linecap:round;stroke-linejoin:round;stroke-miterlimit:10;}
	.st8{fill:none;stroke:#000000;stroke-width:31;stroke-linecap:round;stroke-linejoin:round;stroke-miterlimit:10;}
	.st9{fill:none;stroke:#000000;stroke-width:22.7898;stroke-linecap:round;stroke-linejoin:round;stroke-miterlimit:10;}
	.st10{fill:none;stroke:#000000;stroke-width:32;stroke-linecap:round;stroke-linejoin:round;}
</style>
<g id="Capa_1" class="st0">
	<g class="st1">
		<path d="M300,79.7c29.8,0,58.6,5.8,85.7,17.3c26.2,11.1,49.8,27,70,47.2c20.2,20.2,36.1,43.8,47.2,70c11.5,27.1,17.3,56,17.3,85.7
			s-5.8,58.6-17.3,85.7c-11.1,26.2-27,49.8-47.2,70c-20.2,20.2-43.8,36.1-70,47.2c-27.1,11.5-56,17.3-85.7,17.3s-58.6-5.8-85.7-17.3
			c-26.2-11.1-49.8-27-70-47.2c-20.2-20.2-36.1-43.8-47.2-70c-11.5-27.1-17.3-56-17.3-85.7s5.8-58.6,17.3-85.7
			c11.1-26.2,27-49.8,47.2-70c20.2-20.2,43.8-36.1,70-47.2C241.4,85.6,270.2,79.7,300,79.7 M300,47.3
			C160.4,47.3,47.3,160.4,47.3,300S160.4,552.8,300,552.8S552.8,439.6,552.8,300S439.6,47.3,300,47.3L300,47.3z"/>
	</g>
	<g class="st1">
		<g>
			<path d="M389.4,446.7c19.8,0,37.7,10.1,48.1,26c-12.2,9.8-25.5,18.2-39.5,25.2c-30.6,15.2-63.6,22.9-98,22.9s-67.4-7.7-98-22.9
				c-14.1-7-27.3-15.4-39.5-25.2c10.4-15.9,28.3-26,48.1-26H389.4 M389.4,414.7H210.6c-41.5,0-76.5,28.3-86.5,66.7
				c18.7,18.1,40.2,33.4,63.8,45.1c33.8,16.8,71.9,26.2,112.2,26.2c40.3,0,78.4-9.5,112.2-26.2c23.6-11.7,45.1-27,63.8-45.1
				C465.9,443,431,414.7,389.4,414.7L389.4,414.7z"/>
		</g>
		<g>
			<path d="M300,245.5c31.7,0,57.4,25.8,57.4,57.4c0,31.7-25.8,57.4-57.4,57.4c-31.7,0-57.4-25.8-57.4-57.4
				C242.6,271.2,268.3,245.5,300,245.5 M300,213.5c-49.4,0-89.4,40-89.4,89.4c0,49.4,40,89.4,89.4,89.4c49.4,0,89.4-40,89.4-89.4
				C389.4,253.5,349.4,213.5,300,213.5L300,213.5z"/>
		</g>
	</g>
</g>
<g id="Capa_1_copia">
	<g>
		<path d="M433.7,514.5c6.9-4.3,13.6-8.9,20-13.9c0,0,0.1-0.1,0.1-0.1c6.4-4.9,12.6-10.1,18.5-15.6c0.1-0.1,0.1-0.1,0.2-0.2
			c49.4-46.1,80.3-111.8,80.3-184.7c0-139.6-113.2-252.8-252.8-252.8S47.3,160.4,47.3,300c0,72.9,30.9,138.6,80.3,184.7
			c0.1,0.1,0.1,0.1,0.2,0.2c5.9,5.5,12.1,10.7,18.5,15.6c0,0,0.1,0.1,0.1,0.1c6.4,4.9,13.1,9.6,20,13.9c0,0,0,0,0,0
			c16.9,10.5,35,19.1,54.2,25.5c0.1,0,0.2,0.1,0.3,0.1c2.1,0.7,4.1,1.3,6.2,2c0.3,0.1,0.6,0.2,0.9,0.3c1.9,0.6,3.9,1.1,5.8,1.6
			c0.4,0.1,0.7,0.2,1.1,0.3c2,0.5,3.9,1,5.9,1.5c0.3,0.1,0.6,0.1,0.9,0.2c6.8,1.6,13.7,2.9,20.8,4c0.6,0.1,1.2,0.2,1.8,0.2
			c1.7,0.2,3.4,0.5,5.1,0.7c0.8,0.1,1.6,0.2,2.3,0.3c1.5,0.2,3.1,0.3,4.6,0.5c0.8,0.1,1.7,0.2,2.5,0.2c1.5,0.1,3,0.2,4.5,0.3
			c0.9,0.1,1.7,0.1,2.6,0.2c1.6,0.1,3.2,0.2,4.8,0.2c0.7,0,1.5,0.1,2.2,0.1c2.4,0.1,4.7,0.1,7.1,0.1s4.7,0,7.1-0.1
			c0.7,0,1.5-0.1,2.2-0.1c1.6-0.1,3.2-0.1,4.8-0.2c0.9,0,1.7-0.1,2.6-0.2c1.5-0.1,3-0.2,4.5-0.3c0.9-0.1,1.7-0.1,2.6-0.2
			c1.5-0.1,3.1-0.3,4.6-0.5c0.8-0.1,1.6-0.2,2.3-0.3c1.7-0.2,3.4-0.4,5.1-0.7c0.6-0.1,1.2-0.2,1.8-0.2c7-1,13.9-2.4,20.8-4
			c0.3-0.1,0.6-0.1,0.9-0.2c2-0.5,4-1,5.9-1.5c0.4-0.1,0.7-0.2,1.1-0.3c1.9-0.5,3.9-1.1,5.8-1.6c0.3-0.1,0.6-0.2,0.9-0.3
			c2.1-0.6,4.2-1.3,6.2-2c0.1,0,0.2-0.1,0.3-0.1c11.3-3.7,22.3-8.3,32.8-13.5c0,0,0,0,0,0c0,0,0,0,0,0
			C419.6,522.9,426.7,518.9,433.7,514.5C433.7,514.5,433.7,514.5,433.7,514.5z M162.7,472.3c10.4-15.6,28.2-25.6,47.8-25.6h178.9
			c19.6,0,37.4,9.9,47.8,25.6c-15.7,12.5-32.9,22.8-51.5,30.7c-27.1,11.5-56,17.3-85.7,17.3s-58.6-5.8-85.7-17.3
			C195.7,495.1,178.4,484.8,162.7,472.3z M97,385.7c-11.5-27.1-17.3-56-17.3-85.7c0-29.8,5.8-58.6,17.3-85.7
			c11.1-26.2,27-49.8,47.2-70c20.2-20.2,43.8-36.1,70-47.2c27.1-11.5,56-17.3,85.7-17.3s58.6,5.8,85.7,17.3
			c26.2,11.1,49.8,27,70,47.2c20.2,20.2,36.1,43.8,47.2,70c11.5,27.1,17.3,56,17.3,85.7c0,29.8-5.8,58.6-17.3,85.7
			c-10.1,24-24.3,45.7-42.1,64.7c-16.3-21.7-42.3-35.7-71.5-35.7H210.6c-29.2,0-55.1,14-71.5,35.7C121.3,431.4,107.2,409.7,97,385.7
			z"/>
		<path d="M300,392.4c49.4,0,89.4-40,89.4-89.4c0-49.4-40-89.4-89.4-89.4c-49.4,0-89.4,40-89.4,89.4
			C210.6,352.3,250.6,392.4,300,392.4z M300,245.5c31.7,0,57.4,25.8,57.4,57.4c0,31.7-25.8,57.4-57.4,57.4
			c-31.7,0-57.4-25.8-57.4-57.4C242.6,271.2,268.3,245.5,300,245.5z"/>
	</g>
</g>
</svg>
