<?xml version="1.0" encoding="utf-8"?>
<!-- Generator: Adobe Illustrator 22.1.0, SVG Export Plug-In . SVG Version: 6.00 Build 0)  -->
<svg version="1.1" xmlns="http://www.w3.org/2000/svg" xmlns:xlink="http://www.w3.org/1999/xlink" x="0px" y="0px"
	 viewBox="0 0 50 50" style="enable-background:new 0 0 50 50;" xml:space="preserve">
<style type="text/css">
	.st0{fill:url(#SVGID_1_);}
	.st1{fill:url(#SVGID_2_);}
	.st2{fill:#EACA44;}
	.st3{fill:#23B248;}
	.st4{fill:#575656;}
	.st5{fill:#FFFFFF;}
	.st6{fill:#F80000;}
	.st7{fill:none;stroke:#575656;stroke-miterlimit:10;}
	.st8{fill:#AFADAD;}
	.st9{fill:#B5EEB1;}
	.st10{fill:#4ED944;}
</style>
<g id="Capa_1">
	<g id="rkN3Tt_1_">
		<g>
			<path class="st3" d="M31.4,15.5c0.6,0,1.5,1.1,1.9,1.5c0.6,0.7,1.1,1.4,1.3,2.3c0,0.6,0,1.1,0,1.7c-0.8,4.1-3.2,7.1-6.3,9.8
				c-1.6,1.4-3.3,2.5-5.3,3.2c-1.2,0.4-2.5,0.6-3.8,0.4c-0.7-0.1-1.3-0.4-1.8-0.9c-0.4-0.4-0.8-0.8-1.2-1.2
				c-0.3-0.3-0.5-0.6-0.6-0.9c0-0.3,0-0.7,0-1c0.1-0.2,0.2-0.5,0.4-0.7c1-1,2-2,3-3c0.8-0.8,1.9-0.7,2.7,0.1
				c0.5,0.4,0.9,0.9,1.3,1.3c0.2,0.2,0.3,0.2,0.5,0c1.8-1.3,3.3-2.8,4.6-4.6c0.1-0.2,0.1-0.3,0-0.5c-0.4-0.4-0.8-0.8-1.3-1.3
				c-0.9-0.9-1-2,0-3c0.8-0.8,1.6-1.6,2.4-2.4c0.3-0.4,0.7-0.7,1.2-0.8C30.7,15.5,31,15.5,31.4,15.5z"/>
		</g>
	</g>
	<g>
		<g>
			<path class="st3" d="M25,45C14,45,5,36,5,25S14,5,25,5c11,0,20,9,20,20C45,36,36.1,45,25,45z M25,6.8C15,6.8,6.8,15,6.8,25
				c0,10,8.2,18.2,18.2,18.2c10,0,18.2-8.2,18.2-18.2C43.2,15,35.1,6.8,25,6.8z"/>
		</g>
	</g>
</g>
<g id="Capa_2">
</g>
<g id="Capa_3">
</g>
</svg>
