<?xml version="1.0" encoding="utf-8"?>
<!-- Generator: Adobe Illustrator 22.1.0, SVG Export Plug-In . SVG Version: 6.00 Build 0)  -->
<svg version="1.1" xmlns="http://www.w3.org/2000/svg" xmlns:xlink="http://www.w3.org/1999/xlink" x="0px" y="0px"
	 viewBox="0 0 50 50" style="enable-background:new 0 0 50 50;" xml:space="preserve">
<style type="text/css">
	.st0{fill:url(#SVGID_1_);}
	.st1{fill:url(#SVGID_2_);}
	.st2{fill:#EACA44;}
	.st3{fill:#23B248;}
	.st4{fill:#575656;}
	.st5{fill:#FFFFFF;}
	.st6{fill:#F80000;}
	.st7{fill:none;stroke:#575656;stroke-miterlimit:10;}
	.st8{fill:#AFADAD;}
	.st9{fill:#B5EEB1;}
	.st10{fill:#4ED944;}
	.st11{fill:none;stroke:#575656;stroke-width:2;stroke-miterlimit:10;}
	.st12{fill:none;stroke:#575656;stroke-width:1.5;stroke-miterlimit:10;}
	.st13{fill:#575656;stroke:#575656;stroke-miterlimit:10;}
	.st14{fill:none;stroke:#575656;stroke-width:2;stroke-linecap:round;stroke-linejoin:round;stroke-miterlimit:10;}
</style>
<g id="Capa_1">
</g>
<g id="Capa_2">
</g>
<g id="Capa_3">
	<g>
		<path class="st11" d="M36.1,21h-1.2v-4.3c0-5.5-4.4-9.9-9.9-9.9c-5.5,0-9.9,4.4-9.9,9.9V21h-1.2c-1.2,0-2.2,1-2.2,2.2V41
			c0,1.2,1,2.2,2.2,2.2h22.2c1.2,0,2.2-1,2.2-2.2V23.2C38.3,22,37.3,21,36.1,21z M29.5,20.8h-9.1v-4.1c0-2.5,2-4.5,4.5-4.5
			s4.5,2,4.5,4.5L29.5,20.8L29.5,20.8z"/>
		<path class="st12" d="M27,32v3.4c0,1.1-0.9,2-2,2s-2-0.9-2-2V32c-0.8-0.6-1.2-1.5-1.2-2.6c0-1.8,1.5-3.3,3.3-3.3s3.3,1.5,3.3,3.3
			C28.3,30.5,27.8,31.4,27,32z"/>
	</g>
</g>
</svg>
