<?xml version="1.0" encoding="utf-8"?>
<!-- Generator: Adobe Illustrator 22.1.0, SVG Export Plug-In . SVG Version: 6.00 Build 0)  -->
<svg version="1.1" xmlns="http://www.w3.org/2000/svg" xmlns:xlink="http://www.w3.org/1999/xlink" x="0px" y="0px"
	 viewBox="0 0 150 150" style="enable-background:new 0 0 150 150;" xml:space="preserve">
<style type="text/css">
	.st0{display:none;}
	.st1{display:inline;fill:#1B8EE2;}
	.st2{fill:#FFFFFF;}
	.st3{fill:#575656;}
	.st4{display:inline;}
	.st5{stroke:#000000;stroke-miterlimit:10;}
	.st6{display:inline;stroke:#000000;stroke-width:1.7521;stroke-miterlimit:10;}
	.st7{display:inline;stroke:#000000;stroke-width:1.5192;stroke-miterlimit:10;}
	.st8{display:inline;fill:none;stroke:#000000;stroke-width:4.7;stroke-linecap:round;stroke-linejoin:round;stroke-miterlimit:10;}
	.st9{display:inline;stroke:#000000;stroke-width:0.741;stroke-miterlimit:10;}
</style>
<g id="svg5038" inkscape:export-filename="/Users/Danee/Documents/Trabajo 2link/Iconos app/Iconos definitivo/Salir.png" inkscape:export-xdpi="600" inkscape:export-ydpi="600" inkscape:version="0.91 r13725" sodipodi:docname="TPV.svg" xmlns:cc="http://creativecommons.org/ns#" xmlns:dc="http://purl.org/dc/elements/1.1/" xmlns:inkscape="http://www.inkscape.org/namespaces/inkscape" xmlns:rdf="http://www.w3.org/1999/02/22-rdf-syntax-ns#" xmlns:sodipodi="http://sodipodi.sourceforge.net/DTD/sodipodi-0.dtd" xmlns:svg="http://www.w3.org/2000/svg">
	<g>
		<path class="st2" d="M100.7,86.3L100.7,86.3l-0.1-3.3c0-0.6-0.4-1-1-1h-1.1v-7.3c0-1.9-1.3-3.5-3.1-4.1l-3.4-1v-1.5
			c0.7-0.6,1.1-1.4,1.1-2.4v-3.2h1.1c0.6,0,1-0.4,1-1s-0.4-1-1-1h-0.1v-0.1c0-3.2-2.3-5.8-5.3-6.3v-0.1c0-0.6-0.4-1-1-1s-1,0.4-1,1
			v0.1c-3,0.5-5.3,3.1-5.3,6.3v0.1h-0.1c-0.6,0-1,0.4-1,1s0.4,1,1,1h1.1v3.2c0,0.9,0.4,1.8,1.1,2.4v1.5l-3.4,1
			c-1.8,0.5-3.1,2.2-3.1,4.1v11.6H76v-5.4c0-0.6-0.4-1-1-1h-2.2v-5.1c0-1.9-1.3-3.5-3.1-4.1l-3.4-1v-1.5c0.7-0.6,1.1-1.4,1.1-2.4
			v-3.2h1.1c0.6,0,1-0.4,1-1s-0.4-1-1-1h-0.1v-0.1c0-3.2-2.3-5.8-5.3-6.3v-0.1c0-0.6-0.4-1-1-1s-1,0.4-1,1v0.1
			c-3,0.5-5.3,3.1-5.3,6.3v0.1h-0.1c-0.6,0-1,0.4-1,1s0.4,1,1,1h1.1v3.2c0,0.9,0.4,1.8,1.1,2.4v1.5l-3.4,1c-1.8,0.5-3.1,2.2-3.1,4.1
			v11.6h-2.2c-2.9,0-5.3,2.4-5.3,5.3s2.4,5.3,5.3,5.3h51.3c2.9,0,5.3-2.4,5.3-5.3S103.6,86.3,100.7,86.3z M98.6,86.3H87.8V84h10.8
			V86.3z M83.5,86.3v-9.7c0,0,0-0.1,0.1-0.1h8.6c0,0,0.1,0,0.1,0.1V82h-5.4c-0.6,0-1,0.4-1,1v3.3H83.5z M85.7,69.6
			c0.5,0.3,1.1,0.5,1.7,0.5h0.8c0.6,0,1.2-0.2,1.7-0.5l0,0v0.9c0,0,0,0,0,0v0.3c-0.2,0.2-0.9,0.5-2.2,0.5s-2-0.4-2.2-0.5L85.7,69.6
			L85.7,69.6z M84.6,74.5v-2c0.7,0.5,1.9,0.8,3.3,0.8s2.5-0.3,3.3-0.8v2H84.6z M96.5,74.7V82h-2.3v-5.4c0-0.8-0.4-1.5-1.1-1.8v-2.7
			l1.7,0.5C95.8,72.9,96.5,73.8,96.5,74.7z M92.2,60.6L92.2,60.6L92.2,60.6l-3.3,0.1v-4.3C90.8,56.8,92.2,58.5,92.2,60.6z
			 M83.5,60.6c0-2.1,1.4-3.8,3.3-4.2v4.3L83.5,60.6L83.5,60.6L83.5,60.6z M91.1,62.6v3.2c0,0.4-0.2,0.7-0.5,0.9l-1.7,1.1
			c-0.2,0.1-0.4,0.2-0.6,0.2h-0.8c-0.2,0-0.4-0.1-0.6-0.2l-1.7-1.1c-0.3-0.2-0.5-0.6-0.5-0.9v-3.2H91.1z M79.2,74.7
			c0-1,0.7-1.9,1.6-2.1l1.7-0.5v2.7c-0.6,0.4-1.1,1-1.1,1.8v9.7h-2.3V74.7z M74,86.3H63.2v-4.4H74V86.3z M57.8,86.3v-9.7
			c0,0,0-0.1,0.1-0.1h8.6c0,0,0.1,0,0.1,0.1v3.3h-4.3c-0.6,0-1,0.4-1,1v5.4H57.8z M60,69.6c0.5,0.3,1.1,0.5,1.7,0.5h0.8
			c0.6,0,1.2-0.2,1.7-0.5l0,0v0.9c0,0,0,0,0,0v0.3c-0.2,0.2-0.9,0.5-2.2,0.5c-1.3,0-2-0.4-2.2-0.5L60,69.6L60,69.6z M58.9,74.5v-2
			c0.7,0.5,1.9,0.8,3.3,0.8c1.4,0,2.5-0.3,3.3-0.8v2H58.9z M70.8,74.7v5.1h-2.3v-3.3c0-0.8-0.4-1.5-1.1-1.8v-2.7l1.7,0.5
			C70.1,72.9,70.8,73.8,70.8,74.7z M66.5,60.6L66.5,60.6L66.5,60.6l-3.3,0.1v-4.3C65.1,56.8,66.5,58.5,66.5,60.6z M57.8,60.6
			c0-2.1,1.4-3.8,3.3-4.2v4.3L57.8,60.6L57.8,60.6L57.8,60.6z M65.4,62.6v3.2c0,0.4-0.2,0.7-0.5,0.9l-1.7,1.1
			c-0.2,0.1-0.4,0.2-0.6,0.2h-0.8c-0.2,0-0.4-0.1-0.6-0.2l-1.7-1.1c-0.3-0.2-0.5-0.6-0.5-0.9v-3.2H65.4z M53.5,74.7
			c0-1,0.7-1.9,1.6-2.1l1.7-0.5v2.7c-0.6,0.4-1.1,1-1.1,1.8v9.7h-2.3V74.7z M100.7,94.9H49.3c-1.8,0-3.3-1.5-3.3-3.3
			s1.5-3.3,3.3-3.3h51.3c1.8,0,3.3,1.5,3.3,3.3S102.5,94.9,100.7,94.9z"/>
		<path class="st2" d="M75,89.6c-1.1,0-1.9,0.9-1.9,1.9s0.9,1.9,1.9,1.9s1.9-0.9,1.9-1.9S76.1,89.6,75,89.6z"/>
		<path class="st2" d="M68.6,89.6c-1.1,0-1.9,0.9-1.9,1.9s0.9,1.9,1.9,1.9c1.1,0,1.9-0.9,1.9-1.9S69.7,89.6,68.6,89.6z"/>
		<path class="st2" d="M62.2,89.6c-1.1,0-1.9,0.9-1.9,1.9s0.9,1.9,1.9,1.9c1.1,0,1.9-0.9,1.9-1.9S63.2,89.6,62.2,89.6z"/>
		<path class="st2" d="M49.3,89.6c-1.1,0-1.9,0.9-1.9,1.9s0.9,1.9,1.9,1.9c1.1,0,1.9-0.9,1.9-1.9S50.4,89.6,49.3,89.6z"/>
		<path class="st2" d="M55.7,89.6c-1.1,0-1.9,0.9-1.9,1.9s0.9,1.9,1.9,1.9s1.9-0.9,1.9-1.9S56.8,89.6,55.7,89.6z"/>
		<path class="st2" d="M100.7,89.6c-1.1,0-1.9,0.9-1.9,1.9s0.9,1.9,1.9,1.9c1.1,0,1.9-0.9,1.9-1.9S101.7,89.6,100.7,89.6z"/>
		<path class="st2" d="M94.3,89.6c-1.1,0-1.9,0.9-1.9,1.9s0.9,1.9,1.9,1.9s1.9-0.9,1.9-1.9S95.3,89.6,94.3,89.6z"/>
		<path class="st2" d="M81.4,89.6c-1.1,0-1.9,0.9-1.9,1.9s0.9,1.9,1.9,1.9c1.1,0,1.9-0.9,1.9-1.9S82.5,89.6,81.4,89.6z"/>
		<path class="st2" d="M87.8,89.6c-1.1,0-1.9,0.9-1.9,1.9s0.9,1.9,1.9,1.9c1.1,0,1.9-0.9,1.9-1.9S88.9,89.6,87.8,89.6z"/>
	</g>
</g>
<g id="Capa_2" class="st0">
</g>
</svg>
