<?xml version="1.0" encoding="utf-8"?>
<!-- Generator: Adobe Illustrator 22.1.0, SVG Export Plug-In . SVG Version: 6.00 Build 0)  -->
<svg version="1.1" xmlns="http://www.w3.org/2000/svg" xmlns:xlink="http://www.w3.org/1999/xlink" x="0px" y="0px"
	 viewBox="0 0 50 50" style="enable-background:new 0 0 50 50;" xml:space="preserve">
<style type="text/css">
	.st0{fill:#575656;}
	.st1{fill:#23B248;}
	.st2{fill:#F80000;}
</style>
<g id="Capa_1">
	<path class="st0" d="M25,5C14,5,5,14,5,25s9,20,20,20c11,0,20-9,20-20S36,5,25,5z M25,15.2c3.5,0,6.4,2.9,6.4,6.4S28.5,28,25,28
		c-3.5,0-6.4-2.9-6.4-6.4S21.5,15.2,25,15.2z M25,30.6c4.7,0,9.2,2.5,12.7,7.2C34.3,41.2,29.8,43,25,43s-9.3-1.9-12.7-5.2
		C15.8,33.1,20.3,30.6,25,30.6z M33.4,21.6c0-4.6-3.8-8.4-8.4-8.4c-4.6,0-8.4,3.8-8.4,8.4c0,3.1,1.8,6,4.6,7.5
		c-3.8,1-7.3,3.4-10.2,7.1c-2.6-3.2-4-7.2-4-11.3c0-9.9,8.1-18,18-18c9.9,0,18,8.1,18,18.1c0,4.1-1.4,8-4,11.3
		c-2.8-3.7-6.3-6.2-10.2-7.2C31.6,27.7,33.4,24.8,33.4,21.6z"/>
</g>
<g id="Capa_2">
</g>
</svg>
