<?xml version="1.0" encoding="utf-8"?>
<!-- Generator: Adobe Illustrator 22.1.0, SVG Export Plug-In . SVG Version: 6.00 Build 0)  -->
<svg version="1.1" xmlns="http://www.w3.org/2000/svg" xmlns:xlink="http://www.w3.org/1999/xlink" x="0px" y="0px"
	 viewBox="0 0 50 50" style="enable-background:new 0 0 50 50;" xml:space="preserve">
<style type="text/css">
	.st0{fill:#575656;}
	.st1{fill:#23B248;}
	.st2{fill:#F80000;}
</style>
<g id="Capa_1">
	<path class="st0" d="M43.2,40.5c-1.6-1.6-3-3-5.6-5.6l-0.8-0.8c-1.9-1.9-3-3-4.2-4.2c2.2-2.6,3.5-6,3.5-9.7
		C36.1,11.8,29.3,5,20.9,5C12.5,5,5.7,11.8,5.7,20.2s6.8,15.2,15.2,15.2c3,0,5.7-0.9,8.1-2.3c0.9,0.9,1.8,1.8,3.5,3.5l0.1,0.1
		c0.7,0.7,1.1,1.1,1.6,1.6c0.4,0.4,0.8,0.8,1.5,1.5l0.1,0.1c2,1.9,2.9,2.8,3.9,4c1.2,1.3,2.5,1.6,3.8,0.5
		C44.8,43.1,44.4,41.7,43.2,40.5z M9.5,20.2c0-6.3,5.1-11.4,11.4-11.4c6.3,0,11.4,5.1,11.4,11.4c0,6.3-5.1,11.4-11.4,11.4
		C14.6,31.6,9.5,26.5,9.5,20.2z"/>
</g>
<g id="Capa_2">
</g>
</svg>
