<?xml version="1.0" encoding="utf-8"?>
<!-- Generator: Adobe Illustrator 22.1.0, SVG Export Plug-In . SVG Version: 6.00 Build 0)  -->
<svg version="1.1" xmlns="http://www.w3.org/2000/svg" xmlns:xlink="http://www.w3.org/1999/xlink" x="0px" y="0px"
	 viewBox="0 0 50 50" style="enable-background:new 0 0 50 50;" xml:space="preserve">
<style type="text/css">
	.st0{fill:#575656;}
	.st1{fill:#23B248;}
	.st2{fill:#F80000;}
</style>
<g id="Capa_1">
	<g>
		<path class="st0" d="M36.8,5H15.2c-1.9,0-3.5,1.6-3.5,3.5V44c0,0.3,0.1,0.5,0.3,0.7c0.2,0.2,0.4,0.3,0.7,0.3
			c0.3,0,0.5-0.1,0.7-0.3l2.8-2.8c0.5-0.5,1.5-0.5,2,0l1.1,1.1c1.3,1.3,3.5,1.3,4.8,0L25,42c0.6-0.6,1.5-0.6,2,0l1.1,1.1
			c1.3,1.3,3.5,1.3,4.8,0l1.1-1.1c0.6-0.6,1.5-0.6,2,0l2.8,2.8c0.3,0.3,0.7,0.4,1.1,0.2c0.4-0.2,0.6-0.5,0.6-0.9V8.5
			C40.3,6.6,38.8,5,36.8,5z M38.4,41.7l-1.1-1.1c-1.3-1.3-3.5-1.3-4.8,0l-1.1,1.1c-0.6,0.6-1.5,0.6-2,0l-1.1-1.1
			c-1.3-1.3-3.5-1.3-4.8,0l-1.1,1.1c-0.6,0.6-1.5,0.6-2,0l-1.1-1.1c-0.6-0.6-1.5-1-2.4-1c-0.9,0-1.8,0.4-2.4,1l-1.1,1.1V8.5
			c0-0.9,0.7-1.6,1.6-1.6h21.7c0.9,0,1.6,0.7,1.6,1.6V41.7z"/>
		<path class="st0" d="M26,17.3c1.6,0,2.9,1.3,2.9,2.9c0,0.5,0.4,1,1,1c0.5,0,1-0.4,1-1c0-2.4-1.7-4.3-3.9-4.8v-0.6c0-0.5-0.4-1-1-1
			s-1,0.4-1,1v0.6c-2.2,0.5-3.9,2.4-3.9,4.8c0,2.7,2.2,4.9,4.9,4.9c0,0,0,0,0,0c1.6,0,2.9,1.3,2.9,2.9c0,1.6-1.3,2.9-2.9,2.9
			s-2.9-1.3-2.9-2.9c0-0.5-0.4-1-1-1s-1,0.4-1,1c0,2.4,1.7,4.3,3.9,4.8v0.6c0,0.5,0.4,1,1,1s1-0.4,1-1v-0.6c2.2-0.5,3.9-2.4,3.9-4.8
			c0-2.7-2.2-4.9-4.9-4.9c0,0,0,0,0,0c-1.6,0-2.9-1.3-2.9-2.9C23.1,18.6,24.4,17.3,26,17.3z"/>
	</g>
</g>
<g id="Capa_2">
</g>
</svg>
