<?xml version="1.0" encoding="utf-8"?>
<!-- Generator: Adobe Illustrator 22.1.0, SVG Export Plug-In . SVG Version: 6.00 Build 0)  -->
<svg version="1.1" id="Capa_1" xmlns="http://www.w3.org/2000/svg" xmlns:xlink="http://www.w3.org/1999/xlink" x="0px" y="0px"
	 viewBox="0 0 50 50" style="enable-background:new 0 0 50 50;" xml:space="preserve">
<style type="text/css">
	.st0{fill:#FFFFFF;}
	.st1{fill:#696767;}
	.st2{fill:#FFB600;}
	.st3{fill:#23B248;}
	.st4{fill:#050505;}
	.st5{fill:none;stroke:#000000;stroke-width:1.0761;stroke-linecap:round;stroke-linejoin:round;stroke-miterlimit:10;}
	.st6{fill:#F80000;}
	.st7{fill:#FFB600;stroke:#FFB600;stroke-miterlimit:10;}
	.st8{fill:none;stroke:#000000;stroke-width:1.75;stroke-linecap:round;stroke-linejoin:round;stroke-miterlimit:10;}
	.st9{fill:none;stroke:#23B248;stroke-width:1.3;stroke-miterlimit:10;}
	.st10{fill:#23B248;stroke:#23B248;stroke-width:0.15;stroke-miterlimit:10;}
</style>
<g>
	<path class="st3" d="M32.3,35.1c-0.1-0.2-0.2-0.5-0.5-0.8l-1-1c-0.9-0.9-1.7-1.8-2.6-2.6c-1.2-1.2-2.9-1.1-4.2,0.1
		c-0.5,0.5-1,1-1.5,1.5c-2-1.5-3.8-3.2-5.3-5.3c0.4-0.4,0.7-0.7,1.1-1.1l0.3-0.3c1.4-1.4,1.4-3.1,0-4.5c-0.5-0.5-1-1-1.4-1.4
		c-0.5-0.5-1-1-1.5-1.5c-0.4-0.4-0.9-0.9-1.7-1.2l-1.5,0c-0.9,0-1.8,0.9-2.6,1.8L9.8,19c-0.9,1-1.5,2.1-1.7,3.1l0,2.2l0,0.1
		c0.9,4.5,3.4,8.4,7.8,12.3c2.1,1.9,4.3,3.2,6.7,4.1c1.2,0.4,2.4,0.7,3.5,0.7c0.5,0,1,0,1.4-0.1c1-0.2,1.8-0.6,2.5-1.3l0.5-0.5
		c0.3-0.3,0.7-0.7,1-1c0.4-0.4,0.7-0.9,0.9-1.4l0-1.6l-0.1-0.1C32.4,35.3,32.4,35.2,32.3,35.1z M31.2,36.8c-0.1,0.3-0.3,0.5-0.5,0.7
		c-0.4,0.3-0.7,0.7-1,1l-0.5,0.5c-0.5,0.5-1.1,0.8-1.8,1c-1.3,0.2-2.7,0.1-4.2-0.5c-2.2-0.8-4.3-2-6.3-3.8
		c-4.2-3.7-6.6-7.3-7.4-11.5l0-1.9c0.2-0.8,0.6-1.6,1.4-2.4l0.2-0.2c1-1.2,1.4-1.4,1.6-1.4h1.1c0.4,0.2,0.7,0.4,1.1,0.8
		c0.5,0.5,1,1,1.5,1.5c0.5,0.5,1,1,1.4,1.4c0.9,0.9,0.9,1.8,0,2.7l-0.3,0.3c-0.4,0.4-0.8,0.8-1.2,1.2c-0.4,0.4-0.5,1-0.1,1.5
		c1.6,2.2,3.6,4.2,5.8,5.8c0.5,0.4,1,0.3,1.5-0.1c0.5-0.5,1.1-1.1,1.6-1.6c0.7-0.7,1.6-0.8,2.4-0.1c0.9,0.8,1.8,1.7,2.6,2.6l1,1.1
		c0.1,0.1,0.2,0.2,0.2,0.4c0,0.1,0.1,0.1,0.1,0.2V36.8z"/>
	<path class="st3" d="M37.5,8.6h-8c-2.4,0-4.4,2-4.4,4.4v5.5c0,2.4,2,4.4,4.4,4.4h1.1v4.5l6.6-4.5h0.2c2.4,0,4.4-2,4.4-4.4v-5.5
		C41.9,10.5,39.9,8.6,37.5,8.6z M40.6,18.5c0,1.7-1.4,3.1-3.1,3.1h-0.6l-4.9,3.3v-3.3h-2.4c-1.7,0-3.1-1.4-3.1-3.1v-5.5
		c0-1.7,1.4-3.1,3.1-3.1h8c1.7,0,3.1,1.4,3.1,3.1V18.5z"/>
	<path class="st3" d="M36.1,13.8L32.9,17l-1.5-1.5c-0.2-0.2-0.5-0.2-0.6,0c-0.2,0.2-0.2,0.5,0,0.6l2,2c0,0,0.1,0.1,0.2,0.1
		c0.1,0,0.1,0,0.2-0.1l3.7-3.6c0.1-0.1,0.1-0.2,0.1-0.3c0-0.1,0-0.2-0.1-0.3C36.6,13.6,36.3,13.6,36.1,13.8z"/>
</g>
</svg>
