<svg width="38" height="38" viewBox="0 0 38 38" fill="none" xmlns="http://www.w3.org/2000/svg">
<path d="M0 20.1111C0 20.6634 0.447715 21.1111 1 21.1111H15.8889C16.4412 21.1111 16.8889 20.6634 16.8889 20.1111V1C16.8889 0.447716 16.4412 0 15.8889 0H0.999999C0.447714 0 0 0.447715 0 1V20.1111ZM0 37C0 37.5523 0.447715 38 1 38H15.8889C16.4412 38 16.8889 37.5523 16.8889 37V26.3333C16.8889 25.781 16.4412 25.3333 15.8889 25.3333H0.999999C0.447714 25.3333 0 25.781 0 26.3333V37ZM21.1111 37C21.1111 37.5523 21.5588 38 22.1111 38H37C37.5523 38 38 37.5523 38 37V17.8889C38 17.3366 37.5523 16.8889 37 16.8889H22.1111C21.5588 16.8889 21.1111 17.3366 21.1111 17.8889V37ZM22.1111 0C21.5588 0 21.1111 0.447715 21.1111 1V11.6667C21.1111 12.219 21.5588 12.6667 22.1111 12.6667H37C37.5523 12.6667 38 12.219 38 11.6667V1C38 0.447716 37.5523 0 37 0H22.1111Z" fill="white"/>
</svg>
