<?xml version="1.0" encoding="utf-8"?>
<!-- Generator: Adobe Illustrator 22.1.0, SVG Export Plug-In . SVG Version: 6.00 Build 0)  -->
<svg version="1.1" xmlns="http://www.w3.org/2000/svg" xmlns:xlink="http://www.w3.org/1999/xlink" x="0px" y="0px"
	 viewBox="0 0 50 50" style="enable-background:new 0 0 50 50;" xml:space="preserve">
<style type="text/css">
	.st0{fill:#575656;}
	.st1{fill:#23B248;}
	.st2{fill:#F80000;}
</style>
<g id="Capa_1">
	<g>
		<path class="st0" d="M44,43h-1.3V23.8c1.4-1,2.3-2.7,2.3-4.6c0,0,0,0,0,0c0,0,0-0.1,0-0.1c0,0,0-0.1,0-0.1c0,0,0-0.1,0-0.1
			c0,0,0-0.1,0-0.1c0,0,0,0,0,0L38.6,5.6C38.4,5.2,38.1,5,37.7,5H12.3c-0.4,0-0.7,0.2-0.9,0.6L5.1,18.8c0,0,0,0,0,0c0,0,0,0.1,0,0.1
			c0,0,0,0.1,0,0.1c0,0,0,0.1,0,0.1c0,0,0,0.1,0,0.1c0,0,0,0,0,0c0,1.9,0.9,3.6,2.3,4.6V43H6c-0.6,0-1,0.4-1,1s0.4,1,1,1h20.2h9.5
			H44c0.6,0,1-0.4,1-1S44.6,43,44,43z M13,7H37l6,12.4c-0.1,2-1.7,3.5-3.7,3.5c-2.1,0-3.8-1.7-3.8-3.8c0-0.6-0.4-1-1-1s-1,0.4-1,1
			c0,2.1-1.7,3.8-3.8,3.8S26,21.3,26,19.2c0-0.6-0.4-1-1-1s-1,0.4-1,1c0,2.1-1.7,3.8-3.8,3.8s-3.8-1.7-3.8-3.8c0-0.6-0.4-1-1-1
			c-0.6,0-1,0.4-1,1c0,2.1-1.7,3.8-3.8,3.8c-2,0-3.6-1.6-3.7-3.5L13,7z M34.8,43h-7.5V28.4h7.5V43z M36.8,43V27.4c0-0.6-0.4-1-1-1
			h-9.5c-0.6,0-1,0.4-1,1V43H9.3V24.8c0.5,0.1,0.9,0.2,1.4,0.2c2,0,3.7-1,4.8-2.5c1,1.5,2.8,2.5,4.8,2.5s3.7-1,4.8-2.5
			c1,1.5,2.8,2.5,4.8,2.5s3.7-1,4.8-2.5c1,1.5,2.8,2.5,4.8,2.5c0.5,0,1-0.1,1.4-0.2V43H36.8z"/>
		<path class="st0" d="M20.1,26.4h-5.9c-0.6,0-1,0.4-1,1v6.9c0,0.6,0.4,1,1,1h5.9c0.6,0,1-0.4,1-1v-6.9
			C21.1,26.9,20.7,26.4,20.1,26.4z M19.1,33.3h-3.9v-4.9h3.9V33.3z"/>
	</g>
</g>
<g id="Capa_2">
</g>
</svg>
