<?xml version="1.0" encoding="utf-8"?>
<!-- Generator: Adobe Illustrator 22.1.0, SVG Export Plug-In . SVG Version: 6.00 Build 0)  -->
<svg version="1.1" xmlns="http://www.w3.org/2000/svg" xmlns:xlink="http://www.w3.org/1999/xlink" x="0px" y="0px"
	 viewBox="0 0 198 92" style="enable-background:new 0 0 198 92;" xml:space="preserve">
<style type="text/css">
	.st0{display:none;}
	.st1{display:inline;fill:none;stroke:#000000;stroke-miterlimit:10;}
	.st2{display:inline;}
	.st3{stroke:#000000;stroke-miterlimit:10;}
	.st4{fill:none;stroke:#000000;stroke-width:0.9882;stroke-miterlimit:10;}
	.st5{stroke:#000000;stroke-width:0.2471;stroke-miterlimit:10;}
	.st6{fill:#4081F2;}
	.st7{fill:#1D1D1B;}
	.st8{fill:#E20D17;}
	.st9{fill:#EA610A;}
	.st10{fill:#F59E00;}
	.st11{fill-rule:evenodd;clip-rule:evenodd;fill:url(#SVGID_1_);}
	.st12{fill-rule:evenodd;clip-rule:evenodd;fill:url(#SVGID_2_);}
	.st13{fill-rule:evenodd;clip-rule:evenodd;fill:url(#SVGID_3_);}
	.st14{fill-rule:evenodd;clip-rule:evenodd;fill:url(#SVGID_4_);}
	.st15{fill-rule:evenodd;clip-rule:evenodd;fill:url(#SVGID_5_);}
	.st16{fill-rule:evenodd;clip-rule:evenodd;fill:#EFA616;}
	.st17{fill-rule:evenodd;clip-rule:evenodd;fill:#FFFFFF;}
	.st18{fill-rule:evenodd;clip-rule:evenodd;fill:#E20613;}
</style>
<g id="Capa_2" class="st0">
</g>
<g id="Capa_1">
	<g>
		<path class="st4" d="M185.9,88H12.1c-4.1,0-7.5-3.4-7.5-7.5V11.5C4.6,7.4,8,4,12.1,4h173.8c4.1,0,7.5,3.4,7.5,7.5v69.1
			C193.4,84.6,190,88,185.9,88z"/>
		<g>
			<polygon class="st5" points="30.4,20.9 19.1,20.9 18.7,22.5 23.4,22.5 20.6,35.9 22.5,35.9 25.4,22.5 30,22.5 			"/>
			<path class="st5" d="M42.6,24.4c0-2.5-2-3.5-5-3.5h-4.4l-3.2,14.9h1.9l1.4-6.3H36l2.6,6.3h2l-2.8-6.5
				C40.5,28.9,42.6,27.2,42.6,24.4z M35.9,28.1h-2.4l1.2-5.7H37c2.4,0,3.6,0.6,3.6,2.3C40.7,26.8,39,28.1,35.9,28.1z"/>
			<path class="st5" d="M49.9,20.9l-8.8,14.9h2.1l2.6-4.7h5.7l0.5,4.7h2l-1.9-14.9H49.9z M46.6,29.8l1.4-2.5
				c0.9-1.6,1.7-3.1,2.6-4.9h0.1c0.1,1.7,0.3,3.3,0.4,4.9l0.2,2.5H46.6z"/>
			<path class="st5" d="M66.5,28.9c-0.3,1.5-0.5,3.3-0.7,4.8h-0.1l-1-3.1L61,20.9h-1.9l-3.2,14.9h1.8l1.7-8c0.3-1.5,0.6-3.2,0.8-4.7
				h0.1l1,3.2l3.6,9.5h1.9l3.2-14.9h-1.8L66.5,28.9z"/>
			<path class="st5" d="M78.2,20.7c-2.9,0-5,1.9-5,4.1c0,1.7,1.1,2.7,2.5,3.5l1.9,1c1.2,0.7,2,1.3,2,2.5c0,1.7-1.5,2.8-3.5,2.8
				c-1.8,0-3.2-0.8-4.2-2.1l-1.4,1c1.3,1.8,3.2,2.6,5.4,2.6c3.3,0,5.6-1.9,5.6-4.6c0-1.7-0.9-2.7-2.4-3.5l-1.9-1
				c-1.2-0.6-2.1-1.3-2.1-2.4c0-1.2,1.1-2.4,2.9-2.4c1.5,0,2.6,0.7,3.5,1.6l1.2-1C81.7,21.6,80.1,20.7,78.2,20.7z"/>
			<polygon class="st5" points="88.3,22.4 95.3,22.4 95.7,20.9 86.8,20.9 83.5,35.9 85.5,35.9 86.9,29.1 92.8,29.1 93.2,27.6 
				87.2,27.6 			"/>
			<polygon class="st5" points="95.2,35.9 104.3,35.9 104.6,34.4 97.4,34.4 98.6,28.8 104.5,28.8 104.9,27.3 98.9,27.3 100,22.4 
				107,22.4 107.3,20.9 98.4,20.9 			"/>
			<path class="st5" d="M115.2,20.9h-4.4l-3.2,14.9h1.9l1.4-6.3h2.8l2.6,6.3h2.1l-2.8-6.5c2.7-0.5,4.7-2.2,4.7-4.9
				C120.3,21.9,118.2,20.9,115.2,20.9z M113.6,28.1h-2.4l1.2-5.7h2.4c2.4,0,3.6,0.6,3.6,2.3C118.4,26.8,116.7,28.1,113.6,28.1z"/>
			<polygon class="st5" points="121.2,35.9 130.3,35.9 130.7,34.4 123.4,34.4 124.7,28.8 130.6,28.8 130.9,27.3 125,27.3 126,22.4 
				133,22.4 133.4,20.9 124.5,20.9 			"/>
			<path class="st5" d="M144.3,28.9c-0.3,1.5-0.5,3.3-0.7,4.8h-0.1l-1-3.1l-3.7-9.6h-1.9l-3.2,14.9h1.8l1.7-8
				c0.3-1.5,0.6-3.2,0.8-4.7h0.1l1,3.2l3.6,9.5h1.9l3.2-14.9H146L144.3,28.9z"/>
			<path class="st5" d="M157.7,20.7c-5,0-8.3,4.8-8.3,9.5c0,3.6,2,6,5.7,6c2,0,3.4-0.8,4.6-1.7l-0.9-1.1c-1,0.8-2.1,1.3-3.4,1.3
				c-2.9,0-4.1-1.9-4.1-4.7c0-3.6,2.4-7.8,6.3-7.8c1.2,0,2.1,0.7,2.7,1.6l1.4-0.9C160.9,21.6,159.6,20.7,157.7,20.7z"/>
			<polygon class="st5" points="165.6,20.9 162.4,35.9 164.3,35.9 167.5,20.9 			"/>
			<path class="st5" d="M177.3,35.9h2l-1.9-14.9h-2.2l-8.8,14.9h2.1l2.6-4.7h5.7L177.3,35.9z M171.9,29.8l1.4-2.5
				c0.9-1.6,1.7-3.1,2.6-4.9h0.1c0.1,1.7,0.3,3.3,0.4,4.9l0.2,2.5H171.9z"/>
		</g>
		<g>
			<path class="st6" d="M36,57.7l0-0.1c2.8-0.6,5.6-2.5,5.6-5.4c0-3.1-3-4.8-7.8-4.8h-6.7l-5,21.7h8.1c6,0,10.4-2.1,10.4-6.9
				C40.6,59.6,38.6,58.2,36,57.7z M29.6,49.3h3.5c3.8,0,5.5,1.2,5.5,3.2c0,2.5-2.3,4.2-7,4.2h-3.6L29.6,49.3z M29.9,67h-4.4l2-8.5
				h4.4c3.7,0,5.7,1.5,5.7,3.7C37.7,65.6,34.6,67,29.9,67z"/>
			<path class="st6" d="M54.7,47.3L41,69h3.3l4-6.8h8.9l0.7,6.8H61l-2.9-21.7H54.7z M49.6,60.3l2.2-3.7c1.4-2.4,2.7-4.6,4-7.1H56
				c0.2,2.5,0.5,4.8,0.7,7.1l0.4,3.7H49.6z"/>
			<path class="st6" d="M80.6,58.8c-0.5,2.2-0.8,4.8-1.1,6.9h-0.2l-1.6-4.5L72,47.3h-3L64,69h2.9l2.7-11.7c0.5-2.2,0.9-4.6,1.2-6.9
				h0.2l1.6,4.7L78.2,69h2.9l5-21.7h-2.9L80.6,58.8z"/>
			<path class="st6" d="M101.4,49.1c1.9,0,3.3,0.9,4.3,2.3l2.1-1.4c-1.3-1.8-3.3-3.2-6.2-3.2c-7.8,0-13,6.9-13,13.8
				c0,5.2,3.2,8.8,8.9,8.8c3,0,5.4-1.1,7.2-2.5l-1.4-1.7c-1.6,1.2-3.3,1.9-5.3,1.9c-4.5,0-6.4-2.8-6.4-6.8
				C91.6,55.2,95.4,49.1,101.4,49.1z"/>
			<path class="st6" d="M119.1,47.3L105.4,69h3.3l4-6.8h8.9l0.7,6.8h3.1l-2.9-21.7H119.1z M114,60.3l2.2-3.7c1.4-2.4,2.7-4.6,4-7.1
				h0.2c0.2,2.5,0.5,4.8,0.7,7.1l0.4,3.7H114z"/>
			<path class="st6" d="M140.3,47.3h-6.9l-5,21.7h3l2.1-9.2h4.4L142,69h3.2l-4.4-9.5c4.2-0.7,7.4-3.2,7.4-7.2
				C148.1,48.7,145,47.3,140.3,47.3z M137.8,57.7H134l1.9-8.4h3.7c3.7,0,5.6,0.9,5.6,3.3C145.2,55.8,142.6,57.7,137.8,57.7z"/>
			<polygon class="st6" points="154.7,47.3 149.6,69 152.6,69 157.7,47.3 			"/>
			<path class="st6" d="M172.8,69h3.1L173,47.3h-3.4L155.9,69h3.3l4-6.8h8.9L172.8,69z M164.5,60.3l2.2-3.7c1.4-2.4,2.7-4.6,4-7.1
				h0.2c0.2,2.5,0.5,4.8,0.7,7.1l0.4,3.7H164.5z"/>
		</g>
	</g>
</g>
</svg>
