<?xml version="1.0" encoding="utf-8"?>
<!-- Generator: Adobe Illustrator 22.1.0, SVG Export Plug-In . SVG Version: 6.00 Build 0)  -->
<svg version="1.1" xmlns="http://www.w3.org/2000/svg" xmlns:xlink="http://www.w3.org/1999/xlink" x="0px" y="0px"
	 viewBox="0 0 150 51.5" style="enable-background:new 0 0 150 51.5;" xml:space="preserve">
<style type="text/css">
	.st0{display:none;}
	.st1{display:inline;fill:none;stroke:#000000;stroke-miterlimit:10;}
	.st2{display:inline;}
	.st3{stroke:#000000;stroke-miterlimit:10;}
	.st4{fill:none;stroke:#000000;stroke-width:0.9882;stroke-miterlimit:10;}
	.st5{stroke:#000000;stroke-width:0.2471;stroke-miterlimit:10;}
	.st6{fill:#4081F2;}
	.st7{fill:#1D1D1B;}
	.st8{fill:#E20D17;}
	.st9{fill:#EA610A;}
	.st10{fill:#F59E00;}
	.st11{fill-rule:evenodd;clip-rule:evenodd;fill:url(#SVGID_1_);}
	.st12{fill-rule:evenodd;clip-rule:evenodd;fill:url(#SVGID_2_);}
	.st13{fill-rule:evenodd;clip-rule:evenodd;fill:url(#SVGID_3_);}
	.st14{fill-rule:evenodd;clip-rule:evenodd;fill:url(#SVGID_4_);}
	.st15{fill-rule:evenodd;clip-rule:evenodd;fill:url(#SVGID_5_);}
	.st16{fill-rule:evenodd;clip-rule:evenodd;fill:#EFA616;}
	.st17{fill-rule:evenodd;clip-rule:evenodd;fill:#FFFFFF;}
	.st18{fill-rule:evenodd;clip-rule:evenodd;fill:#E20613;}
</style>
<g id="Capa_2" class="st0">
</g>
<g id="Capa_1">
	<g>
		<linearGradient id="SVGID_1_" gradientUnits="userSpaceOnUse" x1="3.1041" y1="25.6218" x2="133.4582" y2="25.6218">
			<stop  offset="8.048780e-02" style="stop-color:#11185C"/>
			<stop  offset="1" style="stop-color:#002898"/>
		</linearGradient>
		<polygon class="st11" points="44.6,46.3 57.2,4.9 68.4,4.9 55.8,46.3 44.6,46.3 		"/>
		<linearGradient id="SVGID_2_" gradientUnits="userSpaceOnUse" x1="3.1041" y1="25.6277" x2="133.4582" y2="25.6277">
			<stop  offset="8.048780e-02" style="stop-color:#11185C"/>
			<stop  offset="1" style="stop-color:#002898"/>
		</linearGradient>
		<path class="st12" d="M39.6,4.9L29.5,22.5c-2.6,4.6-4.1,6.9-4.8,9.8h-0.2c0.2-3.7-0.3-8.2-0.4-10.8L23.1,4.9H4.2L4,6
			c4.8,0,7.7,2.4,8.5,7.4l3.7,32.9h11.6L51.3,4.9H39.6L39.6,4.9z"/>
		<linearGradient id="SVGID_3_" gradientUnits="userSpaceOnUse" x1="3.1041" y1="25.6616" x2="133.4582" y2="25.6616">
			<stop  offset="8.048780e-02" style="stop-color:#11185C"/>
			<stop  offset="1" style="stop-color:#002898"/>
		</linearGradient>
		<path class="st13" d="M126.8,46.3l-0.3-6.2l-14,0l-2.9,6.2H97.4L119.5,5h14.9l3.7,41.3H126.8L126.8,46.3z M125.5,21.9
			c-0.1-3.1-0.2-7.2,0-9.7h-0.2c-0.7,2.1-3.6,8.2-4.9,11.3l-4.2,9.1h9.8L125.5,21.9L125.5,21.9z"/>
		<linearGradient id="SVGID_4_" gradientUnits="userSpaceOnUse" x1="3.1041" y1="25.755" x2="133.4582" y2="25.755">
			<stop  offset="8.048780e-02" style="stop-color:#11185C"/>
			<stop  offset="1" style="stop-color:#002898"/>
		</linearGradient>
		<path class="st14" d="M80.1,47.5c-7.9,0-13.2-2.5-16.9-4.7l5.3-8.2c3.4,1.9,6,4.1,12.1,4.1c2,0,3.8-0.5,4.9-2.4
			c1.6-2.7-0.4-4.1-4.7-6.6l-2.2-1.4c-6.5-4.4-9.3-8.6-6.2-16C74.4,7.6,79.5,4,88,4c5.9,0,11.4,2.5,14.6,5l-6.1,7.2
			c-3.1-2.5-5.7-3.8-8.7-3.8c-2.4,0-4.2,0.9-4.8,2.1c-1.2,2.3,0.4,3.9,3.8,6l2.6,1.6c7.9,5,9.8,10.2,7.8,15.1
			C93.7,45.6,87.1,47.5,80.1,47.5L80.1,47.5z"/>
		<linearGradient id="SVGID_5_" gradientUnits="userSpaceOnUse" x1="3.1041" y1="8.9962" x2="133.4582" y2="8.9962">
			<stop  offset="8.048780e-02" style="stop-color:#11185C"/>
			<stop  offset="1" style="stop-color:#002898"/>
		</linearGradient>
		<path class="st15" d="M141.2,11.3h-0.7V6.8h1.7c1.1,0,1.6,0.4,1.6,1.3c0,0.8-0.5,1.1-1.2,1.2l1.3,2h-0.8l-1.2-1.9h-0.7V11.3
			L141.2,11.3z M142.1,8.8c0.6,0,1-0.1,1-0.7c0-0.5-0.5-0.6-1-0.6h-0.9v1.3H142.1L142.1,8.8z M142,13.1c-2.3,0-4-1.7-4-4.1
			c0-2.4,1.8-4.1,4-4.1c2.1,0,4,1.6,4,4.1C146,11.4,144.2,13.1,142,13.1L142,13.1z M142,5.6c-1.8,0-3.1,1.4-3.1,3.4
			c0,1.8,1.2,3.4,3.1,3.4c1.7,0,3.1-1.4,3.1-3.4C145.1,7,143.8,5.6,142,5.6L142,5.6z"/>
	</g>
</g>
</svg>
