<?xml version="1.0" encoding="utf-8"?>
<!-- Generator: Adobe Illustrator 22.1.0, SVG Export Plug-In . SVG Version: 6.00 Build 0)  -->
<svg version="1.1" xmlns="http://www.w3.org/2000/svg" xmlns:xlink="http://www.w3.org/1999/xlink" x="0px" y="0px"
	 viewBox="0 0 150 150" style="enable-background:new 0 0 150 150;" xml:space="preserve">
<style type="text/css">
	.st0{display:none;}
	.st1{display:inline;fill:#1B8EE2;}
	.st2{fill:#FFFFFF;}
	.st3{fill:#575656;}
	.st4{display:inline;}
	.st5{stroke:#000000;stroke-miterlimit:10;}
	.st6{display:inline;stroke:#000000;stroke-width:1.7521;stroke-miterlimit:10;}
	.st7{display:inline;stroke:#000000;stroke-width:1.5192;stroke-miterlimit:10;}
	.st8{display:inline;fill:none;stroke:#000000;stroke-width:4.7;stroke-linecap:round;stroke-linejoin:round;stroke-miterlimit:10;}
	.st9{display:inline;stroke:#000000;stroke-width:0.741;stroke-miterlimit:10;}
</style>
<g id="svg5038" inkscape:export-filename="/Users/Danee/Documents/Trabajo 2link/Iconos app/Iconos definitivo/Salir.png" inkscape:export-xdpi="600" inkscape:export-ydpi="600" inkscape:version="0.91 r13725" sodipodi:docname="TPV.svg" xmlns:cc="http://creativecommons.org/ns#" xmlns:dc="http://purl.org/dc/elements/1.1/" xmlns:inkscape="http://www.inkscape.org/namespaces/inkscape" xmlns:rdf="http://www.w3.org/1999/02/22-rdf-syntax-ns#" xmlns:sodipodi="http://sodipodi.sourceforge.net/DTD/sodipodi-0.dtd" xmlns:svg="http://www.w3.org/2000/svg">
	<g>
		<path class="st3" d="M60.8,61.4h4.1c1.4,0,2.5-1.1,2.5-2.5v-4.1c0-1.4-1.1-2.5-2.5-2.5h-4.1c-1.4,0-2.5,1.1-2.5,2.5v4.1
			C58.3,60.3,59.4,61.4,60.8,61.4z M61.2,58.6v-3.4h3.4v3.4H61.2z"/>
		<path class="st3" d="M75.7,56.4h14.5c0.8,0,1.4-0.6,1.4-1.4c0-0.8-0.6-1.4-1.4-1.4H75.7c-0.8,0-1.4,0.6-1.4,1.4
			C74.3,55.7,74.9,56.4,75.7,56.4z"/>
		<path class="st3" d="M75.7,60.2h14.5c0.8,0,1.4-0.6,1.4-1.4c0-0.8-0.6-1.4-1.4-1.4H75.7c-0.8,0-1.4,0.6-1.4,1.4
			C74.3,59.6,74.9,60.2,75.7,60.2z"/>
		<path class="st3" d="M60.8,73.5h4.1c1.4,0,2.5-1.1,2.5-2.5v-4.1c0-1.4-1.1-2.5-2.5-2.5h-4.1c-1.4,0-2.5,1.1-2.5,2.5V71
			C58.3,72.4,59.4,73.5,60.8,73.5z M61.2,70.7v-3.4h3.4v3.4H61.2z"/>
		<path class="st3" d="M75.7,68.4h14.5c0.8,0,1.4-0.6,1.4-1.4c0-0.8-0.6-1.4-1.4-1.4H75.7c-0.8,0-1.4,0.6-1.4,1.4
			C74.3,67.8,74.9,68.4,75.7,68.4z"/>
		<path class="st3" d="M75.7,72.3h14.5c0.8,0,1.4-0.6,1.4-1.4c0-0.8-0.6-1.4-1.4-1.4H75.7c-0.8,0-1.4,0.6-1.4,1.4
			C74.3,71.7,74.9,72.3,75.7,72.3z"/>
		<path class="st3" d="M60.8,85.6h4.1c1.4,0,2.5-1.1,2.5-2.5V79c0-1.4-1.1-2.5-2.5-2.5h-4.1c-1.4,0-2.5,1.1-2.5,2.5v4.1
			C58.3,84.5,59.4,85.6,60.8,85.6z M61.2,82.8v-3.4h3.4v3.4H61.2z"/>
		<path class="st3" d="M75.7,80.5h14.5c0.8,0,1.4-0.6,1.4-1.4c0-0.8-0.6-1.4-1.4-1.4H75.7c-0.8,0-1.4,0.6-1.4,1.4
			C74.3,79.9,74.9,80.5,75.7,80.5z"/>
		<path class="st3" d="M75.7,84.4h14.5c0.8,0,1.4-0.6,1.4-1.4c0-0.8-0.6-1.4-1.4-1.4H75.7c-0.8,0-1.4,0.6-1.4,1.4
			C74.3,83.8,74.9,84.4,75.7,84.4z"/>
		<path class="st3" d="M60.8,97.7h4.1c1.4,0,2.5-1.1,2.5-2.5v-4.1c0-1.4-1.1-2.5-2.5-2.5h-4.1c-1.4,0-2.5,1.1-2.5,2.5v4.1
			C58.3,96.5,59.4,97.7,60.8,97.7z M61.2,94.8v-3.4h3.4v3.4H61.2z"/>
		<path class="st3" d="M75.7,92.6h14.5c0.8,0,1.4-0.6,1.4-1.4c0-0.8-0.6-1.4-1.4-1.4H75.7c-0.8,0-1.4,0.6-1.4,1.4
			C74.3,92,74.9,92.6,75.7,92.6z"/>
		<path class="st3" d="M75.7,96.5h14.5c0.8,0,1.4-0.6,1.4-1.4c0-0.8-0.6-1.4-1.4-1.4H75.7c-0.8,0-1.4,0.6-1.4,1.4
			S74.9,96.5,75.7,96.5z"/>
		<path class="st3" d="M97.3,44.2H52.7c-1.3,0-2.4,1.1-2.4,2.4v57c0,1.3,1.1,2.3,2.4,2.3h44.7c1.3,0,2.4-1.1,2.4-2.3v-57
			C99.7,45.3,98.6,44.2,97.3,44.2z M95,101.2H55V48.9h40V101.2z"/>
	</g>
</g>
<g id="Capa_2" class="st0">
	<g class="st4">
		<g>
			<path class="st5" d="M60.8,60.9h4.1c1.1,0,2-0.9,2-2v-4.1c0-1.1-0.9-2-2-2h-4.1c-1.1,0-2,0.9-2,2v4.1
				C58.8,60,59.7,60.9,60.8,60.9z M60.7,58.9v-4.1c0-0.1,0.1-0.2,0.2-0.2h4.1c0.1,0,0.2,0.1,0.2,0.2v4.1c0,0.1-0.1,0.2-0.2,0.2h-4.1
				C60.7,59.1,60.7,59,60.7,58.9z"/>
			<path class="st5" d="M75.7,55.9h14.5c0.5,0,0.9-0.4,0.9-0.9S90.8,54,90.3,54H75.7c-0.5,0-0.9,0.4-0.9,0.9S75.2,55.9,75.7,55.9z"
				/>
			<path class="st5" d="M75.7,59.7h14.5c0.5,0,0.9-0.4,0.9-0.9c0-0.5-0.4-0.9-0.9-0.9H75.7c-0.5,0-0.9,0.4-0.9,0.9
				C74.8,59.3,75.2,59.7,75.7,59.7z"/>
		</g>
		<g>
			<path class="st5" d="M60.8,73h4.1c1.1,0,2-0.9,2-2v-4.1c0-1.1-0.9-2-2-2h-4.1c-1.1,0-2,0.9-2,2V71C58.8,72.1,59.7,73,60.8,73z
				 M60.7,71v-4.1c0-0.1,0.1-0.2,0.2-0.2h4.1c0.1,0,0.2,0.1,0.2,0.2V71c0,0.1-0.1,0.2-0.2,0.2h-4.1C60.7,71.2,60.7,71.1,60.7,71z"/>
			<path class="st5" d="M75.7,67.9h14.5c0.5,0,0.9-0.4,0.9-0.9c0-0.5-0.4-0.9-0.9-0.9H75.7c-0.5,0-0.9,0.4-0.9,0.9
				C74.8,67.5,75.2,67.9,75.7,67.9z"/>
			<path class="st5" d="M75.7,71.8h14.5c0.5,0,0.9-0.4,0.9-0.9c0-0.5-0.4-0.9-0.9-0.9H75.7c-0.5,0-0.9,0.4-0.9,0.9
				S75.2,71.8,75.7,71.8z"/>
		</g>
		<g>
			<path class="st5" d="M60.8,85.1h4.1c1.1,0,2-0.9,2-2V79c0-1.1-0.9-2-2-2h-4.1c-1.1,0-2,0.9-2,2v4.1
				C58.8,84.2,59.7,85.1,60.8,85.1z M60.7,83.1V79c0-0.1,0.1-0.2,0.2-0.2h4.1c0.1,0,0.2,0.1,0.2,0.2v4.1c0,0.1-0.1,0.2-0.2,0.2h-4.1
				C60.7,83.3,60.7,83.2,60.7,83.1z"/>
			<path class="st5" d="M75.7,80h14.5c0.5,0,0.9-0.4,0.9-0.9c0-0.5-0.4-0.9-0.9-0.9H75.7c-0.5,0-0.9,0.4-0.9,0.9S75.2,80,75.7,80z"
				/>
			<path class="st5" d="M75.7,83.9h14.5c0.5,0,0.9-0.4,0.9-0.9c0-0.5-0.4-0.9-0.9-0.9H75.7c-0.5,0-0.9,0.4-0.9,0.9
				C74.8,83.5,75.2,83.9,75.7,83.9z"/>
		</g>
		<g>
			<path class="st5" d="M60.8,97.2h4.1c1.1,0,2-0.9,2-2v-4.1c0-1.1-0.9-2-2-2h-4.1c-1.1,0-2,0.9-2,2v4.1
				C58.8,96.3,59.7,97.2,60.8,97.2z M60.7,95.2v-4.1c0-0.1,0.1-0.2,0.2-0.2h4.1c0.1,0,0.2,0.1,0.2,0.2v4.1c0,0.1-0.1,0.2-0.2,0.2
				h-4.1C60.7,95.3,60.7,95.3,60.7,95.2z"/>
			<path class="st5" d="M75.7,92.1h14.5c0.5,0,0.9-0.4,0.9-0.9c0-0.5-0.4-0.9-0.9-0.9H75.7c-0.5,0-0.9,0.4-0.9,0.9
				C74.8,91.7,75.2,92.1,75.7,92.1z"/>
			<path class="st5" d="M75.7,96h14.5c0.5,0,0.9-0.4,0.9-0.9c0-0.5-0.4-0.9-0.9-0.9H75.7c-0.5,0-0.9,0.4-0.9,0.9
				C74.8,95.6,75.2,96,75.7,96z"/>
		</g>
	</g>
	<rect x="52.7" y="46.6" class="st8" width="44.7" height="57"/>
</g>
</svg>
