<?xml version="1.0" encoding="utf-8"?>
<!-- Generator: Adobe Illustrator 22.1.0, SVG Export Plug-In . SVG Version: 6.00 Build 0)  -->
<svg version="1.1" xmlns="http://www.w3.org/2000/svg" xmlns:xlink="http://www.w3.org/1999/xlink" x="0px" y="0px"
	 viewBox="0 0 150 150" style="enable-background:new 0 0 150 150;" xml:space="preserve">
<style type="text/css">
	.st0{display:none;}
	.st1{display:inline;fill:#1B8EE2;}
	.st2{fill:#FFFFFF;}
	.st3{fill:#575656;}
	.st4{display:inline;}
	.st5{stroke:#000000;stroke-miterlimit:10;}
	.st6{display:inline;stroke:#000000;stroke-width:1.7521;stroke-miterlimit:10;}
	.st7{display:inline;stroke:#000000;stroke-width:1.5192;stroke-miterlimit:10;}
	.st8{display:inline;fill:none;stroke:#000000;stroke-width:4.7;stroke-linecap:round;stroke-linejoin:round;stroke-miterlimit:10;}
	.st9{display:inline;stroke:#000000;stroke-width:0.741;stroke-miterlimit:10;}
</style>
<g id="svg5038" inkscape:export-filename="/Users/Danee/Documents/Trabajo 2link/Iconos app/Iconos definitivo/Salir.png" inkscape:export-xdpi="600" inkscape:export-ydpi="600" inkscape:version="0.91 r13725" sodipodi:docname="TPV.svg" xmlns:cc="http://creativecommons.org/ns#" xmlns:dc="http://purl.org/dc/elements/1.1/" xmlns:inkscape="http://www.inkscape.org/namespaces/inkscape" xmlns:rdf="http://www.w3.org/1999/02/22-rdf-syntax-ns#" xmlns:sodipodi="http://sodipodi.sourceforge.net/DTD/sodipodi-0.dtd" xmlns:svg="http://www.w3.org/2000/svg">
	<g id="layer10" inkscape:groupmode="layer" inkscape:label="FONDO" sodipodi:insensitive="true" class="st0">
		<rect id="rect6463" class="st1" width="150" height="150.7"/>
	</g>
	<path class="st3" d="M105.7,67.8l-5.5-10.4c-0.3-0.6-0.8-1-1.4-1.1L75.7,50c-0.4-0.1-0.8-0.1-1.2,0l-23.2,6.2
		c-0.6,0.2-1.1,0.6-1.4,1.1l-5.5,10.4C44,68.3,44,69,44.2,69.6c0.2,0.6,0.6,1.1,1.2,1.3l4.3,2v13.7c0,0.9,0.5,1.7,1.3,2.1l23.1,11.1
		c0.3,0.1,0.7,0.2,1,0.2c0.3,0,0.5,0,0.8-0.1l0.1,0l23.2-11.2c0.8-0.4,1.3-1.2,1.3-2.1V72.9l4.2-2c0.6-0.3,1-0.8,1.2-1.3
		C106,69,106,68.3,105.7,67.8z M71.9,68.3l-3.8,8.4l-18.7-8.8l3.5-6.6L71.9,68.3z M54.2,75.1l14.1,6.6c0.5,0.3,1.2,0.3,1.8,0.1
		c0.6-0.2,1-0.6,1.3-1.2l1.4-3.1v16.7l-18.5-8.9V75.1z M90.6,58.8L75,64.6l-15.6-5.8l15.7-4.2L90.6,58.8z M77.3,77.7l1.3,2.9
		c0.2,0.6,0.7,1,1.3,1.2c0.6,0.2,1.2,0.2,1.8-0.1l14.2-6.7v10.2l-18.5,8.9V77.7z M100.5,67.8l-18.7,8.8l-3.8-8.4l19-7L100.5,67.8z"
		/>
</g>
<g id="Capa_2" class="st0">
	<path class="st6" d="M104.9,68.2l-5.5-10.4c-0.2-0.4-0.5-0.6-0.9-0.7c0,0,0,0,0,0l-23.1-6.2c-0.2-0.1-0.5-0.1-0.7,0l-23.2,6.2
		c0,0,0,0,0,0c-0.4,0.1-0.7,0.3-0.9,0.7l-5.5,10.4c-0.2,0.3-0.2,0.7-0.1,1.1c0.1,0.4,0.4,0.7,0.7,0.8l4.8,2.3v14.3
		c0,0.5,0.3,1,0.8,1.3l23.1,11.2c0.2,0.1,0.4,0.1,0.6,0.1c0.2,0,0.4,0,0.6-0.1c0,0,0,0,0,0l23.1-11.2c0.5-0.2,0.8-0.7,0.8-1.3V72.4
		c0,0,0,0,0-0.1l4.7-2.2c0.3-0.2,0.6-0.5,0.7-0.8C105.1,68.9,105.1,68.5,104.9,68.2z M75.1,53.6l18.5,5L75,65.5l-18.5-6.9L75.1,53.6
		z M52.5,60.2l20.6,7.6l-4.5,10l-20.3-9.6L52.5,60.2z M53.4,85.8v-12L68.7,81c0.2,0.1,0.4,0.1,0.6,0.1c0.2,0,0.3,0,0.5-0.1
		c0.4-0.1,0.6-0.4,0.8-0.7l3.1-6.8v22.1L53.4,85.8z M96.8,85.8l-20.3,9.8V73.7l3,6.6c0.2,0.3,0.4,0.6,0.8,0.7
		c0.2,0.1,0.3,0.1,0.5,0.1c0.2,0,0.4,0,0.6-0.1l15.4-7.3L96.8,85.8L96.8,85.8z M81.4,77.8l-4.5-10l20.6-7.6l4.3,8L81.4,77.8z"/>
</g>
</svg>
