<?xml version="1.0" encoding="utf-8"?>
<!-- Generator: Adobe Illustrator 22.1.0, SVG Export Plug-In . SVG Version: 6.00 Build 0)  -->
<svg version="1.1" xmlns="http://www.w3.org/2000/svg" xmlns:xlink="http://www.w3.org/1999/xlink" x="0px" y="0px"
	 viewBox="0 0 150 150" style="enable-background:new 0 0 150 150;" xml:space="preserve">
<style type="text/css">
	.st0{display:none;}
	.st1{display:inline;fill:#1B8EE2;}
	.st2{fill:#FFFFFF;}
	.st3{fill:#575656;}
	.st4{display:inline;}
	.st5{stroke:#000000;stroke-miterlimit:10;}
	.st6{display:inline;stroke:#000000;stroke-width:1.7521;stroke-miterlimit:10;}
	.st7{display:inline;stroke:#000000;stroke-width:1.5192;stroke-miterlimit:10;}
	.st8{display:inline;fill:none;stroke:#000000;stroke-width:4.7;stroke-linecap:round;stroke-linejoin:round;stroke-miterlimit:10;}
	.st9{display:inline;stroke:#000000;stroke-width:0.741;stroke-miterlimit:10;}
</style>
<g id="svg5038" inkscape:export-filename="/Users/Danee/Documents/Trabajo 2link/Iconos app/Iconos definitivo/Salir.png" inkscape:export-xdpi="600" inkscape:export-ydpi="600" inkscape:version="0.91 r13725" sodipodi:docname="TPV.svg" xmlns:cc="http://creativecommons.org/ns#" xmlns:dc="http://purl.org/dc/elements/1.1/" xmlns:inkscape="http://www.inkscape.org/namespaces/inkscape" xmlns:rdf="http://www.w3.org/1999/02/22-rdf-syntax-ns#" xmlns:sodipodi="http://sodipodi.sourceforge.net/DTD/sodipodi-0.dtd" xmlns:svg="http://www.w3.org/2000/svg">
	<path class="st3" d="M84.2,52.8l-5.1,20.4h-5.8V55h1.8c1,0,1.8-0.8,1.8-1.8v0c0-1-0.8-1.8-1.8-1.8h-3.6c-1,0-1.8,0.8-1.8,1.8v9.1
		h-3.6v-9.1c0-1-0.8-1.8-1.8-1.8l0,0c-1,0-1.8,0.8-1.8,1.8v5.4H49.7c-1,0-1.8,0.8-1.8,1.8v27.2h-2.1c-1,0-1.8,0.8-1.8,1.8v0
		c0,1,0.8,1.8,1.8,1.8h20.2V73.2h3.6l0,19.8c0,2.8,2,5.3,4.8,5.6c2.6,0.3,5-1.3,5.8-3.6h12.2c1.4,2.4,4.1,3.9,7.1,3.6
		c3.7-0.4,6.5-3.7,6.5-7.5c0-8.9,0-31.3,0-37.8c0-1-0.8-1.8-1.8-1.8H86C85.2,51.4,84.4,52,84.2,52.8z M51.5,62.3h3.6v3.6h3.6v-3.6
		h3.6v10.9H51.5V62.3z M51.5,87.7V76.8h3.6v3.6h3.6v-3.6h3.6v10.9H51.5z M66.1,69.6v-3.6h3.6v3.6H66.1z M75.1,95
		c-1,0-1.8-0.8-1.8-1.8s0.8-1.8,1.8-1.8c1,0,1.8,0.8,1.8,1.8S76.1,95,75.1,95z M91.4,91.3H80.3c-0.7-2.1-2.8-3.6-5.1-3.6
		c-0.6,0-1.2,0.1-1.8,0.3V76.8h17.1l7.3-7.3h4.7V85c-1.1-0.6-2.3-1-3.6-1C94.7,84.1,91.4,87.3,91.4,91.3z M98.7,95
		c-2,0-3.6-1.6-3.6-3.6c0-2,1.6-3.6,3.6-3.6c2,0,3.6,1.6,3.6,3.6C102.3,93.3,100.7,95,98.7,95z M98.7,65.9v-5.4c0-1-0.8-1.8-1.8-1.8
		h0c-1,0-1.8,0.8-1.8,1.8V67l-6.2,6.2h-6L87.4,55h14.9v10.9H98.7z"/>
</g>
<g id="Capa_2" class="st0">
</g>
</svg>
