<svg width="70" height="70" viewBox="0 0 70 70" fill="none" xmlns="http://www.w3.org/2000/svg">
<path d="M58.3332 23.3334H49.5832V11.6667H8.74984C5.5415 11.6667 2.9165 14.2917 2.9165 17.5001V49.5834H8.74984C8.74984 54.4251 12.6582 58.3334 17.4998 58.3334C22.3415 58.3334 26.2498 54.4251 26.2498 49.5834H43.7498C43.7498 54.4251 47.6582 58.3334 52.4998 58.3334C57.3415 58.3334 61.2498 54.4251 61.2498 49.5834H67.0832V35.0001L58.3332 23.3334ZM17.4998 53.9584C15.079 53.9584 13.1248 52.0042 13.1248 49.5834C13.1248 47.1626 15.079 45.2084 17.4998 45.2084C19.9207 45.2084 21.8748 47.1626 21.8748 49.5834C21.8748 52.0042 19.9207 53.9584 17.4998 53.9584ZM56.8748 27.7084L62.5915 35.0001H49.5832V27.7084H56.8748ZM52.4998 53.9584C50.079 53.9584 48.1248 52.0042 48.1248 49.5834C48.1248 47.1626 50.079 45.2084 52.4998 45.2084C54.9207 45.2084 56.8748 47.1626 56.8748 49.5834C56.8748 52.0042 54.9207 53.9584 52.4998 53.9584Z" fill="#F39200"/>
</svg>
