<svg width="70" height="70" viewBox="0 0 70 70" fill="none" xmlns="http://www.w3.org/2000/svg">
<path d="M50.1957 26.2501L37.4207 7.11672C36.8665 6.30006 35.9332 5.89172 34.9998 5.89172C34.0665 5.89172 33.1332 6.30006 32.579 7.14589L19.804 26.2501H5.83317C4.229 26.2501 2.9165 27.5626 2.9165 29.1667C2.9165 29.4292 2.94567 29.6917 3.03317 29.9542L10.4415 56.9917C11.1123 59.4417 13.3582 61.2501 16.0415 61.2501H53.9582C56.6415 61.2501 58.8873 59.4417 59.5873 56.9917L66.9957 29.9542L67.0832 29.1667C67.0832 27.5626 65.7707 26.2501 64.1665 26.2501H50.1957ZM26.2498 26.2501L34.9998 13.4167L43.7498 26.2501H26.2498ZM34.9998 49.5834C31.7915 49.5834 29.1665 46.9584 29.1665 43.7501C29.1665 40.5417 31.7915 37.9167 34.9998 37.9167C38.2082 37.9167 40.8332 40.5417 40.8332 43.7501C40.8332 46.9584 38.2082 49.5834 34.9998 49.5834Z" fill="#F39200"/>
</svg>
