<svg width="159" height="77" viewBox="0 0 159 77" fill="none" xmlns="http://www.w3.org/2000/svg">
<path d="M158.59 5.3482C158.59 6.76039 157.489 7.86583 156.061 7.86583C154.645 7.86583 153.521 6.76039 153.521 5.3482C153.521 3.96494 154.651 2.8595 156.061 2.8595C157.495 2.8595 158.59 3.96494 158.59 5.3482ZM154.152 5.3482C154.152 6.45364 154.966 7.33916 156.079 7.33916C157.162 7.33916 157.959 6.45943 157.959 5.36556C157.959 4.26011 157.162 3.36302 156.067 3.36302C154.966 3.36302 154.152 4.25433 154.152 5.3482ZM155.672 6.65621H155.098V4.16751C155.322 4.12121 155.637 4.09227 156.044 4.09227C156.509 4.09227 156.721 4.16751 156.904 4.27169C157.042 4.37587 157.145 4.57844 157.145 4.82152C157.145 5.09354 156.933 5.30768 156.635 5.40029V5.42922C156.876 5.52183 157.013 5.70124 157.088 6.03693C157.162 6.41892 157.208 6.56939 157.271 6.65621H156.652C156.577 6.56361 156.532 6.33789 156.457 6.0485C156.411 5.77648 156.262 5.65494 155.947 5.65494H155.677V6.65621H155.672ZM155.689 5.24402H155.958C156.274 5.24402 156.532 5.13984 156.532 4.87939C156.532 4.65368 156.365 4.49741 156.004 4.49741C155.855 4.49741 155.746 4.51477 155.689 4.52635V5.24402Z" fill="#F39200"/>
<path d="M120.225 14.8168C120.225 19.4238 123.924 23.1569 128.488 23.1569C133.052 23.1569 136.75 19.4238 136.75 14.8168C136.75 10.2099 133.052 6.47681 128.488 6.47681C123.924 6.47681 120.225 10.2156 120.225 14.8168Z" fill="#F39200"/>
<path d="M113.58 38.6099C113.58 46.2612 119.721 52.4598 127.301 52.4598C134.881 52.4598 141.022 46.2554 141.022 38.6099C141.022 30.9644 134.881 24.76 127.301 24.76C119.721 24.76 113.58 30.9586 113.58 38.6099Z" fill="#F39200"/>
<path d="M133.373 34.5875C131.297 34.5875 129.612 32.886 129.612 30.7908C129.612 28.6957 131.292 26.9941 133.373 26.9941C139.869 26.9941 145.156 20.6103 145.156 12.7564C145.156 10.6613 146.842 8.95972 148.917 8.95972C150.993 8.95972 152.678 10.6613 152.678 12.7564C152.678 24.8006 144.015 34.5875 133.373 34.5875Z" fill="#F39200"/>
<path d="M133.373 42.6902C131.297 42.6902 129.612 44.386 129.612 46.4869C129.612 48.582 131.292 50.2836 133.373 50.2836C139.869 50.2836 145.156 56.6674 145.156 64.5213C145.156 66.6164 146.842 68.318 148.917 68.318C150.993 68.318 152.678 66.6164 152.678 64.5213C152.678 52.4829 144.015 42.6902 133.373 42.6902Z" fill="#F39200"/>
<path d="M108.804 67.0332C106.992 67.0332 105.157 66.8248 103.34 66.3965C101.315 65.9277 100.054 63.8847 100.524 61.8416C100.994 59.7986 103.007 58.5253 105.037 58.9999C108.798 59.8796 112.611 59.434 115.759 57.744C118.735 56.1466 120.747 53.6173 121.435 50.6193C121.9 48.5763 123.924 47.303 125.942 47.7776C127.966 48.2522 129.222 50.2894 128.757 52.3325C127.57 57.5009 124.21 61.8069 119.285 64.4461C116.097 66.1592 112.496 67.0332 108.804 67.0332Z" fill="#F39200"/>
<path d="M117.427 9.33009C118.586 11.7088 122.84 11.9982 126.94 9.97252C131.034 7.94683 133.419 4.37584 132.266 1.99132C131.114 -0.387412 126.854 -0.676795 122.76 1.34889C118.654 3.37457 116.269 6.95136 117.427 9.33009Z" fill="#F39200"/>
<path d="M124.05 11.3384C124.795 12.6753 128.625 11.9229 132.599 9.65418C136.572 7.3912 139.181 4.46843 138.436 3.13147C137.685 1.79452 133.86 2.54692 129.887 4.81569C125.913 7.08445 123.299 10.0014 124.05 11.3384Z" fill="#F39200"/>
<path d="M119.228 37.8401L108.683 70.309L99.6469 76.9416C99.6469 76.9416 93.9992 77.2889 95.8798 67.1663C97.7662 57.0436 105.295 32.9553 119.228 37.8401Z" fill="#09458E"/>
<path d="M0 76.5886L7.22453 55.4925C1.10662 54.6475 -0.882999 51.1228 1.24423 44.9126L6.66836 29.0718H16.2667L10.8425 44.9126C10.3494 46.348 10.3953 47.5865 10.9801 48.6167C11.565 49.6527 12.5111 50.1678 13.8126 50.1678C15.1543 50.1678 16.4731 49.6527 17.7689 48.6167C19.0647 47.5808 19.9535 46.348 20.4466 44.9126L25.8707 29.0718H35.4174L29.9933 44.9126C27.8661 51.1228 23.474 54.6475 16.8228 55.4925L9.59831 76.5886H0Z" fill="white"/>
<path d="M24.2653 76.5886L40.5377 29.0718H64.5162L62.7158 34.3328H48.3413L42.9172 50.1678H52.5212L50.6979 55.4925H41.0938L35.6697 71.3334H50.0442L48.2438 76.5886H24.2653Z" fill="white"/>
<path d="M52.3091 76.5886L68.5815 29.0718H87.7896C90.3927 29.0718 92.2791 30.1193 93.4431 32.2087C94.6013 34.298 94.693 36.781 93.7125 39.6516L92.8181 42.2503C91.7459 45.3756 90.1175 47.8123 87.9272 49.5659C85.7369 51.3196 82.9789 52.4077 79.6534 52.8302C82.8356 52.8302 84.8539 53.8951 85.714 56.0308C86.574 58.1664 86.5281 60.6262 85.5706 63.41L84.6819 66.0087C83.7014 68.8794 81.9125 71.3623 79.3151 73.4516C76.7234 75.541 74.1203 76.5886 71.5114 76.5886H52.3091ZM63.7135 71.3334H68.4897C69.8314 71.3334 71.1502 70.8067 72.4518 69.7475C73.7533 68.6942 74.6478 67.444 75.1409 66.0087L76.9413 60.7477C78.1397 57.2404 77.1305 55.4925 73.9081 55.4925H69.1377L63.7135 71.3334ZM70.961 50.1736H75.7315C77.0732 50.1736 78.3919 49.6585 79.682 48.6225C80.9779 47.5865 81.8666 46.3538 82.3597 44.9184L84.1601 39.6632C84.6647 38.1874 84.6245 36.9314 84.0397 35.8954C83.4549 34.8594 82.4916 34.3443 81.1499 34.3443H76.3794L70.961 50.1736Z" fill="white"/>
<path d="M111.057 29.0718H120.661C123.264 29.0718 125.151 30.1193 126.315 32.2087C127.479 34.298 127.565 36.781 126.584 39.6516L117.559 66.0087C116.573 68.8794 114.784 71.3623 112.192 73.4516C109.595 75.541 106.998 76.5886 104.389 76.5886H94.7847C92.1758 76.5886 90.278 75.5526 89.0911 73.4864C87.9042 71.4202 87.8067 68.9257 88.8044 66.0087L97.8293 39.6516C98.827 36.7347 100.627 34.246 103.236 32.174C105.845 30.1078 108.454 29.0718 111.057 29.0718ZM107.439 39.6516L98.4142 66.0087C97.9211 67.444 97.9612 68.6884 98.5403 69.7475C99.1194 70.8009 100.06 71.3334 101.361 71.3334C102.703 71.3334 104.022 70.8067 105.323 69.7475C106.625 68.6942 107.519 67.444 108.012 66.0087L117.037 39.6516C117.542 38.1758 117.502 36.9199 116.917 35.8839C116.332 34.8479 115.369 34.3328 114.027 34.3328C112.726 34.3328 111.424 34.8479 110.134 35.8839C108.844 36.9199 107.944 38.1758 107.439 39.6516Z" fill="white"/>
<path d="M112.382 53.2816C110.598 53.2816 109.016 51.9968 108.689 50.1678C106.556 38.3263 113.339 27.1329 123.815 25.2114C125.862 24.8352 127.811 26.2069 128.184 28.2673C128.557 30.3277 127.203 32.3071 125.156 32.6775C118.763 33.8524 114.692 41.087 116.086 48.8077C116.458 50.8682 115.099 52.8475 113.058 53.218C112.835 53.2643 112.605 53.2816 112.382 53.2816Z" fill="#F39106"/>
</svg>
